<?xml version="1.0" encoding="UTF-8"?>
<svg xmlns="http://www.w3.org/2000/svg" viewBox="0 0 165.08 171.63">
  <defs>
    <style>
      .cls-1 {
        opacity: .46;
      }

      .cls-1, .cls-2 {
        mix-blend-mode: screen;
      }

      .cls-1, .cls-2, .cls-3 {
        fill: #eefcfa;
      }

      .cls-2 {
        opacity: .24;
      }

      .cls-4 {
        opacity: .45;
      }

      .cls-4, .cls-5 {
        mix-blend-mode: multiply;
      }

      .cls-5 {
        opacity: .39;
      }

      .cls-6 {
        fill: #c9dfdd;
      }

      .cls-7 {
        fill: #fed073;
      }

      .cls-8 {
        fill: #ebe8d8;
      }

      .cls-9 {
        fill: #eef2f2;
      }

      .cls-10, .cls-11 {
        fill: #fef4b7;
      }

      .cls-12 {
        fill: #fffaf0;
      }

      .cls-13 {
        isolation: isolate;
      }

      .cls-14 {
        fill: #54821f;
      }

      .cls-15 {
        fill: #ffc004;
      }

      .cls-16 {
        fill: #cdf;
      }

      .cls-17 {
        fill: #f9eaa5;
      }

      .cls-18 {
        fill: #b2d1ce;
      }

      .cls-19 {
        fill: #fefbea;
      }

      .cls-20 {
        fill: #a4895a;
      }

      .cls-21 {
        fill: #a1b8e6;
      }

      .cls-22 {
        fill: #f7d79f;
      }

      .cls-23 {
        fill: #669d25;
      }

      .cls-24 {
        fill: #917950;
      }

      .cls-25 {
        fill: #ece7e3;
      }

      .cls-11 {
        opacity: .52;
      }

      .cls-26 {
        fill: #ffc9d0;
      }
    </style>
  </defs>
  <g class="cls-13">
    <g id="Layer_2">
      <g id="OBJECTS">
        <g>
          <g>
            <path class="cls-9" d="M111.8,142.34c-8.7-1.55-19.16-2.46-30.41-2.46-30.28,0-54.82,6.56-54.82,14.65s23.72,14.42,53.28,14.64c8.7,1.55,19.16,2.46,30.41,2.46,30.28,0,54.82-6.56,54.82-14.65s-23.72-14.42-53.28-14.64Z"/>
            <g>
              <g>
                <path class="cls-6" d="M117.73,39.87l-3.24,47.25c-.14,2.04-.79,4-1.91,5.71l-2.72,4.19-4.06,61.83c0,2.39-12.73,4.33-28.41,4.33-7.84,0-14.95-.49-20.08-1.27-5.14-.78-8.32-1.86-8.32-3.06l-4.06-61.83-2.72-4.19c-1.11-1.71-1.77-3.67-1.91-5.71l-3.24-47.25c.55,2.96,18.39,5.34,40.33,5.34s39.78-2.37,40.34-5.34Z"/>
                <path class="cls-10" d="M112.62,59.7l-.03.48c-1.03,2.89-16.4,5.17-35.19,5.17s-34.26-2.3-35.19-5.2l-.03-.41h0c.02-.09.04-.18.08-.26,1.29-2.85,16.52-5.1,35.14-5.1s33.86,2.24,35.15,5.1c.04.07.07.15.07.22Z"/>
                <path class="cls-17" d="M112.59,60.18l-1.82,26.69c-.09,1.39-.55,2.76-1.31,3.93l-3.25,5.01-4.02,61.28c-2.86.97-11.45,2.36-24.79,2.36-7.41,0-14.33-.44-19.52-1.22-2.81-.43-4.4-.86-5.25-1.15l-4.02-61.26-3.25-5.01c-.76-1.17-1.22-2.53-1.31-3.94l-1.83-26.7c.86,2.66,13.93,4.82,30.68,5.15,1.48.03,2.98.05,4.52.05.4,0,.8,0,1.2,0,18.25-.08,32.99-2.34,34-5.16Z"/>
                <path class="cls-22" d="M102.18,156.98c0,1.47-11.09,2.66-24.78,2.66s-24.78-1.19-24.78-2.66,11.09-2.66,24.78-2.66,24.78,1.19,24.78,2.66Z"/>
                <path class="cls-6" d="M117.74,39.73s0,.09,0,.14c-.55,2.96-18.4,5.34-40.34,5.34s-39.78-2.37-40.33-5.34c0-.05,0-.09,0-.14,0-3.03,18.05-5.49,40.34-5.49s40.35,2.46,40.35,5.49Z"/>
                <path class="cls-18" d="M37.65,40.67c3.25-2.59,19.8-4.56,39.75-4.56s36.5,1.97,39.76,4.56c.33-.26.53-.53.58-.8,0-.05,0-.09,0-.14,0-3.03-18.06-5.49-40.35-5.49s-40.34,2.46-40.34,5.49c0,.05,0,.09,0,.14.05.27.25.54.58.8Z"/>
                <g>
                  <path class="cls-3" d="M58.25,161.9c-5.14-.78-8.32-1.86-8.32-3.06l-4.06-61.83-2.72-4.19c-1.11-1.71-1.77-3.67-1.91-5.71l-3.16-46.16c-.59-.35-.94-.72-1.01-1.09l3.24,47.25c.14,2.04.79,4,1.91,5.71l2.72,4.19,4.06,61.83c0,1.2,3.18,2.28,8.32,3.06,5.13.79,12.24,1.27,20.08,1.27.21,0,.42,0,.62,0-7.72-.01-14.71-.49-19.77-1.27Z"/>
                  <path class="cls-3" d="M78.33,45.21c19.17,0,35.21-1.81,39.33-4.25l.07-1.09c-.55,2.94-18.15,5.3-39.87,5.34.16,0,.31,0,.47,0Z"/>
                </g>
                <path class="cls-18" d="M115.58,41.5l-3,43.74c-.14,2.04-.79,4-1.91,5.71l-2.72,4.19-4.06,61.83c0,2.39-12.73,4.33-28.41,4.33-7.84,0-14.95-.49-20.08-1.27-2.79-.42-4.99-.93-6.43-1.5l.02.32c0,1.2,3.18,2.28,8.32,3.06,5.13.79,12.24,1.27,20.08,1.27,15.69,0,28.41-1.94,28.41-4.33l4.06-61.83,2.72-4.19c1.11-1.71,1.77-3.67,1.91-5.71l3.24-47.25c-.11.57-.86,1.12-2.15,1.63Z"/>
                <g class="cls-4">
                  <g>
                    <path class="cls-18" d="M104.77,91.66c1.93.25,4.03.56,5.57,1.86.23.23.51.55.55,1.02-.01.09,0,.51-.04.59-.76,1.6-2.64,1.96-4.14,2.44-1.49.38-3.01.58-4.53.66.72-.25,1.45-.45,2.17-.69,1.76-.55,4.77-1.47,5.64-2.58,0,.02.04-.67.03-.39-.04-.23-.42-.66-.83-.91-1.35-.87-2.9-1.39-4.41-1.99h0Z"/>
                    <path class="cls-18" d="M52.04,98.12c-2.16-.14-4.32-.49-6.31-1.4-.74-.39-1.51-.78-1.81-1.69-.37-2.44,4.29-3.17,6.11-3.37-1.73.81-4.1,1.25-5.22,2.84,0,.05-.02.09-.03.13v-.09s.04.38.04.38c1.36,1.58,4.96,2.33,7.22,3.2h0Z"/>
                  </g>
                </g>
                <g class="cls-5">
                  <path class="cls-18" d="M55.85,98.12c9.15.14,19.38.88,28.53,1.05.63-.01,1.27-.01,1.91,0-10.1,1.26-20.39.35-30.44-1.05h0Z"/>
                </g>
                <g>
                  <circle class="cls-7" cx="62.13" cy="143.81" r="1.47"/>
                  <path class="cls-7" d="M92.33,147.47c0,.81-.66,1.47-1.47,1.47s-1.47-.66-1.47-1.47.66-1.47,1.47-1.47,1.47.66,1.47,1.47Z"/>
                  <path class="cls-7" d="M54.98,111.26c0,.81-.66,1.47-1.47,1.47s-1.47-.66-1.47-1.47.66-1.47,1.47-1.47,1.47.66,1.47,1.47Z"/>
                  <path class="cls-7" d="M87.76,102.83c0,.81-.66,1.47-1.47,1.47s-1.47-.66-1.47-1.47.66-1.47,1.47-1.47,1.47.66,1.47,1.47Z"/>
                  <path class="cls-7" d="M88.63,78.96c0,.81-.66,1.47-1.47,1.47s-1.47-.66-1.47-1.47.66-1.47,1.47-1.47,1.47.66,1.47,1.47Z"/>
                  <path class="cls-7" d="M54.18,87.55c0,.81-.66,1.47-1.47,1.47s-1.47-.66-1.47-1.47.66-1.47,1.47-1.47,1.47.66,1.47,1.47Z"/>
                  <path class="cls-7" d="M69.65,134.58c0,.51-.41.92-.92.92s-.92-.41-.92-.92.41-.91.92-.91.92.41.92.91Z"/>
                  <path class="cls-7" d="M84.26,151.14c0,.51-.41.92-.92.92s-.92-.41-.92-.92.41-.92.92-.92.92.41.92.92Z"/>
                  <circle class="cls-7" cx="98.6" cy="138.16" r=".92"/>
                  <path class="cls-7" d="M81.92,124.15c0,.51-.41.92-.92.92s-.92-.41-.92-.92.41-.92.92-.92.92.41.92.92Z"/>
                  <path class="cls-7" d="M99.51,112.18c0,.51-.41.92-.92.92s-.92-.41-.92-.92.41-.92.92-.92.92.41.92.92Z"/>
                  <path class="cls-7" d="M76.12,90.75c0,.51-.41.92-.92.92s-.91-.41-.91-.92.41-.92.91-.92.92.41.92.92Z"/>
                  <path class="cls-7" d="M105.24,84.3c0,.51-.41.92-.92.92s-.92-.41-.92-.92.41-.92.92-.92.92.41.92.92Z"/>
                </g>
                <path class="cls-2" d="M80.04,163.15c3.57-.05,6.95-.2,10.01-.43-2.79-.21-5.33-.49-7.5-.82-5.14-.78-8.32-1.86-8.32-3.06l-4.06-61.83-2.72-4.19c-1.11-1.71-1.77-3.67-1.91-5.71l-2.9-42.29c-8.29-.44-15.23-1.24-19.79-2.27l3.05,44.55c.14,2.04.79,4,1.91,5.71l2.72,4.19,4.06,61.83c0,1.2,3.18,2.28,8.32,3.06,4.48.69,10.46,1.14,17.12,1.25Z"/>
                <path class="cls-1" d="M53.21,137.71h0c4.05,0,7.26-3.42,6.99-7.46l-2.18-33.23-2.72-4.19c-1.11-1.71-1.77-3.67-1.91-5.71l-2.97-43.31c-2.95-.36-5.5-.78-7.56-1.24l3.05,44.55c.14,2.04.79,4,1.91,5.71l2.72,4.19,2.67,40.69Z"/>
                <path class="cls-2" d="M103.43,43.91l-2.96,43.2c-.14,2.04-.79,4-1.91,5.71l-2.72,4.19-4.06,61.83c0,2.02-9.06,3.71-21.32,4.19,1.6.06,3.27.1,4.96.12,14.42-.21,25.71-2.05,25.71-4.31l4.06-61.83,2.72-4.19c1.11-1.71,1.77-3.67,1.91-5.71l3.07-44.78c-2.41.6-5.62,1.14-9.46,1.58Z"/>
                <path class="cls-8" d="M82.49,47.03l-3.9,18.31c-.39,0-.79,0-1.2,0-1.53,0-3.04-.02-4.52-.05-.05-.04-.07-.08-.11-.12l3.86-18.1h.77c1.73,0,3.43-.02,5.1-.05Z"/>
                <path class="cls-19" d="M92.22,1.37l-9.33,43.8-.4,1.87c-1.66.03-3.37.05-5.1.05h-.77l.39-1.87L86.62.19c0,.27,1.19.75,2.7,1.07,1.54.33,2.84.38,2.9.11Z"/>
                <path class="cls-26" d="M92.22,1.37c-.06.27-1.36.22-2.9-.11-1.51-.32-2.7-.79-2.7-1.07v-.02l5.6,1.2Z"/>
                <path class="cls-8" d="M92.22,1.37c-.06.27-1.36.22-2.9-.11-1.51-.32-2.7-.79-2.7-1.07v-.02c.06-.26,1.36-.22,2.91.11,1.54.34,2.75.81,2.69,1.08Z"/>
                <path class="cls-3" d="M117.65,40.08l-.14,2.09c-1.95,2.53-16.53,4.54-35.02,4.85-1.66.03-3.37.05-5.1.05h-.77c-20.5-.06-37.23-2.18-39.34-4.9l-.15-2.09c1.34,2.84,18.63,5.1,39.88,5.12h.37c1.86,0,3.7-.02,5.5-.05,18.83-.36,33.53-2.47,34.75-5.08Z"/>
              </g>
              <g>
                <path class="cls-23" d="M153.6,119.95c-18.63,2.45-18.64,11.91-18.94,12.53s-.88-3.45-.88-3.45c-4.81,7.97-3.98,12.93-3.98,12.93l-1.8-3.36c-3.01,5.22-1.41,13.22-1.41,13.22,0,0,9.82,3.58,16.18-3.07l-4.11-.04s9.17-3.27,13.2-9.65l-4.39.53c6.36-3.04,8.61-8.76,6.13-19.64Z"/>
                <g>
                  <path class="cls-14" d="M126.59,151.82c9.11-8.14,17.55-17.14,24.23-27.4,1.03-1.42,1.81-2.99,2.78-4.47-5.6,12.92-15.51,23.87-27.01,31.87h0Z"/>
                  <path class="cls-14" d="M138.66,148.71c-2.17-1.76-5.11-1.3-7.62-.78,0,0,.69-1.14.69-1.14.52-1.73-1.03-3.46-1.93-4.84,1.62.91,3.22,2.46,3.2,4.45-.02.33-.05.6-.25,1l-.66-.89c2.32-.54,5.4-.14,6.57,2.19h0Z"/>
                  <path class="cls-14" d="M148.1,139.51c-3.47-.74-6.9.8-10,2.19,0,0,.04-1.01.04-1.01.06-3.05-1.01-6.27-3.49-8.21,3.25,1.27,4.75,4.96,4.7,8.28,0,0-.86-.58-.86-.58,2.95-1.2,6.65-2.36,9.61-.67h0Z"/>
                  <path class="cls-14" d="M154.05,129.76c-1.42-.2-2.71.54-3.99,1.04-1.56.71-3.11,1.5-4.62,2.31,0,0-.02-.98-.02-.98-.19-3.25-.05-6.76-1.53-9.75.67.55,1.09,1.36,1.44,2.15.98,2.41,1.26,5.02,1.28,7.61,0,0-.88-.53-.88-.53,1.95-.98,3.98-1.81,6.15-2.11.72-.07,1.52-.11,2.16.27h0Z"/>
                </g>
              </g>
              <g>
                <path class="cls-23" d="M100.77,112.85c-8.06,16.97-.13,22.12.23,22.71.35.59-3.38-1.13-3.38-1.13,4.08,8.37,8.7,10.36,8.7,10.36l-3.8-.31c2.75,5.36,10.33,8.37,10.33,8.37,0,0,8.34-6.3,6.21-15.25l-2.26,3.43s2.23-9.47-.93-16.32l-1.94,3.97c.9-6.99-2.67-11.99-13.16-15.81Z"/>
                <g>
                  <path class="cls-14" d="M112.86,152.84c-1.88-12.07-4.86-24.05-9.85-35.23-.64-1.64-1.53-3.15-2.24-4.76,7.81,11.72,11.62,25.99,12.08,39.99h0Z"/>
                  <path class="cls-14" d="M116.8,141.02c-2.66.86-3.87,3.58-4.79,5.98,0,0-.58-1.2-.58-1.2-.8-1.01-2.36-1.05-3.59-1.06,0,0-1.52.05-1.52.05,1.64-.86,3.81-1.37,5.48-.27.26.2.48.36.71.76l-1.1.07c.81-2.24,2.81-4.61,5.4-4.32h0Z"/>
                  <path class="cls-14" d="M114.21,128.09c-2.51,2.51-3.08,6.23-3.59,9.58,0,0-.82-.58-.82-.58-2.53-1.71-5.82-2.56-8.79-1.53,2.83-2.04,6.75-1.3,9.5.56,0,0-.96.41-.96.41.6-3.13,1.63-6.87,4.66-8.43h0Z"/>
                  <path class="cls-14" d="M109.26,117.8c-.94,1.08-1.02,2.57-1.29,3.91-.25,1.69-.43,3.43-.57,5.13,0,0-.84-.51-.84-.51-2.84-1.61-5.7-3.64-9.02-4.02.83-.26,1.73-.18,2.58-.04,2.56.49,4.9,1.67,7.08,3.06,0,0-.92.45-.92.45.24-2.17.64-4.33,1.57-6.31.33-.64.73-1.34,1.4-1.67h0Z"/>
                </g>
              </g>
              <g>
                <g>
                  <path class="cls-7" d="M133.27,117.98c-.42-.73-.9-1.42-1.46-2.08-2.9-3.45-8.24-1.73-10.79,1.23-1.7,1.97-1.96,4.53-2.61,6.95-.92,3.37-2.71,6.49-5.51,8.65-1.89,1.46-4.13,2.41-6.45,2.94-12.7,2.9-25.89-5.36-28.41-8.31-2.52-2.94-5.74.34-5.74.34,0,0-3.67,17.87,18.3,26.68,21.97,8.81,43.71-5.16,44.99-21.87.37-4.85.14-10.22-2.34-14.52Z"/>
                  <path class="cls-11" d="M72.99,129.91s3.22-3.28,5.74-.34,15.71,11.21,28.41,8.31c2.32-.53,4.56-1.48,6.45-2.94,2.79-2.16,4.59-5.28,5.51-8.65.66-2.42.92-4.98,2.61-6.95,2.55-2.95,7.89-4.67,10.79-1.23.55.66,1.04,1.36,1.46,2.08.45.79.81,1.63,1.13,2.48-.39-1.65-.95-3.24-1.8-4.7-.42-.73-.9-1.42-1.46-2.08-2.9-3.45-8.24-1.73-10.79,1.23-1.7,1.97-1.96,4.53-2.61,6.95-.92,3.37-2.71,6.49-5.51,8.65-1.89,1.46-4.13,2.41-6.45,2.94-12.7,2.9-25.89-5.36-28.41-8.31-2.52-2.94-5.74.34-5.74.34,0,0-.97,4.78,1.11,10.6-1.17-4.77-.44-8.38-.44-8.38Z"/>
                  <path class="cls-15" d="M134.41,120.27c.25,2.05.31,4.53.08,7.56-1.28,16.71-23.03,30.68-44.99,21.87-10.65-4.27-15.27-10.67-17.2-16.13.79,6.01,4.42,15.21,18.33,20.79,21.97,8.81,43.71-5.16,44.99-21.87.45-5.87-.19-9.71-1.2-12.23Z"/>
                  <path class="cls-24" d="M76.88,126.42s-.97,2.78-4.56,1.26c0,0,2.27-2.58,4.56-1.26Z"/>
                  <path class="cls-15" d="M74.68,129.51c6.83,10.36,19.12,17.24,31.63,15.9,14.38-.6,21.12-12.17,20.5-25.57.76,6.2-.21,12.88-3.83,18.26-3.63,5.44-10.22,8.22-16.57,8.59-12.83,1.24-25.6-5.95-31.74-17.17h0Z"/>
                  <g>
                    <path class="cls-15" d="M77.46,138.48c.01.35-.38.64-.87.65-.49.02-.9-.25-.91-.6-.01-.35.38-.64.87-.65.49-.02.9.25.91.6Z"/>
                    <path class="cls-15" d="M97.46,140c.01.35-.38.64-.87.65s-.9-.25-.91-.6c-.01-.35.38-.64.87-.65s.9.25.91.6Z"/>
                    <path class="cls-15" d="M121.89,122.15c.01.35-.38.64-.87.65-.49.02-.9-.25-.91-.6-.01-.35.38-.64.87-.65.49-.01.9.25.91.6Z"/>
                    <path class="cls-15" d="M117.04,147.87c.01.35-.38.64-.87.65-.49.02-.9-.25-.91-.6-.01-.35.38-.64.87-.65.49-.02.9.25.91.6Z"/>
                    <path class="cls-15" d="M81.38,142.09c0,.26-.28.48-.65.49s-.67-.19-.68-.45c0-.26.28-.48.65-.49.37-.01.67.19.68.45Z"/>
                    <path class="cls-15" d="M101.98,142.39c0,.26-.28.48-.65.49-.37.01-.67-.19-.68-.45,0-.26.28-.48.65-.49.37-.01.67.19.68.45Z"/>
                    <path class="cls-15" d="M125.02,126.03c0,.26-.28.48-.65.49-.37.01-.67-.19-.68-.45,0-.26.28-.48.65-.49.37-.01.67.19.68.45Z"/>
                    <path class="cls-15" d="M132.86,131.31c0,.26-.28.48-.65.49-.37.01-.67-.19-.68-.45,0-.26.28-.48.65-.49.37-.01.67.19.68.45Z"/>
                    <path class="cls-15" d="M84.58,137.34c0,.26-.28.48-.65.49-.37.01-.67-.19-.68-.45,0-.26.28-.48.65-.49.37-.01.67.19.68.45Z"/>
                    <path class="cls-15" d="M80.39,139.74c0,.08-.09.15-.21.15s-.21-.06-.22-.14c0-.08.09-.15.21-.15.12,0,.21.06.22.14Z"/>
                    <path class="cls-15" d="M85.04,145.56c0,.08-.09.15-.21.15-.12,0-.21-.06-.22-.14,0-.08.09-.15.21-.15.12,0,.21.06.22.14Z"/>
                    <path class="cls-15" d="M102.12,139.85c0,.08-.09.15-.21.15-.12,0-.21-.06-.22-.14,0-.08.09-.15.21-.15.12,0,.21.06.22.14Z"/>
                    <path class="cls-15" d="M120.43,125.7c0,.08-.09.15-.21.15-.12,0-.21-.06-.22-.14,0-.08.09-.15.21-.15.12,0,.21.06.22.14Z"/>
                    <path class="cls-15" d="M128.01,121.96c0,.08-.09.15-.21.15-.12,0-.21-.06-.22-.14s.09-.15.21-.15c.12,0,.21.06.22.14Z"/>
                    <path class="cls-15" d="M112.16,148.02c0,.08-.09.15-.21.15-.12,0-.21-.06-.22-.14,0-.08.09-.15.21-.15.12,0,.21.06.22.14Z"/>
                    <path class="cls-15" d="M120.74,146.18c0,.08-.09.15-.21.15-.12,0-.21-.06-.22-.14,0-.08.09-.15.21-.15.12,0,.21.06.22.14Z"/>
                    <path class="cls-15" d="M88.99,137.35c0,.08-.09.15-.21.15-.12,0-.21-.06-.22-.14,0-.08.09-.15.21-.15.12,0,.21.06.22.14Z"/>
                  </g>
                </g>
                <g>
                  <path class="cls-24" d="M122.26,119.31s.17-3.86-1.99-6.75c0,0,.87-2.68,3.95-4.08l3.87,6.98s-.86,4.68-5.83,3.85Z"/>
                  <path class="cls-7" d="M132.1,115.16c-.68-.49-1.41-.92-2.19-1.29-4.07-1.93-8.22,1.85-9.31,5.59-.73,2.5.1,4.93.5,7.41.56,3.45.23,7.03-1.42,10.15-1.12,2.11-2.76,3.9-4.65,5.35-10.35,7.9-25.78,5.85-29.29,4.22s-5.08,2.69-5.08,2.69c0,0,4.07,17.79,27.72,16.69,23.64-1.09,37.64-22.82,31.88-38.56-1.67-4.57-4.11-9.35-8.15-12.24Z"/>
                  <path class="cls-11" d="M82.19,151.01s1.57-4.32,5.08-2.69c3.51,1.63,18.94,3.69,29.29-4.22,1.89-1.44,3.53-3.23,4.65-5.35,1.65-3.12,1.99-6.71,1.42-10.15-.41-2.48-1.23-4.91-.5-7.41,1.09-3.74,5.24-7.52,9.31-5.59.78.37,1.51.8,2.19,1.29.74.53,1.41,1.14,2.05,1.79-1.04-1.34-2.21-2.55-3.59-3.54-.68-.49-1.41-.92-2.19-1.29-4.07-1.93-8.22,1.85-9.31,5.59-.73,2.5.1,4.93.5,7.41.56,3.45.23,7.03-1.42,10.15-1.12,2.11-2.76,3.9-4.65,5.35-10.35,7.9-25.78,5.85-29.29,4.22-3.51-1.63-5.08,2.69-5.08,2.69,0,0,1.1,4.75,5.41,9.19-3.05-3.85-3.87-7.44-3.87-7.44Z"/>
                  <path class="cls-15" d="M134.09,116.78c1.08,1.76,2.16,4,3.21,6.85,5.76,15.74-8.23,37.47-31.88,38.56-11.46.53-18.31-3.38-22.34-7.54,3.21,5.14,10.33,12.01,25.3,11.32,23.64-1.09,37.64-22.82,31.88-38.56-2.02-5.53-4.19-8.75-6.16-10.63Z"/>
                  <path class="cls-24" d="M84.29,146.23s.27,2.93-3.63,3.04c0,0,.99-3.28,3.63-3.04Z"/>
                  <path class="cls-15" d="M83.56,149.95c10.51,6.59,24.55,7.76,35.38,1.35,12.84-6.51,14.18-19.83,8.05-31.77,3.26,5.33,5.15,11.8,4.09,18.21-1.05,6.46-5.89,11.72-11.52,14.69-11.16,6.45-25.76,5.2-36-2.47h0Z"/>
                  <g>
                    <path class="cls-15" d="M89.81,156.96c.15.31-.08.74-.52.96-.44.22-.93.14-1.08-.17s.08-.74.52-.96.93-.14,1.08.17Z"/>
                    <path class="cls-15" d="M108.65,150.05c.15.31-.08.74-.52.96-.44.22-.93.14-1.08-.17-.15-.31.08-.74.52-.96.44-.22.93-.14,1.08.17Z"/>
                    <path class="cls-15" d="M123.48,123.68c.15.31-.08.74-.52.96-.44.22-.93.14-1.08-.17-.15-.31.08-.74.52-.96.44-.22.93-.14,1.08.17Z"/>
                    <path class="cls-15" d="M129.73,149.09c.15.31-.08.74-.52.96s-.93.14-1.08-.17c-.15-.31.08-.74.52-.96.44-.22.93-.14,1.08.17Z"/>
                    <path class="cls-15" d="M94.88,158.62c.11.23-.06.55-.39.72-.33.16-.69.11-.81-.12-.11-.23.06-.55.39-.72.33-.16.69-.11.81.12Z"/>
                    <path class="cls-15" d="M113.75,150.35c.11.23-.06.55-.39.72-.33.16-.69.11-.81-.12-.11-.23.06-.55.39-.72.33-.16.69-.11.81.12Z"/>
                    <path class="cls-15" d="M127.93,125.91c.11.23-.06.55-.39.72-.33.16-.69.11-.81-.12-.11-.23.06-.55.39-.72.33-.16.69-.11.81.12Z"/>
                    <path class="cls-15" d="M137.26,127.47c.11.23-.06.55-.39.72-.33.16-.69.11-.81-.12-.11-.23.06-.55.39-.72.33-.16.69-.11.81.12Z"/>
                    <path class="cls-15" d="M95.82,152.97c.11.23-.06.55-.39.72-.33.16-.69.11-.81-.12-.11-.23.06-.55.39-.72.33-.16.69-.11.81.12Z"/>
                    <path class="cls-15" d="M93.01,156.89c.04.07-.02.17-.12.23-.1.05-.22.03-.26-.04-.04-.07.02-.17.12-.23.1-.05.22-.03.26.04Z"/>
                    <path class="cls-15" d="M99.65,160.26c.04.07-.02.17-.12.23-.1.05-.22.03-.26-.04-.04-.07.02-.17.12-.23.1-.05.22-.03.25.04Z"/>
                    <path class="cls-15" d="M112.82,147.99c.04.07-.02.17-.12.23-.1.05-.22.03-.25-.04-.04-.07.02-.17.12-.23.1-.05.22-.03.25.04Z"/>
                    <path class="cls-15" d="M123.61,127.52c.04.07-.02.17-.12.23-.1.05-.22.03-.25-.04-.04-.07.02-.17.12-.23s.22-.03.25.04Z"/>
                    <path class="cls-15" d="M128.97,120.97c.04.07-.02.17-.12.23-.1.05-.22.03-.25-.04-.04-.07.02-.17.12-.23.1-.05.22-.03.25.04Z"/>
                    <path class="cls-15" d="M125.35,151.25c.04.07-.02.17-.12.23-.1.05-.22.03-.25-.04-.04-.07.02-.17.12-.23.1-.05.22-.03.25.04Z"/>
                    <path class="cls-15" d="M132.39,146.02c.04.07-.02.17-.12.23-.1.05-.22.03-.25-.04-.04-.07.02-.17.12-.23.1-.05.22-.03.25.04Z"/>
                    <path class="cls-15" d="M99.84,151.15c.04.07-.02.17-.12.23s-.22.03-.25-.04c-.04-.07.02-.17.12-.23.1-.05.22-.03.25.04Z"/>
                  </g>
                  <path class="cls-20" d="M120.27,112.56c-.1.51,3.17-1.06,3.95-4.08,0,0-3.43,1.37-3.95,4.08Z"/>
                </g>
              </g>
            </g>
          </g>
          <g>
            <path class="cls-21" d="M70.99,142.42c0,6.58-7.27,26.63-35.48,26.63C5.7,169.04,0,149,0,142.42s15.89-11.95,35.5-11.95,35.48,5.35,35.48,11.95Z"/>
            <path class="cls-16" d="M35.5,130.46c-19.61,0-35.5,5.35-35.5,11.95s15.89,11.94,35.5,11.94,35.49-5.35,35.49-11.94-15.88-11.95-35.49-11.95ZM66.76,143.29c-3.09,2.68-13.36,6.86-31.26,6.86s-28.07-4.14-31.21-6.82c-.52-.44-.52-1.39,0-1.84,3.14-2.67,13.41-6.83,31.21-6.83s28.17,4.2,31.26,6.88c.49.4.49,1.32,0,1.75Z"/>
            <path class="cls-25" d="M66.76,143.29c-3.09,2.68-13.36,6.86-31.26,6.86s-28.07-4.14-31.21-6.82c-.52-.44-.52-1.39,0-1.84,3.14-2.67,13.41-6.83,31.21-6.83s28.17,4.2,31.26,6.88c.49.4.49,1.32,0,1.75Z"/>
            <g>
              <path class="cls-12" d="M66.94,141.95c-.46,1.32-1.82,2.51-3.31,3.14-6.25,2.68-12.79,3.87-19.52,4.56-7.85.81-15.77.59-23.57-.56-4.61-.68-9.64-1.35-13.65-3.87-3.26-2.04-4.18-5.99-1.16-8.85.02-.02.05-.04.07-.06,1.43-1.32,3.23-1.8,4.96-2.24-.52-.81-.75-1.69-.75-2.56,0-.63.12-1.26.32-1.86.44-1.35,1.3-2.57,2.23-3.41,2.22-2.01,5.49-2.41,8.16-2.62.03,0,.06,0,.09,0-.45-1.01-.48-2.29-.09-3.33.17-.45.42-.86.71-1.22,1.17-1.45,3.15-2.2,4.61-2.4,1.77-.25,3.77-.23,4.46-2.8.24-.89.15-1.92-.25-2.72-.22-.44-.54-.91-.43-1.41.08-.36.38-.58.67-.63s.59.05.88.15c3.85,1.36,7.73,2.95,11.09,5.66.38.3.75.61,1.11.95.27.25.53.5.78.78.6.65,1.13,1.38,1.47,2.26.49,1.26.52,2.88-.19,3.97,3.75-.97,8.98.83,10.03,3.28.11.27.21.55.29.84.26,1.02.27,2.12.04,3.15,0,0,0,.01,0,.02,2.29.62,4.83,1.69,6.43,3.5.3.34.57.71.8,1.11.56.96.56,1.87.22,2.63.65.29,1.3.55,1.88.91.05.03.1.07.15.1,1.59,1.07,1.89,2.35,1.47,3.53Z"/>
              <path class="cls-25" d="M66.94,141.95c-.46,1.32-1.82,2.51-3.31,3.14-6.25,2.68-12.79,3.87-19.52,4.56-7.85.81-15.77.59-23.57-.56-4.61-.68-9.64-1.35-13.65-3.87-3.26-2.04-4.18-5.99-1.16-8.85.02-.02.05-.04.07-.06,0,1.9-.38,3.8,1.69,5.69,3.67,3.36,8.59,4.26,13.12,5.19,7.73,1.58,15.65,1.88,23.48.77,6.67-.95,13.06-2.56,18.93-6.13,1.26-.77,1.97-1.98,2.44-3.42,1.59,1.07,1.89,2.35,1.47,3.53Z"/>
              <path class="cls-25" d="M63.43,137.4c-1.43.93-2.99,1.66-4.15,2.18-4.31,1.92-9,2.57-13.67,2.86-10.61.68-21.39-.3-31.59-3.36-.03-.01-.02-.06.01-.05,9.38,1.87,18.91,2.81,28.46,1.94,5.02-.46,10.44-1.11,14.98-3.46,1.9-.98,3.5-2.24,4.91-3.84h.01c.3.33.57.7.8,1.1.56.96.56,1.87.22,2.63Z"/>
              <path class="cls-25" d="M51.63,134.43c-8.12,1.8-17.16,2.61-25.46,2.29-5.1-.19-10.48-.95-15.43-2.68-.89-1.4-.89-2.97-.41-4.39,5.69,2.15,11.41,3.58,17.64,4.3,7.93.91,15.73.11,23.66.44.03,0,.03.04,0,.05Z"/>
              <path class="cls-25" d="M55.99,130.15c-3.52.99-7.59.09-10.93-1.35-.05-.02-.02-.09.03-.1,3.99-.23,7.44-.14,10.87-1.7.26,1.02.27,2.12.04,3.15Z"/>
              <path class="cls-25" d="M37.85,123.07c-3.41,1.92-8.72,1.6-12.49,1.26-1.22-.11-2.97-.29-4.64-.7.03,0,.06,0,.09,0-.45-1.01-.48-2.29-.09-3.33.17-.45.42-.86.71-1.22,1.57.61,3.11,1.41,4.4,1.82,2.26.71,4.52,1.33,6.88,1.55,1.75.15,3.43.03,5.13.5.07.02.08.11.02.14Z"/>
              <path class="cls-25" d="M45.68,125.35c-4.75,1.28-9.16,2.72-14.15,2.89-4.55.15-8.79-1.02-13.27-1.43-.05,0-.07.07-.03.1,7.52,4.01,20.3,2.83,27.54-1.32.13-.07.04-.28-.1-.24Z"/>
              <path class="cls-25" d="M44.35,116.65c-.57.95-1.39,1.77-2.25,2.33-2.23,1.46-5.45,1.88-7.98,1.08-.03,0-.03-.04,0-.05,1.95-.68,3.99-.77,5.83-1.83,1.5-.87,2.2-1.93,2.51-3.27.38.3.75.61,1.11.95.27.25.53.5.78.78Z"/>
            </g>
          </g>
        </g>
      </g>
    </g>
  </g>
</svg>