<?xml version="1.0" encoding="UTF-8"?>
<svg xmlns="http://www.w3.org/2000/svg" viewBox="0 0 138.51 171.63">
  <defs>
    <style>
      .cls-1 {
        opacity: .46;
      }

      .cls-1, .cls-2 {
        mix-blend-mode: screen;
      }

      .cls-1, .cls-2, .cls-3 {
        fill: #eefcfa;
      }

      .cls-4 {
        fill: #feeb73;
      }

      .cls-2 {
        opacity: .24;
      }

      .cls-5 {
        opacity: .45;
      }

      .cls-5, .cls-6 {
        mix-blend-mode: multiply;
      }

      .cls-6 {
        opacity: .39;
      }

      .cls-7 {
        fill: #c9dfdd;
      }

      .cls-8 {
        fill: #fed073;
      }

      .cls-9 {
        fill: #ebe8d8;
      }

      .cls-10 {
        fill: #eef2f2;
      }

      .cls-11, .cls-12 {
        fill: #fef4b7;
      }

      .cls-13 {
        isolation: isolate;
      }

      .cls-14 {
        fill: #54821f;
      }

      .cls-15 {
        fill: #ffc004;
      }

      .cls-16 {
        fill: #b2d1ce;
      }

      .cls-17 {
        fill: #fefbea;
      }

      .cls-18 {
        fill: #a4895a;
      }

      .cls-19 {
        fill: #669d25;
      }

      .cls-20 {
        fill: #917950;
      }

      .cls-12 {
        opacity: .52;
      }

      .cls-21 {
        fill: #ffc9d0;
      }
    </style>
  </defs>
  <g class="cls-13">
    <g id="Layer_2">
      <g id="OBJECTS">
        <g>
          <path class="cls-10" d="M85.23,142.34c-8.7-1.55-19.16-2.46-30.41-2.46-30.28,0-54.82,6.56-54.82,14.65s23.72,14.42,53.28,14.64c8.7,1.55,19.16,2.46,30.41,2.46,30.28,0,54.82-6.56,54.82-14.65s-23.72-14.42-53.28-14.64Z"/>
          <g>
            <g>
              <path class="cls-7" d="M91.16,39.87l-3.24,47.25c-.14,2.04-.79,4-1.91,5.71l-2.72,4.19-4.06,61.83c0,2.39-12.73,4.33-28.41,4.33-7.84,0-14.95-.49-20.08-1.27-5.14-.78-8.32-1.86-8.32-3.06l-4.06-61.83-2.72-4.19c-1.11-1.71-1.77-3.67-1.91-5.71l-3.24-47.25c.55,2.96,18.39,5.34,40.33,5.34s39.78-2.37,40.34-5.34Z"/>
              <path class="cls-11" d="M86.05,59.7l-.03.48c-1.03,2.89-16.4,5.17-35.19,5.17s-34.26-2.3-35.19-5.2l-.03-.41h0c.02-.09.04-.18.08-.26,1.29-2.85,16.52-5.1,35.14-5.1s33.86,2.24,35.15,5.1c.04.07.07.15.07.22Z"/>
              <path class="cls-4" d="M86.02,60.18l-1.82,26.69c-.09,1.39-.55,2.76-1.31,3.93l-3.25,5.01-4.02,61.28c-2.86.97-11.45,2.36-24.79,2.36-7.41,0-14.33-.44-19.52-1.22-2.81-.43-4.4-.86-5.25-1.15l-4.02-61.26-3.25-5.01c-.76-1.17-1.22-2.53-1.31-3.94l-1.83-26.7c.86,2.66,13.93,4.82,30.68,5.15,1.48.03,2.98.05,4.52.05.4,0,.8,0,1.2,0,18.25-.08,32.99-2.34,34-5.16Z"/>
              <path class="cls-8" d="M75.61,156.98c0,1.47-11.09,2.66-24.78,2.66s-24.78-1.19-24.78-2.66,11.09-2.66,24.78-2.66,24.78,1.19,24.78,2.66Z"/>
              <path class="cls-7" d="M91.17,39.73s0,.09,0,.14c-.55,2.96-18.4,5.34-40.34,5.34s-39.78-2.37-40.33-5.34c0-.05,0-.09,0-.14,0-3.03,18.05-5.49,40.34-5.49s40.35,2.46,40.35,5.49Z"/>
              <path class="cls-16" d="M11.08,40.67c3.25-2.59,19.8-4.56,39.75-4.56s36.5,1.97,39.76,4.56c.33-.26.53-.53.58-.8,0-.05,0-.09,0-.14,0-3.03-18.06-5.49-40.35-5.49s-40.34,2.46-40.34,5.49c0,.05,0,.09,0,.14.05.27.25.54.58.8Z"/>
              <g>
                <path class="cls-3" d="M31.68,161.9c-5.14-.78-8.32-1.86-8.32-3.06l-4.06-61.83-2.72-4.19c-1.11-1.71-1.77-3.67-1.91-5.71l-3.16-46.16c-.59-.35-.94-.72-1.01-1.09l3.24,47.25c.14,2.04.79,4,1.91,5.71l2.72,4.19,4.06,61.83c0,1.2,3.18,2.28,8.32,3.06,5.13.79,12.24,1.27,20.08,1.27.21,0,.42,0,.62,0-7.72-.01-14.71-.49-19.77-1.27Z"/>
                <path class="cls-3" d="M51.76,45.21c19.17,0,35.21-1.81,39.33-4.25l.07-1.09c-.55,2.94-18.15,5.3-39.87,5.34.16,0,.31,0,.47,0Z"/>
              </g>
              <path class="cls-16" d="M89.01,41.5l-3,43.74c-.14,2.04-.79,4-1.91,5.71l-2.72,4.19-4.06,61.83c0,2.39-12.73,4.33-28.41,4.33-7.84,0-14.95-.49-20.08-1.27-2.79-.42-4.99-.93-6.43-1.5l.02.32c0,1.2,3.18,2.28,8.32,3.06,5.13.79,12.24,1.27,20.08,1.27,15.69,0,28.41-1.94,28.41-4.33l4.06-61.83,2.72-4.19c1.11-1.71,1.77-3.67,1.91-5.71l3.24-47.25c-.11.57-.86,1.12-2.15,1.63Z"/>
              <g class="cls-5">
                <g>
                  <path class="cls-16" d="M78.2,91.66c1.1.12,2.19.31,3.26.65.53.18,1.07.37,1.57.67.26.14.5.32.74.54.24.23.45.47.55.94v.02s0,.05,0,.05l-.02.47v.06s-.02.05-.02.05c-.19.51-.54.83-.87,1.08-.34.25-.7.44-1.06.6-.72.34-1.46.56-2.21.76-1.49.38-3.01.58-4.53.66.72-.25,1.45-.45,2.17-.69.72-.23,1.44-.45,2.14-.71.71-.24,1.39-.52,2.05-.83.62-.31,1.3-.73,1.47-1.17l-.02.12.03-.47v.08c-.04-.23-.41-.66-.83-.91-.42-.28-.89-.53-1.38-.75-.98-.45-2-.84-3.03-1.24Z"/>
                  <path class="cls-16" d="M25.47,98.12c-.72-.03-1.43-.12-2.14-.22-.71-.11-1.41-.25-2.11-.44-.7-.2-1.39-.42-2.06-.74-.34-.16-.67-.35-.99-.59-.31-.24-.64-.55-.8-1.05l-.02-.05v-.05s-.03-.44-.03-.44v-.05s0-.04,0-.04c.04-.12.08-.24.12-.36l-.02.03c.33-.66.87-.95,1.34-1.24.49-.27,1.01-.45,1.52-.62,1.03-.31,2.09-.5,3.15-.6-.99.39-1.98.77-2.92,1.2-.47.21-.93.45-1.35.71-.41.26-.8.59-.93.9l-.02.03s-.02.09-.03.13v-.09s.04.38.04.38l-.02-.1c.14.4.75.82,1.33,1.11.6.31,1.24.57,1.9.81.65.25,1.32.47,1.99.69.67.24,1.35.43,2.03.68Z"/>
                </g>
              </g>
              <g class="cls-6">
                <path class="cls-16" d="M29.28,98.12c2.55.03,5.08.13,7.62.23l7.61.33,7.6.34c1.27.06,2.53.09,3.8.12l1.9.04c.63-.01,1.27-.01,1.91,0-2.52.41-5.07.51-7.62.56-2.55.06-5.09-.01-7.63-.12-2.54-.13-5.08-.29-7.61-.55-2.53-.25-5.06-.53-7.57-.94Z"/>
              </g>
              <g>
                <circle class="cls-8" cx="35.56" cy="143.81" r="1.47"/>
                <path class="cls-8" d="M65.76,147.47c0,.81-.66,1.47-1.47,1.47s-1.47-.66-1.47-1.47.66-1.47,1.47-1.47,1.47.66,1.47,1.47Z"/>
                <path class="cls-8" d="M28.42,111.26c0,.81-.66,1.47-1.47,1.47s-1.47-.66-1.47-1.47.66-1.47,1.47-1.47,1.47.66,1.47,1.47Z"/>
                <path class="cls-8" d="M61.19,102.83c0,.81-.66,1.47-1.47,1.47s-1.47-.66-1.47-1.47.66-1.47,1.47-1.47,1.47.66,1.47,1.47Z"/>
                <path class="cls-8" d="M62.06,78.96c0,.81-.66,1.47-1.47,1.47s-1.47-.66-1.47-1.47.66-1.47,1.47-1.47,1.47.66,1.47,1.47Z"/>
                <path class="cls-8" d="M27.61,87.55c0,.81-.66,1.47-1.47,1.47s-1.47-.66-1.47-1.47.66-1.47,1.47-1.47,1.47.66,1.47,1.47Z"/>
                <path class="cls-8" d="M43.08,134.58c0,.51-.41.92-.92.92s-.92-.41-.92-.92.41-.91.92-.91.92.41.92.91Z"/>
                <path class="cls-8" d="M57.7,151.14c0,.51-.41.92-.92.92s-.92-.41-.92-.92.41-.92.92-.92.92.41.92.92Z"/>
                <circle class="cls-8" cx="72.03" cy="138.16" r=".92"/>
                <path class="cls-8" d="M55.36,124.15c0,.51-.41.92-.92.92s-.92-.41-.92-.92.41-.92.92-.92.92.41.92.92Z"/>
                <path class="cls-8" d="M72.94,112.18c0,.51-.41.92-.92.92s-.92-.41-.92-.92.41-.92.92-.92.92.41.92.92Z"/>
                <path class="cls-8" d="M49.55,90.75c0,.51-.41.92-.92.92s-.91-.41-.91-.92.41-.92.91-.92.92.41.92.92Z"/>
                <path class="cls-8" d="M78.67,84.3c0,.51-.41.92-.92.92s-.92-.41-.92-.92.41-.92.92-.92.92.41.92.92Z"/>
              </g>
              <path class="cls-2" d="M53.48,163.15c3.57-.05,6.95-.2,10.01-.43-2.79-.21-5.33-.49-7.5-.82-5.14-.78-8.32-1.86-8.32-3.06l-4.06-61.83-2.72-4.19c-1.11-1.71-1.77-3.67-1.91-5.71l-2.9-42.29c-8.29-.44-15.23-1.24-19.79-2.27l3.05,44.55c.14,2.04.79,4,1.91,5.71l2.72,4.19,4.06,61.83c0,1.2,3.18,2.28,8.32,3.06,4.48.69,10.46,1.14,17.12,1.25Z"/>
              <path class="cls-1" d="M26.64,137.71h0c4.05,0,7.26-3.42,6.99-7.46l-2.18-33.23-2.72-4.19c-1.11-1.71-1.77-3.67-1.91-5.71l-2.97-43.31c-2.95-.36-5.5-.78-7.56-1.24l3.05,44.55c.14,2.04.79,4,1.91,5.71l2.72,4.19,2.67,40.69Z"/>
              <path class="cls-2" d="M76.86,43.91l-2.96,43.2c-.14,2.04-.79,4-1.91,5.71l-2.72,4.19-4.06,61.83c0,2.02-9.06,3.71-21.32,4.19,1.6.06,3.27.1,4.96.12,14.42-.21,25.71-2.05,25.71-4.31l4.06-61.83,2.72-4.19c1.11-1.71,1.77-3.67,1.91-5.71l3.07-44.78c-2.41.6-5.62,1.14-9.46,1.58Z"/>
              <path class="cls-9" d="M55.92,47.03l-3.9,18.31c-.39,0-.79,0-1.2,0-1.53,0-3.04-.02-4.52-.05-.05-.04-.07-.08-.11-.12l3.86-18.1h.77c1.73,0,3.43-.02,5.1-.05Z"/>
              <path class="cls-17" d="M65.66,1.37l-9.33,43.8-.4,1.87c-1.66.03-3.37.05-5.1.05h-.77l.39-1.87L60.06.19c0,.27,1.19.75,2.7,1.07,1.54.33,2.84.38,2.9.11Z"/>
              <path class="cls-21" d="M65.66,1.37c-.06.27-1.36.22-2.9-.11-1.51-.32-2.7-.79-2.7-1.07v-.02l5.6,1.2Z"/>
              <path class="cls-9" d="M65.66,1.37c-.06.27-1.36.22-2.9-.11-1.51-.32-2.7-.79-2.7-1.07v-.02c.06-.26,1.36-.22,2.91.11,1.54.34,2.75.81,2.69,1.08Z"/>
              <path class="cls-3" d="M91.08,40.08l-.14,2.09c-1.95,2.53-16.53,4.54-35.02,4.85-1.66.03-3.37.05-5.1.05h-.77c-20.5-.06-37.23-2.18-39.34-4.9l-.15-2.09c1.34,2.84,18.63,5.1,39.88,5.12h.37c1.86,0,3.7-.02,5.5-.05,18.83-.36,33.53-2.47,34.75-5.08Z"/>
            </g>
            <g>
              <path class="cls-19" d="M127.03,119.95c-18.63,2.45-18.64,11.91-18.94,12.53s-.88-3.45-.88-3.45c-4.81,7.97-3.98,12.93-3.98,12.93l-1.8-3.36c-3.01,5.22-1.41,13.22-1.41,13.22,0,0,9.82,3.58,16.18-3.07l-4.11-.04s9.17-3.27,13.2-9.65l-4.39.53c6.36-3.04,8.61-8.76,6.13-19.64Z"/>
              <g>
                <path class="cls-14" d="M100.02,151.82c2.64-2.32,5.16-4.75,7.64-7.22,2.46-2.48,4.85-5.03,7.12-7.68,2.31-2.62,4.45-5.37,6.51-8.19l1.52-2.13,1.44-2.19c1.03-1.42,1.81-2.99,2.78-4.47-1.4,3.22-2.99,6.39-4.96,9.32-1.92,2.96-4.05,5.79-6.37,8.45-4.64,5.31-9.83,10.17-15.68,14.1Z"/>
                <path class="cls-14" d="M112.09,148.71c-.49-.36-.95-.66-1.47-.85-.52-.19-1.04-.3-1.58-.36-.54-.05-1.08-.06-1.63-.02-.54.02-1.1.11-1.6.21l-1.35.25.69-1.14s.11-.28.11-.45c0-.19.01-.39-.02-.6-.07-.42-.21-.85-.42-1.27-.21-.42-.45-.84-.73-1.26l-.87-1.25c.45.25.88.54,1.29.88.39.34.78.72,1.09,1.16.33.43.58.95.73,1.51.08.28.12.59.1.9-.02.33-.05.6-.25,1l-.66-.89c.64-.16,1.23-.19,1.85-.21.62,0,1.24.07,1.84.22.6.16,1.19.42,1.7.78.5.37.91.86,1.17,1.39Z"/>
                <path class="cls-14" d="M121.54,139.51c-1.58-.42-3.15-.17-4.67.2-.76.2-1.51.41-2.25.69-.74.26-1.49.54-2.18.87l-.9.43.04-1.01c.03-.71-.05-1.51-.17-2.26-.11-.76-.33-1.49-.59-2.21-.26-.72-.64-1.39-1.09-2.02-.43-.66-1.03-1.17-1.63-1.72.74.31,1.48.73,2.08,1.33.6.59,1.13,1.27,1.5,2.03.4.75.66,1.56.86,2.38.18.83.27,1.65.26,2.54l-.86-.58c.78-.34,1.54-.62,2.34-.86.8-.22,1.6-.43,2.43-.53.82-.11,1.66-.16,2.5-.06.83.1,1.66.32,2.34.78Z"/>
                <path class="cls-14" d="M127.48,129.76c-.71-.14-1.38.07-2.04.27-.66.22-1.3.5-1.94.77-1.27.58-2.54,1.2-3.76,1.86l-.85.45-.02-.98c-.04-1.64-.12-3.32-.31-4.96-.08-.83-.21-1.64-.38-2.45-.18-.8-.4-1.61-.84-2.34.67.55,1.09,1.36,1.44,2.15.34.8.58,1.64.76,2.48.36,1.69.52,3.39.52,5.13l-.88-.53c1.3-.66,2.62-1.22,4.01-1.64.69-.21,1.41-.38,2.14-.47.72-.07,1.52-.11,2.16.27Z"/>
              </g>
            </g>
            <g>
              <path class="cls-19" d="M74.21,112.85c-8.06,16.97-.13,22.12.23,22.71.35.59-3.38-1.13-3.38-1.13,4.08,8.37,8.7,10.36,8.7,10.36l-3.8-.31c2.75,5.36,10.33,8.37,10.33,8.37,0,0,8.34-6.3,6.21-15.25l-2.26,3.43s2.23-9.47-.93-16.32l-1.94,3.97c.9-6.99-2.67-11.99-13.16-15.81Z"/>
              <g>
                <path class="cls-14" d="M86.29,152.84c-.51-3.48-1.18-6.91-1.91-10.33-.75-3.41-1.59-6.8-2.58-10.15-.94-3.36-2.1-6.65-3.34-9.91l-.97-2.43-1.06-2.4c-.64-1.64-1.53-3.15-2.24-4.76,1.94,2.92,3.74,5.98,5.13,9.23,1.44,3.22,2.66,6.55,3.63,9.94,1.94,6.78,3.2,13.78,3.32,20.82Z"/>
                <path class="cls-14" d="M90.24,141.02c-.56.21-1.07.44-1.51.78-.44.33-.82.71-1.16,1.13-.34.42-.64.88-.9,1.35-.28.46-.5.99-.7,1.45l-.52,1.26-.58-1.2s-.18-.24-.32-.34c-.16-.11-.33-.22-.52-.31-.39-.17-.83-.29-1.3-.34-.47-.06-.95-.08-1.45-.07l-1.52.05c.46-.25.93-.45,1.43-.6.5-.14,1.02-.26,1.57-.28.54-.04,1.11.03,1.67.21.28.09.56.22.81.4.26.2.48.36.71.76l-1.1.07c.21-.63.51-1.14.83-1.67.34-.52.73-1,1.19-1.43.47-.42,1-.76,1.58-1,.59-.22,1.21-.3,1.8-.23Z"/>
                <path class="cls-14" d="M87.64,128.09c-1.21,1.1-1.85,2.55-2.37,4.03-.25.74-.47,1.5-.64,2.26-.18.76-.35,1.55-.45,2.3l-.13.99-.82-.58c-.58-.41-1.29-.78-1.99-1.08-.7-.32-1.43-.53-2.18-.71-.75-.17-1.52-.22-2.29-.19-.79,0-1.54.22-2.33.44.67-.45,1.42-.85,2.25-1.03.82-.18,1.68-.26,2.52-.16.85.07,1.67.29,2.46.58.8.31,1.53.67,2.27,1.17l-.96.41c.14-.84.32-1.63.55-2.43.24-.79.51-1.58.88-2.32.35-.75.77-1.48,1.31-2.13.54-.64,1.17-1.22,1.93-1.54Z"/>
                <path class="cls-14" d="M82.69,117.8c-.5.52-.69,1.2-.88,1.86-.18.67-.29,1.36-.41,2.05-.2,1.38-.37,2.79-.49,4.17l-.08.96-.84-.51c-1.4-.86-2.85-1.7-4.33-2.44-.74-.38-1.49-.72-2.26-1.01-.77-.29-1.56-.54-2.42-.57.83-.26,1.73-.18,2.58-.04.86.15,1.69.4,2.5.71,1.61.62,3.13,1.41,4.59,2.35l-.92.45c.15-1.45.4-2.87.8-4.26.2-.7.45-1.39.77-2.05.33-.64.73-1.34,1.4-1.67Z"/>
              </g>
            </g>
            <g>
              <g>
                <path class="cls-8" d="M106.7,117.98c-.42-.73-.9-1.42-1.46-2.08-2.9-3.45-8.24-1.73-10.79,1.23-1.7,1.97-1.96,4.53-2.61,6.95-.92,3.37-2.71,6.49-5.51,8.65-1.89,1.46-4.13,2.41-6.45,2.94-12.7,2.9-25.89-5.36-28.41-8.31-2.52-2.94-5.74.34-5.74.34,0,0-3.67,17.87,18.3,26.68,21.97,8.81,43.71-5.16,44.99-21.87.37-4.85.14-10.22-2.34-14.52Z"/>
                <path class="cls-12" d="M46.42,129.91s3.22-3.28,5.74-.34,15.71,11.21,28.41,8.31c2.32-.53,4.56-1.48,6.45-2.94,2.79-2.16,4.59-5.28,5.51-8.65.66-2.42.92-4.98,2.61-6.95,2.55-2.95,7.89-4.67,10.79-1.23.55.66,1.04,1.36,1.46,2.08.45.79.81,1.63,1.13,2.48-.39-1.65-.95-3.24-1.8-4.7-.42-.73-.9-1.42-1.46-2.08-2.9-3.45-8.24-1.73-10.79,1.23-1.7,1.97-1.96,4.53-2.61,6.95-.92,3.37-2.71,6.49-5.51,8.65-1.89,1.46-4.13,2.41-6.45,2.94-12.7,2.9-25.89-5.36-28.41-8.31-2.52-2.94-5.74.34-5.74.34,0,0-.97,4.78,1.11,10.6-1.17-4.77-.44-8.38-.44-8.38Z"/>
                <path class="cls-15" d="M107.84,120.27c.25,2.05.31,4.53.08,7.56-1.28,16.71-23.03,30.68-44.99,21.87-10.65-4.27-15.27-10.67-17.2-16.13.79,6.01,4.42,15.21,18.33,20.79,21.97,8.81,43.71-5.16,44.99-21.87.45-5.87-.19-9.71-1.2-12.23Z"/>
                <path class="cls-20" d="M50.31,126.42s-.97,2.78-4.56,1.26c0,0,2.27-2.58,4.56-1.26Z"/>
                <path class="cls-15" d="M48.11,129.51c1.74,2.62,3.81,4.99,6.13,7.07,2.3,2.1,4.86,3.9,7.61,5.32.7.33,1.37.72,2.09,1l2.15.85c.71.3,1.48.44,2.21.67.74.21,1.48.44,2.25.53l2.28.38c.76.1,1.54.1,2.31.15,1.54.16,3.08,0,4.62-.09,3.07-.17,6.12-.83,8.88-2.14,2.79-1.26,5.15-3.31,6.99-5.74,1.82-2.47,3.03-5.38,3.74-8.39.75-3.02,1.03-6.16.89-9.3.76,6.2-.21,12.88-3.83,18.26-.9,1.33-2,2.54-3.24,3.58-1.22,1.06-2.6,1.94-4.06,2.63-2.9,1.43-6.1,2.15-9.28,2.37-6.35.46-12.93-.71-18.47-3.92-2.77-1.57-5.33-3.5-7.57-5.73-1.1-1.14-2.16-2.32-3.11-3.58-.98-1.24-1.84-2.56-2.59-3.95Z"/>
                <g>
                  <path class="cls-15" d="M50.89,138.48c.01.35-.38.64-.87.65-.49.02-.9-.25-.91-.6-.01-.35.38-.64.87-.65.49-.02.9.25.91.6Z"/>
                  <path class="cls-15" d="M70.89,140c.01.35-.38.64-.87.65s-.9-.25-.91-.6c-.01-.35.38-.64.87-.65s.9.25.91.6Z"/>
                  <path class="cls-15" d="M95.33,122.15c.01.35-.38.64-.87.65-.49.02-.9-.25-.91-.6-.01-.35.38-.64.87-.65.49-.01.9.25.91.6Z"/>
                  <path class="cls-15" d="M90.47,147.87c.01.35-.38.64-.87.65-.49.02-.9-.25-.91-.6-.01-.35.38-.64.87-.65.49-.02.9.25.91.6Z"/>
                  <path class="cls-15" d="M54.81,142.09c0,.26-.28.48-.65.49s-.67-.19-.68-.45c0-.26.28-.48.65-.49.37-.01.67.19.68.45Z"/>
                  <path class="cls-15" d="M75.42,142.39c0,.26-.28.48-.65.49-.37.01-.67-.19-.68-.45,0-.26.28-.48.65-.49.37-.01.67.19.68.45Z"/>
                  <path class="cls-15" d="M98.45,126.03c0,.26-.28.48-.65.49-.37.01-.67-.19-.68-.45,0-.26.28-.48.65-.49.37-.01.67.19.68.45Z"/>
                  <path class="cls-15" d="M106.29,131.31c0,.26-.28.48-.65.49-.37.01-.67-.19-.68-.45,0-.26.28-.48.65-.49.37-.01.67.19.68.45Z"/>
                  <path class="cls-15" d="M58.01,137.34c0,.26-.28.48-.65.49-.37.01-.67-.19-.68-.45,0-.26.28-.48.65-.49.37-.01.67.19.68.45Z"/>
                  <path class="cls-15" d="M53.82,139.74c0,.08-.09.15-.21.15s-.21-.06-.22-.14c0-.08.09-.15.21-.15.12,0,.21.06.22.14Z"/>
                  <path class="cls-15" d="M58.47,145.56c0,.08-.09.15-.21.15-.12,0-.21-.06-.22-.14,0-.08.09-.15.21-.15.12,0,.21.06.22.14Z"/>
                  <path class="cls-15" d="M75.55,139.85c0,.08-.09.15-.21.15-.12,0-.21-.06-.22-.14,0-.08.09-.15.21-.15.12,0,.21.06.22.14Z"/>
                  <path class="cls-15" d="M93.86,125.7c0,.08-.09.15-.21.15-.12,0-.21-.06-.22-.14,0-.08.09-.15.21-.15.12,0,.21.06.22.14Z"/>
                  <path class="cls-15" d="M101.44,121.96c0,.08-.09.15-.21.15-.12,0-.21-.06-.22-.14s.09-.15.21-.15c.12,0,.21.06.22.14Z"/>
                  <path class="cls-15" d="M85.59,148.02c0,.08-.09.15-.21.15-.12,0-.21-.06-.22-.14,0-.08.09-.15.21-.15.12,0,.21.06.22.14Z"/>
                  <path class="cls-15" d="M94.17,146.18c0,.08-.09.15-.21.15-.12,0-.21-.06-.22-.14,0-.08.09-.15.21-.15.12,0,.21.06.22.14Z"/>
                  <path class="cls-15" d="M62.42,137.35c0,.08-.09.15-.21.15-.12,0-.21-.06-.22-.14,0-.08.09-.15.21-.15.12,0,.21.06.22.14Z"/>
                </g>
              </g>
              <g>
                <path class="cls-20" d="M95.69,119.31s.17-3.86-1.99-6.75c0,0,.87-2.68,3.95-4.08l3.87,6.98s-.86,4.68-5.83,3.85Z"/>
                <path class="cls-8" d="M105.53,115.16c-.68-.49-1.41-.92-2.19-1.29-4.07-1.93-8.22,1.85-9.31,5.59-.73,2.5.1,4.93.5,7.41.56,3.45.23,7.03-1.42,10.15-1.12,2.11-2.76,3.9-4.65,5.35-10.35,7.9-25.78,5.85-29.29,4.22s-5.08,2.69-5.08,2.69c0,0,4.07,17.79,27.72,16.69,23.64-1.09,37.64-22.82,31.88-38.56-1.67-4.57-4.11-9.35-8.15-12.24Z"/>
                <path class="cls-12" d="M55.63,151.01s1.57-4.32,5.08-2.69c3.51,1.63,18.94,3.69,29.29-4.22,1.89-1.44,3.53-3.23,4.65-5.35,1.65-3.12,1.99-6.71,1.42-10.15-.41-2.48-1.23-4.91-.5-7.41,1.09-3.74,5.24-7.52,9.31-5.59.78.37,1.51.8,2.19,1.29.74.53,1.41,1.14,2.05,1.79-1.04-1.34-2.21-2.55-3.59-3.54-.68-.49-1.41-.92-2.19-1.29-4.07-1.93-8.22,1.85-9.31,5.59-.73,2.5.1,4.93.5,7.41.56,3.45.23,7.03-1.42,10.15-1.12,2.11-2.76,3.9-4.65,5.35-10.35,7.9-25.78,5.85-29.29,4.22-3.51-1.63-5.08,2.69-5.08,2.69,0,0,1.1,4.75,5.41,9.19-3.05-3.85-3.87-7.44-3.87-7.44Z"/>
                <path class="cls-15" d="M107.52,116.78c1.08,1.76,2.16,4,3.21,6.85,5.76,15.74-8.23,37.47-31.88,38.56-11.46.53-18.31-3.38-22.34-7.54,3.21,5.14,10.33,12.01,25.3,11.32,23.64-1.09,37.64-22.82,31.88-38.56-2.02-5.53-4.19-8.75-6.16-10.63Z"/>
                <path class="cls-20" d="M57.72,146.23s.27,2.93-3.63,3.04c0,0,.99-3.28,3.63-3.04Z"/>
                <path class="cls-15" d="M56.99,149.95c2.66,1.66,5.54,2.96,8.51,3.89,2.96.96,6.04,1.53,9.13,1.69.77.01,1.54.09,2.32.04l2.31-.12c.77-.03,1.53-.21,2.29-.31.76-.11,1.53-.21,2.26-.45l2.23-.6c.74-.22,1.44-.55,2.16-.82,1.46-.49,2.8-1.28,4.17-1.99,2.72-1.43,5.23-3.29,7.19-5.63,2.02-2.3,3.31-5.14,3.99-8.12.63-3,.53-6.15-.07-9.19-.57-3.06-1.62-6.03-3.05-8.83,3.26,5.33,5.15,11.8,4.09,18.21-.27,1.59-.77,3.14-1.46,4.6-.67,1.47-1.56,2.84-2.6,4.08-2.05,2.5-4.66,4.49-7.46,6-5.59,3.05-12.06,4.71-18.43,4.09-3.17-.28-6.3-.98-9.27-2.08-1.47-.58-2.92-1.22-4.31-1.96-1.4-.72-2.74-1.57-3.99-2.52Z"/>
                <g>
                  <path class="cls-15" d="M63.25,156.96c.15.31-.08.74-.52.96-.44.22-.93.14-1.08-.17s.08-.74.52-.96.93-.14,1.08.17Z"/>
                  <path class="cls-15" d="M82.08,150.05c.15.31-.08.74-.52.96-.44.22-.93.14-1.08-.17-.15-.31.08-.74.52-.96.44-.22.93-.14,1.08.17Z"/>
                  <path class="cls-15" d="M96.91,123.68c.15.31-.08.74-.52.96-.44.22-.93.14-1.08-.17-.15-.31.08-.74.52-.96.44-.22.93-.14,1.08.17Z"/>
                  <path class="cls-15" d="M103.16,149.09c.15.31-.08.74-.52.96s-.93.14-1.08-.17c-.15-.31.08-.74.52-.96.44-.22.93-.14,1.08.17Z"/>
                  <path class="cls-15" d="M68.31,158.62c.11.23-.06.55-.39.72-.33.16-.69.11-.81-.12-.11-.23.06-.55.39-.72.33-.16.69-.11.81.12Z"/>
                  <path class="cls-15" d="M87.19,150.35c.11.23-.06.55-.39.72-.33.16-.69.11-.81-.12-.11-.23.06-.55.39-.72.33-.16.69-.11.81.12Z"/>
                  <path class="cls-15" d="M101.36,125.91c.11.23-.06.55-.39.72-.33.16-.69.11-.81-.12-.11-.23.06-.55.39-.72.33-.16.69-.11.81.12Z"/>
                  <path class="cls-15" d="M110.69,127.47c.11.23-.06.55-.39.72-.33.16-.69.11-.81-.12-.11-.23.06-.55.39-.72.33-.16.69-.11.81.12Z"/>
                  <path class="cls-15" d="M69.25,152.97c.11.23-.06.55-.39.72-.33.16-.69.11-.81-.12-.11-.23.06-.55.39-.72.33-.16.69-.11.81.12Z"/>
                  <path class="cls-15" d="M66.44,156.89c.04.07-.02.17-.12.23-.1.05-.22.03-.26-.04-.04-.07.02-.17.12-.23.1-.05.22-.03.26.04Z"/>
                  <path class="cls-15" d="M73.08,160.26c.04.07-.02.17-.12.23-.1.05-.22.03-.26-.04-.04-.07.02-.17.12-.23.1-.05.22-.03.25.04Z"/>
                  <path class="cls-15" d="M86.25,147.99c.04.07-.02.17-.12.23-.1.05-.22.03-.25-.04-.04-.07.02-.17.12-.23.1-.05.22-.03.25.04Z"/>
                  <path class="cls-15" d="M97.05,127.52c.04.07-.02.17-.12.23-.1.05-.22.03-.25-.04-.04-.07.02-.17.12-.23s.22-.03.25.04Z"/>
                  <path class="cls-15" d="M102.4,120.97c.04.07-.02.17-.12.23-.1.05-.22.03-.25-.04-.04-.07.02-.17.12-.23.1-.05.22-.03.25.04Z"/>
                  <path class="cls-15" d="M98.78,151.25c.04.07-.02.17-.12.23-.1.05-.22.03-.25-.04-.04-.07.02-.17.12-.23.1-.05.22-.03.25.04Z"/>
                  <path class="cls-15" d="M105.82,146.02c.04.07-.02.17-.12.23-.1.05-.22.03-.25-.04-.04-.07.02-.17.12-.23.1-.05.22-.03.25.04Z"/>
                  <path class="cls-15" d="M73.27,151.15c.04.07-.02.17-.12.23s-.22.03-.25-.04c-.04-.07.02-.17.12-.23.1-.05.22-.03.25.04Z"/>
                </g>
                <path class="cls-18" d="M93.7,112.56c-.1.51,3.17-1.06,3.95-4.08,0,0-3.43,1.37-3.95,4.08Z"/>
              </g>
            </g>
          </g>
        </g>
      </g>
    </g>
  </g>
</svg>