<?xml version="1.0" encoding="UTF-8"?>
<svg xmlns="http://www.w3.org/2000/svg" viewBox="0 0 138.51 171.63">
  <defs>
    <style>
      .cls-1 {
        opacity: .46;
      }

      .cls-1, .cls-2 {
        mix-blend-mode: screen;
      }

      .cls-1, .cls-2, .cls-3 {
        fill: #eefcfa;
      }

      .cls-2 {
        opacity: .24;
      }

      .cls-4 {
        fill: #ba6ca7;
      }

      .cls-5 {
        opacity: .45;
      }

      .cls-5, .cls-6 {
        mix-blend-mode: multiply;
      }

      .cls-6 {
        opacity: .39;
      }

      .cls-7 {
        fill: #c9dfdd;
      }

      .cls-8 {
        fill: #9e5c8e;
      }

      .cls-9 {
        fill: #eef2f2;
      }

      .cls-10 {
        fill: #e8cce2;
      }

      .cls-11 {
        fill: #ffe0f8;
      }

      .cls-12 {
        isolation: isolate;
      }

      .cls-13 {
        fill: #54821f;
      }

      .cls-14 {
        fill: #c974b5;
      }

      .cls-15 {
        fill: #b2d1ce;
      }

      .cls-16 {
        fill: #669d25;
      }

      .cls-17 {
        fill: #ffc9d0;
      }
    </style>
  </defs>
  <g class="cls-12">
    <g id="Layer_2">
      <g id="OBJECTS">
        <g>
          <path class="cls-9" d="M85.23,142.34c-8.7-1.55-19.16-2.46-30.41-2.46-30.28,0-54.82,6.56-54.82,14.65s23.72,14.42,53.28,14.64c8.7,1.55,19.16,2.46,30.41,2.46,30.28,0,54.82-6.56,54.82-14.65s-23.72-14.42-53.28-14.64Z"/>
          <g>
            <g>
              <path class="cls-7" d="M91.23,39.87l-3.24,47.25c-.14,2.04-.79,4-1.91,5.71l-2.72,4.19-4.06,61.83c0,2.39-12.73,4.33-28.41,4.33-7.84,0-14.95-.49-20.08-1.27-5.14-.78-8.32-1.86-8.32-3.06l-4.06-61.83-2.72-4.19c-1.11-1.71-1.77-3.67-1.91-5.71l-3.23-47.25c.55,2.96,18.39,5.34,40.33,5.34s39.78-2.37,40.34-5.34Z"/>
              <path class="cls-14" d="M86.12,59.7l-.03.48c-1.03,2.89-16.4,5.17-35.19,5.17s-34.26-2.3-35.19-5.2l-.03-.41h0c.02-.09.04-.18.08-.26,1.29-2.85,16.52-5.1,35.14-5.1s33.86,2.24,35.15,5.1c.04.07.07.15.07.22Z"/>
              <path class="cls-4" d="M86.09,60.18l-1.82,26.69c-.09,1.39-.55,2.76-1.31,3.93l-3.25,5.01-4.02,61.28c-2.86.97-11.45,2.36-24.79,2.36-7.41,0-14.33-.44-19.52-1.22-2.81-.43-4.4-.86-5.25-1.15l-4.02-61.26-3.25-5.01c-.76-1.17-1.22-2.53-1.31-3.94l-1.83-26.7c.86,2.66,13.93,4.82,30.68,5.15,1.48.03,2.98.05,4.52.05.4,0,.8,0,1.2,0,18.25-.08,32.99-2.34,34-5.16Z"/>
              <path class="cls-8" d="M75.68,156.98c0,1.47-11.09,2.66-24.78,2.66s-24.78-1.19-24.78-2.66,11.09-2.66,24.78-2.66,24.78,1.19,24.78,2.66Z"/>
              <path class="cls-7" d="M91.24,39.73s0,.09,0,.14c-.55,2.96-18.4,5.34-40.34,5.34s-39.77-2.37-40.33-5.34c0-.05,0-.09,0-.14,0-3.03,18.05-5.49,40.34-5.49s40.35,2.46,40.35,5.49Z"/>
              <path class="cls-15" d="M11.15,40.67c3.25-2.59,19.8-4.56,39.75-4.56s36.5,1.97,39.76,4.56c.33-.26.53-.53.58-.8,0-.05,0-.09,0-.14,0-3.03-18.06-5.49-40.35-5.49s-40.34,2.46-40.34,5.49c0,.05,0,.09,0,.14.05.27.25.54.58.8Z"/>
              <g>
                <path class="cls-3" d="M31.75,161.9c-5.14-.78-8.32-1.86-8.32-3.06l-4.06-61.83-2.72-4.19c-1.11-1.71-1.77-3.67-1.91-5.71l-3.16-46.16c-.59-.35-.94-.72-1.01-1.09l3.24,47.25c.14,2.04.79,4,1.91,5.71l2.72,4.19,4.06,61.83c0,1.2,3.18,2.28,8.32,3.06,5.13.79,12.24,1.27,20.08,1.27.21,0,.42,0,.62,0-7.72-.01-14.71-.49-19.77-1.27Z"/>
                <path class="cls-3" d="M51.83,45.21c19.17,0,35.21-1.81,39.33-4.25l.07-1.09c-.55,2.94-18.15,5.3-39.87,5.34.16,0,.31,0,.47,0Z"/>
              </g>
              <path class="cls-15" d="M89.08,41.5l-3,43.74c-.14,2.04-.79,4-1.91,5.71l-2.72,4.19-4.06,61.83c0,2.39-12.73,4.33-28.41,4.33-7.84,0-14.95-.49-20.08-1.27-2.79-.42-4.99-.93-6.43-1.5l.02.32c0,1.2,3.18,2.28,8.32,3.06,5.13.79,12.24,1.27,20.08,1.27,15.69,0,28.41-1.94,28.41-4.33l4.06-61.83,2.72-4.19c1.11-1.71,1.77-3.67,1.91-5.71l3.24-47.25c-.11.57-.86,1.12-2.15,1.63Z"/>
              <g class="cls-5">
                <g>
                  <path class="cls-15" d="M78.27,91.66c1.1.12,2.19.31,3.26.65.53.18,1.06.37,1.57.67.26.14.51.32.74.54.24.23.45.48.55.94v.02s0,.05,0,.05l-.02.47v.06s-.02.05-.02.05c-.19.51-.54.83-.87,1.08-.34.25-.7.44-1.06.6-.72.34-1.46.56-2.21.76-1.49.38-3.01.58-4.53.66.72-.25,1.45-.45,2.17-.69.72-.23,1.44-.45,2.14-.71.71-.24,1.39-.52,2.05-.83.62-.31,1.3-.73,1.47-1.17l-.02.12.03-.47v.08c-.04-.23-.41-.66-.83-.91-.42-.28-.89-.53-1.38-.75-.98-.45-2-.84-3.03-1.24Z"/>
                  <path class="cls-15" d="M25.54,98.12c-.72-.03-1.43-.12-2.14-.22-.71-.11-1.41-.25-2.11-.44-.7-.2-1.39-.42-2.06-.74-.34-.16-.67-.35-.99-.59-.32-.24-.64-.55-.8-1.05l-.02-.05v-.05s-.03-.44-.03-.44v-.05s0-.04,0-.04c.04-.12.08-.24.12-.36l-.02.03c.33-.66.87-.95,1.34-1.24.49-.27,1.01-.45,1.52-.62,1.03-.31,2.09-.5,3.15-.6-.99.39-1.98.77-2.92,1.2-.47.21-.93.45-1.35.71-.41.26-.8.59-.93.9l-.02.03s-.02.09-.03.13v-.09s.04.38.04.38l-.02-.1c.14.4.75.82,1.33,1.11.6.31,1.24.57,1.9.81.65.25,1.32.47,1.99.69.67.24,1.35.43,2.03.68Z"/>
                </g>
              </g>
              <g class="cls-6">
                <path class="cls-15" d="M29.35,98.12c2.55.03,5.08.13,7.62.23l7.61.33,7.6.34c1.27.06,2.53.09,3.8.12l1.9.04c.63-.01,1.27-.01,1.91,0-2.52.41-5.07.51-7.62.56-2.55.06-5.09-.01-7.63-.12-2.54-.13-5.08-.29-7.61-.55-2.53-.25-5.06-.53-7.57-.94Z"/>
              </g>
              <g>
                <path class="cls-8" d="M37.11,143.81c0,.81-.66,1.47-1.47,1.47s-1.47-.66-1.47-1.47.66-1.47,1.47-1.47,1.47.66,1.47,1.47Z"/>
                <path class="cls-8" d="M65.83,147.47c0,.81-.66,1.47-1.47,1.47s-1.47-.66-1.47-1.47.66-1.47,1.47-1.47,1.47.66,1.47,1.47Z"/>
                <circle class="cls-8" cx="27.02" cy="111.26" r="1.47"/>
                <path class="cls-8" d="M61.26,102.83c0,.81-.66,1.47-1.47,1.47s-1.47-.66-1.47-1.47.66-1.47,1.47-1.47,1.47.66,1.47,1.47Z"/>
                <path class="cls-8" d="M62.13,78.96c0,.81-.66,1.47-1.47,1.47s-1.47-.66-1.47-1.47.66-1.47,1.47-1.47,1.47.66,1.47,1.47Z"/>
                <path class="cls-8" d="M27.68,87.55c0,.81-.66,1.47-1.47,1.47s-1.47-.66-1.47-1.47.66-1.47,1.47-1.47,1.47.66,1.47,1.47Z"/>
                <path class="cls-8" d="M43.16,134.58c0,.51-.41.92-.92.92s-.92-.41-.92-.92.41-.91.92-.91.92.41.92.91Z"/>
                <path class="cls-8" d="M57.77,151.14c0,.51-.41.92-.92.92s-.92-.41-.92-.92.41-.92.92-.92.92.41.92.92Z"/>
                <circle class="cls-8" cx="72.1" cy="138.16" r=".92"/>
                <path class="cls-8" d="M55.43,124.15c0,.51-.41.92-.92.92s-.92-.41-.92-.92.41-.92.92-.92.92.41.92.92Z"/>
                <path class="cls-8" d="M73.01,112.18c0,.51-.41.92-.92.92s-.92-.41-.92-.92.41-.92.92-.92.92.41.92.92Z"/>
                <path class="cls-8" d="M49.62,90.75c0,.51-.41.92-.92.92s-.91-.41-.91-.92.41-.92.91-.92.92.41.92.92Z"/>
                <path class="cls-8" d="M78.74,84.3c0,.51-.41.92-.92.92s-.92-.41-.92-.92.41-.92.92-.92.92.41.92.92Z"/>
              </g>
              <path class="cls-2" d="M53.55,163.15c3.57-.05,6.95-.2,10.01-.43-2.79-.21-5.33-.49-7.5-.82-5.14-.78-8.32-1.86-8.32-3.06l-4.06-61.83-2.72-4.19c-1.11-1.71-1.77-3.67-1.91-5.71l-2.9-42.29c-8.29-.44-15.23-1.24-19.79-2.27l3.05,44.55c.14,2.04.79,4,1.91,5.71l2.72,4.19,4.06,61.83c0,1.2,3.18,2.28,8.32,3.06,4.48.69,10.46,1.14,17.12,1.25Z"/>
              <path class="cls-1" d="M26.71,137.71h0c4.05,0,7.26-3.42,6.99-7.46l-2.18-33.23-2.72-4.19c-1.11-1.71-1.77-3.67-1.91-5.71l-2.97-43.31c-2.95-.36-5.5-.78-7.56-1.24l3.05,44.55c.14,2.04.79,4,1.91,5.71l2.72,4.19,2.67,40.69Z"/>
              <path class="cls-2" d="M76.93,43.91l-2.96,43.2c-.14,2.04-.79,4-1.91,5.71l-2.72,4.19-4.06,61.83c0,2.02-9.06,3.71-21.32,4.19,1.6.06,3.27.1,4.96.12,14.42-.21,25.71-2.05,25.71-4.31l4.06-61.83,2.72-4.19c1.11-1.71,1.77-3.67,1.91-5.71l3.07-44.78c-2.41.6-5.62,1.14-9.46,1.58Z"/>
              <path class="cls-10" d="M55.99,47.03l-3.9,18.31c-.39,0-.79,0-1.2,0-1.53,0-3.04-.02-4.52-.05-.05-.04-.07-.08-.11-.12l3.86-18.1h.77c1.73,0,3.43-.02,5.1-.05Z"/>
              <path class="cls-11" d="M65.73,1.37l-9.33,43.8-.4,1.87c-1.66.03-3.37.05-5.1.05h-.77l.39-1.87L60.13.19c0,.27,1.19.75,2.7,1.07,1.54.33,2.84.38,2.9.11Z"/>
              <path class="cls-17" d="M65.73,1.37c-.06.27-1.36.22-2.9-.11-1.51-.32-2.7-.79-2.7-1.07v-.02l5.6,1.2Z"/>
              <path class="cls-10" d="M65.73,1.37c-.06.27-1.36.22-2.9-.11-1.51-.32-2.7-.79-2.7-1.07v-.02c.06-.26,1.36-.22,2.91.11,1.54.34,2.75.81,2.69,1.08Z"/>
              <path class="cls-3" d="M91.15,40.08l-.14,2.09c-1.95,2.53-16.53,4.54-35.02,4.85-1.66.03-3.37.05-5.1.05h-.77c-20.5-.06-37.23-2.18-39.34-4.9l-.15-2.09c1.34,2.84,18.63,5.1,39.88,5.12h.37c1.86,0,3.7-.02,5.5-.05,18.83-.36,33.53-2.47,34.75-5.08Z"/>
            </g>
            <g>
              <path class="cls-16" d="M57.53,120.92c-.65,18.77,8.68,20.35,9.24,20.74.56.4-3.55.3-3.55.3,7.07,6.06,12.1,6.05,12.1,6.05l-3.61,1.22c4.66,3.83,12.81,3.57,12.81,3.57,0,0,5.14-9.1-.37-16.46l-.71,4.05s-1.72-9.58-7.35-14.61l-.2,4.41c-1.95-6.77-7.22-9.94-18.36-9.28Z"/>
              <g>
                <path class="cls-13" d="M84.52,152.81c-1.85-2.99-3.84-5.87-5.86-8.72-2.04-2.83-4.17-5.61-6.4-8.29-2.2-2.71-4.57-5.27-7.01-7.77l-1.85-1.85-1.92-1.78c-1.24-1.25-2.65-2.28-3.95-3.48,2.94,1.91,5.81,4,8.38,6.43,2.6,2.39,5.04,4.95,7.28,7.67,4.48,5.45,8.42,11.37,11.33,17.78Z"/>
                <path class="cls-13" d="M83.44,140.39c-.43.42-.81.83-1.08,1.31-.27.48-.47.98-.62,1.5-.14.52-.24,1.06-.29,1.6-.07.53-.07,1.11-.06,1.61l.02,1.37-1.01-.87s-.26-.15-.43-.18c-.19-.04-.39-.08-.6-.08-.42,0-.87.07-1.32.2-.45.13-.91.3-1.36.51l-1.37.65c.32-.41.68-.78,1.08-1.12.4-.33.84-.65,1.33-.88.48-.25,1.03-.42,1.61-.47.29-.03.6-.02.9.05.32.08.58.15.95.41l-.99.5c-.06-.66.01-1.25.1-1.86.1-.61.27-1.21.52-1.78.26-.57.61-1.1,1.05-1.54.45-.44.99-.76,1.56-.93Z"/>
                <path class="cls-13" d="M75.92,129.56c-.67,1.49-.68,3.08-.57,4.64.07.78.16,1.56.31,2.33.14.77.29,1.56.5,2.29l.27.96-.99-.21c-.7-.15-1.5-.2-2.25-.2-.77-.01-1.53.08-2.28.22-.75.14-1.48.4-2.18.74-.72.32-1.33.82-1.97,1.33.43-.68.97-1.34,1.65-1.83.68-.49,1.43-.91,2.25-1.15.8-.27,1.65-.39,2.49-.45.85-.04,1.67,0,2.55.16l-.71.75c-.21-.83-.36-1.62-.47-2.45-.09-.82-.16-1.65-.12-2.48.03-.83.12-1.67.35-2.47.24-.8.59-1.59,1.16-2.18Z"/>
                <path class="cls-13" d="M67.28,122.09c-.26.68-.16,1.38-.07,2.06.1.69.28,1.37.44,2.04.36,1.35.77,2.7,1.21,4.02l.31.92-.97-.14c-1.63-.23-3.29-.42-4.94-.51-.83-.05-1.65-.06-2.48-.03-.82.04-1.65.13-2.45.44.66-.57,1.52-.85,2.36-1.06.85-.2,1.71-.3,2.57-.34,1.73-.07,3.43.04,5.14.33l-.66.78c-.44-1.39-.77-2.79-.96-4.23-.09-.72-.14-1.45-.11-2.18.05-.72.14-1.52.62-2.09Z"/>
              </g>
            </g>
            <g>
              <path class="cls-16" d="M36.92,151.5c14.88,11.47,21.59,4.8,22.24,4.58.65-.22-1.82,3.06-1.82,3.06,9.04-2.22,11.97-6.31,11.97-6.31l-1.11,3.65c5.82-1.55,10.36-8.33,10.36-8.33,0,0-4.4-9.48-13.59-9.29l2.87,2.94s-8.79-4.18-16.15-2.54l3.47,2.73c-6.64-2.36-12.28.08-18.24,9.52Z"/>
              <g>
                <path class="cls-13" d="M78.55,148.14c-3.51-.23-7.01-.3-10.5-.32-3.5.01-6.99.12-10.46.37-3.48.21-6.95.64-10.39,1.17l-2.58.43-2.57.52c-1.73.28-3.4.83-5.13,1.18,3.27-1.28,6.64-2.39,10.1-3.06,3.45-.72,6.96-1.21,10.48-1.45,7.03-.47,14.14-.22,21.05,1.15Z"/>
                <path class="cls-13" d="M67.84,141.79c.09.6.21,1.14.44,1.64.23.5.52.95.86,1.38.34.42.72.81,1.13,1.17.39.37.86.7,1.27.99l1.13.78-1.29.32s-.27.12-.4.24c-.14.13-.29.27-.41.44-.25.34-.45.75-.61,1.19-.15.44-.28.91-.38,1.4l-.27,1.5c-.14-.5-.24-1.01-.29-1.53-.04-.52-.04-1.06.06-1.59.07-.54.26-1.08.56-1.58.15-.25.33-.5.57-.71.25-.22.46-.39.89-.53l-.17,1.09c-.57-.34-1.01-.74-1.46-1.16-.43-.44-.82-.93-1.14-1.46-.31-.54-.54-1.14-.64-1.75-.09-.62-.04-1.25.16-1.81Z"/>
                <path class="cls-13" d="M54.65,141.59c.82,1.42,2.1,2.35,3.44,3.16.67.4,1.36.78,2.08,1.11.7.34,1.44.67,2.15.93l.94.34-.74.68c-.53.48-1.04,1.1-1.48,1.72-.46.62-.82,1.29-1.15,1.98-.32.7-.54,1.44-.67,2.2-.16.77-.11,1.56-.07,2.37-.3-.75-.53-1.57-.53-2.41,0-.84.1-1.69.38-2.5.25-.81.64-1.57,1.08-2.29.47-.71.98-1.35,1.62-1.98l.2,1.02c-.79-.31-1.53-.65-2.26-1.05-.72-.4-1.43-.83-2.09-1.35-.66-.5-1.28-1.07-1.8-1.73-.51-.66-.95-1.4-1.1-2.21Z"/>
                <path class="cls-13" d="M43.55,144.26c.4.6,1.03.93,1.63,1.26.62.32,1.27.57,1.92.83,1.31.49,2.64.95,3.97,1.36l.92.28-.68.71c-1.14,1.19-2.26,2.43-3.3,3.72-.53.64-1.02,1.31-1.46,2-.44.69-.86,1.42-1.07,2.25-.08-.87.19-1.73.51-2.53.33-.81.75-1.57,1.22-2.29.95-1.45,2.04-2.76,3.27-3.99l.24.99c-1.39-.45-2.72-.99-4-1.68-.64-.34-1.26-.73-1.84-1.18-.55-.46-1.15-1-1.34-1.72Z"/>
              </g>
            </g>
            <g>
              <path class="cls-16" d="M114.22,131.31s8.57-3.34,11.7-6.79c0,0,2.76,2.22,1.84,3.85-.92,1.62-10.14,5.14-13.12,5.64-2.98.49-.42-2.69-.42-2.69Z"/>
              <g>
                <g>
                  <path class="cls-8" d="M106.67,124.95c-3.71,1.78-8.01.53-9.6-2.79-1.59-3.32.13-7.45,3.84-9.22,3.71-1.78,8.01-.53,9.6,2.79,1.59,3.32-.13,7.45-3.84,9.22Z"/>
                  <path class="cls-4" d="M106.66,122.66c-2.97,1.42-6.41.42-7.68-2.23s.1-5.96,3.07-7.38c2.97-1.42,6.41-.42,7.68,2.23,1.27,2.65-.1,5.96-3.07,7.38Z"/>
                  <path class="cls-14" d="M106.71,118.14c-1.61.77-3.47.23-4.16-1.21-.69-1.44.06-3.23,1.66-4,1.61-.77,3.47-.23,4.16,1.21.69,1.44-.06,3.23-1.66,4Z"/>
                  <path class="cls-11" d="M106.01,115.66c-1.15-.23-1.97-1.01-1.82-1.74s1.2-1.14,2.35-.91c1.15.23,1.97,1.01,1.82,1.74-.15.73-1.2,1.14-2.35.91Z"/>
                </g>
                <g>
                  <path class="cls-8" d="M114.36,143.25c-3.71,1.78-8.01.53-9.6-2.79s.13-7.45,3.84-9.22c3.71-1.78,8.01-.53,9.6,2.79,1.59,3.32-.13,7.45-3.84,9.22Z"/>
                  <path class="cls-4" d="M114.35,140.96c-2.97,1.42-6.41.42-7.68-2.23-1.27-2.65.1-5.96,3.07-7.38,2.97-1.42,6.41-.42,7.68,2.23,1.27,2.65-.1,5.96-3.07,7.38Z"/>
                  <path class="cls-14" d="M114.4,136.44c-1.61.77-3.47.23-4.16-1.21-.69-1.44.06-3.23,1.66-4,1.61-.77,3.47-.23,4.16,1.21s-.06,3.23-1.66,4Z"/>
                  <path class="cls-11" d="M113.69,133.96c-1.15-.23-1.97-1.01-1.82-1.74s1.2-1.14,2.35-.91c1.15.23,1.97,1.01,1.82,1.74-.15.73-1.2,1.14-2.35.91Z"/>
                </g>
                <g>
                  <path class="cls-8" d="M97.1,133.67c-3.71,1.78-8.01.53-9.6-2.79-1.59-3.32.13-7.45,3.84-9.22s8.01-.53,9.6,2.79c1.59,3.32-.13,7.45-3.84,9.22Z"/>
                  <path class="cls-4" d="M97.09,131.38c-2.97,1.42-6.41.42-7.68-2.23-1.27-2.65.1-5.96,3.07-7.38,2.97-1.42,6.41-.42,7.68,2.23,1.27,2.65-.1,5.96-3.07,7.38Z"/>
                  <path class="cls-14" d="M97.14,126.86c-1.61.77-3.47.23-4.16-1.21-.69-1.44.06-3.23,1.66-4,1.61-.77,3.47-.23,4.16,1.21.69,1.44-.06,3.23-1.66,4Z"/>
                  <path class="cls-11" d="M96.44,124.38c-1.15-.23-1.97-1.01-1.82-1.74.15-.73,1.2-1.14,2.35-.91,1.15.23,1.97,1.01,1.82,1.74-.15.73-1.2,1.14-2.35.91Z"/>
                </g>
                <g>
                  <path class="cls-8" d="M110,134.16c-3.71,1.78-8.01.53-9.6-2.79-1.59-3.32.13-7.45,3.84-9.22,3.71-1.78,8.01-.53,9.6,2.79,1.59,3.32-.13,7.45-3.84,9.22Z"/>
                  <path class="cls-4" d="M109.99,131.87c-2.97,1.42-6.41.42-7.68-2.23-1.27-2.65.1-5.96,3.07-7.38,2.97-1.42,6.41-.42,7.68,2.23,1.27,2.65-.1,5.96-3.07,7.38Z"/>
                  <path class="cls-14" d="M110.04,127.35c-1.61.77-3.47.23-4.16-1.21-.69-1.44.06-3.23,1.66-4,1.61-.77,3.47-.23,4.16,1.21.69,1.44-.06,3.23-1.66,4Z"/>
                  <path class="cls-11" d="M109.34,124.87c-1.15-.23-1.97-1.01-1.82-1.74s1.2-1.14,2.35-.91c1.15.23,1.97,1.01,1.82,1.74-.15.73-1.2,1.14-2.35.91Z"/>
                </g>
                <g>
                  <path class="cls-8" d="M89.47,143.07c-3.71,1.78-8.01.53-9.6-2.79-1.59-3.32.13-7.45,3.84-9.22,3.71-1.78,8.01-.53,9.6,2.79,1.59,3.32-.13,7.45-3.84,9.22Z"/>
                  <path class="cls-4" d="M89.45,140.78c-2.97,1.42-6.41.42-7.68-2.23s.1-5.96,3.07-7.38c2.97-1.42,6.41-.42,7.68,2.23,1.27,2.65-.1,5.96-3.07,7.38Z"/>
                  <path class="cls-14" d="M89.5,136.26c-1.61.77-3.47.23-4.16-1.21s.06-3.23,1.66-4c1.61-.77,3.47-.23,4.16,1.21.69,1.44-.06,3.23-1.66,4Z"/>
                  <path class="cls-11" d="M88.8,133.78c-1.15-.23-1.97-1.01-1.82-1.74.15-.73,1.2-1.14,2.35-.91,1.15.23,1.97,1.01,1.82,1.74-.15.73-1.2,1.14-2.35.91Z"/>
                </g>
                <g>
                  <path class="cls-8" d="M90.26,151.37c-3.71,1.78-8.01.53-9.6-2.79-1.59-3.32.13-7.45,3.84-9.22,3.71-1.78,8.01-.53,9.6,2.79s-.13,7.45-3.84,9.22Z"/>
                  <path class="cls-4" d="M90.25,149.08c-2.97,1.42-6.41.42-7.68-2.23s.1-5.96,3.07-7.38c2.97-1.42,6.41-.42,7.68,2.23s-.1,5.96-3.07,7.38Z"/>
                  <path class="cls-14" d="M90.3,144.56c-1.61.77-3.47.23-4.16-1.21-.69-1.44.06-3.23,1.66-4,1.61-.77,3.47-.23,4.16,1.21.69,1.44-.06,3.23-1.66,4Z"/>
                  <path class="cls-11" d="M89.59,142.08c-1.15-.23-1.97-1.01-1.82-1.74.15-.73,1.2-1.14,2.35-.91,1.15.23,1.97,1.01,1.82,1.74-.15.73-1.2,1.14-2.35.91Z"/>
                </g>
                <g>
                  <path class="cls-8" d="M101.74,143.92c-3.71,1.78-8.01.53-9.6-2.79-1.59-3.32.13-7.45,3.84-9.22,3.71-1.78,8.01-.53,9.6,2.79,1.59,3.32-.13,7.45-3.84,9.22Z"/>
                  <path class="cls-4" d="M101.72,141.63c-2.97,1.42-6.41.42-7.68-2.23-1.27-2.65.1-5.96,3.07-7.38,2.97-1.42,6.41-.42,7.68,2.23,1.27,2.65-.1,5.96-3.07,7.38Z"/>
                  <path class="cls-14" d="M101.78,137.11c-1.61.77-3.47.23-4.16-1.21-.69-1.44.06-3.23,1.66-4,1.61-.77,3.47-.23,4.16,1.21.69,1.44-.06,3.23-1.66,4Z"/>
                  <path class="cls-11" d="M101.07,134.63c-1.15-.23-1.97-1.01-1.82-1.74.15-.73,1.2-1.14,2.35-.91,1.15.23,1.97,1.01,1.82,1.74-.15.73-1.2,1.14-2.35.91Z"/>
                </g>
                <g>
                  <path class="cls-8" d="M100.52,155.54c-3.71,1.78-8.01.53-9.6-2.79-1.59-3.32.13-7.45,3.84-9.22,3.71-1.78,8.01-.53,9.6,2.79s-.13,7.45-3.84,9.22Z"/>
                  <path class="cls-4" d="M100.5,153.25c-2.97,1.42-6.41.42-7.68-2.23-1.27-2.65.1-5.96,3.07-7.38,2.97-1.42,6.41-.42,7.68,2.23s-.1,5.96-3.07,7.38Z"/>
                  <path class="cls-14" d="M100.56,148.73c-1.61.77-3.47.23-4.16-1.21-.69-1.44.06-3.23,1.66-4,1.61-.77,3.47-.23,4.16,1.21.69,1.44-.06,3.23-1.66,4Z"/>
                  <path class="cls-11" d="M99.85,146.25c-1.15-.23-1.97-1.01-1.82-1.74.15-.73,1.2-1.14,2.35-.91,1.15.23,1.97,1.01,1.82,1.74-.15.73-1.2,1.14-2.35.91Z"/>
                </g>
                <g>
                  <path class="cls-8" d="M121.52,153.68c-3.71,1.78-8.01.53-9.6-2.79-1.59-3.32.13-7.45,3.84-9.22,3.71-1.78,8.01-.53,9.6,2.79s-.13,7.45-3.84,9.22Z"/>
                  <path class="cls-4" d="M121.51,151.39c-2.97,1.42-6.41.42-7.68-2.23-1.27-2.65.1-5.96,3.07-7.38,2.97-1.42,6.41-.42,7.68,2.23,1.27,2.65-.1,5.96-3.07,7.38Z"/>
                  <path class="cls-14" d="M121.56,146.87c-1.61.77-3.47.23-4.16-1.21-.69-1.44.06-3.23,1.66-4,1.61-.77,3.47-.23,4.16,1.21.69,1.44-.06,3.23-1.66,4Z"/>
                  <path class="cls-11" d="M120.86,144.39c-1.15-.23-1.97-1.01-1.82-1.74.15-.73,1.2-1.14,2.35-.91,1.15.23,1.97,1.01,1.82,1.74-.15.73-1.2,1.14-2.35.91Z"/>
                </g>
                <g>
                  <path class="cls-8" d="M111.05,151.31c-3.71,1.78-8.01.53-9.6-2.79-1.59-3.32.13-7.45,3.84-9.22,3.71-1.78,8.01-.53,9.6,2.79,1.59,3.32-.13,7.45-3.84,9.22Z"/>
                  <path class="cls-4" d="M111.03,149.02c-2.97,1.42-6.41.42-7.68-2.23-1.27-2.65.1-5.96,3.07-7.38,2.97-1.42,6.41-.42,7.68,2.23s-.1,5.96-3.07,7.38Z"/>
                  <path class="cls-14" d="M111.09,144.5c-1.61.77-3.47.23-4.16-1.21-.69-1.44.06-3.23,1.66-4,1.61-.77,3.47-.23,4.16,1.21.69,1.44-.06,3.23-1.66,4Z"/>
                  <path class="cls-11" d="M110.38,142.02c-1.15-.23-1.97-1.01-1.82-1.74.15-.73,1.2-1.14,2.35-.91,1.15.23,1.97,1.01,1.82,1.74-.15.73-1.2,1.14-2.35.91Z"/>
                </g>
                <g>
                  <path class="cls-8" d="M112.56,161.94c-3.71,1.78-8.01.53-9.6-2.79-1.59-3.32.13-7.45,3.84-9.22,3.71-1.78,8.01-.53,9.6,2.79,1.59,3.32-.13,7.45-3.84,9.22Z"/>
                  <path class="cls-4" d="M112.55,159.65c-2.97,1.42-6.41.42-7.68-2.23-1.27-2.65.1-5.96,3.07-7.38,2.97-1.42,6.41-.42,7.68,2.23,1.27,2.65-.1,5.96-3.07,7.38Z"/>
                  <path class="cls-14" d="M112.6,155.13c-1.61.77-3.47.23-4.16-1.21s.06-3.23,1.66-4c1.61-.77,3.47-.23,4.16,1.21.69,1.44-.06,3.23-1.66,4Z"/>
                  <path class="cls-11" d="M111.89,152.65c-1.15-.23-1.97-1.01-1.82-1.74.15-.73,1.2-1.14,2.35-.91,1.15.23,1.97,1.01,1.82,1.74-.15.73-1.2,1.14-2.35.91Z"/>
                </g>
                <g>
                  <path class="cls-8" d="M102.35,166.83c-3.71,1.78-8.01.53-9.6-2.79-1.59-3.32.13-7.45,3.84-9.22,3.71-1.78,8.01-.53,9.6,2.79,1.59,3.32-.13,7.45-3.84,9.22Z"/>
                  <path class="cls-4" d="M102.34,164.54c-2.97,1.42-6.41.42-7.68-2.23-1.27-2.65.1-5.96,3.07-7.38,2.97-1.42,6.41-.42,7.68,2.23,1.27,2.65-.1,5.96-3.07,7.38Z"/>
                  <path class="cls-14" d="M102.39,160.02c-1.61.77-3.47.23-4.16-1.21-.69-1.44.06-3.23,1.66-4,1.61-.77,3.47-.23,4.16,1.21.69,1.44-.06,3.23-1.66,4Z"/>
                  <path class="cls-11" d="M101.68,157.54c-1.15-.23-1.97-1.01-1.82-1.74.15-.73,1.2-1.14,2.35-.91,1.15.23,1.97,1.01,1.82,1.74-.15.73-1.2,1.14-2.35.91Z"/>
                </g>
                <g>
                  <path class="cls-8" d="M93.55,163.14c-3.71,1.78-8.01.53-9.6-2.79-1.59-3.32.13-7.45,3.84-9.22,3.71-1.78,8.01-.53,9.6,2.79,1.59,3.32-.13,7.45-3.84,9.22Z"/>
                  <path class="cls-4" d="M93.54,160.85c-2.97,1.42-6.41.42-7.68-2.23-1.27-2.65.1-5.96,3.07-7.38,2.97-1.42,6.41-.42,7.68,2.23,1.27,2.65-.1,5.96-3.07,7.38Z"/>
                  <path class="cls-14" d="M93.59,156.33c-1.61.77-3.47.23-4.16-1.21-.69-1.44.06-3.23,1.66-4s3.47-.23,4.16,1.21c.69,1.44-.06,3.23-1.66,4Z"/>
                  <path class="cls-11" d="M92.89,153.85c-1.15-.23-1.97-1.01-1.82-1.74.15-.73,1.2-1.14,2.35-.91,1.15.23,1.97,1.01,1.82,1.74-.15.73-1.2,1.14-2.35.91Z"/>
                </g>
                <g>
                  <path class="cls-8" d="M78.67,151.94c-3.71,1.78-8.01.53-9.6-2.79-1.59-3.32.13-7.45,3.84-9.22,3.71-1.78,8.01-.53,9.6,2.79s-.13,7.45-3.84,9.22Z"/>
                  <path class="cls-4" d="M78.66,149.65c-2.97,1.42-6.41.42-7.68-2.23-1.27-2.65.1-5.96,3.07-7.38,2.97-1.42,6.41-.42,7.68,2.23s-.1,5.96-3.07,7.38Z"/>
                  <path class="cls-14" d="M78.71,145.13c-1.61.77-3.47.23-4.16-1.21-.69-1.44.06-3.23,1.66-4,1.61-.77,3.47-.23,4.16,1.21.69,1.44-.06,3.23-1.66,4Z"/>
                  <path class="cls-11" d="M78.01,142.65c-1.15-.23-1.97-1.01-1.82-1.74.15-.73,1.2-1.14,2.35-.91,1.15.23,1.97,1.01,1.82,1.74-.15.73-1.2,1.14-2.35.91Z"/>
                </g>
                <g>
                  <path class="cls-8" d="M69.64,161.16c-3.71,1.78-8.01.53-9.6-2.79s.13-7.45,3.84-9.22c3.71-1.78,8.01-.53,9.6,2.79,1.59,3.32-.13,7.45-3.84,9.22Z"/>
                  <path class="cls-4" d="M69.62,158.88c-2.97,1.42-6.41.42-7.68-2.23-1.27-2.65.1-5.96,3.07-7.38,2.97-1.42,6.41-.42,7.68,2.23,1.27,2.65-.1,5.96-3.07,7.38Z"/>
                  <path class="cls-14" d="M69.68,154.35c-1.61.77-3.47.23-4.16-1.21-.69-1.44.06-3.23,1.66-4,1.61-.77,3.47-.23,4.16,1.21.69,1.44-.06,3.23-1.66,4Z"/>
                  <path class="cls-11" d="M68.97,151.88c-1.15-.23-1.97-1.01-1.82-1.74.15-.73,1.2-1.14,2.35-.91,1.15.23,1.97,1.01,1.82,1.74-.15.73-1.2,1.14-2.35.91Z"/>
                </g>
                <g>
                  <path class="cls-8" d="M82.58,162.35c-3.71,1.78-8.01.53-9.6-2.79-1.59-3.32.13-7.45,3.84-9.22,3.71-1.78,8.01-.53,9.6,2.79s-.13,7.45-3.84,9.22Z"/>
                  <path class="cls-4" d="M82.57,160.06c-2.97,1.42-6.41.42-7.68-2.23s.1-5.96,3.07-7.38c2.97-1.42,6.41-.42,7.68,2.23s-.1,5.96-3.07,7.38Z"/>
                  <path class="cls-14" d="M82.62,155.54c-1.61.77-3.47.23-4.16-1.21-.69-1.44.06-3.23,1.66-4,1.61-.77,3.47-.23,4.16,1.21.69,1.44-.06,3.23-1.66,4Z"/>
                  <path class="cls-11" d="M81.91,153.06c-1.15-.23-1.97-1.01-1.82-1.74.15-.73,1.2-1.14,2.35-.91,1.15.23,1.97,1.01,1.82,1.74s-1.2,1.14-2.35.91Z"/>
                </g>
              </g>
            </g>
          </g>
        </g>
      </g>
    </g>
  </g>
</svg>