<?xml version="1.0" encoding="UTF-8"?>
<svg xmlns="http://www.w3.org/2000/svg" viewBox="0 0 164.97 171.63">
  <defs>
    <style>
      .cls-1 {
        opacity: .46;
      }

      .cls-1, .cls-2 {
        mix-blend-mode: screen;
      }

      .cls-1, .cls-2, .cls-3 {
        fill: #eefcfa;
      }

      .cls-4 {
        fill: #d39bc8;
      }

      .cls-2 {
        opacity: .24;
      }

      .cls-5 {
        fill: #ba6ca7;
      }

      .cls-6 {
        opacity: .45;
      }

      .cls-6, .cls-7 {
        mix-blend-mode: multiply;
      }

      .cls-7 {
        opacity: .39;
      }

      .cls-8 {
        fill: #c9dfdd;
      }

      .cls-9 {
        fill: #9e5c8e;
      }

      .cls-10 {
        fill: #eef2f2;
      }

      .cls-11 {
        fill: #e0add6;
      }

      .cls-12 {
        fill: #fffaf0;
      }

      .cls-13 {
        fill: #e8cce2;
      }

      .cls-14 {
        fill: #ffe0f8;
      }

      .cls-15 {
        isolation: isolate;
      }

      .cls-16 {
        fill: #54821f;
      }

      .cls-17 {
        fill: #c974b5;
      }

      .cls-18 {
        fill: #cdf;
      }

      .cls-19 {
        fill: #b2d1ce;
      }

      .cls-20 {
        fill: #a1b8e6;
      }

      .cls-21 {
        fill: #669d25;
      }

      .cls-22 {
        fill: #ece7e3;
      }

      .cls-23 {
        fill: #ffc9d0;
      }
    </style>
  </defs>
  <g class="cls-15">
    <g id="Layer_2">
      <g id="OBJECTS">
        <g>
          <g>
            <path class="cls-10" d="M111.69,142.34c-8.7-1.55-19.16-2.46-30.41-2.46-30.28,0-54.82,6.56-54.82,14.65s23.72,14.42,53.28,14.64c8.7,1.55,19.16,2.46,30.41,2.46,30.28,0,54.82-6.56,54.82-14.65s-23.72-14.42-53.28-14.64Z"/>
            <g>
              <g>
                <path class="cls-8" d="M117.7,39.87l-3.24,47.25c-.14,2.04-.79,4-1.91,5.71l-2.72,4.19-4.06,61.83c0,2.39-12.73,4.33-28.41,4.33-7.84,0-14.95-.49-20.08-1.27-5.14-.78-8.32-1.86-8.32-3.06l-4.06-61.83-2.72-4.19c-1.11-1.71-1.77-3.67-1.91-5.71l-3.23-47.25c.55,2.96,18.39,5.34,40.33,5.34s39.78-2.37,40.34-5.34Z"/>
                <path class="cls-11" d="M112.58,59.7l-.03.48c-1.03,2.89-16.4,5.17-35.19,5.17s-34.26-2.3-35.19-5.2l-.03-.41h0c.02-.09.04-.18.08-.26,1.29-2.85,16.52-5.1,35.14-5.1s33.86,2.24,35.15,5.1c.04.07.07.15.07.22Z"/>
                <path class="cls-4" d="M112.55,60.18l-1.82,26.69c-.09,1.39-.55,2.76-1.31,3.93l-3.25,5.01-4.02,61.28c-2.86.97-11.45,2.36-24.79,2.36-7.41,0-14.33-.44-19.52-1.22-2.81-.43-4.4-.86-5.25-1.15l-4.02-61.26-3.25-5.01c-.76-1.17-1.22-2.53-1.31-3.94l-1.83-26.7c.86,2.66,13.93,4.82,30.68,5.15,1.48.03,2.98.05,4.52.05.4,0,.8,0,1.2,0,18.25-.08,32.99-2.34,34-5.16Z"/>
                <path class="cls-9" d="M102.14,156.98c0,1.47-11.09,2.66-24.78,2.66s-24.78-1.19-24.78-2.66,11.09-2.66,24.78-2.66,24.78,1.19,24.78,2.66Z"/>
                <path class="cls-8" d="M117.7,39.73s0,.09,0,.14c-.55,2.96-18.4,5.34-40.34,5.34s-39.77-2.37-40.33-5.34c0-.05,0-.09,0-.14,0-3.03,18.05-5.49,40.34-5.49s40.35,2.46,40.35,5.49Z"/>
                <path class="cls-19" d="M37.61,40.67c3.25-2.59,19.8-4.56,39.75-4.56s36.5,1.97,39.76,4.56c.33-.26.53-.53.58-.8,0-.05,0-.09,0-.14,0-3.03-18.06-5.49-40.35-5.49s-40.34,2.46-40.34,5.49c0,.05,0,.09,0,.14.05.27.25.54.58.8Z"/>
                <g>
                  <path class="cls-3" d="M58.21,161.9c-5.14-.78-8.32-1.86-8.32-3.06l-4.06-61.83-2.72-4.19c-1.11-1.71-1.77-3.67-1.91-5.71l-3.16-46.16c-.59-.35-.94-.72-1.01-1.09l3.24,47.25c.14,2.04.79,4,1.91,5.71l2.72,4.19,4.06,61.83c0,1.2,3.18,2.28,8.32,3.06,5.13.79,12.24,1.27,20.08,1.27.21,0,.42,0,.62,0-7.72-.01-14.71-.49-19.77-1.27Z"/>
                  <path class="cls-3" d="M78.29,45.21c19.17,0,35.21-1.81,39.33-4.25l.07-1.09c-.55,2.94-18.15,5.3-39.87,5.34.16,0,.31,0,.47,0Z"/>
                </g>
                <path class="cls-19" d="M115.55,41.5l-3,43.74c-.14,2.04-.79,4-1.91,5.71l-2.72,4.19-4.06,61.83c0,2.39-12.73,4.33-28.41,4.33-7.84,0-14.95-.49-20.08-1.27-2.79-.42-4.99-.93-6.43-1.5l.02.32c0,1.2,3.18,2.28,8.32,3.06,5.13.79,12.24,1.27,20.08,1.27,15.69,0,28.41-1.94,28.41-4.33l4.06-61.83,2.72-4.19c1.11-1.71,1.77-3.67,1.91-5.71l3.24-47.25c-.11.57-.86,1.12-2.15,1.63Z"/>
                <g class="cls-6">
                  <g>
                    <path class="cls-19" d="M104.74,91.66c1.93.25,4.03.56,5.57,1.86.24.23.51.55.55,1.02-.01.09,0,.51-.04.59-.76,1.6-2.64,1.96-4.14,2.44-1.49.38-3.01.58-4.54.66.72-.25,1.45-.45,2.17-.69,1.76-.55,4.77-1.47,5.64-2.58,0,.02.04-.67.03-.39-.04-.23-.42-.66-.83-.91-1.35-.87-2.9-1.39-4.42-1.99h0Z"/>
                    <path class="cls-19" d="M52.01,98.12c-2.16-.14-4.32-.49-6.31-1.4-.74-.39-1.51-.78-1.81-1.69-.37-2.44,4.29-3.17,6.11-3.37-1.73.81-4.1,1.25-5.22,2.84,0,.05-.02.09-.03.13,0,0,0-.09,0-.09l.03.38c1.36,1.58,4.96,2.33,7.22,3.2h0Z"/>
                  </g>
                </g>
                <g class="cls-7">
                  <path class="cls-19" d="M55.81,98.12c9.15.14,19.38.88,28.53,1.05.63-.01,1.27-.01,1.91,0-10.1,1.26-20.39.35-30.44-1.05h0Z"/>
                </g>
                <g>
                  <path class="cls-9" d="M63.57,143.81c0,.81-.66,1.47-1.47,1.47s-1.47-.66-1.47-1.47.66-1.47,1.47-1.47,1.47.66,1.47,1.47Z"/>
                  <path class="cls-9" d="M92.3,147.47c0,.81-.66,1.47-1.47,1.47s-1.47-.66-1.47-1.47.66-1.47,1.47-1.47,1.47.66,1.47,1.47Z"/>
                  <circle class="cls-9" cx="53.48" cy="111.26" r="1.47"/>
                  <path class="cls-9" d="M87.72,102.83c0,.81-.66,1.47-1.47,1.47s-1.47-.66-1.47-1.47.66-1.47,1.47-1.47,1.47.66,1.47,1.47Z"/>
                  <path class="cls-9" d="M88.6,78.96c0,.81-.66,1.47-1.47,1.47s-1.47-.66-1.47-1.47.66-1.47,1.47-1.47,1.47.66,1.47,1.47Z"/>
                  <path class="cls-9" d="M54.14,87.55c0,.81-.66,1.47-1.47,1.47s-1.47-.66-1.47-1.47.66-1.47,1.47-1.47,1.47.66,1.47,1.47Z"/>
                  <path class="cls-9" d="M69.62,134.58c0,.51-.41.92-.92.92s-.92-.41-.92-.92.41-.91.92-.91.92.41.92.91Z"/>
                  <path class="cls-9" d="M84.23,151.14c0,.51-.41.92-.92.92s-.92-.41-.92-.92.41-.92.92-.92.92.41.92.92Z"/>
                  <circle class="cls-9" cx="98.56" cy="138.16" r=".92"/>
                  <path class="cls-9" d="M81.89,124.15c0,.51-.41.92-.92.92s-.92-.41-.92-.92.41-.92.92-.92.92.41.92.92Z"/>
                  <path class="cls-9" d="M99.48,112.18c0,.51-.41.92-.92.92s-.92-.41-.92-.92.41-.92.92-.92.92.41.92.92Z"/>
                  <path class="cls-9" d="M76.08,90.75c0,.51-.41.92-.92.92s-.91-.41-.91-.92.41-.92.91-.92.92.41.92.92Z"/>
                  <path class="cls-9" d="M105.2,84.3c0,.51-.41.92-.92.92s-.92-.41-.92-.92.41-.92.92-.92.92.41.92.92Z"/>
                </g>
                <path class="cls-2" d="M80.01,163.15c3.57-.05,6.95-.2,10.01-.43-2.79-.21-5.33-.49-7.5-.82-5.14-.78-8.32-1.86-8.32-3.06l-4.06-61.83-2.72-4.19c-1.11-1.71-1.77-3.67-1.91-5.71l-2.9-42.29c-8.29-.44-15.23-1.24-19.79-2.27l3.05,44.55c.14,2.04.79,4,1.91,5.71l2.72,4.19,4.06,61.83c0,1.2,3.18,2.28,8.32,3.06,4.48.69,10.46,1.14,17.12,1.25Z"/>
                <path class="cls-1" d="M53.18,137.71h0c4.05,0,7.26-3.42,6.99-7.46l-2.18-33.23-2.72-4.19c-1.11-1.71-1.77-3.67-1.91-5.71l-2.97-43.31c-2.95-.36-5.5-.78-7.56-1.24l3.05,44.55c.14,2.04.79,4,1.91,5.71l2.72,4.19,2.67,40.69Z"/>
                <path class="cls-2" d="M103.39,43.91l-2.96,43.2c-.14,2.04-.79,4-1.91,5.71l-2.72,4.19-4.06,61.83c0,2.02-9.06,3.71-21.32,4.19,1.6.06,3.27.1,4.96.12,14.42-.21,25.71-2.05,25.71-4.31l4.06-61.83,2.72-4.19c1.11-1.71,1.77-3.67,1.91-5.71l3.07-44.78c-2.41.6-5.62,1.14-9.46,1.58Z"/>
                <path class="cls-13" d="M82.46,47.03l-3.9,18.31c-.39,0-.79,0-1.2,0-1.53,0-3.04-.02-4.52-.05-.05-.04-.07-.08-.11-.12l3.86-18.1h.77c1.73,0,3.43-.02,5.1-.05Z"/>
                <path class="cls-14" d="M92.19,1.37l-9.33,43.8-.4,1.87c-1.66.03-3.37.05-5.1.05h-.77l.39-1.87L86.59.19c0,.27,1.19.75,2.7,1.07,1.54.33,2.84.38,2.9.11Z"/>
                <path class="cls-23" d="M92.19,1.37c-.06.27-1.36.22-2.9-.11-1.51-.32-2.7-.79-2.7-1.07v-.02l5.6,1.2Z"/>
                <path class="cls-13" d="M92.19,1.37c-.06.27-1.36.22-2.9-.11-1.51-.32-2.7-.79-2.7-1.07v-.02c.06-.26,1.36-.22,2.91.11,1.54.34,2.75.81,2.69,1.08Z"/>
                <path class="cls-3" d="M117.61,40.08l-.14,2.09c-1.95,2.53-16.53,4.54-35.02,4.85-1.66.03-3.37.05-5.1.05h-.77c-20.5-.06-37.23-2.18-39.34-4.9l-.15-2.09c1.34,2.84,18.63,5.1,39.88,5.12h.37c1.86,0,3.7-.02,5.5-.05,18.83-.36,33.53-2.47,34.75-5.08Z"/>
              </g>
              <g>
                <path class="cls-21" d="M83.99,120.92c-.65,18.77,8.68,20.35,9.24,20.74.56.4-3.55.3-3.55.3,7.07,6.06,12.1,6.05,12.1,6.05l-3.61,1.22c4.66,3.83,12.81,3.57,12.81,3.57,0,0,5.14-9.1-.37-16.46l-.71,4.05s-1.72-9.58-7.35-14.61l-.2,4.41c-1.95-6.77-7.22-9.94-18.36-9.28Z"/>
                <g>
                  <path class="cls-16" d="M110.98,152.81c-6.53-10.33-14.02-20.13-23.04-28.4-1.24-1.25-2.65-2.28-3.95-3.48,11.83,7.65,21,19.23,26.99,31.88h0Z"/>
                  <path class="cls-16" d="M109.9,140.39c-2.1,1.85-2.12,4.82-2.02,7.39,0,0-1.01-.87-1.01-.87-1.62-.8-3.58.44-5.09,1.1,1.16-1.44,2.95-2.77,4.92-2.42.32.08.58.15.95.41l-.99.5c-.15-2.38.75-5.35,3.24-6.12h0Z"/>
                  <path class="cls-16" d="M102.38,129.56c-1.3,3.3-.34,6.94.51,10.22,0,0-.99-.21-.99-.21-3-.56-6.35-.03-8.68,2.09,1.78-3,5.68-3.87,8.94-3.27,0,0-.71.75-.71.75-.7-3.11-1.24-6.95.92-9.59h0Z"/>
                  <path class="cls-16" d="M93.74,122.09c-.43,1.36.09,2.76.37,4.1.44,1.65.97,3.32,1.52,4.93,0,0-.97-.14-.97-.14-3.24-.34-6.68-1.07-9.87-.1.66-.57,1.52-.85,2.36-1.06,2.54-.57,5.16-.41,7.71-.01,0,0-.66.78-.66.78-.64-2.08-1.13-4.22-1.07-6.41.05-.72.14-1.52.62-2.09h0Z"/>
                </g>
              </g>
              <g>
                <path class="cls-21" d="M63.38,151.5c14.88,11.47,21.59,4.8,22.24,4.58.65-.22-1.82,3.06-1.82,3.06,9.04-2.22,11.97-6.31,11.97-6.31l-1.11,3.65c5.82-1.55,10.36-8.33,10.36-8.33,0,0-4.4-9.48-13.59-9.29l2.87,2.94s-8.79-4.18-16.15-2.54l3.47,2.73c-6.64-2.36-12.28.08-18.24,9.52Z"/>
                <g>
                  <path class="cls-16" d="M105.02,148.14c-12.2-.71-24.53-.34-36.51,2.18-1.73.28-3.4.83-5.13,1.18,13.11-5.15,27.86-5.86,41.64-3.36h0Z"/>
                  <path class="cls-16" d="M94.3,141.79c.28,2.78,2.68,4.54,4.83,5.95,0,0-1.29.32-1.29.32-1.16.57-1.52,2.08-1.8,3.28,0,0-.27,1.5-.27,1.5-.5-1.78-.53-4.01.9-5.41.25-.22.46-.39.89-.53l-.17,1.09c-2.02-1.27-3.91-3.72-3.09-6.19h0Z"/>
                  <path class="cls-16" d="M81.12,141.59c1.92,2.98,5.44,4.32,8.6,5.54,0,0-.74.68-.74.68-2.21,2.11-3.73,5.14-3.36,8.27-1.4-3.2.16-6.87,2.55-9.17,0,0,.2,1.02.2,1.02-2.93-1.24-6.37-3.04-7.25-6.34h0Z"/>
                  <path class="cls-16" d="M70.01,144.26c.86,1.14,2.3,1.54,3.55,2.09,1.6.6,3.26,1.15,4.89,1.64,0,0-.68.71-.68.71-2.17,2.43-4.76,4.81-5.83,7.97-.08-.87.19-1.73.51-2.53,1.02-2.4,2.67-4.44,4.48-6.28,0,0,.24.99.24.99-2.07-.69-4.09-1.54-5.84-2.87-.55-.46-1.15-1-1.34-1.72h0Z"/>
                </g>
              </g>
              <g>
                <path class="cls-21" d="M140.68,131.31s8.57-3.34,11.7-6.79c0,0,2.76,2.22,1.84,3.85-.92,1.62-10.14,5.14-13.12,5.64-2.98.49-.42-2.69-.42-2.69Z"/>
                <g>
                  <g>
                    <path class="cls-9" d="M133.14,124.95c-3.71,1.78-8.01.53-9.6-2.79-1.59-3.32.13-7.45,3.84-9.22,3.71-1.78,8.01-.53,9.6,2.79,1.59,3.32-.13,7.45-3.84,9.22Z"/>
                    <path class="cls-5" d="M133.12,122.66c-2.97,1.42-6.41.42-7.68-2.23s.1-5.96,3.07-7.38c2.97-1.42,6.41-.42,7.68,2.23,1.27,2.65-.1,5.96-3.07,7.38Z"/>
                    <path class="cls-17" d="M133.18,118.14c-1.61.77-3.47.23-4.16-1.21-.69-1.44.06-3.23,1.66-4,1.61-.77,3.47-.23,4.16,1.21.69,1.44-.06,3.23-1.66,4Z"/>
                    <path class="cls-14" d="M132.47,115.66c-1.15-.23-1.97-1.01-1.82-1.74s1.2-1.14,2.35-.91c1.15.23,1.97,1.01,1.82,1.74-.15.73-1.2,1.14-2.35.91Z"/>
                  </g>
                  <g>
                    <path class="cls-9" d="M140.82,143.25c-3.71,1.78-8.01.53-9.6-2.79s.13-7.45,3.84-9.22c3.71-1.78,8.01-.53,9.6,2.79,1.59,3.32-.13,7.45-3.84,9.22Z"/>
                    <path class="cls-5" d="M140.81,140.96c-2.97,1.42-6.41.42-7.68-2.23-1.27-2.65.1-5.96,3.07-7.38,2.97-1.42,6.41-.42,7.68,2.23,1.27,2.65-.1,5.96-3.07,7.38Z"/>
                    <path class="cls-17" d="M140.86,136.44c-1.61.77-3.47.23-4.16-1.21-.69-1.44.06-3.23,1.66-4,1.61-.77,3.47-.23,4.16,1.21s-.06,3.23-1.66,4Z"/>
                    <path class="cls-14" d="M140.15,133.96c-1.15-.23-1.97-1.01-1.82-1.74s1.2-1.14,2.35-.91c1.15.23,1.97,1.01,1.82,1.74-.15.73-1.2,1.14-2.35.91Z"/>
                  </g>
                  <g>
                    <path class="cls-9" d="M123.56,133.67c-3.71,1.78-8.01.53-9.6-2.79-1.59-3.32.13-7.45,3.84-9.22s8.01-.53,9.6,2.79c1.59,3.32-.13,7.45-3.84,9.22Z"/>
                    <path class="cls-5" d="M123.55,131.38c-2.97,1.42-6.41.42-7.68-2.23-1.27-2.65.1-5.96,3.07-7.38,2.97-1.42,6.41-.42,7.68,2.23,1.27,2.65-.1,5.96-3.07,7.38Z"/>
                    <path class="cls-17" d="M123.6,126.86c-1.61.77-3.47.23-4.16-1.21-.69-1.44.06-3.23,1.66-4,1.61-.77,3.47-.23,4.16,1.21.69,1.44-.06,3.23-1.66,4Z"/>
                    <path class="cls-14" d="M122.9,124.38c-1.15-.23-1.97-1.01-1.82-1.74.15-.73,1.2-1.14,2.35-.91,1.15.23,1.97,1.01,1.82,1.74-.15.73-1.2,1.14-2.35.91Z"/>
                  </g>
                  <g>
                    <path class="cls-9" d="M136.47,134.16c-3.71,1.78-8.01.53-9.6-2.79-1.59-3.32.13-7.45,3.84-9.22,3.71-1.78,8.01-.53,9.6,2.79,1.59,3.32-.13,7.45-3.84,9.22Z"/>
                    <path class="cls-5" d="M136.45,131.87c-2.97,1.42-6.41.42-7.68-2.23-1.27-2.65.1-5.96,3.07-7.38,2.97-1.42,6.41-.42,7.68,2.23,1.27,2.65-.1,5.96-3.07,7.38Z"/>
                    <path class="cls-17" d="M136.5,127.35c-1.61.77-3.47.23-4.16-1.21-.69-1.44.06-3.23,1.66-4,1.61-.77,3.47-.23,4.16,1.21.69,1.44-.06,3.23-1.66,4Z"/>
                    <path class="cls-14" d="M135.8,124.87c-1.15-.23-1.97-1.01-1.82-1.74s1.2-1.14,2.35-.91c1.15.23,1.97,1.01,1.82,1.74-.15.73-1.2,1.14-2.35.91Z"/>
                  </g>
                  <g>
                    <path class="cls-9" d="M115.93,143.07c-3.71,1.78-8.01.53-9.6-2.79-1.59-3.32.13-7.45,3.84-9.22,3.71-1.78,8.01-.53,9.6,2.79,1.59,3.32-.13,7.45-3.84,9.22Z"/>
                    <path class="cls-5" d="M115.91,140.78c-2.97,1.42-6.41.42-7.68-2.23s.1-5.96,3.07-7.38c2.97-1.42,6.41-.42,7.68,2.23,1.27,2.65-.1,5.96-3.07,7.38Z"/>
                    <path class="cls-17" d="M115.97,136.26c-1.61.77-3.47.23-4.16-1.21s.06-3.23,1.66-4c1.61-.77,3.47-.23,4.16,1.21.69,1.44-.06,3.23-1.66,4Z"/>
                    <path class="cls-14" d="M115.26,133.78c-1.15-.23-1.97-1.01-1.82-1.74.15-.73,1.2-1.14,2.35-.91,1.15.23,1.97,1.01,1.82,1.74-.15.73-1.2,1.14-2.35.91Z"/>
                  </g>
                  <g>
                    <path class="cls-9" d="M116.72,151.37c-3.71,1.78-8.01.53-9.6-2.79-1.59-3.32.13-7.45,3.84-9.22,3.71-1.78,8.01-.53,9.6,2.79s-.13,7.45-3.84,9.22Z"/>
                    <path class="cls-5" d="M116.71,149.08c-2.97,1.42-6.41.42-7.68-2.23s.1-5.96,3.07-7.38c2.97-1.42,6.41-.42,7.68,2.23s-.1,5.96-3.07,7.38Z"/>
                    <path class="cls-17" d="M116.76,144.56c-1.61.77-3.47.23-4.16-1.21-.69-1.44.06-3.23,1.66-4,1.61-.77,3.47-.23,4.16,1.21.69,1.44-.06,3.23-1.66,4Z"/>
                    <path class="cls-14" d="M116.06,142.08c-1.15-.23-1.97-1.01-1.82-1.74.15-.73,1.2-1.14,2.35-.91,1.15.23,1.97,1.01,1.82,1.74-.15.73-1.2,1.14-2.35.91Z"/>
                  </g>
                  <g>
                    <path class="cls-9" d="M128.2,143.92c-3.71,1.78-8.01.53-9.6-2.79-1.59-3.32.13-7.45,3.84-9.22,3.71-1.78,8.01-.53,9.6,2.79,1.59,3.32-.13,7.45-3.84,9.22Z"/>
                    <path class="cls-5" d="M128.19,141.63c-2.97,1.42-6.41.42-7.68-2.23-1.27-2.65.1-5.96,3.07-7.38,2.97-1.42,6.41-.42,7.68,2.23,1.27,2.65-.1,5.96-3.07,7.38Z"/>
                    <path class="cls-17" d="M128.24,137.11c-1.61.77-3.47.23-4.16-1.21-.69-1.44.06-3.23,1.66-4,1.61-.77,3.47-.23,4.16,1.21.69,1.44-.06,3.23-1.66,4Z"/>
                    <path class="cls-14" d="M127.53,134.63c-1.15-.23-1.97-1.01-1.82-1.74.15-.73,1.2-1.14,2.35-.91,1.15.23,1.97,1.01,1.82,1.74-.15.73-1.2,1.14-2.35.91Z"/>
                  </g>
                  <g>
                    <path class="cls-9" d="M126.98,155.54c-3.71,1.78-8.01.53-9.6-2.79-1.59-3.32.13-7.45,3.84-9.22,3.71-1.78,8.01-.53,9.6,2.79s-.13,7.45-3.84,9.22Z"/>
                    <path class="cls-5" d="M126.97,153.25c-2.97,1.42-6.41.42-7.68-2.23-1.27-2.65.1-5.96,3.07-7.38,2.97-1.42,6.41-.42,7.68,2.23s-.1,5.96-3.07,7.38Z"/>
                    <path class="cls-17" d="M127.02,148.73c-1.61.77-3.47.23-4.16-1.21-.69-1.44.06-3.23,1.66-4,1.61-.77,3.47-.23,4.16,1.21.69,1.44-.06,3.23-1.66,4Z"/>
                    <path class="cls-14" d="M126.31,146.25c-1.15-.23-1.97-1.01-1.82-1.74.15-.73,1.2-1.14,2.35-.91,1.15.23,1.97,1.01,1.82,1.74-.15.73-1.2,1.14-2.35.91Z"/>
                  </g>
                  <g>
                    <path class="cls-9" d="M147.99,153.68c-3.71,1.78-8.01.53-9.6-2.79-1.59-3.32.13-7.45,3.84-9.22,3.71-1.78,8.01-.53,9.6,2.79s-.13,7.45-3.84,9.22Z"/>
                    <path class="cls-5" d="M147.97,151.39c-2.97,1.42-6.41.42-7.68-2.23-1.27-2.65.1-5.96,3.07-7.38,2.97-1.42,6.41-.42,7.68,2.23,1.27,2.65-.1,5.96-3.07,7.38Z"/>
                    <path class="cls-17" d="M148.02,146.87c-1.61.77-3.47.23-4.16-1.21-.69-1.44.06-3.23,1.66-4,1.61-.77,3.47-.23,4.16,1.21.69,1.44-.06,3.23-1.66,4Z"/>
                    <path class="cls-14" d="M147.32,144.39c-1.15-.23-1.97-1.01-1.82-1.74.15-.73,1.2-1.14,2.35-.91,1.15.23,1.97,1.01,1.82,1.74-.15.73-1.2,1.14-2.35.91Z"/>
                  </g>
                  <g>
                    <path class="cls-9" d="M137.51,151.31c-3.71,1.78-8.01.53-9.6-2.79-1.59-3.32.13-7.45,3.84-9.22,3.71-1.78,8.01-.53,9.6,2.79,1.59,3.32-.13,7.45-3.84,9.22Z"/>
                    <path class="cls-5" d="M137.5,149.02c-2.97,1.42-6.41.42-7.68-2.23-1.27-2.65.1-5.96,3.07-7.38,2.97-1.42,6.41-.42,7.68,2.23s-.1,5.96-3.07,7.38Z"/>
                    <path class="cls-17" d="M137.55,144.5c-1.61.77-3.47.23-4.16-1.21-.69-1.44.06-3.23,1.66-4,1.61-.77,3.47-.23,4.16,1.21.69,1.44-.06,3.23-1.66,4Z"/>
                    <path class="cls-14" d="M136.84,142.02c-1.15-.23-1.97-1.01-1.82-1.74.15-.73,1.2-1.14,2.35-.91,1.15.23,1.97,1.01,1.82,1.74-.15.73-1.2,1.14-2.35.91Z"/>
                  </g>
                  <g>
                    <path class="cls-9" d="M139.02,161.94c-3.71,1.78-8.01.53-9.6-2.79-1.59-3.32.13-7.45,3.84-9.22,3.71-1.78,8.01-.53,9.6,2.79,1.59,3.32-.13,7.45-3.84,9.22Z"/>
                    <path class="cls-5" d="M139.01,159.65c-2.97,1.42-6.41.42-7.68-2.23-1.27-2.65.1-5.96,3.07-7.38,2.97-1.42,6.41-.42,7.68,2.23,1.27,2.65-.1,5.96-3.07,7.38Z"/>
                    <path class="cls-17" d="M139.06,155.13c-1.61.77-3.47.23-4.16-1.21s.06-3.23,1.66-4c1.61-.77,3.47-.23,4.16,1.21.69,1.44-.06,3.23-1.66,4Z"/>
                    <path class="cls-14" d="M138.35,152.65c-1.15-.23-1.97-1.01-1.82-1.74.15-.73,1.2-1.14,2.35-.91,1.15.23,1.97,1.01,1.82,1.74-.15.73-1.2,1.14-2.35.91Z"/>
                  </g>
                  <g>
                    <path class="cls-9" d="M128.81,166.83c-3.71,1.78-8.01.53-9.6-2.79-1.59-3.32.13-7.45,3.84-9.22,3.71-1.78,8.01-.53,9.6,2.79,1.59,3.32-.13,7.45-3.84,9.22Z"/>
                    <path class="cls-5" d="M128.8,164.54c-2.97,1.42-6.41.42-7.68-2.23-1.27-2.65.1-5.96,3.07-7.38,2.97-1.42,6.41-.42,7.68,2.23,1.27,2.65-.1,5.96-3.07,7.38Z"/>
                    <path class="cls-17" d="M128.85,160.02c-1.61.77-3.47.23-4.16-1.21-.69-1.44.06-3.23,1.66-4,1.61-.77,3.47-.23,4.16,1.21.69,1.44-.06,3.23-1.66,4Z"/>
                    <path class="cls-14" d="M128.15,157.54c-1.15-.23-1.97-1.01-1.82-1.74.15-.73,1.2-1.14,2.35-.91,1.15.23,1.97,1.01,1.82,1.74-.15.73-1.2,1.14-2.35.91Z"/>
                  </g>
                  <g>
                    <path class="cls-9" d="M120.02,163.14c-3.71,1.78-8.01.53-9.6-2.79-1.59-3.32.13-7.45,3.84-9.22,3.71-1.78,8.01-.53,9.6,2.79,1.59,3.32-.13,7.45-3.84,9.22Z"/>
                    <path class="cls-5" d="M120,160.85c-2.97,1.42-6.41.42-7.68-2.23-1.27-2.65.1-5.96,3.07-7.38,2.97-1.42,6.41-.42,7.68,2.23,1.27,2.65-.1,5.96-3.07,7.38Z"/>
                    <path class="cls-17" d="M120.06,156.33c-1.61.77-3.47.23-4.16-1.21-.69-1.44.06-3.23,1.66-4s3.47-.23,4.16,1.21c.69,1.44-.06,3.23-1.66,4Z"/>
                    <path class="cls-14" d="M119.35,153.85c-1.15-.23-1.97-1.01-1.82-1.74.15-.73,1.2-1.14,2.35-.91,1.15.23,1.97,1.01,1.82,1.74-.15.73-1.2,1.14-2.35.91Z"/>
                  </g>
                  <g>
                    <path class="cls-9" d="M105.14,151.94c-3.71,1.78-8.01.53-9.6-2.79-1.59-3.32.13-7.45,3.84-9.22,3.71-1.78,8.01-.53,9.6,2.79s-.13,7.45-3.84,9.22Z"/>
                    <path class="cls-5" d="M105.12,149.65c-2.97,1.42-6.41.42-7.68-2.23-1.27-2.65.1-5.96,3.07-7.38,2.97-1.42,6.41-.42,7.68,2.23s-.1,5.96-3.07,7.38Z"/>
                    <path class="cls-17" d="M105.18,145.13c-1.61.77-3.47.23-4.16-1.21-.69-1.44.06-3.23,1.66-4,1.61-.77,3.47-.23,4.16,1.21.69,1.44-.06,3.23-1.66,4Z"/>
                    <path class="cls-14" d="M104.47,142.65c-1.15-.23-1.97-1.01-1.82-1.74.15-.73,1.2-1.14,2.35-.91,1.15.23,1.97,1.01,1.82,1.74-.15.73-1.2,1.14-2.35.91Z"/>
                  </g>
                  <g>
                    <path class="cls-9" d="M96.1,161.16c-3.71,1.78-8.01.53-9.6-2.79s.13-7.45,3.84-9.22c3.71-1.78,8.01-.53,9.6,2.79,1.59,3.32-.13,7.45-3.84,9.22Z"/>
                    <path class="cls-5" d="M96.09,158.88c-2.97,1.42-6.41.42-7.68-2.23-1.27-2.65.1-5.96,3.07-7.38,2.97-1.42,6.41-.42,7.68,2.23,1.27,2.65-.1,5.96-3.07,7.38Z"/>
                    <path class="cls-17" d="M96.14,154.35c-1.61.77-3.47.23-4.16-1.21-.69-1.44.06-3.23,1.66-4,1.61-.77,3.47-.23,4.16,1.21.69,1.44-.06,3.23-1.66,4Z"/>
                    <path class="cls-14" d="M95.43,151.88c-1.15-.23-1.97-1.01-1.82-1.74.15-.73,1.2-1.14,2.35-.91,1.15.23,1.97,1.01,1.82,1.74-.15.73-1.2,1.14-2.35.91Z"/>
                  </g>
                  <g>
                    <path class="cls-9" d="M109.04,162.35c-3.71,1.78-8.01.53-9.6-2.79-1.59-3.32.13-7.45,3.84-9.22,3.71-1.78,8.01-.53,9.6,2.79s-.13,7.45-3.84,9.22Z"/>
                    <path class="cls-5" d="M109.03,160.06c-2.97,1.42-6.41.42-7.68-2.23s.1-5.96,3.07-7.38c2.97-1.42,6.41-.42,7.68,2.23s-.1,5.96-3.07,7.38Z"/>
                    <path class="cls-17" d="M109.08,155.54c-1.61.77-3.47.23-4.16-1.21-.69-1.44.06-3.23,1.66-4,1.61-.77,3.47-.23,4.16,1.21.69,1.44-.06,3.23-1.66,4Z"/>
                    <path class="cls-14" d="M108.38,153.06c-1.15-.23-1.97-1.01-1.82-1.74.15-.73,1.2-1.14,2.35-.91,1.15.23,1.97,1.01,1.82,1.74s-1.2,1.14-2.35.91Z"/>
                  </g>
                </g>
              </g>
            </g>
          </g>
          <g>
            <path class="cls-20" d="M70.99,142.42c0,6.58-7.27,26.63-35.48,26.63C5.7,169.04,0,149,0,142.42s15.89-11.95,35.5-11.95,35.48,5.35,35.48,11.95Z"/>
            <path class="cls-18" d="M35.5,130.46c-19.61,0-35.5,5.35-35.5,11.95s15.89,11.94,35.5,11.94,35.49-5.35,35.49-11.94-15.88-11.95-35.49-11.95ZM66.76,143.29c-3.09,2.68-13.36,6.86-31.26,6.86s-28.07-4.14-31.21-6.82c-.52-.44-.52-1.39,0-1.84,3.14-2.67,13.41-6.83,31.21-6.83s28.17,4.2,31.26,6.88c.49.4.49,1.32,0,1.75Z"/>
            <path class="cls-22" d="M66.76,143.29c-3.09,2.68-13.36,6.86-31.26,6.86s-28.07-4.14-31.21-6.82c-.52-.44-.52-1.39,0-1.84,3.14-2.67,13.41-6.83,31.21-6.83s28.17,4.2,31.26,6.88c.49.4.49,1.32,0,1.75Z"/>
            <g>
              <path class="cls-12" d="M66.94,141.95c-.46,1.32-1.82,2.51-3.31,3.14-6.25,2.68-12.79,3.87-19.52,4.56-7.85.81-15.77.59-23.57-.56-4.61-.68-9.64-1.35-13.65-3.87-3.26-2.04-4.18-5.99-1.16-8.85.02-.02.05-.04.07-.06,1.43-1.32,3.23-1.8,4.96-2.24-.52-.81-.75-1.69-.75-2.56,0-.63.12-1.26.32-1.86.44-1.35,1.3-2.57,2.23-3.41,2.22-2.01,5.49-2.41,8.16-2.62.03,0,.06,0,.09,0-.45-1.01-.48-2.29-.09-3.33.17-.45.42-.86.71-1.22,1.17-1.45,3.15-2.2,4.61-2.4,1.77-.25,3.77-.23,4.46-2.8.24-.89.15-1.92-.25-2.72-.22-.44-.54-.91-.43-1.41.08-.36.38-.58.67-.63s.59.05.88.15c3.85,1.36,7.73,2.95,11.09,5.66.38.3.75.61,1.11.95.27.25.53.5.78.78.6.65,1.13,1.38,1.47,2.26.49,1.26.52,2.88-.19,3.97,3.75-.97,8.98.83,10.03,3.28.11.27.21.55.29.84.26,1.02.27,2.12.04,3.15,0,0,0,.01,0,.02,2.29.62,4.83,1.69,6.43,3.5.3.34.57.71.8,1.11.56.96.56,1.87.22,2.63.65.29,1.3.55,1.88.91.05.03.1.07.15.1,1.59,1.07,1.89,2.35,1.47,3.53Z"/>
              <path class="cls-22" d="M66.94,141.95c-.46,1.32-1.82,2.51-3.31,3.14-6.25,2.68-12.79,3.87-19.52,4.56-7.85.81-15.77.59-23.57-.56-4.61-.68-9.64-1.35-13.65-3.87-3.26-2.04-4.18-5.99-1.16-8.85.02-.02.05-.04.07-.06,0,1.9-.38,3.8,1.69,5.69,3.67,3.36,8.59,4.26,13.12,5.19,7.73,1.58,15.65,1.88,23.48.77,6.67-.95,13.06-2.56,18.93-6.13,1.26-.77,1.97-1.98,2.44-3.42,1.59,1.07,1.89,2.35,1.47,3.53Z"/>
              <path class="cls-22" d="M63.43,137.4c-1.43.93-2.99,1.66-4.15,2.18-4.31,1.92-9,2.57-13.67,2.86-10.61.68-21.39-.3-31.59-3.36-.03-.01-.02-.06.01-.05,9.38,1.87,18.91,2.81,28.46,1.94,5.02-.46,10.44-1.11,14.98-3.46,1.9-.98,3.5-2.24,4.91-3.84h.01c.3.33.57.7.8,1.1.56.96.56,1.87.22,2.63Z"/>
              <path class="cls-22" d="M51.63,134.43c-8.12,1.8-17.16,2.61-25.46,2.29-5.1-.19-10.48-.95-15.43-2.68-.89-1.4-.89-2.97-.41-4.39,5.69,2.15,11.41,3.58,17.64,4.3,7.93.91,15.73.11,23.66.44.03,0,.03.04,0,.05Z"/>
              <path class="cls-22" d="M55.99,130.15c-3.52.99-7.59.09-10.93-1.35-.05-.02-.02-.09.03-.1,3.99-.23,7.44-.14,10.87-1.7.26,1.02.27,2.12.04,3.15Z"/>
              <path class="cls-22" d="M37.85,123.07c-3.41,1.92-8.72,1.6-12.49,1.26-1.22-.11-2.97-.29-4.64-.7.03,0,.06,0,.09,0-.45-1.01-.48-2.29-.09-3.33.17-.45.42-.86.71-1.22,1.57.61,3.11,1.41,4.4,1.82,2.26.71,4.52,1.33,6.88,1.55,1.75.15,3.43.03,5.13.5.07.02.08.11.02.14Z"/>
              <path class="cls-22" d="M45.68,125.35c-4.75,1.28-9.16,2.72-14.15,2.89-4.55.15-8.79-1.02-13.27-1.43-.05,0-.07.07-.03.1,7.52,4.01,20.3,2.83,27.54-1.32.13-.07.04-.28-.1-.24Z"/>
              <path class="cls-22" d="M44.35,116.65c-.57.95-1.39,1.77-2.25,2.33-2.23,1.46-5.45,1.88-7.98,1.08-.03,0-.03-.04,0-.05,1.95-.68,3.99-.77,5.83-1.83,1.5-.87,2.2-1.93,2.51-3.27.38.3.75.61,1.11.95.27.25.53.5.78.78Z"/>
            </g>
          </g>
        </g>
      </g>
    </g>
  </g>
</svg>