<?xml version="1.0" encoding="UTF-8"?>
<svg xmlns="http://www.w3.org/2000/svg" viewBox="0 0 160.31 171.63">
  <defs>
    <style>
      .cls-1 {
        fill: #c6dd6f;
      }

      .cls-2 {
        opacity: .46;
      }

      .cls-2, .cls-3 {
        mix-blend-mode: screen;
      }

      .cls-2, .cls-3, .cls-4 {
        fill: #eefcfa;
      }

      .cls-3 {
        opacity: .24;
      }

      .cls-5 {
        fill: #ced9af;
      }

      .cls-6 {
        opacity: .45;
      }

      .cls-6, .cls-7 {
        mix-blend-mode: multiply;
      }

      .cls-7 {
        opacity: .39;
      }

      .cls-8 {
        fill: #c9dfdd;
      }

      .cls-9 {
        fill: #bed676;
      }

      .cls-10 {
        fill: #eef2f2;
      }

      .cls-11 {
        fill: #b7cc5e;
      }

      .cls-12 {
        fill: #3f3267;
      }

      .cls-13 {
        fill: #fffaf0;
      }

      .cls-14 {
        isolation: isolate;
      }

      .cls-15 {
        fill: #54821f;
      }

      .cls-16 {
        fill: #9ab843;
      }

      .cls-17 {
        fill: #fff;
      }

      .cls-18 {
        fill: #806a46;
      }

      .cls-19 {
        fill: #cdf;
      }

      .cls-20 {
        fill: #b2d1ce;
      }

      .cls-21 {
        fill: #a4895a;
      }

      .cls-22 {
        fill: #a1b8e6;
      }

      .cls-23 {
        fill: #dfebbe;
      }

      .cls-24 {
        fill: #669d25;
      }

      .cls-25 {
        fill: #917950;
      }

      .cls-26 {
        fill: #ece7e3;
      }

      .cls-27 {
        fill: #ffc9d0;
      }
    </style>
  </defs>
  <g class="cls-14">
    <g id="Layer_2">
      <g id="OBJECTS">
        <g>
          <g>
            <path class="cls-10" d="M107.03,142.34c-8.7-1.55-19.16-2.46-30.41-2.46-30.28,0-54.82,6.56-54.82,14.65s23.72,14.42,53.28,14.64c8.7,1.55,19.16,2.46,30.41,2.46,30.28,0,54.82-6.56,54.82-14.65s-23.72-14.42-53.28-14.64Z"/>
            <g>
              <g>
                <path class="cls-24" d="M128.69,97.39c-18.41,3.74-17.76,13.18-18.02,13.82-.26.64-1.12-3.38-1.12-3.38-4.24,8.29-3.07,13.18-3.07,13.18l-2.03-3.23c-2.64,5.42-.49,13.29-.49,13.29,0,0,10.05,2.88,15.92-4.19l-4.1.25s8.92-3.9,12.49-10.55l-4.34.83c6.13-3.47,7.98-9.33,4.75-20.02Z"/>
                <g>
                  <path class="cls-15" d="M103.97,131.06c8.52-8.75,16.32-18.32,22.26-29.02.93-1.49,1.6-3.11,2.46-4.65-4.69,13.28-13.81,24.9-24.72,33.67h0Z"/>
                  <path class="cls-15" d="M115.79,127.12c-2.28-1.61-5.18-.94-7.66-.25,0,0,.61-1.18.61-1.18.33-1.25-.58-2.52-1.3-3.51,0,0-.95-1.19-.95-1.19,1.68.79,3.38,2.23,3.5,4.22,0,.33,0,.6-.18,1.02l-.72-.84c2.28-.7,5.37-.52,6.7,1.72h0Z"/>
                  <path class="cls-15" d="M124.57,117.28c-3.51-.5-6.83,1.28-9.82,2.88,0,0-.03-1.01-.03-1.01-.15-3.05-1.45-6.19-4.05-7.95,3.33,1.04,5.09,4.62,5.26,7.93,0,0-.9-.52-.9-.52,2.86-1.4,6.47-2.82,9.54-1.33h0Z"/>
                  <path class="cls-15" d="M129.82,107.14c-1.43-.1-2.67.73-3.9,1.32-1.51.82-3,1.71-4.44,2.63,0,0-.09-.98-.09-.98-.42-3.23-.52-6.74-2.2-9.62.71.51,1.18,1.28,1.58,2.04,1.15,2.34,1.6,4.92,1.81,7.5,0,0-.91-.46-.91-.46,1.87-1.11,3.84-2.08,5.99-2.54.71-.12,1.51-.22,2.17.11h0Z"/>
                </g>
              </g>
              <g>
                <path class="cls-25" d="M135.38,151.52c-9.17,5.41-21.8,2.59-29.11-5.48-7.25-8.09-6.42-20.94,2.73-29.57,9.12-8.61,23.45-7.08,30.76,4.24,7.31,11.3,4.76,25.43-4.39,30.81Z"/>
                <path class="cls-18" d="M120.5,142.04c-7.25-8.09-6.42-20.94,2.73-29.57.52-.49,1.06-.94,1.61-1.37-5.57-.65-11.34,1.12-15.84,5.37-9.15,8.63-9.99,21.48-2.73,29.57,7.31,8.07,19.94,10.89,29.11,5.48.66-.39,1.28-.84,1.87-1.31-6.23-.48-12.42-3.4-16.75-8.17Z"/>
              </g>
              <g>
                <path class="cls-8" d="M117.16,39.87l-3.24,47.25c-.14,2.04-.79,4-1.91,5.71l-2.72,4.19-4.06,61.83c0,2.39-12.73,4.33-28.41,4.33-7.84,0-14.95-.49-20.08-1.27-5.14-.78-8.32-1.86-8.32-3.06l-4.06-61.83-2.72-4.19c-1.11-1.71-1.77-3.67-1.91-5.71l-3.24-47.25c.55,2.96,18.39,5.34,40.33,5.34s39.78-2.37,40.34-5.34Z"/>
                <path class="cls-9" d="M112.05,59.7l-.03.48c-1.03,2.89-16.4,5.17-35.19,5.17s-34.26-2.3-35.19-5.2l-.03-.41h0c.02-.09.04-.18.08-.26,1.29-2.85,16.52-5.1,35.14-5.1s33.86,2.24,35.15,5.1c.04.07.07.15.07.22Z"/>
                <path class="cls-1" d="M112.02,60.18l-1.82,26.69c-.09,1.39-.55,2.76-1.31,3.93l-3.25,5.01-4.02,61.28c-2.86.97-11.45,2.36-24.79,2.36-7.41,0-14.33-.44-19.52-1.22-2.81-.43-4.4-.86-5.25-1.15l-4.02-61.26-3.25-5.01c-.76-1.17-1.22-2.53-1.31-3.94l-1.83-26.7c.86,2.66,13.93,4.82,30.68,5.15,1.48.03,2.98.05,4.52.05.4,0,.8,0,1.2,0,18.25-.08,32.99-2.34,34-5.16Z"/>
                <path class="cls-11" d="M101.61,156.98c0,1.47-11.09,2.66-24.78,2.66s-24.78-1.19-24.78-2.66,11.09-2.66,24.78-2.66,24.78,1.19,24.78,2.66Z"/>
                <path class="cls-8" d="M117.17,39.73s0,.09,0,.14c-.55,2.96-18.4,5.34-40.34,5.34s-39.77-2.37-40.33-5.34c0-.05,0-.09,0-.14,0-3.03,18.06-5.49,40.34-5.49s40.35,2.46,40.35,5.49Z"/>
                <path class="cls-20" d="M37.08,40.67c3.25-2.59,19.8-4.56,39.75-4.56s36.5,1.97,39.76,4.56c.33-.26.53-.53.58-.8,0-.05,0-.09,0-.14,0-3.03-18.06-5.49-40.35-5.49s-40.34,2.46-40.34,5.49c0,.05,0,.09,0,.14.05.27.25.54.58.8Z"/>
                <g>
                  <path class="cls-4" d="M57.68,161.9c-5.14-.78-8.32-1.86-8.32-3.06l-4.06-61.83-2.72-4.19c-1.11-1.71-1.77-3.67-1.91-5.71l-3.16-46.16c-.59-.35-.94-.72-1.01-1.09l3.24,47.25c.14,2.04.79,4,1.91,5.71l2.72,4.19,4.06,61.83c0,1.2,3.18,2.28,8.32,3.06,5.13.79,12.24,1.27,20.08,1.27.21,0,.42,0,.62,0-7.72-.01-14.71-.49-19.77-1.27Z"/>
                  <path class="cls-4" d="M77.76,45.21c19.17,0,35.21-1.81,39.33-4.25l.07-1.09c-.55,2.94-18.15,5.3-39.87,5.34.16,0,.31,0,.47,0Z"/>
                </g>
                <path class="cls-20" d="M115.02,41.5l-3,43.74c-.14,2.04-.79,4-1.91,5.71l-2.72,4.19-4.06,61.83c0,2.39-12.73,4.33-28.41,4.33-7.84,0-14.95-.49-20.08-1.27-2.79-.42-4.99-.93-6.43-1.5l.02.32c0,1.2,3.18,2.28,8.32,3.06,5.13.79,12.24,1.27,20.08,1.27,15.69,0,28.41-1.94,28.41-4.33l4.06-61.83,2.72-4.19c1.11-1.71,1.77-3.67,1.91-5.71l3.24-47.25c-.11.57-.86,1.12-2.15,1.63Z"/>
                <g class="cls-6">
                  <g>
                    <path class="cls-20" d="M104.2,91.66c1.93.25,4.03.56,5.57,1.86.24.23.51.55.55,1.02-.01.09,0,.51-.04.59-.76,1.6-2.64,1.96-4.14,2.44-1.49.38-3.01.58-4.53.66,1.44-.48,2.89-.89,4.31-1.4,1.15-.45,2.93-.97,3.52-2,0,0-.02.12-.02.12l.03-.47c-.85-1.33-3.56-2.12-5.25-2.83h0Z"/>
                    <path class="cls-20" d="M51.47,98.12c-2.51-.2-5.16-.54-7.3-1.99-.32-.24-.72-.63-.82-1.15-.18-1.04.68-1.69,1.44-2.1,1.46-.75,3.07-1.05,4.67-1.22-1.69.73-4.49,1.51-5.25,2.88,0,0,.03.38.03.38l-.02-.1c.14.39.75.82,1.33,1.11,1.87.94,3.94,1.49,5.92,2.19h0Z"/>
                  </g>
                </g>
                <g class="cls-7">
                  <path class="cls-20" d="M55.28,98.12c9.15.14,19.38.88,28.53,1.05.63-.01,1.27-.01,1.91,0-10.1,1.26-20.39.35-30.44-1.05h0Z"/>
                </g>
                <g>
                  <path class="cls-16" d="M63.04,143.81c0,.81-.66,1.47-1.47,1.47s-1.47-.66-1.47-1.47.66-1.47,1.47-1.47,1.47.66,1.47,1.47Z"/>
                  <path class="cls-16" d="M91.77,147.47c0,.81-.66,1.47-1.47,1.47s-1.47-.66-1.47-1.47.66-1.47,1.47-1.47,1.47.66,1.47,1.47Z"/>
                  <path class="cls-16" d="M54.42,111.26c0,.81-.66,1.47-1.47,1.47s-1.47-.66-1.47-1.47.66-1.47,1.47-1.47,1.47.66,1.47,1.47Z"/>
                  <path class="cls-16" d="M87.19,102.83c0,.81-.66,1.47-1.47,1.47s-1.47-.66-1.47-1.47.66-1.47,1.47-1.47,1.47.66,1.47,1.47Z"/>
                  <path class="cls-16" d="M88.07,78.96c0,.81-.66,1.47-1.47,1.47s-1.47-.66-1.47-1.47.66-1.47,1.47-1.47,1.47.66,1.47,1.47Z"/>
                  <path class="cls-16" d="M53.61,87.55c0,.81-.66,1.47-1.47,1.47s-1.47-.66-1.47-1.47.66-1.47,1.47-1.47,1.47.66,1.47,1.47Z"/>
                  <path class="cls-16" d="M69.09,134.58c0,.51-.41.92-.92.92s-.92-.41-.92-.92.41-.92.92-.92.92.41.92.92Z"/>
                  <path class="cls-16" d="M83.7,151.14c0,.51-.41.92-.92.92s-.92-.41-.92-.92.41-.92.92-.92.92.41.92.92Z"/>
                  <path class="cls-16" d="M98.94,138.16c0,.51-.41.92-.92.92s-.92-.41-.92-.92.41-.92.92-.92.92.41.92.92Z"/>
                  <path class="cls-16" d="M81.36,124.15c0,.51-.41.92-.92.92s-.91-.41-.91-.92.41-.92.91-.92.92.41.92.92Z"/>
                  <path class="cls-16" d="M98.94,112.18c0,.51-.41.92-.92.92s-.92-.41-.92-.92.41-.92.92-.92.92.41.92.92Z"/>
                  <circle class="cls-16" cx="74.63" cy="90.75" r=".92"/>
                  <path class="cls-16" d="M104.67,84.3c0,.51-.41.92-.92.92s-.92-.41-.92-.92.41-.92.92-.92.92.41.92.92Z"/>
                </g>
                <path class="cls-3" d="M79.48,163.15c3.57-.05,6.95-.2,10.01-.43-2.79-.21-5.33-.49-7.5-.82-5.14-.78-8.32-1.86-8.32-3.06l-4.06-61.83-2.72-4.19c-1.11-1.71-1.77-3.67-1.91-5.71l-2.9-42.29c-8.29-.44-15.23-1.25-19.79-2.27l3.05,44.55c.14,2.04.79,4,1.91,5.71l2.72,4.19,4.06,61.83c0,1.2,3.18,2.28,8.32,3.06,4.48.69,10.46,1.14,17.12,1.25Z"/>
                <path class="cls-2" d="M52.65,137.71h0c4.05,0,7.26-3.42,6.99-7.46l-2.18-33.23-2.72-4.19c-1.11-1.71-1.77-3.67-1.91-5.71l-2.97-43.31c-2.95-.36-5.5-.78-7.56-1.24l3.05,44.55c.14,2.04.79,4,1.91,5.71l2.72,4.19,2.67,40.69Z"/>
                <path class="cls-3" d="M102.86,43.91l-2.96,43.2c-.14,2.04-.79,4-1.91,5.71l-2.72,4.19-4.06,61.83c0,2.02-9.06,3.71-21.32,4.19,1.6.06,3.27.1,4.96.12,14.42-.21,25.71-2.05,25.71-4.31l4.06-61.83,2.72-4.19c1.11-1.71,1.77-3.67,1.91-5.71l3.07-44.78c-2.41.6-5.62,1.14-9.46,1.58Z"/>
                <path class="cls-5" d="M81.93,47.03l-3.9,18.31c-.39,0-.79,0-1.2,0-1.53,0-3.04-.02-4.52-.05-.05-.04-.07-.08-.11-.12l3.86-18.1h.77c1.73,0,3.43-.02,5.1-.05Z"/>
                <path class="cls-23" d="M91.66,1.37l-9.33,43.8-.4,1.87c-1.66.03-3.37.05-5.1.05h-.77l.39-1.87L86.06.19c0,.27,1.19.75,2.7,1.07,1.54.33,2.84.38,2.9.11Z"/>
                <path class="cls-27" d="M91.66,1.37c-.06.27-1.36.22-2.9-.11-1.51-.32-2.7-.79-2.7-1.07v-.02l5.6,1.2Z"/>
                <path class="cls-5" d="M91.66,1.37c-.06.27-1.36.22-2.9-.11-1.51-.32-2.7-.79-2.7-1.07v-.02c.06-.26,1.36-.22,2.91.11,1.54.34,2.75.81,2.69,1.08Z"/>
                <path class="cls-4" d="M117.08,40.08l-.14,2.09c-1.95,2.53-16.53,4.54-35.02,4.85-1.66.03-3.37.05-5.1.05h-.77c-20.5-.06-37.23-2.18-39.34-4.9l-.15-2.09c1.34,2.84,18.63,5.1,39.88,5.12h.37c1.86,0,3.7-.02,5.5-.05,18.83-.36,33.53-2.47,34.75-5.08Z"/>
              </g>
              <g>
                <path class="cls-24" d="M145.62,159.45c-7.89-12.45-14.63-9.34-15.16-9.35-.54-.01,2.17-1.77,2.17-1.77-7.26-.79-10.52,1.44-10.52,1.44l1.8-2.39c-4.71-.42-9.88,3.36-9.88,3.36,0,0,.7,8.17,7.52,10.5l-1.33-2.94s5.35,5.44,11.22,6.21l-1.82-2.95c4.26,3.52,9.07,3.24,16-2.12Z"/>
                <g>
                  <path class="cls-15" d="M114.03,150.74c8.79,3.8,18,6.85,27.5,8.2,1.35.26,2.73.3,4.1.51-11.05.27-22.1-3.16-31.59-8.71h0Z"/>
                  <path class="cls-15" d="M120.22,158.3c.54-2.12-.75-4.05-1.95-5.67,0,0,1.03.1,1.03.1,1.37-.17,2.15-1.89,2.81-2.97-.13,1.64-.93,3.82-2.91,3.9,0,0,.42-.76.42-.76,1.15,1.48,1.88,3.79.61,5.39h0Z"/>
                  <path class="cls-15" d="M129.88,161.99c-.61-2.71-2.85-4.65-4.85-6.39,0,0,.73-.3.73-.3,2.19-.96,4.14-2.79,4.7-5.19.16,2.73-1.96,5.02-4.34,6.07,0,0,.13-.8.13-.8,1.83,1.71,3.87,3.95,3.64,6.62h0Z"/>
                  <path class="cls-15" d="M138.79,163.01c-.32-1.07-1.28-1.75-2.06-2.49-1.02-.88-2.09-1.72-3.17-2.52,1.39-.68,2.8-1.39,4.12-2.2,1.1-.69,2.23-1.37,3.01-2.45-.4,1.31-1.53,2.27-2.57,3.09-1.09.81-2.24,1.49-3.48,2.06l.09-.8c1.58,1.39,3.87,3.06,4.06,5.31h0Z"/>
                </g>
              </g>
              <g>
                <ellipse class="cls-21" cx="110.61" cy="141.18" rx="19.96" ry="21"/>
                <ellipse class="cls-9" cx="110.61" cy="141.18" rx="17.98" ry="18.92"/>
                <path class="cls-23" d="M117.43,141.18c0,3.96-3.05,7.17-6.82,7.17s-6.82-3.21-6.82-7.17,3.05-7.17,6.82-7.17,6.82,3.21,6.82,7.17Z"/>
                <g>
                  <g>
                    <path class="cls-12" d="M109.02,130.36c-.1.31-.22.92.12,1.48.05.09.15.1.2.02.16-.24.4-.81-.11-1.53-.06-.09-.18-.08-.21.04Z"/>
                    <path class="cls-17" d="M109.17,130.56c0,.1,0,.29.12.41.02.02.05.01.06-.01.03-.09.07-.27-.11-.43-.02-.02-.05,0-.06.03Z"/>
                  </g>
                  <g>
                    <path class="cls-12" d="M113.84,130.73c-.22.24-.59.74-.53,1.39,0,.1.09.15.17.1.25-.15.71-.56.57-1.43-.02-.11-.13-.14-.21-.06Z"/>
                    <path class="cls-17" d="M113.9,130.97c-.05.09-.13.26-.07.42,0,.03.04.03.06.01.06-.06.18-.22.08-.44-.01-.03-.05-.03-.06,0Z"/>
                  </g>
                  <g>
                    <path class="cls-12" d="M117.13,132.4c-.29.15-.81.5-.96,1.13-.02.1.04.17.13.15.28-.06.85-.29,1.01-1.16.02-.11-.07-.18-.18-.12Z"/>
                    <path class="cls-17" d="M117.1,132.65c-.08.06-.21.2-.21.37,0,.03.02.04.05.03.08-.04.24-.15.22-.39,0-.03-.03-.04-.06-.02Z"/>
                  </g>
                  <g>
                    <path class="cls-12" d="M119.68,135.07c-.32.05-.93.2-1.28.75-.06.08-.02.18.07.19.29.04.9,0,1.34-.76.06-.1,0-.19-.12-.18Z"/>
                    <path class="cls-17" d="M119.57,135.29c-.09.03-.26.12-.32.28,0,.03,0,.05.04.04.09,0,.27-.06.34-.29,0-.03-.02-.05-.05-.04Z"/>
                  </g>
                  <g>
                    <path class="cls-12" d="M121.19,138.43c-.32-.06-.94-.12-1.46.28-.08.06-.08.16,0,.2.26.13.85.31,1.51-.27.09-.07.06-.18-.06-.21Z"/>
                    <path class="cls-17" d="M121.02,138.61c-.1,0-.29.02-.4.16-.02.02,0,.05.02.05.09.02.28.04.42-.16.02-.03,0-.05-.04-.05Z"/>
                  </g>
                  <g>
                    <path class="cls-12" d="M121.5,142.11c-.28-.17-.85-.42-1.47-.22-.1.03-.13.12-.06.19.2.21.69.57,1.52.25.11-.04.11-.16.01-.21Z"/>
                    <path class="cls-17" d="M121.28,142.21c-.09-.03-.28-.07-.43.02-.02.01-.02.04,0,.06.08.05.25.13.44-.01.03-.02.02-.05-.02-.06Z"/>
                  </g>
                  <g>
                    <path class="cls-12" d="M120.57,145.67c-.21-.25-.66-.68-1.31-.7-.1,0-.16.07-.12.16.12.26.47.77,1.35.74.11,0,.16-.11.08-.2Z"/>
                    <path class="cls-17" d="M120.33,145.7c-.08-.06-.24-.16-.41-.13-.03,0-.04.03-.02.06.06.07.19.2.42.14.03,0,.03-.04,0-.07Z"/>
                  </g>
                  <g>
                    <path class="cls-12" d="M118.51,148.73c-.11-.31-.4-.86-1-1.09-.09-.04-.18.02-.17.11.03.29.18.88,1.02,1.14.11.03.19-.05.15-.16Z"/>
                    <path class="cls-17" d="M118.27,148.67c-.05-.09-.17-.23-.35-.26-.03,0-.04.02-.04.05.03.09.12.25.35.27.03,0,.04-.03.03-.06Z"/>
                  </g>
                  <g>
                    <path class="cls-12" d="M115.55,150.93c0-.33-.09-.94-.58-1.37-.08-.07-.17-.04-.19.05-.07.28-.12.89.59,1.42.09.07.19.02.19-.1Z"/>
                    <path class="cls-17" d="M115.34,150.79c-.02-.1-.08-.28-.24-.36-.02-.01-.05,0-.05.03,0,.09.02.28.25.37.03.01.05-.01.04-.05Z"/>
                  </g>
                  <g>
                    <path class="cls-12" d="M112.02,152.01c.1-.31.23-.92-.09-1.48-.05-.09-.15-.1-.2-.02-.16.24-.41.8.08,1.53.06.09.18.08.21-.03Z"/>
                    <path class="cls-17" d="M111.87,151.82c.01-.1.01-.29-.11-.42-.02-.02-.05-.01-.06.01-.03.08-.07.27.11.43.02.02.05,0,.06-.03Z"/>
                  </g>
                  <g>
                    <path class="cls-12" d="M108.34,151.87c.2-.26.53-.79.4-1.43-.02-.1-.11-.14-.18-.09-.23.17-.65.62-.43,1.47.03.11.14.13.21.04Z"/>
                    <path class="cls-17" d="M108.26,151.63c.04-.09.11-.27.04-.43-.01-.03-.04-.03-.06,0-.06.07-.16.23-.04.44.01.03.05.02.06,0Z"/>
                  </g>
                  <g>
                    <path class="cls-12" d="M104.91,150.5c.28-.18.76-.57.86-1.21.02-.1-.05-.17-.14-.14-.28.09-.82.37-.9,1.24-.01.11.09.17.19.11Z"/>
                    <path class="cls-17" d="M104.92,150.25c.07-.07.19-.22.18-.39,0-.03-.03-.04-.05-.02-.08.05-.22.17-.19.4,0,.03.04.04.06.01Z"/>
                  </g>
                  <g>
                    <path class="cls-12" d="M102.13,148.07c.32-.07.9-.29,1.21-.86.05-.09,0-.18-.09-.18-.29-.01-.9.07-1.26.87-.05.1.03.19.14.16Z"/>
                    <path class="cls-17" d="M102.22,147.84c.09-.04.25-.14.3-.31,0-.03-.01-.05-.04-.04-.09.02-.27.08-.31.32,0,.03.02.05.06.03Z"/>
                  </g>
                  <g>
                    <path class="cls-12" d="M100.32,144.86c.33.04.95.03,1.43-.41.07-.07.07-.16-.02-.2-.27-.11-.87-.23-1.48.4-.08.08-.04.19.08.2Z"/>
                    <path class="cls-17" d="M100.48,144.67c.1,0,.28-.05.38-.19.02-.02,0-.05-.03-.05-.09-.01-.28-.01-.4.2-.02.03,0,.05.04.05Z"/>
                  </g>
                  <g>
                    <path class="cls-12" d="M99.68,141.23c.3.14.88.34,1.48.09.09-.04.12-.13.05-.19-.22-.19-.74-.51-1.53-.11-.1.05-.1.16,0,.22Z"/>
                    <path class="cls-17" d="M99.9,141.1c.1.02.28.05.43-.06.02-.02.02-.04,0-.06-.08-.04-.26-.1-.44.05-.02.02-.01.05.02.06Z"/>
                  </g>
                  <g>
                    <path class="cls-12" d="M100.29,137.59c.23.23.72.62,1.37.58.1,0,.15-.09.11-.17-.14-.25-.53-.72-1.41-.61-.11.01-.15.12-.07.2Z"/>
                    <path class="cls-17" d="M100.53,137.54c.08.06.25.14.42.09.03,0,.03-.04.01-.06-.06-.07-.21-.18-.43-.1-.03.01-.03.05,0,.07Z"/>
                  </g>
                  <g>
                    <path class="cls-12" d="M102.07,134.36c.14.3.47.82,1.1,1,.1.03.17-.03.16-.12-.05-.28-.26-.86-1.12-1.05-.11-.02-.18.07-.13.17Z"/>
                    <path class="cls-17" d="M102.31,134.4c.06.08.19.22.37.22.03,0,.04-.02.03-.05-.04-.08-.14-.24-.38-.24-.03,0-.04.03-.02.06Z"/>
                  </g>
                  <g>
                    <path class="cls-12" d="M104.82,131.91c.03.33.17.93.7,1.31.08.06.17.03.19-.06.05-.28.04-.9-.71-1.36-.1-.06-.19,0-.18.12Z"/>
                    <path class="cls-17" d="M105.04,132.02c.03.1.11.27.27.33.03.01.05,0,.05-.04,0-.09-.05-.28-.28-.35-.03,0-.05.02-.04.05Z"/>
                  </g>
                </g>
                <g>
                  <g>
                    <path class="cls-12" d="M110.95,128.13c-.18.35-.44,1.04-.16,1.77.04.11.15.14.23.06.23-.25.63-.87.19-1.82-.06-.12-.19-.12-.26,0Z"/>
                    <path class="cls-17" d="M111.09,128.39c-.03.12-.07.34.05.51.02.03.05.02.07,0,.05-.09.13-.31-.05-.53-.02-.03-.06-.02-.07.03Z"/>
                  </g>
                  <g>
                    <path class="cls-12" d="M116.55,129.55c-.31.24-.85.75-.91,1.52,0,.12.08.2.18.15.32-.13.94-.51.96-1.57,0-.14-.12-.2-.23-.11Z"/>
                    <path class="cls-17" d="M116.56,129.84c-.08.09-.21.27-.17.48,0,.03.04.04.07.02.09-.06.25-.22.19-.5,0-.04-.05-.04-.08,0Z"/>
                  </g>
                  <g>
                    <path class="cls-12" d="M120.08,132.18c-.37.12-1.05.42-1.36,1.13-.05.11,0,.21.12.21.34-.01,1.06-.17,1.42-1.16.05-.13-.05-.22-.18-.18Z"/>
                    <path class="cls-17" d="M120,132.46c-.1.06-.29.19-.32.4,0,.03.02.05.05.04.1-.03.31-.12.34-.41,0-.04-.03-.05-.07-.03Z"/>
                  </g>
                  <g>
                    <path class="cls-12" d="M122.53,135.84c-.39-.01-1.13.05-1.66.62-.08.09-.06.2.04.23.33.1,1.06.19,1.73-.62.09-.1.03-.23-.11-.23Z"/>
                    <path class="cls-17" d="M122.36,136.08c-.12.02-.33.08-.44.27-.02.03,0,.06.04.06.11,0,.33-.01.46-.27.02-.03-.01-.06-.05-.06Z"/>
                  </g>
                  <g>
                    <path class="cls-12" d="M123.63,140.11c-.36-.14-1.08-.33-1.77.03-.11.06-.13.17-.04.24.28.2.93.53,1.83,0,.12-.07.1-.21-.03-.26Z"/>
                    <path class="cls-17" d="M123.39,140.27c-.12-.02-.34-.03-.5.11-.02.02-.02.05.01.07.1.04.32.1.52-.1.03-.03,0-.06-.03-.07Z"/>
                  </g>
                  <g>
                    <path class="cls-12" d="M123.25,144.49c-.3-.26-.91-.67-1.68-.56-.12.02-.17.12-.11.21.19.29.7.81,1.73.6.13-.03.17-.16.06-.25Z"/>
                    <path class="cls-17" d="M122.96,144.57c-.1-.06-.31-.14-.51-.07-.03.01-.04.05,0,.07.08.07.27.2.53.08.03-.02.03-.06,0-.08Z"/>
                  </g>
                  <g>
                    <path class="cls-12" d="M121.43,148.5c-.2-.34-.64-.94-1.4-1.09-.12-.02-.2.05-.18.16.09.33.39,1,1.43,1.14.13.02.21-.09.14-.22Z"/>
                    <path class="cls-17" d="M121.13,148.49c-.08-.09-.25-.24-.46-.23-.03,0-.05.03-.03.06.05.1.19.28.47.25.04,0,.05-.04.02-.08Z"/>
                  </g>
                  <g>
                    <path class="cls-12" d="M118.37,151.68c-.07-.39-.29-1.1-.96-1.49-.1-.06-.21-.02-.22.09-.03.34.04,1.07.97,1.56.12.06.23-.02.2-.16Z"/>
                    <path class="cls-17" d="M118.1,151.57c-.05-.11-.15-.31-.35-.37-.03,0-.06.01-.05.05.02.11.08.32.36.39.04,0,.06-.03.04-.07Z"/>
                  </g>
                  <g>
                    <path class="cls-12" d="M114.44,153.66c.06-.39.09-1.13-.41-1.73-.08-.09-.19-.09-.24.02-.14.31-.32,1.02.4,1.79.09.1.22.06.24-.08Z"/>
                    <path class="cls-17" d="M114.22,153.46c0-.12-.04-.34-.21-.47-.03-.02-.06,0-.06.03-.02.11-.03.33.21.49.03.02.06,0,.06-.05Z"/>
                  </g>
                  <g>
                    <path class="cls-12" d="M110.07,154.22c.19-.34.46-1.03.19-1.76-.04-.11-.15-.15-.23-.06-.24.25-.64.86-.22,1.82.05.12.19.13.26,0Z"/>
                    <path class="cls-17" d="M109.93,153.96c.03-.11.07-.34-.04-.51-.02-.03-.05-.03-.07,0-.05.09-.14.3.04.53.02.03.06.02.07-.02Z"/>
                  </g>
                  <g>
                    <path class="cls-12" d="M105.76,153.3c.29-.26.78-.82.77-1.6,0-.12-.1-.19-.19-.14-.31.16-.89.6-.81,1.65.01.14.14.18.24.09Z"/>
                    <path class="cls-17" d="M105.72,153c.07-.1.18-.29.13-.5,0-.03-.04-.04-.07-.02-.08.07-.23.24-.14.51.01.03.05.04.08,0Z"/>
                  </g>
                  <g>
                    <path class="cls-12" d="M102.01,150.99c.36-.15,1.01-.52,1.25-1.25.04-.11-.03-.21-.14-.19-.34.05-1.04.26-1.31,1.28-.04.13.07.22.2.17Z"/>
                    <path class="cls-17" d="M102.06,150.7c.1-.07.27-.21.29-.42,0-.03-.02-.05-.06-.04-.1.04-.3.15-.3.44,0,.04.04.05.07.03Z"/>
                  </g>
                  <g>
                    <path class="cls-12" d="M99.23,147.57c.39-.02,1.12-.15,1.6-.76.07-.09.04-.21-.07-.23-.34-.07-1.07-.1-1.66.77-.08.11,0,.23.13.22Z"/>
                    <path class="cls-17" d="M99.38,147.31c.12-.03.32-.11.41-.31.01-.03,0-.06-.04-.06-.11,0-.33.04-.43.31-.01.03.02.06.06.05Z"/>
                  </g>
                  <g>
                    <path class="cls-12" d="M97.76,143.42c.38.11,1.11.23,1.76-.19.1-.06.11-.18.01-.24-.29-.18-.98-.45-1.83.17-.11.08-.08.21.05.25Z"/>
                    <path class="cls-17" d="M97.98,143.23c.12,0,.34,0,.49-.15.02-.02.01-.06-.02-.07-.1-.03-.33-.07-.51.15-.02.03,0,.06.04.07Z"/>
                  </g>
                  <g>
                    <path class="cls-12" d="M97.75,139.01c.32.23.97.59,1.72.41.12-.03.16-.13.09-.22-.22-.27-.77-.75-1.78-.44-.13.04-.15.17-.04.25Z"/>
                    <path class="cls-17" d="M98.02,138.91c.11.05.32.12.51.02.03-.01.03-.05,0-.07-.09-.07-.29-.17-.53-.03-.03.02-.02.06.01.08Z"/>
                  </g>
                  <g>
                    <path class="cls-12" d="M99.2,134.85c.22.32.72.88,1.49.96.12.01.2-.07.16-.18-.12-.32-.48-.96-1.53-1.01-.14,0-.2.11-.12.23Z"/>
                    <path class="cls-17" d="M99.49,134.85c.09.08.27.22.48.19.03,0,.05-.03.03-.06-.06-.09-.21-.26-.49-.2-.04,0-.04.05-.01.08Z"/>
                  </g>
                  <g>
                    <path class="cls-12" d="M101.95,131.42c.11.38.39,1.06,1.09,1.4.11.05.21,0,.21-.11,0-.34-.13-1.07-1.11-1.46-.13-.05-.23.04-.19.17Z"/>
                    <path class="cls-17" d="M102.23,131.51c.06.11.18.29.39.34.03,0,.05-.02.05-.05-.03-.1-.11-.31-.4-.35-.04,0-.06.03-.04.07Z"/>
                  </g>
                  <g>
                    <path class="cls-12" d="M105.69,129.09c-.03.39.01,1.13.56,1.68.08.09.2.07.24-.04.11-.33.23-1.05-.56-1.75-.1-.09-.23-.04-.24.1Z"/>
                    <path class="cls-17" d="M105.93,129.27c.02.12.07.34.25.45.03.02.06,0,.06-.03.01-.11,0-.33-.26-.47-.03-.02-.06.01-.06.05Z"/>
                  </g>
                </g>
              </g>
            </g>
          </g>
          <g>
            <path class="cls-22" d="M70.99,143.34c0,6.58-7.27,26.63-35.48,26.63C5.7,169.96,0,149.92,0,143.34s15.89-11.95,35.5-11.95,35.48,5.35,35.48,11.95Z"/>
            <path class="cls-19" d="M35.5,131.38c-19.61,0-35.5,5.35-35.5,11.95s15.89,11.94,35.5,11.94,35.49-5.35,35.49-11.94-15.88-11.95-35.49-11.95ZM66.76,144.21c-3.09,2.68-13.36,6.86-31.26,6.86s-28.07-4.14-31.21-6.82c-.52-.44-.52-1.39,0-1.84,3.14-2.67,13.41-6.83,31.21-6.83s28.17,4.2,31.26,6.88c.49.4.49,1.32,0,1.75Z"/>
            <path class="cls-26" d="M66.76,144.21c-3.09,2.68-13.36,6.86-31.26,6.86s-28.07-4.14-31.21-6.82c-.52-.44-.52-1.39,0-1.84,3.14-2.67,13.41-6.83,31.21-6.83s28.17,4.2,31.26,6.88c.49.4.49,1.32,0,1.75Z"/>
            <g>
              <path class="cls-13" d="M66.94,142.87c-.46,1.32-1.82,2.51-3.31,3.14-6.25,2.68-12.79,3.87-19.52,4.56-7.85.81-15.77.59-23.57-.56-4.61-.68-9.64-1.35-13.65-3.87-3.26-2.04-4.18-5.99-1.16-8.85.02-.02.05-.04.07-.06,1.43-1.32,3.23-1.8,4.96-2.24-.52-.81-.75-1.69-.75-2.56,0-.63.12-1.26.32-1.86.44-1.35,1.3-2.57,2.23-3.41,2.22-2.01,5.49-2.41,8.16-2.62.03,0,.06,0,.09,0-.45-1.01-.48-2.29-.09-3.33.17-.45.42-.86.71-1.22,1.17-1.45,3.15-2.2,4.61-2.4,1.77-.25,3.77-.23,4.46-2.8.24-.89.15-1.92-.25-2.72-.22-.44-.54-.91-.43-1.41.08-.36.38-.58.67-.63s.59.05.88.15c3.85,1.36,7.73,2.95,11.09,5.66.38.3.75.61,1.11.95.27.25.53.5.78.78.6.65,1.13,1.38,1.47,2.26.49,1.26.52,2.88-.19,3.97,3.75-.97,8.98.83,10.03,3.28.11.27.21.55.29.84.26,1.02.27,2.12.04,3.15,0,0,0,.01,0,.02,2.29.62,4.83,1.69,6.43,3.5.3.34.57.71.8,1.11.56.96.56,1.87.22,2.63.65.29,1.3.55,1.88.91.05.03.1.07.15.1,1.59,1.07,1.89,2.35,1.47,3.53Z"/>
              <path class="cls-26" d="M66.94,142.87c-.46,1.32-1.82,2.51-3.31,3.14-6.25,2.68-12.79,3.87-19.52,4.56-7.85.81-15.77.59-23.57-.56-4.61-.68-9.64-1.35-13.65-3.87-3.26-2.04-4.18-5.99-1.16-8.85.02-.02.05-.04.07-.06,0,1.9-.38,3.8,1.69,5.69,3.67,3.36,8.59,4.26,13.12,5.19,7.73,1.58,15.65,1.88,23.48.77,6.67-.95,13.06-2.56,18.93-6.13,1.26-.77,1.97-1.98,2.44-3.42,1.59,1.07,1.89,2.35,1.47,3.53Z"/>
              <path class="cls-26" d="M63.43,138.32c-1.43.93-2.99,1.66-4.15,2.18-4.31,1.92-9,2.57-13.67,2.86-10.61.68-21.39-.3-31.59-3.36-.03-.01-.02-.06.01-.05,9.38,1.87,18.91,2.81,28.46,1.94,5.02-.46,10.44-1.11,14.98-3.46,1.9-.98,3.5-2.24,4.91-3.84h.01c.3.33.57.7.8,1.1.56.96.56,1.87.22,2.63Z"/>
              <path class="cls-26" d="M51.63,135.35c-8.12,1.8-17.16,2.61-25.46,2.29-5.1-.19-10.48-.95-15.43-2.68-.89-1.4-.89-2.97-.41-4.39,5.69,2.15,11.41,3.58,17.64,4.3,7.93.91,15.73.11,23.66.44.03,0,.03.04,0,.05Z"/>
              <path class="cls-26" d="M55.99,131.07c-3.52.99-7.59.09-10.93-1.35-.05-.02-.02-.09.03-.1,3.99-.23,7.44-.14,10.87-1.7.26,1.02.27,2.12.04,3.15Z"/>
              <path class="cls-26" d="M37.85,123.99c-3.41,1.92-8.72,1.6-12.49,1.26-1.22-.11-2.97-.29-4.64-.7.03,0,.06,0,.09,0-.45-1.01-.48-2.29-.09-3.33.17-.45.42-.86.71-1.22,1.57.61,3.11,1.41,4.4,1.82,2.26.71,4.52,1.33,6.88,1.55,1.75.15,3.43.03,5.13.5.07.02.08.11.02.14Z"/>
              <path class="cls-26" d="M45.68,126.27c-4.75,1.28-9.16,2.72-14.15,2.89-4.55.15-8.79-1.02-13.27-1.43-.05,0-.07.07-.03.1,7.52,4.01,20.3,2.83,27.54-1.32.13-.07.04-.28-.1-.24Z"/>
              <path class="cls-26" d="M44.35,117.57c-.57.95-1.39,1.77-2.25,2.33-2.23,1.46-5.45,1.88-7.98,1.08-.03,0-.03-.04,0-.05,1.95-.68,3.99-.77,5.83-1.83,1.5-.87,2.2-1.93,2.51-3.27.38.3.75.61,1.11.95.27.25.53.5.78.78Z"/>
            </g>
          </g>
        </g>
      </g>
    </g>
  </g>
</svg>