<?xml version="1.0" encoding="UTF-8"?>
<svg xmlns="http://www.w3.org/2000/svg" viewBox="0 0 138.51 171.63">
  <defs>
    <style>
      .cls-1 {
        opacity: .46;
      }

      .cls-1, .cls-2 {
        mix-blend-mode: screen;
      }

      .cls-1, .cls-2, .cls-3 {
        fill: #eefcfa;
      }

      .cls-2 {
        opacity: .24;
      }

      .cls-4 {
        fill: #ced9af;
      }

      .cls-5 {
        opacity: .45;
      }

      .cls-5, .cls-6 {
        mix-blend-mode: multiply;
      }

      .cls-6 {
        opacity: .39;
      }

      .cls-7 {
        fill: #c9dfdd;
      }

      .cls-8 {
        fill: #bed676;
      }

      .cls-9 {
        fill: #eef2f2;
      }

      .cls-10 {
        fill: #3f3267;
      }

      .cls-11 {
        isolation: isolate;
      }

      .cls-12 {
        fill: #54821f;
      }

      .cls-13 {
        fill: #9ab843;
      }

      .cls-14 {
        fill: #fff;
      }

      .cls-15 {
        fill: #806a46;
      }

      .cls-16 {
        fill: #accd4b;
      }

      .cls-17 {
        fill: #b2d1ce;
      }

      .cls-18 {
        fill: #a4895a;
      }

      .cls-19 {
        fill: #dfebbe;
      }

      .cls-20 {
        fill: #669d25;
      }

      .cls-21 {
        fill: #917950;
      }

      .cls-22 {
        fill: #ffc9d0;
      }
    </style>
  </defs>
  <g class="cls-11">
    <g id="Layer_2">
      <g id="OBJECTS">
        <g>
          <path class="cls-9" d="M85.23,142.34c-8.7-1.55-19.16-2.46-30.41-2.46-30.28,0-54.82,6.56-54.82,14.65s23.72,14.42,53.28,14.64c8.7,1.55,19.16,2.46,30.41,2.46,30.28,0,54.82-6.56,54.82-14.65s-23.72-14.42-53.28-14.64Z"/>
          <g>
            <g>
              <path class="cls-20" d="M106.89,97.39c-18.41,3.74-17.76,13.18-18.02,13.82-.26.64-1.12-3.38-1.12-3.38-4.24,8.29-3.07,13.18-3.07,13.18l-2.03-3.23c-2.64,5.42-.49,13.29-.49,13.29,0,0,10.05,2.88,15.92-4.19l-4.1.25s8.92-3.9,12.49-10.55l-4.34.83c6.13-3.47,7.98-9.33,4.75-20.02Z"/>
              <g>
                <path class="cls-12" d="M82.17,131.06c2.47-2.5,4.82-5.1,7.12-7.73,2.28-2.65,4.48-5.36,6.57-8.15,2.12-2.77,4.06-5.67,5.92-8.62l1.37-2.23,1.28-2.28c.93-1.49,1.6-3.11,2.46-4.65-1.17,3.31-2.54,6.58-4.3,9.64-1.71,3.08-3.64,6.05-5.77,8.87-4.25,5.62-9.1,10.83-14.65,15.16Z"/>
                <path class="cls-12" d="M93.99,127.12c-.51-.32-1-.59-1.53-.74-.53-.15-1.06-.23-1.6-.25-.54-.02-1.08.02-1.62.09-.53.06-1.09.19-1.58.32l-1.33.34.61-1.18s.09-.29.08-.46c0-.19-.02-.39-.06-.6-.1-.41-.27-.83-.51-1.24-.23-.41-.51-.81-.81-1.2l-.95-1.19c.47.22.92.48,1.34.78.42.31.82.66,1.16,1.09.36.41.64.9.83,1.46.1.28.16.58.16.89,0,.33,0,.6-.18,1.02l-.72-.84c.63-.21,1.22-.28,1.84-.34.62-.04,1.24-.02,1.85.1.61.12,1.21.34,1.75.66.53.34.97.79,1.27,1.31Z"/>
                <path class="cls-12" d="M102.77,117.28c-1.61-.31-3.15.05-4.64.53-.74.25-1.48.52-2.2.84-.72.31-1.45.65-2.11,1.02l-.87.49-.03-1.01c-.02-.71-.15-1.51-.33-2.24-.17-.75-.43-1.47-.74-2.17-.31-.7-.73-1.34-1.23-1.94-.48-.63-1.11-1.1-1.75-1.6.76.26,1.53.63,2.17,1.18.64.54,1.22,1.18,1.64,1.92.45.72.77,1.51,1.02,2.32.23.82.38,1.62.43,2.52l-.9-.52c.76-.4,1.5-.73,2.27-1.02.78-.28,1.57-.54,2.39-.69.81-.17,1.65-.27,2.49-.23.83.05,1.68.2,2.39.62Z"/>
                <path class="cls-12" d="M108.02,107.14c-.72-.09-1.38.17-2.02.41-.64.26-1.26.59-1.88.91-1.23.67-2.45,1.38-3.63,2.11l-.82.51-.09-.98c-.15-1.64-.35-3.3-.65-4.93-.14-.82-.32-1.62-.55-2.42-.23-.79-.51-1.58-1-2.28.71.51,1.18,1.28,1.58,2.04.39.78.69,1.59.93,2.42.47,1.66.76,3.35.88,5.08l-.91-.46c1.25-.75,2.53-1.4,3.89-1.92.68-.26,1.38-.47,2.1-.62.71-.12,1.51-.22,2.17.11Z"/>
              </g>
            </g>
            <g>
              <path class="cls-21" d="M113.58,151.52c-9.17,5.41-21.8,2.59-29.11-5.48-7.25-8.09-6.42-20.94,2.73-29.57,9.12-8.61,23.45-7.08,30.76,4.24,7.31,11.3,4.76,25.43-4.39,30.81Z"/>
              <path class="cls-15" d="M98.7,142.04c-7.25-8.09-6.42-20.94,2.73-29.57.52-.49,1.06-.94,1.61-1.37-5.57-.65-11.34,1.12-15.84,5.37-9.15,8.63-9.99,21.48-2.73,29.57,7.31,8.07,19.94,10.89,29.11,5.48.66-.39,1.28-.84,1.87-1.31-6.23-.48-12.42-3.4-16.75-8.17Z"/>
            </g>
            <g>
              <path class="cls-7" d="M95.36,39.87l-3.24,47.25c-.14,2.04-.79,4-1.91,5.71l-2.72,4.19-4.06,61.83c0,2.39-12.73,4.33-28.41,4.33-7.84,0-14.95-.49-20.08-1.27-5.14-.78-8.32-1.86-8.32-3.06l-4.06-61.83-2.72-4.19c-1.11-1.71-1.77-3.67-1.91-5.71l-3.24-47.25c.55,2.96,18.39,5.34,40.33,5.34s39.78-2.37,40.34-5.34Z"/>
              <path class="cls-8" d="M90.25,59.7l-.03.48c-1.03,2.89-16.4,5.17-35.19,5.17s-34.26-2.3-35.19-5.2l-.03-.41h0c.02-.09.04-.18.08-.26,1.29-2.85,16.52-5.1,35.14-5.1s33.86,2.24,35.15,5.1c.04.07.07.15.07.22Z"/>
              <path class="cls-16" d="M90.22,60.18l-1.82,26.69c-.09,1.39-.55,2.76-1.31,3.93l-3.25,5.01-4.02,61.28c-2.86.97-11.45,2.36-24.79,2.36-7.41,0-14.33-.44-19.52-1.22-2.81-.43-4.4-.86-5.25-1.15l-4.02-61.26-3.25-5.01c-.76-1.17-1.22-2.53-1.31-3.94l-1.83-26.7c.86,2.66,13.93,4.82,30.68,5.15,1.48.03,2.98.05,4.52.05.4,0,.8,0,1.2,0,18.25-.08,32.99-2.34,34-5.16Z"/>
              <path class="cls-13" d="M79.81,156.98c0,1.47-11.09,2.66-24.78,2.66s-24.78-1.19-24.78-2.66,11.09-2.66,24.78-2.66,24.78,1.19,24.78,2.66Z"/>
              <path class="cls-7" d="M95.37,39.73s0,.09,0,.14c-.55,2.96-18.4,5.34-40.34,5.34s-39.77-2.37-40.33-5.34c0-.05,0-.09,0-.14,0-3.03,18.06-5.49,40.34-5.49s40.35,2.46,40.35,5.49Z"/>
              <path class="cls-17" d="M15.28,40.67c3.25-2.59,19.8-4.56,39.75-4.56s36.5,1.97,39.76,4.56c.33-.26.53-.53.58-.8,0-.05,0-.09,0-.14,0-3.03-18.06-5.49-40.35-5.49s-40.34,2.46-40.34,5.49c0,.05,0,.09,0,.14.05.27.25.54.58.8Z"/>
              <g>
                <path class="cls-3" d="M35.88,161.9c-5.14-.78-8.32-1.86-8.32-3.06l-4.06-61.83-2.72-4.19c-1.11-1.71-1.77-3.67-1.91-5.71l-3.16-46.16c-.59-.35-.94-.72-1.01-1.09l3.24,47.25c.14,2.04.79,4,1.91,5.71l2.72,4.19,4.06,61.83c0,1.2,3.18,2.28,8.32,3.06,5.13.79,12.24,1.27,20.08,1.27.21,0,.42,0,.62,0-7.72-.01-14.71-.49-19.77-1.27Z"/>
                <path class="cls-3" d="M55.96,45.21c19.17,0,35.21-1.81,39.33-4.25l.07-1.09c-.55,2.94-18.15,5.3-39.87,5.34.16,0,.31,0,.47,0Z"/>
              </g>
              <path class="cls-17" d="M93.21,41.5l-3,43.74c-.14,2.04-.79,4-1.91,5.71l-2.72,4.19-4.06,61.83c0,2.39-12.73,4.33-28.41,4.33-7.84,0-14.95-.49-20.08-1.27-2.79-.42-4.99-.93-6.43-1.5l.02.32c0,1.2,3.18,2.28,8.32,3.06,5.13.79,12.24,1.27,20.08,1.27,15.69,0,28.41-1.94,28.41-4.33l4.06-61.83,2.72-4.19c1.11-1.71,1.77-3.67,1.91-5.71l3.24-47.25c-.11.57-.86,1.12-2.15,1.63Z"/>
              <g class="cls-5">
                <g>
                  <path class="cls-17" d="M82.4,91.66c1.1.12,2.19.31,3.26.65.53.18,1.06.37,1.57.67.26.14.51.32.74.54.24.23.45.48.55.94v.02s0,.05,0,.05l-.02.47v.06s-.02.05-.02.05c-.19.51-.54.83-.87,1.08-.34.25-.7.44-1.06.6-.72.34-1.46.56-2.21.76-1.49.38-3.01.58-4.53.66.72-.25,1.45-.45,2.17-.69.72-.23,1.44-.45,2.14-.71.71-.24,1.39-.52,2.05-.83.62-.31,1.3-.73,1.47-1.17l-.02.12.03-.47v.08c-.04-.23-.41-.66-.83-.91-.42-.28-.89-.53-1.38-.75-.98-.45-2-.84-3.03-1.24Z"/>
                  <path class="cls-17" d="M29.67,98.12c-.72-.03-1.43-.12-2.14-.22-.71-.11-1.41-.25-2.11-.44-.7-.19-1.39-.42-2.06-.74-.34-.16-.67-.35-.99-.59-.31-.24-.64-.55-.8-1.05l-.02-.05v-.05s-.03-.44-.03-.44v-.05s0-.04,0-.04c.04-.12.08-.24.12-.36l-.02.03c.33-.66.87-.95,1.34-1.24.49-.27,1.01-.45,1.52-.62,1.03-.31,2.09-.5,3.15-.6-.99.39-1.98.77-2.92,1.2-.47.21-.93.45-1.35.71-.41.26-.8.59-.93.9l-.02.03s-.02.09-.03.13v-.09s.04.38.04.38l-.02-.1c.14.39.75.82,1.33,1.11.6.31,1.24.57,1.9.81.65.25,1.32.47,1.99.69.67.24,1.35.43,2.03.68Z"/>
                </g>
              </g>
              <g class="cls-6">
                <path class="cls-17" d="M33.48,98.12c2.55.03,5.08.13,7.62.23l7.61.33,7.6.34c1.27.06,2.53.09,3.8.12l1.9.04c.63-.01,1.27-.01,1.91,0-2.52.41-5.07.5-7.62.56-2.55.06-5.09-.01-7.63-.12-2.54-.13-5.08-.29-7.61-.55-2.53-.25-5.06-.53-7.57-.94Z"/>
              </g>
              <g>
                <path class="cls-13" d="M41.24,143.81c0,.81-.66,1.47-1.47,1.47s-1.47-.66-1.47-1.47.66-1.47,1.47-1.47,1.47.66,1.47,1.47Z"/>
                <path class="cls-13" d="M69.97,147.47c0,.81-.66,1.47-1.47,1.47s-1.47-.66-1.47-1.47.66-1.47,1.47-1.47,1.47.66,1.47,1.47Z"/>
                <path class="cls-13" d="M32.62,111.26c0,.81-.66,1.47-1.47,1.47s-1.47-.66-1.47-1.47.66-1.47,1.47-1.47,1.47.66,1.47,1.47Z"/>
                <path class="cls-13" d="M65.39,102.83c0,.81-.66,1.47-1.47,1.47s-1.47-.66-1.47-1.47.66-1.47,1.47-1.47,1.47.66,1.47,1.47Z"/>
                <path class="cls-13" d="M66.27,78.96c0,.81-.66,1.47-1.47,1.47s-1.47-.66-1.47-1.47.66-1.47,1.47-1.47,1.47.66,1.47,1.47Z"/>
                <path class="cls-13" d="M31.81,87.55c0,.81-.66,1.47-1.47,1.47s-1.47-.66-1.47-1.47.66-1.47,1.47-1.47,1.47.66,1.47,1.47Z"/>
                <path class="cls-13" d="M47.29,134.58c0,.51-.41.92-.92.92s-.92-.41-.92-.92.41-.92.92-.92.92.41.92.92Z"/>
                <path class="cls-13" d="M61.9,151.14c0,.51-.41.92-.92.92s-.92-.41-.92-.92.41-.92.92-.92.92.41.92.92Z"/>
                <path class="cls-13" d="M77.14,138.16c0,.51-.41.92-.92.92s-.92-.41-.92-.92.41-.92.92-.92.92.41.92.92Z"/>
                <path class="cls-13" d="M59.56,124.15c0,.51-.41.92-.92.92s-.91-.41-.91-.92.41-.92.91-.92.92.41.92.92Z"/>
                <path class="cls-13" d="M77.14,112.18c0,.51-.41.92-.92.92s-.92-.41-.92-.92.41-.92.92-.92.92.41.92.92Z"/>
                <circle class="cls-13" cx="52.83" cy="90.75" r=".92"/>
                <path class="cls-13" d="M82.87,84.3c0,.51-.41.92-.92.92s-.92-.41-.92-.92.41-.92.92-.92.92.41.92.92Z"/>
              </g>
              <path class="cls-2" d="M57.68,163.15c3.57-.05,6.95-.2,10.01-.43-2.79-.21-5.33-.49-7.5-.82-5.14-.78-8.32-1.86-8.32-3.06l-4.06-61.83-2.72-4.19c-1.11-1.71-1.77-3.67-1.91-5.71l-2.9-42.29c-8.29-.44-15.23-1.25-19.79-2.27l3.05,44.55c.14,2.04.79,4,1.91,5.71l2.72,4.19,4.06,61.83c0,1.2,3.18,2.28,8.32,3.06,4.48.69,10.46,1.14,17.12,1.25Z"/>
              <path class="cls-1" d="M30.85,137.71h0c4.05,0,7.26-3.42,6.99-7.46l-2.18-33.23-2.72-4.19c-1.11-1.71-1.77-3.67-1.91-5.71l-2.97-43.31c-2.95-.36-5.5-.78-7.56-1.24l3.05,44.55c.14,2.04.79,4,1.91,5.71l2.72,4.19,2.67,40.69Z"/>
              <path class="cls-2" d="M81.06,43.91l-2.96,43.2c-.14,2.04-.79,4-1.91,5.71l-2.72,4.19-4.06,61.83c0,2.02-9.06,3.71-21.32,4.19,1.6.06,3.27.1,4.96.12,14.42-.21,25.71-2.05,25.71-4.31l4.06-61.83,2.72-4.19c1.11-1.71,1.77-3.67,1.91-5.71l3.07-44.78c-2.41.6-5.62,1.14-9.46,1.58Z"/>
              <path class="cls-4" d="M60.13,47.03l-3.9,18.31c-.39,0-.79,0-1.2,0-1.53,0-3.04-.02-4.52-.05-.05-.04-.07-.08-.11-.12l3.86-18.1h.77c1.73,0,3.43-.02,5.1-.05Z"/>
              <path class="cls-19" d="M69.86,1.37l-9.33,43.8-.4,1.87c-1.66.03-3.37.05-5.1.05h-.77l.39-1.87L64.26.19c0,.27,1.19.75,2.7,1.07,1.54.33,2.84.38,2.9.11Z"/>
              <path class="cls-22" d="M69.86,1.37c-.06.27-1.36.22-2.9-.11-1.51-.32-2.7-.79-2.7-1.07v-.02l5.6,1.2Z"/>
              <path class="cls-4" d="M69.86,1.37c-.06.27-1.36.22-2.9-.11-1.51-.32-2.7-.79-2.7-1.07v-.02c.06-.26,1.36-.22,2.91.11,1.54.34,2.75.81,2.69,1.08Z"/>
              <path class="cls-3" d="M95.28,40.08l-.14,2.09c-1.95,2.53-16.53,4.54-35.02,4.85-1.66.03-3.37.05-5.1.05h-.77c-20.5-.06-37.23-2.18-39.34-4.9l-.15-2.09c1.34,2.84,18.63,5.1,39.88,5.12h.37c1.86,0,3.7-.02,5.5-.05,18.83-.36,33.53-2.47,34.75-5.08Z"/>
            </g>
            <g>
              <path class="cls-20" d="M123.82,159.45c-7.89-12.45-14.63-9.34-15.16-9.35-.54-.01,2.17-1.77,2.17-1.77-7.26-.79-10.52,1.44-10.52,1.44l1.8-2.39c-4.71-.42-9.88,3.36-9.88,3.36,0,0,.7,8.17,7.52,10.5l-1.33-2.94s5.35,5.44,11.22,6.21l-1.82-2.95c4.26,3.52,9.07,3.24,16-2.12Z"/>
              <g>
                <path class="cls-12" d="M92.23,150.74c1.27.55,2.53,1.1,3.81,1.59,1.27.52,2.55,1.01,3.84,1.47,2.58.92,5.18,1.79,7.82,2.53,2.62.78,5.29,1.39,7.97,1.94l2.02.38,2.03.29c1.35.26,2.73.3,4.1.51-2.75.08-5.53-.04-8.27-.46-2.74-.38-5.46-.97-8.11-1.74-2.66-.78-5.28-1.67-7.82-2.77-2.54-1.09-5.04-2.29-7.39-3.74Z"/>
                <path class="cls-12" d="M98.42,158.3c.09-.46.15-.9.12-1.33-.04-.43-.13-.84-.26-1.24-.14-.4-.32-.79-.52-1.16-.19-.38-.45-.75-.67-1.07l-.61-.86,1.03.1c.16.02.53-.11.78-.29.27-.19.54-.43.77-.72.23-.29.45-.6.65-.93l.6-1.03c-.06.81-.25,1.62-.67,2.36-.2.38-.48.72-.84,1.02-.37.29-.76.53-1.4.52l.42-.76c.33.4.54.81.76,1.25.2.44.36.9.45,1.39.08.48.09.98,0,1.47-.1.48-.31.93-.6,1.29Z"/>
                <path class="cls-12" d="M108.08,161.99c-.21-1.27-.93-2.29-1.68-3.25-.39-.47-.79-.94-1.23-1.37-.43-.44-.88-.88-1.34-1.26l-.6-.5.73-.3c.52-.22,1.06-.53,1.55-.87.5-.33.95-.73,1.38-1.15.43-.43.78-.91,1.08-1.44.34-.52.49-1.12.69-1.73.02.63-.05,1.29-.26,1.92-.22.62-.53,1.22-.95,1.74-.4.53-.89.99-1.41,1.4-.54.4-1.08.74-1.73,1.02l.13-.8c.98.88,1.86,1.83,2.56,2.93.35.55.66,1.13.87,1.76.19.63.32,1.29.22,1.93Z"/>
                <path class="cls-12" d="M116.99,163.01c-.13-.55-.51-.96-.87-1.37-.37-.4-.78-.76-1.19-1.13-.83-.71-1.69-1.41-2.56-2.07l-.6-.46.69-.34c1.16-.57,2.32-1.18,3.43-1.86.56-.33,1.1-.69,1.62-1.08.51-.39,1.01-.81,1.39-1.37-.17.66-.61,1.22-1.06,1.73-.46.51-.97.95-1.51,1.36-1.09.81-2.24,1.49-3.48,2.06l.09-.8c.9.71,1.73,1.46,2.49,2.32.38.42.73.88,1.04,1.37.28.49.58,1.05.52,1.63Z"/>
              </g>
            </g>
            <g>
              <ellipse class="cls-18" cx="88.81" cy="141.18" rx="19.96" ry="21"/>
              <ellipse class="cls-8" cx="88.81" cy="141.18" rx="17.98" ry="18.92"/>
              <path class="cls-19" d="M95.63,141.18c0,3.96-3.05,7.17-6.82,7.17s-6.82-3.21-6.82-7.17,3.05-7.17,6.82-7.17,6.82,3.21,6.82,7.17Z"/>
              <g>
                <g>
                  <path class="cls-10" d="M87.22,130.36c-.1.31-.22.92.12,1.48.05.09.15.1.2.02.16-.24.4-.81-.11-1.53-.06-.09-.18-.08-.21.04Z"/>
                  <path class="cls-14" d="M87.37,130.56c0,.1,0,.29.12.41.02.02.05.01.06-.02.03-.09.07-.27-.11-.43-.02-.02-.05,0-.06.03Z"/>
                </g>
                <g>
                  <path class="cls-10" d="M92.04,130.73c-.22.24-.59.74-.53,1.39,0,.1.09.15.17.1.25-.15.71-.56.57-1.43-.02-.11-.13-.14-.21-.06Z"/>
                  <path class="cls-14" d="M92.1,130.97c-.05.09-.13.26-.07.42,0,.03.04.03.06.01.06-.06.18-.22.08-.44-.01-.03-.05-.03-.06,0Z"/>
                </g>
                <g>
                  <path class="cls-10" d="M95.33,132.4c-.29.15-.81.5-.96,1.13-.02.1.04.17.13.15.28-.06.85-.29,1.01-1.16.02-.11-.07-.18-.18-.12Z"/>
                  <path class="cls-14" d="M95.3,132.65c-.08.06-.21.2-.21.37,0,.03.02.04.05.03.08-.04.24-.15.22-.39,0-.03-.03-.04-.06-.02Z"/>
                </g>
                <g>
                  <path class="cls-10" d="M97.88,135.07c-.32.05-.93.2-1.28.75-.06.08-.02.18.07.19.29.04.9,0,1.34-.76.06-.1,0-.19-.12-.18Z"/>
                  <path class="cls-14" d="M97.77,135.29c-.09.03-.26.12-.32.28,0,.03,0,.05.04.04.09,0,.27-.06.34-.29,0-.03-.02-.05-.05-.04Z"/>
                </g>
                <g>
                  <path class="cls-10" d="M99.39,138.43c-.32-.06-.94-.12-1.46.28-.08.06-.08.16,0,.2.26.13.85.31,1.51-.27.09-.07.06-.18-.06-.21Z"/>
                  <path class="cls-14" d="M99.22,138.61c-.1,0-.29.02-.4.16-.02.02,0,.05.02.05.09.02.28.04.42-.16.02-.03,0-.05-.04-.05Z"/>
                </g>
                <g>
                  <path class="cls-10" d="M99.7,142.11c-.28-.17-.85-.42-1.47-.22-.1.03-.13.12-.06.19.2.21.69.57,1.52.25.11-.04.11-.16.01-.21Z"/>
                  <path class="cls-14" d="M99.48,142.21c-.09-.03-.28-.07-.43.02-.02.01-.02.04,0,.06.08.05.25.13.44-.01.03-.02.02-.05-.02-.06Z"/>
                </g>
                <g>
                  <path class="cls-10" d="M98.77,145.67c-.21-.25-.66-.68-1.31-.7-.1,0-.16.07-.12.16.12.26.47.77,1.35.74.11,0,.16-.11.08-.2Z"/>
                  <path class="cls-14" d="M98.53,145.7c-.08-.06-.24-.16-.41-.13-.03,0-.04.03-.02.06.06.07.19.2.42.14.03,0,.03-.04,0-.06Z"/>
                </g>
                <g>
                  <path class="cls-10" d="M96.71,148.73c-.11-.31-.4-.86-1-1.09-.09-.04-.18.02-.17.11.03.29.18.88,1.02,1.14.11.03.19-.05.15-.16Z"/>
                  <path class="cls-14" d="M96.47,148.67c-.05-.09-.17-.23-.35-.26-.03,0-.04.02-.04.05.03.09.12.25.35.27.03,0,.04-.03.03-.06Z"/>
                </g>
                <g>
                  <path class="cls-10" d="M93.75,150.93c0-.33-.09-.94-.58-1.37-.08-.07-.17-.04-.19.05-.07.28-.12.89.59,1.42.09.07.19.02.19-.1Z"/>
                  <path class="cls-14" d="M93.54,150.79c-.02-.1-.08-.28-.24-.36-.02-.01-.05,0-.05.03,0,.09.02.28.25.37.03.01.05-.01.04-.05Z"/>
                </g>
                <g>
                  <path class="cls-10" d="M90.22,152.01c.1-.31.23-.92-.09-1.48-.05-.09-.15-.1-.2-.02-.16.24-.41.8.08,1.53.06.09.18.08.21-.03Z"/>
                  <path class="cls-14" d="M90.07,151.82c.01-.1.01-.29-.11-.42-.02-.02-.05-.01-.06.01-.03.08-.07.27.11.43.02.02.05,0,.06-.03Z"/>
                </g>
                <g>
                  <path class="cls-10" d="M86.54,151.87c.2-.26.53-.79.4-1.43-.02-.1-.11-.14-.18-.09-.23.17-.65.62-.43,1.47.03.11.14.13.21.04Z"/>
                  <path class="cls-14" d="M86.46,151.63c.04-.09.11-.27.04-.43-.01-.03-.04-.03-.06,0-.06.07-.16.23-.04.44.01.03.05.02.06,0Z"/>
                </g>
                <g>
                  <path class="cls-10" d="M83.11,150.5c.28-.18.76-.57.86-1.21.02-.1-.05-.17-.14-.14-.28.09-.82.37-.9,1.24-.01.11.09.17.19.11Z"/>
                  <path class="cls-14" d="M83.12,150.25c.07-.07.19-.22.18-.39,0-.03-.03-.04-.05-.02-.08.05-.22.17-.19.4,0,.03.04.04.06.01Z"/>
                </g>
                <g>
                  <path class="cls-10" d="M80.33,148.07c.32-.07.9-.29,1.21-.86.05-.09,0-.18-.09-.18-.29-.01-.9.07-1.26.87-.05.1.03.19.14.16Z"/>
                  <path class="cls-14" d="M80.42,147.84c.09-.04.25-.14.3-.31,0-.03-.01-.05-.04-.04-.09.02-.27.08-.31.32,0,.03.02.05.06.03Z"/>
                </g>
                <g>
                  <path class="cls-10" d="M78.52,144.86c.33.04.95.03,1.43-.41.07-.07.07-.16-.02-.2-.27-.11-.87-.23-1.48.4-.08.08-.04.19.08.2Z"/>
                  <path class="cls-14" d="M78.68,144.67c.1,0,.28-.05.38-.19.02-.02,0-.05-.03-.05-.09-.01-.28-.01-.4.2-.02.03,0,.05.04.05Z"/>
                </g>
                <g>
                  <path class="cls-10" d="M77.88,141.23c.3.14.88.34,1.48.09.09-.04.12-.13.05-.19-.22-.19-.74-.51-1.53-.11-.1.05-.1.16,0,.22Z"/>
                  <path class="cls-14" d="M78.1,141.1c.1.02.28.05.43-.06.02-.02.02-.04,0-.06-.08-.04-.26-.1-.44.05-.02.02-.01.05.02.06Z"/>
                </g>
                <g>
                  <path class="cls-10" d="M78.49,137.59c.23.23.72.62,1.37.58.1,0,.15-.09.11-.17-.14-.25-.53-.72-1.41-.61-.11.01-.15.12-.07.2Z"/>
                  <path class="cls-14" d="M78.73,137.54c.08.06.25.14.42.09.03,0,.03-.04.01-.06-.06-.07-.21-.18-.43-.1-.03.01-.03.05,0,.07Z"/>
                </g>
                <g>
                  <path class="cls-10" d="M80.27,134.36c.14.3.47.82,1.1,1,.1.03.17-.03.16-.12-.05-.28-.26-.86-1.12-1.05-.11-.02-.18.07-.13.17Z"/>
                  <path class="cls-14" d="M80.51,134.4c.06.08.19.22.37.22.03,0,.04-.02.03-.05-.04-.08-.14-.24-.38-.24-.03,0-.04.03-.02.06Z"/>
                </g>
                <g>
                  <path class="cls-10" d="M83.02,131.91c.03.33.17.93.7,1.31.08.06.17.03.19-.06.05-.28.04-.9-.71-1.36-.1-.06-.19,0-.18.12Z"/>
                  <path class="cls-14" d="M83.24,132.02c.03.1.11.27.27.33.03.01.05,0,.05-.04,0-.09-.05-.28-.28-.35-.03,0-.05.02-.04.05Z"/>
                </g>
              </g>
              <g>
                <g>
                  <path class="cls-10" d="M89.15,128.13c-.18.35-.44,1.04-.16,1.77.04.11.15.14.23.06.23-.25.63-.87.19-1.82-.06-.12-.19-.12-.26,0Z"/>
                  <path class="cls-14" d="M89.29,128.39c-.03.12-.07.34.05.51.02.03.05.02.07,0,.05-.09.13-.31-.05-.53-.02-.03-.06-.02-.07.03Z"/>
                </g>
                <g>
                  <path class="cls-10" d="M94.75,129.55c-.31.24-.85.75-.91,1.52,0,.12.08.2.18.15.32-.13.94-.51.96-1.57,0-.14-.12-.2-.23-.11Z"/>
                  <path class="cls-14" d="M94.76,129.84c-.08.09-.21.27-.17.48,0,.03.04.04.07.02.09-.06.25-.22.19-.5,0-.04-.05-.04-.08,0Z"/>
                </g>
                <g>
                  <path class="cls-10" d="M98.28,132.18c-.37.12-1.05.42-1.36,1.13-.05.11,0,.21.12.21.34-.01,1.06-.17,1.42-1.16.05-.13-.05-.22-.18-.18Z"/>
                  <path class="cls-14" d="M98.2,132.46c-.1.06-.29.19-.32.4,0,.03.02.05.05.04.1-.03.31-.12.34-.41,0-.04-.03-.05-.07-.03Z"/>
                </g>
                <g>
                  <path class="cls-10" d="M100.73,135.84c-.39-.01-1.13.05-1.66.62-.08.09-.06.2.04.23.33.1,1.06.19,1.73-.62.09-.1.03-.23-.11-.23Z"/>
                  <path class="cls-14" d="M100.56,136.08c-.12.02-.33.08-.44.27-.02.03,0,.06.04.06.11,0,.33-.01.46-.27.02-.03-.01-.06-.05-.06Z"/>
                </g>
                <g>
                  <path class="cls-10" d="M101.83,140.11c-.36-.14-1.08-.33-1.77.03-.11.06-.13.17-.04.24.28.2.93.53,1.83,0,.12-.07.1-.21-.03-.26Z"/>
                  <path class="cls-14" d="M101.59,140.27c-.12-.02-.34-.03-.5.11-.02.02-.02.05.01.07.1.04.32.1.52-.1.03-.03,0-.06-.03-.07Z"/>
                </g>
                <g>
                  <path class="cls-10" d="M101.45,144.49c-.3-.26-.91-.67-1.68-.56-.12.02-.18.12-.11.21.19.29.7.81,1.73.6.13-.03.17-.16.06-.25Z"/>
                  <path class="cls-14" d="M101.16,144.57c-.1-.06-.31-.14-.51-.07-.03.01-.04.05,0,.07.08.07.27.2.53.08.03-.02.03-.06,0-.08Z"/>
                </g>
                <g>
                  <path class="cls-10" d="M99.63,148.5c-.2-.34-.64-.94-1.4-1.09-.12-.02-.2.05-.18.16.09.33.39,1,1.43,1.14.13.02.21-.09.14-.22Z"/>
                  <path class="cls-14" d="M99.33,148.49c-.08-.09-.25-.24-.46-.23-.03,0-.05.03-.03.06.05.1.19.28.47.25.04,0,.05-.04.02-.08Z"/>
                </g>
                <g>
                  <path class="cls-10" d="M96.57,151.68c-.07-.38-.29-1.1-.96-1.49-.1-.06-.21-.02-.22.09-.03.34.04,1.07.97,1.56.12.06.23-.02.2-.16Z"/>
                  <path class="cls-14" d="M96.3,151.57c-.05-.11-.15-.31-.35-.37-.03,0-.06.01-.05.05.02.11.08.32.36.39.04,0,.06-.03.04-.07Z"/>
                </g>
                <g>
                  <path class="cls-10" d="M92.64,153.66c.06-.39.09-1.13-.41-1.73-.08-.09-.19-.09-.24.02-.14.31-.32,1.02.4,1.79.09.1.22.06.24-.08Z"/>
                  <path class="cls-14" d="M92.42,153.46c0-.12-.04-.34-.21-.47-.03-.02-.06,0-.06.03-.02.11-.03.33.21.49.03.02.06,0,.06-.05Z"/>
                </g>
                <g>
                  <path class="cls-10" d="M88.27,154.22c.19-.34.46-1.03.19-1.76-.04-.11-.15-.15-.23-.06-.24.25-.64.86-.22,1.82.05.12.19.13.26,0Z"/>
                  <path class="cls-14" d="M88.13,153.96c.03-.11.07-.34-.04-.51-.02-.03-.05-.03-.07,0-.05.09-.14.3.04.53.02.03.06.02.07-.02Z"/>
                </g>
                <g>
                  <path class="cls-10" d="M83.96,153.3c.29-.26.78-.82.77-1.6,0-.12-.1-.19-.19-.14-.31.16-.89.6-.81,1.64.01.14.14.18.24.09Z"/>
                  <path class="cls-14" d="M83.92,153c.07-.1.18-.29.13-.5,0-.03-.04-.04-.07-.02-.08.07-.23.24-.14.51.01.03.05.04.08,0Z"/>
                </g>
                <g>
                  <path class="cls-10" d="M80.21,150.99c.36-.15,1.01-.52,1.25-1.25.04-.11-.03-.21-.14-.19-.34.05-1.04.26-1.31,1.28-.04.13.07.22.2.17Z"/>
                  <path class="cls-14" d="M80.26,150.7c.1-.07.27-.21.29-.42,0-.03-.02-.05-.06-.04-.1.04-.3.15-.3.44,0,.04.04.05.07.03Z"/>
                </g>
                <g>
                  <path class="cls-10" d="M77.43,147.57c.39-.02,1.12-.15,1.6-.76.07-.09.04-.21-.07-.23-.34-.07-1.07-.1-1.66.77-.08.11,0,.23.13.22Z"/>
                  <path class="cls-14" d="M77.58,147.31c.12-.03.32-.11.41-.31.01-.03,0-.06-.04-.06-.11,0-.33.04-.43.31-.01.03.02.06.06.05Z"/>
                </g>
                <g>
                  <path class="cls-10" d="M75.96,143.42c.38.11,1.11.23,1.76-.19.1-.06.11-.18.01-.24-.29-.18-.98-.45-1.83.17-.11.08-.08.21.05.25Z"/>
                  <path class="cls-14" d="M76.18,143.23c.12,0,.34,0,.49-.15.02-.02.01-.06-.02-.07-.1-.03-.33-.07-.51.15-.02.03,0,.06.04.07Z"/>
                </g>
                <g>
                  <path class="cls-10" d="M75.95,139.01c.32.23.97.59,1.72.41.12-.03.16-.13.09-.22-.22-.27-.77-.75-1.78-.44-.13.04-.15.17-.04.25Z"/>
                  <path class="cls-14" d="M76.22,138.91c.11.05.32.12.51.02.03-.01.03-.05,0-.07-.09-.07-.29-.17-.53-.03-.03.02-.02.06.01.08Z"/>
                </g>
                <g>
                  <path class="cls-10" d="M77.4,134.85c.22.32.72.88,1.49.96.12.01.2-.07.16-.18-.12-.32-.48-.96-1.53-1.01-.14,0-.2.11-.12.23Z"/>
                  <path class="cls-14" d="M77.69,134.85c.09.08.27.22.48.19.03,0,.05-.03.03-.06-.06-.09-.21-.26-.49-.2-.04,0-.04.05-.01.08Z"/>
                </g>
                <g>
                  <path class="cls-10" d="M80.15,131.42c.11.38.39,1.06,1.09,1.4.11.05.21,0,.21-.11,0-.34-.13-1.07-1.11-1.46-.13-.05-.23.04-.19.17Z"/>
                  <path class="cls-14" d="M80.43,131.51c.06.11.18.29.39.34.03,0,.05-.02.05-.05-.03-.1-.11-.31-.4-.35-.04,0-.06.03-.04.07Z"/>
                </g>
                <g>
                  <path class="cls-10" d="M83.89,129.09c-.03.39.01,1.13.56,1.68.08.09.2.07.24-.04.11-.33.23-1.05-.56-1.75-.1-.09-.23-.04-.24.1Z"/>
                  <path class="cls-14" d="M84.13,129.27c.02.12.07.34.25.45.03.02.06,0,.06-.03.01-.11,0-.33-.26-.47-.03-.02-.06.01-.06.05Z"/>
                </g>
              </g>
            </g>
          </g>
        </g>
      </g>
    </g>
  </g>
</svg>