<?xml version="1.0" encoding="UTF-8"?>
<svg xmlns="http://www.w3.org/2000/svg" viewBox="0 0 138.51 171.63">
  <defs>
    <style>
      .cls-1 {
        opacity: .46;
      }

      .cls-1, .cls-2 {
        mix-blend-mode: screen;
      }

      .cls-1, .cls-2, .cls-3 {
        fill: #eefcfa;
      }

      .cls-2 {
        opacity: .24;
      }

      .cls-4 {
        fill: #ff7d04;
      }

      .cls-5 {
        opacity: .45;
      }

      .cls-5, .cls-6 {
        mix-blend-mode: multiply;
      }

      .cls-6 {
        opacity: .39;
      }

      .cls-7 {
        fill: #c9dfdd;
      }

      .cls-8 {
        fill: #eef2f2;
      }

      .cls-9 {
        isolation: isolate;
      }

      .cls-10 {
        fill: #54821f;
      }

      .cls-11 {
        fill: #ffc004;
      }

      .cls-12 {
        fill: #ffa304;
      }

      .cls-13 {
        fill: #b2d1ce;
      }

      .cls-14 {
        fill: #ebdbaf;
      }

      .cls-15 {
        fill: #669d25;
      }

      .cls-16 {
        fill: #fff5db;
      }

      .cls-17 {
        fill: #ffc9d0;
      }
    </style>
  </defs>
  <g class="cls-9">
    <g id="Layer_2">
      <g id="OBJECTS">
        <g>
          <path class="cls-8" d="M85.23,142.34c-8.7-1.55-19.16-2.46-30.41-2.46-30.28,0-54.82,6.56-54.82,14.65s23.72,14.42,53.28,14.64c8.7,1.55,19.16,2.46,30.41,2.46,30.28,0,54.82-6.56,54.82-14.65s-23.72-14.42-53.28-14.64Z"/>
          <g>
            <g>
              <path class="cls-12" d="M79.54,109.62c-6.27,13.83-.94,30.37,12.58,37.82,13.52,7.45,30.35,3.13,38.7-9.56l-51.28-28.27Z"/>
              <path class="cls-4" d="M81.1,110.48c-5.89,12.99-.88,28.52,11.82,35.52,12.7,7,28.51,2.94,36.34-8.98l-48.16-26.55Z"/>
              <path class="cls-16" d="M83.92,112.04c-5.2,11.47-.78,25.18,10.43,31.36,11.21,6.18,25.17,2.59,32.09-7.92l-42.52-23.44Z"/>
              <g>
                <g>
                  <path class="cls-12" d="M109.4,126.08s1.32,14.63,3.52,16.14c2.2,1.51,9.51-3.49,11.53-7.84l-15.05-8.3Z"/>
                  <path class="cls-11" d="M111.45,128.65c.3.36.46.76.59,1.17.11.42.18.84.1,1.31-.3-.36-.46-.76-.59-1.17-.1-.42-.18-.84-.1-1.31Z"/>
                  <path class="cls-11" d="M112.66,135.45c.3.36.46.76.59,1.17.11.42.18.84.1,1.31-.3-.36-.46-.76-.59-1.17-.1-.42-.18-.84-.1-1.31Z"/>
                  <path class="cls-11" d="M116.73,136.36c.36.3.58.67.77,1.06.17.39.32.8.32,1.27-.36-.3-.58-.67-.77-1.06-.17-.39-.31-.8-.32-1.27Z"/>
                  <path class="cls-11" d="M115.35,131.49c.36.3.58.67.77,1.06.17.39.32.8.32,1.27-.36-.3-.58-.67-.77-1.06-.17-.39-.31-.8-.32-1.27Z"/>
                  <path class="cls-11" d="M119.3,133.17c.36.3.58.67.77,1.06.17.39.32.8.32,1.27-.36-.3-.58-.67-.77-1.06-.17-.39-.31-.8-.32-1.27Z"/>
                </g>
                <g>
                  <path class="cls-12" d="M100.96,121.43s-13.08,6.7-15.52,5.64c-2.45-1.06-2.13-9.91.47-13.94l15.05,8.3Z"/>
                  <path class="cls-11" d="M97.69,121.07c-.35.31-.75.48-1.16.61-.41.12-.84.2-1.3.13.35-.31.75-.48,1.16-.61.41-.11.84-.19,1.3-.13Z"/>
                  <path class="cls-11" d="M91.29,123.67c-.35.31-.75.48-1.16.61-.41.12-.84.2-1.3.13.35-.31.75-.48,1.16-.61.41-.11.84-.19,1.3-.13Z"/>
                  <path class="cls-11" d="M88.35,120.72c-.4.25-.82.35-1.25.41-.43.04-.86.05-1.31-.09.4-.25.82-.35,1.25-.41.43-.04.86-.05,1.31.09Z"/>
                  <path class="cls-11" d="M93.21,119.29c-.4.25-.82.35-1.25.41-.43.04-.86.05-1.31-.09.4-.25.82-.35,1.25-.41.43-.04.86-.05,1.31.09Z"/>
                  <path class="cls-11" d="M89.68,116.84c-.4.25-.82.35-1.25.41-.43.04-.86.05-1.31-.09.4-.25.82-.35,1.25-.41.43-.04.86-.05,1.31.09Z"/>
                </g>
              </g>
              <path class="cls-12" d="M107.23,139.08c.06-6.15-2.05-15.33-2.05-15.33,0,0-8.98,3.16-14.14,6.51-2.22,1.45-2.76,4.48-1.17,6.61,2.98,4.01,7.09,6.24,12.31,6.72,2.68.24,5.03-1.82,5.05-4.51Z"/>
              <path class="cls-11" d="M104.47,124.9c-.01.47-.16.88-.34,1.27-.2.38-.42.75-.79,1.05.01-.47.16-.88.34-1.27.2-.38.42-.75.79-1.05Z"/>
              <path class="cls-11" d="M100.87,131.57c-.01.47-.16.88-.34,1.27-.2.38-.42.75-.79,1.05.01-.47.16-.88.34-1.27.2-.38.42-.75.79-1.05Z"/>
              <path class="cls-11" d="M100.79,127.04c-.18.44-.45.77-.76,1.07-.32.29-.66.55-1.1.71.17-.44.45-.77.76-1.07.32-.29.66-.55,1.1-.71Z"/>
              <path class="cls-11" d="M104.79,129.25c.03.47-.07.89-.21,1.29-.16.4-.35.78-.68,1.12-.04-.47.07-.89.21-1.29.16-.4.35-.78.68-1.12Z"/>
              <path class="cls-11" d="M104.9,136.36c.03.47-.07.89-.21,1.29-.16.4-.35.78-.68,1.12-.04-.47.07-.89.21-1.29.16-.4.35-.78.68-1.12Z"/>
              <path class="cls-11" d="M99.12,137.93c.03.47-.07.89-.21,1.29-.16.4-.35.78-.68,1.12-.04-.47.07-.89.21-1.29.16-.4.35-.78.68-1.12Z"/>
              <path class="cls-11" d="M95.01,134.21c-.1.46-.33.83-.58,1.18-.27.34-.56.65-.98.87.1-.46.33-.83.58-1.18.27-.34.56-.65.98-.87Z"/>
              <path class="cls-11" d="M95.73,129.95c-.18.44-.45.77-.76,1.07-.32.29-.66.55-1.1.71.17-.44.45-.77.76-1.07.32-.29.66-.55,1.1-.71Z"/>
            </g>
            <g>
              <path class="cls-7" d="M88.36,39.87l-3.24,47.25c-.14,2.04-.79,4-1.91,5.71l-2.72,4.19-4.06,61.83c0,2.39-12.73,4.33-28.41,4.33-7.84,0-14.95-.49-20.08-1.27-5.14-.78-8.32-1.86-8.32-3.06l-4.06-61.83-2.72-4.19c-1.11-1.71-1.77-3.67-1.91-5.71l-3.24-47.25c.55,2.96,18.39,5.34,40.33,5.34s39.78-2.37,40.34-5.34Z"/>
              <path class="cls-11" d="M83.25,59.7l-.03.48c-1.03,2.89-16.4,5.17-35.19,5.17s-34.26-2.3-35.19-5.2l-.03-.41h0c.02-.09.04-.18.08-.26,1.29-2.85,16.52-5.1,35.14-5.1s33.86,2.24,35.15,5.1c.04.07.07.15.07.22Z"/>
              <path class="cls-12" d="M83.22,60.18l-1.82,26.69c-.09,1.39-.55,2.76-1.31,3.93l-3.25,5.01-4.02,61.28c-2.86.97-11.45,2.36-24.79,2.36-7.41,0-14.33-.44-19.52-1.22-2.81-.43-4.4-.86-5.25-1.15l-4.02-61.26-3.25-5.01c-.76-1.17-1.22-2.53-1.31-3.94l-1.83-26.7c.86,2.66,13.93,4.82,30.68,5.15,1.48.03,2.98.05,4.52.05.4,0,.8,0,1.2,0,18.25-.08,32.99-2.34,34-5.16Z"/>
              <path class="cls-4" d="M72.81,156.98c0,1.47-11.09,2.66-24.78,2.66s-24.78-1.19-24.78-2.66,11.09-2.66,24.78-2.66,24.78,1.19,24.78,2.66Z"/>
              <path class="cls-7" d="M88.37,39.73s0,.09,0,.14c-.55,2.96-18.4,5.34-40.34,5.34s-39.77-2.37-40.33-5.34c0-.05,0-.09,0-.14,0-3.03,18.05-5.49,40.34-5.49s40.35,2.46,40.35,5.49Z"/>
              <path class="cls-13" d="M8.28,40.67c3.25-2.59,19.8-4.56,39.75-4.56s36.5,1.97,39.76,4.56c.33-.26.53-.53.58-.8,0-.05,0-.09,0-.14,0-3.03-18.06-5.49-40.35-5.49s-40.34,2.46-40.34,5.49c0,.05,0,.09,0,.14.05.27.25.54.58.8Z"/>
              <g>
                <path class="cls-3" d="M28.88,161.9c-5.14-.78-8.32-1.86-8.32-3.06l-4.06-61.83-2.72-4.19c-1.11-1.71-1.77-3.67-1.91-5.71l-3.16-46.16c-.59-.35-.94-.72-1.01-1.09l3.24,47.25c.14,2.04.79,4,1.91,5.71l2.72,4.19,4.06,61.83c0,1.2,3.18,2.28,8.32,3.06,5.13.79,12.24,1.27,20.08,1.27.21,0,.42,0,.62,0-7.72-.01-14.71-.49-19.77-1.27Z"/>
                <path class="cls-3" d="M48.96,45.21c19.17,0,35.21-1.81,39.33-4.25l.07-1.09c-.55,2.94-18.15,5.3-39.87,5.34.16,0,.31,0,.47,0Z"/>
              </g>
              <path class="cls-13" d="M86.21,41.5l-3,43.74c-.14,2.04-.79,4-1.91,5.71l-2.72,4.19-4.06,61.83c0,2.39-12.73,4.33-28.41,4.33-7.84,0-14.95-.49-20.08-1.27-2.79-.42-4.99-.93-6.43-1.5l.02.32c0,1.2,3.18,2.28,8.32,3.06,5.13.79,12.24,1.27,20.08,1.27,15.69,0,28.41-1.94,28.41-4.33l4.06-61.83,2.72-4.19c1.11-1.71,1.77-3.67,1.91-5.71l3.24-47.25c-.11.57-.86,1.12-2.15,1.63Z"/>
              <g class="cls-5">
                <g>
                  <path class="cls-13" d="M75.4,91.66c1.1.12,2.19.31,3.26.65.53.18,1.06.37,1.57.67.26.14.5.32.74.54.24.23.45.48.55.94v.02s0,.05,0,.05l-.02.47v.06s-.02.05-.02.05c-.19.51-.54.83-.87,1.08-.34.25-.7.44-1.06.6-.72.34-1.46.56-2.21.76-1.49.38-3.01.58-4.53.66.72-.25,1.45-.45,2.17-.69.72-.23,1.44-.45,2.14-.71.71-.24,1.39-.52,2.05-.83.62-.31,1.3-.73,1.47-1.17l-.02.12.03-.47v.08c-.04-.23-.41-.66-.83-.91-.42-.28-.89-.53-1.38-.75-.98-.45-2-.84-3.03-1.24Z"/>
                  <path class="cls-13" d="M22.67,98.12c-.72-.03-1.43-.12-2.14-.22-.71-.11-1.41-.25-2.11-.44-.7-.19-1.39-.42-2.06-.74-.34-.16-.67-.35-.99-.59-.31-.24-.64-.55-.8-1.05l-.02-.05v-.05s-.03-.44-.03-.44v-.05s0-.04,0-.04c.04-.12.08-.24.12-.36l-.02.03c.33-.66.87-.95,1.34-1.24.49-.27,1.01-.45,1.52-.62,1.03-.31,2.09-.5,3.15-.6-.99.39-1.98.77-2.92,1.2-.47.21-.93.45-1.35.71-.41.26-.8.59-.93.9l-.02.03s-.02.09-.03.13v-.09s.04.38.04.38l-.02-.1c.14.39.75.82,1.33,1.11.6.31,1.24.57,1.9.81.65.25,1.32.47,1.99.69.67.24,1.35.43,2.03.68Z"/>
                </g>
              </g>
              <g class="cls-6">
                <path class="cls-13" d="M26.48,98.12c2.55.03,5.08.13,7.62.23l7.61.33,7.6.34c1.27.06,2.53.09,3.8.12l1.9.04c.63-.01,1.27-.01,1.91,0-2.52.41-5.07.5-7.62.56-2.55.06-5.09-.01-7.63-.12-2.54-.13-5.08-.29-7.61-.55-2.53-.25-5.06-.53-7.57-.94Z"/>
              </g>
              <g>
                <path class="cls-4" d="M34.24,143.81c0,.81-.66,1.47-1.47,1.47s-1.47-.66-1.47-1.47.66-1.47,1.47-1.47,1.47.66,1.47,1.47Z"/>
                <path class="cls-4" d="M62.96,147.47c0,.81-.66,1.47-1.47,1.47s-1.47-.66-1.47-1.47.66-1.47,1.47-1.47,1.47.66,1.47,1.47Z"/>
                <path class="cls-4" d="M25.62,111.26c0,.81-.66,1.47-1.47,1.47s-1.47-.66-1.47-1.47.66-1.47,1.47-1.47,1.47.66,1.47,1.47Z"/>
                <path class="cls-4" d="M58.39,102.83c0,.81-.66,1.47-1.47,1.47s-1.47-.66-1.47-1.47.66-1.47,1.47-1.47,1.47.66,1.47,1.47Z"/>
                <path class="cls-4" d="M59.26,78.96c0,.81-.66,1.47-1.47,1.47s-1.47-.66-1.47-1.47.66-1.47,1.47-1.47,1.47.66,1.47,1.47Z"/>
                <path class="cls-4" d="M24.81,87.55c0,.81-.66,1.47-1.47,1.47s-1.47-.66-1.47-1.47.66-1.47,1.47-1.47,1.47.66,1.47,1.47Z"/>
                <path class="cls-4" d="M40.28,134.58c0,.51-.41.92-.92.92s-.92-.41-.92-.92.41-.92.92-.92.92.41.92.92Z"/>
                <path class="cls-4" d="M54.9,151.14c0,.51-.41.92-.91.92s-.92-.41-.92-.92.41-.92.92-.92.91.41.91.92Z"/>
                <path class="cls-4" d="M70.14,138.16c0,.51-.41.92-.92.92s-.92-.41-.92-.92.41-.92.92-.92.92.41.92.92Z"/>
                <path class="cls-4" d="M52.56,124.15c0,.51-.41.92-.91.92s-.92-.41-.92-.92.41-.92.92-.92.91.41.91.92Z"/>
                <path class="cls-4" d="M70.14,112.18c0,.51-.41.92-.92.92s-.92-.41-.92-.92.41-.92.92-.92.92.41.92.92Z"/>
                <path class="cls-4" d="M46.75,90.75c0,.51-.41.92-.92.92s-.92-.41-.92-.92.41-.92.92-.92.92.41.92.92Z"/>
                <path class="cls-4" d="M75.87,84.3c0,.51-.41.92-.92.92s-.91-.41-.91-.92.41-.92.91-.92.92.41.92.92Z"/>
              </g>
              <path class="cls-2" d="M50.68,163.15c3.57-.05,6.95-.2,10.01-.43-2.79-.21-5.33-.49-7.5-.82-5.14-.78-8.32-1.86-8.32-3.06l-4.06-61.83-2.72-4.19c-1.11-1.71-1.77-3.67-1.91-5.71l-2.9-42.29c-8.29-.44-15.23-1.25-19.79-2.27l3.05,44.55c.14,2.04.79,4,1.91,5.71l2.72,4.19,4.06,61.83c0,1.2,3.18,2.28,8.32,3.06,4.48.69,10.46,1.14,17.12,1.25Z"/>
              <path class="cls-1" d="M23.84,137.71h0c4.05,0,7.26-3.42,6.99-7.46l-2.18-33.23-2.72-4.19c-1.11-1.71-1.77-3.67-1.91-5.71l-2.97-43.31c-2.95-.36-5.5-.78-7.56-1.24l3.05,44.55c.14,2.04.79,4,1.91,5.71l2.72,4.19,2.67,40.69Z"/>
              <path class="cls-2" d="M74.06,43.91l-2.96,43.2c-.14,2.04-.79,4-1.91,5.71l-2.72,4.19-4.06,61.83c0,2.02-9.06,3.71-21.32,4.19,1.6.06,3.27.1,4.96.12,14.42-.21,25.71-2.05,25.71-4.31l4.06-61.83,2.72-4.19c1.11-1.71,1.77-3.67,1.91-5.71l3.07-44.78c-2.41.6-5.62,1.14-9.46,1.58Z"/>
              <path class="cls-14" d="M53.12,47.03l-3.9,18.31c-.39,0-.79,0-1.2,0-1.53,0-3.04-.02-4.52-.05-.05-.04-.07-.08-.11-.12l3.86-18.1h.77c1.73,0,3.43-.02,5.1-.05Z"/>
              <path class="cls-16" d="M62.86,1.37l-9.33,43.8-.4,1.87c-1.66.03-3.37.05-5.1.05h-.77l.39-1.87L57.26.19c0,.27,1.19.75,2.7,1.07,1.54.33,2.84.38,2.9.11Z"/>
              <path class="cls-17" d="M62.86,1.37c-.06.27-1.36.22-2.9-.11-1.51-.32-2.7-.79-2.7-1.07v-.02l5.6,1.2Z"/>
              <path class="cls-14" d="M62.86,1.37c-.06.27-1.36.22-2.9-.11-1.51-.32-2.7-.79-2.7-1.07v-.02c.06-.26,1.36-.22,2.91.11,1.54.34,2.75.81,2.69,1.08Z"/>
              <path class="cls-3" d="M88.28,40.08l-.14,2.09c-1.95,2.53-16.53,4.54-35.02,4.85-1.66.03-3.37.05-5.1.05h-.77c-20.5-.06-37.23-2.18-39.34-4.9l-.15-2.09c1.34,2.84,18.63,5.1,39.88,5.12h.37c1.86,0,3.7-.02,5.5-.05,18.83-.36,33.53-2.47,34.75-5.08Z"/>
            </g>
            <g>
              <path class="cls-15" d="M62.67,121.87c-.65,18.77,8.68,20.35,9.24,20.74.56.4-3.55.3-3.55.3,7.07,6.06,12.1,6.05,12.1,6.05l-3.61,1.22c4.66,3.83,12.81,3.57,12.81,3.57,0,0,5.14-9.1-.37-16.46l-.71,4.05s-1.72-9.58-7.35-14.61l-.2,4.41c-1.95-6.77-7.22-9.94-18.36-9.28Z"/>
              <g>
                <path class="cls-10" d="M89.66,153.75c-1.86-2.99-3.84-5.87-5.86-8.72-2.04-2.83-4.17-5.61-6.4-8.29-2.2-2.71-4.57-5.27-7.01-7.77l-1.85-1.85-1.92-1.78c-1.24-1.25-2.65-2.28-3.95-3.48,2.94,1.91,5.81,4,8.38,6.43,2.6,2.39,5.04,4.95,7.28,7.67,4.48,5.45,8.42,11.37,11.33,17.78Z"/>
                <path class="cls-10" d="M88.58,141.34c-.43.42-.81.83-1.08,1.31-.27.48-.47.98-.62,1.5-.14.52-.24,1.06-.29,1.6-.07.53-.07,1.11-.06,1.61l.02,1.37-1.01-.87s-.26-.15-.43-.18c-.19-.04-.39-.08-.6-.08-.42,0-.87.07-1.32.2-.45.13-.91.3-1.36.51l-1.37.65c.32-.41.68-.78,1.08-1.12.4-.33.84-.65,1.33-.88.48-.25,1.03-.42,1.61-.47.29-.03.6-.02.9.05.32.08.58.15.95.41l-.99.5c-.06-.66.01-1.25.1-1.86.1-.61.27-1.21.52-1.78.26-.57.61-1.1,1.05-1.54.45-.44.99-.76,1.56-.93Z"/>
                <path class="cls-10" d="M81.06,130.51c-.67,1.49-.68,3.08-.57,4.64.07.78.16,1.56.31,2.33.14.77.29,1.56.5,2.29l.27.96-.99-.21c-.7-.15-1.5-.2-2.25-.2-.77-.01-1.53.08-2.28.22-.75.14-1.48.4-2.18.74-.72.32-1.33.82-1.97,1.33.43-.68.97-1.34,1.65-1.83.68-.49,1.43-.91,2.25-1.15.8-.27,1.65-.39,2.49-.45.85-.04,1.67,0,2.55.16l-.71.75c-.21-.83-.36-1.62-.47-2.45-.09-.82-.16-1.65-.12-2.48.03-.83.12-1.67.35-2.47.24-.8.59-1.59,1.16-2.18Z"/>
                <path class="cls-10" d="M72.42,123.04c-.26.68-.16,1.38-.07,2.06.1.69.28,1.37.44,2.04.36,1.35.77,2.7,1.21,4.02l.31.92-.97-.14c-1.63-.23-3.29-.42-4.94-.51-.83-.05-1.65-.06-2.48-.03-.82.04-1.65.13-2.45.44.66-.57,1.52-.85,2.36-1.06.85-.2,1.71-.3,2.57-.34,1.73-.07,3.43.04,5.14.33l-.66.78c-.44-1.39-.77-2.79-.96-4.23-.09-.72-.14-1.45-.11-2.18.05-.72.14-1.52.62-2.09Z"/>
              </g>
            </g>
            <g>
              <path class="cls-15" d="M118.45,108.92c-17.87,5.81-16.15,15.11-16.33,15.77-.18.66-1.5-3.23-1.5-3.23-3.27,8.72-1.55,13.44-1.55,13.44l-2.38-2.97c-2,5.68,1.03,13.26,1.03,13.26,0,0,10.31,1.72,15.34-5.97l-4.05.71s8.41-4.89,11.21-11.9l-4.22,1.32c5.7-4.15,6.87-10.18,2.44-20.43Z"/>
              <g>
                <path class="cls-10" d="M97.71,145.19c2.17-2.76,4.21-5.61,6.19-8.49,1.97-2.89,3.85-5.83,5.6-8.85,1.79-2.99,3.39-6.1,4.9-9.24l1.1-2.37,1.02-2.42c.75-1.59,1.24-3.27,1.92-4.9-.79,3.42-1.78,6.83-3.18,10.07-1.35,3.26-2.93,6.43-4.72,9.47-3.59,6.07-7.81,11.8-12.84,16.73Z"/>
                <path class="cls-10" d="M109.01,139.93c-.54-.26-1.06-.47-1.6-.56-.54-.09-1.08-.11-1.62-.07-.54.05-1.07.14-1.6.27-.52.12-1.06.31-1.53.49l-1.28.49.47-1.25s.05-.29.02-.47c-.03-.19-.06-.39-.13-.59-.14-.4-.36-.8-.64-1.18-.28-.38-.6-.75-.94-1.1l-1.08-1.07c.49.16.97.37,1.42.63.45.26.89.56,1.28.95.4.36.74.82.99,1.35.13.26.22.56.26.87.04.33.06.6-.07,1.03l-.81-.76c.6-.28,1.18-.41,1.79-.55.61-.11,1.23-.16,1.85-.12.62.05,1.24.2,1.81.46.56.27,1.05.68,1.41,1.15Z"/>
                <path class="cls-10" d="M116.61,129.16c-1.63-.12-3.13.41-4.55,1.05-.71.33-1.41.68-2.09,1.09-.68.39-1.36.81-1.98,1.25l-.81.58-.14-1c-.1-.71-.32-1.48-.58-2.19-.25-.72-.6-1.41-.99-2.07-.39-.66-.88-1.25-1.44-1.79-.54-.57-1.22-.97-1.92-1.39.79.17,1.59.45,2.29.93.69.47,1.34,1.04,1.85,1.72.53.66.93,1.41,1.28,2.19.33.79.57,1.57.72,2.45l-.95-.41c.71-.48,1.4-.89,2.14-1.27.74-.37,1.49-.71,2.29-.96.79-.26,1.61-.46,2.44-.51.83-.05,1.69.01,2.45.34Z"/>
                <path class="cls-10" d="M120.68,118.48c-.72,0-1.35.32-1.96.64-.61.33-1.19.73-1.77,1.11-1.14.8-2.28,1.65-3.36,2.51l-.75.6-.2-.96c-.34-1.61-.73-3.24-1.21-4.82-.23-.8-.5-1.58-.82-2.34-.32-.76-.68-1.51-1.25-2.15.76.42,1.32,1.14,1.8,1.85.48.73.87,1.5,1.2,2.3.66,1.6,1.13,3.24,1.45,4.95l-.96-.36c1.16-.89,2.35-1.68,3.65-2.35.64-.34,1.32-.63,2.01-.85.69-.2,1.48-.39,2.17-.13Z"/>
              </g>
            </g>
            <g>
              <path class="cls-12" d="M64.11,154.18c9.49,11.85,26.65,14.6,39.42,5.92,12.77-8.68,16.54-25.64,9.01-38.83l-48.43,32.91Z"/>
              <path class="cls-4" d="M65.58,153.18c8.91,11.13,25.03,13.71,37.02,5.56,11.99-8.15,15.53-24.08,8.47-36.47l-45.49,30.91Z"/>
              <path class="cls-16" d="M68.25,151.37c7.87,9.83,22.09,12.1,32.68,4.91,10.59-7.19,13.71-21.26,7.47-32.19l-40.16,27.28Z"/>
              <g>
                <g>
                  <path class="cls-12" d="M92.31,135.02s13.64,5.46,15.98,4.18c2.34-1.28,1.2-10.06-1.77-13.83l-14.21,9.66Z"/>
                  <path class="cls-11" d="M95.53,134.36c.46-.11.89-.07,1.31,0,.42.09.83.22,1.21.5-.46.11-.89.07-1.31,0-.42-.1-.83-.23-1.21-.5Z"/>
                  <path class="cls-11" d="M102.14,136.36c.46-.11.89-.07,1.31,0,.42.09.83.22,1.21.5-.46.11-.89.07-1.31,0-.42-.1-.83-.23-1.21-.5Z"/>
                  <path class="cls-11" d="M104.8,133.14c.43-.18.86-.21,1.29-.21.43.02.86.08,1.28.29-.43.18-.86.22-1.29.21-.43-.02-.86-.08-1.28-.29Z"/>
                  <path class="cls-11" d="M99.83,132.17c.43-.18.86-.21,1.29-.21.43.02.86.08,1.28.29-.43.18-.86.22-1.29.21-.43-.02-.86-.08-1.28-.29Z"/>
                  <path class="cls-11" d="M103.11,129.41c.43-.18.86-.21,1.29-.21.43.02.86.08,1.28.29-.43.18-.86.22-1.29.21-.43-.02-.86-.08-1.28-.29Z"/>
                </g>
                <g>
                  <path class="cls-12" d="M84.34,140.44s.05,14.69-2,16.4c-2.05,1.7-9.79-2.59-12.21-6.74l14.21-9.66Z"/>
                  <path class="cls-11" d="M82.54,143.19c.12.46.09.89.02,1.31-.08.42-.2.83-.47,1.22-.12-.46-.09-.89-.02-1.31.09-.42.21-.83.47-1.22Z"/>
                  <path class="cls-11" d="M81.96,150.07c.12.46.09.89.02,1.31-.08.42-.2.83-.47,1.22-.12-.46-.09-.89-.02-1.31.09-.42.21-.83.47-1.22Z"/>
                  <path class="cls-11" d="M77.99,151.36c.04.47-.06.89-.2,1.3-.15.4-.34.79-.67,1.12-.04-.47.06-.89.2-1.3.15-.4.34-.79.67-1.12Z"/>
                  <path class="cls-11" d="M78.92,146.38c.04.47-.06.89-.2,1.3-.15.4-.34.79-.67,1.12-.04-.47.06-.89.2-1.3.15-.4.34-.79.67-1.12Z"/>
                  <path class="cls-11" d="M75.14,148.41c.04.47-.06.89-.2,1.3-.15.4-.34.79-.67,1.12-.04-.47.06-.89.2-1.3.15-.4.34-.79.67-1.12Z"/>
                </g>
              </g>
              <path class="cls-12" d="M102.91,142.85c-5.46-2.84-14.59-5.12-14.59-5.12,0,0-1.26,9.44-.6,15.56.28,2.64,2.74,4.49,5.36,4.04,4.93-.84,8.78-3.5,11.57-7.93,1.43-2.28.65-5.31-1.73-6.55Z"/>
              <path class="cls-11" d="M89.02,138.88c.41.22.71.54.98.87.25.35.47.72.58,1.18-.42-.22-.71-.54-.98-.87-.25-.35-.47-.72-.58-1.18Z"/>
              <path class="cls-11" d="M93.34,145.11c.41.22.71.54.98.87.25.35.47.72.58,1.18-.42-.22-.71-.54-.98-.87-.25-.35-.47-.72-.58-1.18Z"/>
              <path class="cls-11" d="M89.27,143.13c.31.35.48.75.61,1.16.11.41.19.84.13,1.3-.31-.35-.48-.75-.61-1.16-.11-.41-.19-.84-.13-1.3Z"/>
              <path class="cls-11" d="M93.05,140.57c.43.18.76.47,1.06.78.28.32.54.67.69,1.12-.44-.18-.76-.47-1.06-.78-.28-.32-.54-.67-.69-1.12Z"/>
              <path class="cls-11" d="M99.43,143.69c.43.18.76.47,1.06.78.28.32.54.67.69,1.12-.44-.18-.76-.47-1.06-.78-.28-.32-.54-.67-.69-1.12Z"/>
              <path class="cls-11" d="M98.22,149.55c.43.18.76.47,1.06.78.28.32.54.67.69,1.12-.44-.18-.76-.47-1.06-.78-.28-.32-.54-.67-.69-1.12Z"/>
              <path class="cls-11" d="M93.04,151.54c.36.3.59.67.79,1.05.18.39.32.8.33,1.27-.36-.3-.59-.67-.79-1.05-.18-.39-.32-.8-.33-1.27Z"/>
              <path class="cls-11" d="M89.57,148.96c.31.35.48.75.61,1.16.11.41.19.84.13,1.3-.31-.35-.48-.75-.61-1.16-.11-.41-.19-.84-.13-1.3Z"/>
            </g>
          </g>
        </g>
      </g>
    </g>
  </g>
</svg>