<?xml version="1.0" encoding="UTF-8"?>
<svg xmlns="http://www.w3.org/2000/svg" viewBox="0 0 167.21 171.63">
  <defs>
    <style>
      .cls-1 {
        opacity: .46;
      }

      .cls-1, .cls-2 {
        mix-blend-mode: screen;
      }

      .cls-1, .cls-2, .cls-3 {
        fill: #eefcfa;
      }

      .cls-2 {
        opacity: .24;
      }

      .cls-4 {
        fill: #ff7d04;
      }

      .cls-5 {
        fill: #f7b452;
      }

      .cls-6 {
        opacity: .45;
      }

      .cls-6, .cls-7 {
        mix-blend-mode: multiply;
      }

      .cls-7 {
        opacity: .39;
      }

      .cls-8 {
        fill: #c9dfdd;
      }

      .cls-9 {
        fill: #eef2f2;
      }

      .cls-10 {
        fill: #fffaf0;
      }

      .cls-11 {
        isolation: isolate;
      }

      .cls-12 {
        fill: #54821f;
      }

      .cls-13 {
        fill: #ffc004;
      }

      .cls-14 {
        fill: #ffa304;
      }

      .cls-15 {
        fill: #f4a462;
      }

      .cls-16 {
        fill: #cdf;
      }

      .cls-17 {
        fill: #b2d1ce;
      }

      .cls-18 {
        fill: #ebdbaf;
      }

      .cls-19 {
        fill: #a1b8e6;
      }

      .cls-20 {
        fill: #669d25;
      }

      .cls-21 {
        fill: #fff5db;
      }

      .cls-22 {
        fill: #ece7e3;
      }

      .cls-23 {
        fill: #ffc9d0;
      }
    </style>
  </defs>
  <g class="cls-11">
    <g id="Layer_2">
      <g id="OBJECTS">
        <g>
          <g>
            <path class="cls-9" d="M113.93,142.34c-8.7-1.55-19.16-2.46-30.41-2.46-30.28,0-54.82,6.56-54.82,14.65s23.72,14.42,53.28,14.64c8.7,1.55,19.16,2.46,30.41,2.46,30.28,0,54.82-6.56,54.82-14.65s-23.72-14.42-53.28-14.64Z"/>
            <g>
              <g>
                <path class="cls-14" d="M108.24,109.62c-6.27,13.83-.94,30.37,12.58,37.82,13.52,7.45,30.35,3.13,38.7-9.56l-51.28-28.27Z"/>
                <path class="cls-4" d="M109.8,110.48c-5.89,12.99-.88,28.52,11.82,35.52,12.7,7,28.51,2.94,36.34-8.98l-48.16-26.55Z"/>
                <path class="cls-21" d="M112.63,112.04c-5.2,11.47-.78,25.18,10.43,31.36,11.21,6.18,25.17,2.59,32.09-7.92l-42.52-23.44Z"/>
                <g>
                  <g>
                    <path class="cls-14" d="M138.1,126.08s1.32,14.63,3.52,16.14c2.2,1.51,9.51-3.49,11.53-7.84l-15.05-8.3Z"/>
                    <path class="cls-13" d="M140.15,128.65c.56.73.79,1.57.69,2.48-.56-.73-.79-1.57-.69-2.48h0Z"/>
                    <path class="cls-13" d="M141.37,135.45c.56.73.79,1.57.69,2.48-.56-.73-.79-1.57-.69-2.48h0Z"/>
                    <path class="cls-13" d="M145.44,136.36c.67.63,1.04,1.41,1.09,2.33-.67-.62-1.04-1.41-1.09-2.33h0Z"/>
                    <path class="cls-13" d="M144.05,131.49c.67.63,1.04,1.41,1.09,2.33-.67-.62-1.04-1.41-1.09-2.33h0Z"/>
                    <path class="cls-13" d="M148,133.17c.67.63,1.04,1.41,1.09,2.33-.67-.62-1.04-1.41-1.09-2.33h0Z"/>
                  </g>
                  <g>
                    <path class="cls-14" d="M129.67,121.43s-13.08,6.7-15.52,5.64c-2.45-1.06-2.13-9.91.47-13.94l15.05,8.3Z"/>
                    <path class="cls-13" d="M126.39,121.07c-.72.57-1.55.83-2.46.74.72-.58,1.55-.83,2.46-.74h0Z"/>
                    <path class="cls-13" d="M120,123.67c-.72.57-1.55.83-2.46.74.72-.58,1.55-.82,2.46-.74h0Z"/>
                    <path class="cls-13" d="M117.05,120.72c-.8.44-1.66.56-2.55.32.8-.45,1.66-.55,2.55-.32h0Z"/>
                    <path class="cls-13" d="M121.91,119.29c-.8.44-1.66.56-2.55.32.8-.45,1.66-.55,2.55-.32h0Z"/>
                    <path class="cls-13" d="M118.39,116.84c-.8.44-1.66.56-2.55.32.8-.45,1.66-.55,2.55-.32h0Z"/>
                  </g>
                </g>
                <path class="cls-14" d="M135.93,139.08c.06-6.15-2.05-15.33-2.05-15.33,0,0-8.98,3.16-14.14,6.51-2.22,1.45-2.76,4.48-1.17,6.61,2.98,4.01,7.09,6.24,12.31,6.72,2.68.24,5.03-1.82,5.05-4.51Z"/>
                <path class="cls-13" d="M133.18,124.9c-.06.92-.44,1.7-1.12,2.31.06-.92.44-1.7,1.12-2.31h0Z"/>
                <path class="cls-13" d="M129.58,131.57c-.07.92-.44,1.7-1.12,2.31.06-.92.44-1.7,1.12-2.31h0Z"/>
                <path class="cls-13" d="M129.5,127.04c-.38.84-1.01,1.44-1.86,1.78.38-.84,1.01-1.43,1.86-1.78h0Z"/>
                <path class="cls-13" d="M133.49,129.25c.02.92-.28,1.73-.9,2.41-.03-.92.28-1.73.9-2.41h0Z"/>
                <path class="cls-13" d="M133.61,136.36c.02.92-.28,1.73-.9,2.41-.03-.92.28-1.73.9-2.41h0Z"/>
                <path class="cls-13" d="M127.83,137.93c.02.92-.28,1.73-.9,2.41-.03-.92.28-1.73.9-2.41h0Z"/>
                <path class="cls-13" d="M123.71,134.21c-.24.89-.77,1.58-1.56,2.05.24-.89.77-1.58,1.56-2.05h0Z"/>
                <path class="cls-13" d="M124.43,129.95c-.38.84-1.01,1.44-1.86,1.78.38-.84,1.01-1.43,1.86-1.78h0Z"/>
              </g>
              <g>
                <path class="cls-8" d="M117.07,39.87l-3.24,47.25c-.14,2.04-.79,4-1.91,5.71l-2.72,4.19-4.06,61.83c0,2.39-12.73,4.33-28.41,4.33-7.84,0-14.95-.49-20.08-1.27-5.14-.78-8.32-1.86-8.32-3.06l-4.06-61.83-2.72-4.19c-1.11-1.71-1.77-3.67-1.91-5.71l-3.24-47.25c.55,2.96,18.39,5.34,40.33,5.34s39.78-2.37,40.34-5.34Z"/>
                <path class="cls-13" d="M111.95,59.7l-.03.48c-1.03,2.89-16.4,5.17-35.19,5.17s-34.26-2.3-35.19-5.2l-.03-.41h0c.02-.09.04-.18.08-.26,1.29-2.85,16.52-5.1,35.14-5.1s33.86,2.24,35.15,5.1c.04.07.07.15.07.22Z"/>
                <path class="cls-5" d="M111.93,60.18l-1.82,26.69c-.09,1.39-.55,2.76-1.31,3.93l-3.25,5.01-4.02,61.28c-2.86.97-11.45,2.36-24.79,2.36-7.41,0-14.33-.44-19.52-1.22-2.81-.43-4.4-.86-5.25-1.15l-4.02-61.26-3.25-5.01c-.76-1.17-1.22-2.53-1.31-3.94l-1.83-26.7c.86,2.66,13.93,4.82,30.68,5.15,1.48.03,2.98.05,4.52.05.4,0,.8,0,1.2,0,18.25-.08,32.99-2.34,34-5.16Z"/>
                <path class="cls-15" d="M101.51,156.98c0,1.47-11.09,2.66-24.78,2.66s-24.78-1.19-24.78-2.66,11.09-2.66,24.78-2.66,24.78,1.19,24.78,2.66Z"/>
                <path class="cls-8" d="M117.08,39.73s0,.09,0,.14c-.55,2.96-18.4,5.34-40.34,5.34s-39.77-2.37-40.33-5.34c0-.05,0-.09,0-.14,0-3.03,18.05-5.49,40.34-5.49s40.35,2.46,40.35,5.49Z"/>
                <path class="cls-17" d="M36.98,40.67c3.25-2.59,19.8-4.56,39.75-4.56s36.5,1.97,39.76,4.56c.33-.26.53-.53.58-.8,0-.05,0-.09,0-.14,0-3.03-18.06-5.49-40.35-5.49s-40.34,2.46-40.34,5.49c0,.05,0,.09,0,.14.05.27.25.54.58.8Z"/>
                <g>
                  <path class="cls-3" d="M57.58,161.9c-5.14-.78-8.32-1.86-8.32-3.06l-4.06-61.83-2.72-4.19c-1.11-1.71-1.77-3.67-1.91-5.71l-3.16-46.16c-.59-.35-.94-.72-1.01-1.09l3.24,47.25c.14,2.04.79,4,1.91,5.71l2.72,4.19,4.06,61.83c0,1.2,3.18,2.28,8.32,3.06,5.13.79,12.24,1.27,20.08,1.27.21,0,.42,0,.62,0-7.72-.01-14.71-.49-19.77-1.27Z"/>
                  <path class="cls-3" d="M77.67,45.21c19.17,0,35.21-1.81,39.33-4.25l.07-1.09c-.55,2.94-18.15,5.3-39.87,5.34.16,0,.31,0,.47,0Z"/>
                </g>
                <path class="cls-17" d="M114.92,41.5l-3,43.74c-.14,2.04-.79,4-1.91,5.71l-2.72,4.19-4.06,61.83c0,2.39-12.73,4.33-28.41,4.33-7.84,0-14.95-.49-20.08-1.27-2.79-.42-4.99-.93-6.43-1.5l.02.32c0,1.2,3.18,2.28,8.32,3.06,5.13.79,12.24,1.27,20.08,1.27,15.69,0,28.41-1.94,28.41-4.33l4.06-61.83,2.72-4.19c1.11-1.71,1.77-3.67,1.91-5.71l3.24-47.25c-.11.57-.86,1.12-2.15,1.63Z"/>
                <g class="cls-6">
                  <g>
                    <path class="cls-17" d="M104.11,91.66c1.93.25,4.03.56,5.57,1.86.23.23.51.55.55,1.02-.01.09,0,.51-.04.59-.76,1.6-2.64,1.96-4.14,2.44-1.49.38-3.01.58-4.53.66.72-.25,1.45-.45,2.17-.69,1.76-.55,4.77-1.47,5.64-2.58,0,.02.04-.67.03-.39-.04-.23-.42-.66-.83-.91-1.35-.87-2.9-1.39-4.41-1.99h0Z"/>
                    <path class="cls-17" d="M51.38,98.12c-2.51-.2-5.16-.54-7.3-1.99-.32-.24-.72-.63-.82-1.15-.18-1.04.68-1.69,1.44-2.1,1.46-.75,3.07-1.05,4.67-1.22-1.69.73-4.49,1.51-5.25,2.88,0,0,.03.38.03.38l-.02-.1c.14.39.75.82,1.33,1.11,1.87.94,3.94,1.49,5.92,2.19h0Z"/>
                  </g>
                </g>
                <g class="cls-7">
                  <path class="cls-17" d="M55.18,98.12c9.15.14,19.38.88,28.53,1.05.63-.01,1.27-.01,1.91,0-10.1,1.26-20.39.35-30.44-1.05h0Z"/>
                </g>
                <g>
                  <path class="cls-4" d="M62.94,143.81c0,.81-.66,1.47-1.47,1.47s-1.47-.66-1.47-1.47.66-1.47,1.47-1.47,1.47.66,1.47,1.47Z"/>
                  <path class="cls-4" d="M91.67,147.47c0,.81-.66,1.47-1.47,1.47s-1.47-.66-1.47-1.47.66-1.47,1.47-1.47,1.47.66,1.47,1.47Z"/>
                  <path class="cls-4" d="M54.32,111.26c0,.81-.66,1.47-1.47,1.47s-1.47-.66-1.47-1.47.66-1.47,1.47-1.47,1.47.66,1.47,1.47Z"/>
                  <path class="cls-4" d="M87.09,102.83c0,.81-.66,1.47-1.47,1.47s-1.47-.66-1.47-1.47.66-1.47,1.47-1.47,1.47.66,1.47,1.47Z"/>
                  <path class="cls-4" d="M87.97,78.96c0,.81-.66,1.47-1.47,1.47s-1.47-.66-1.47-1.47.66-1.47,1.47-1.47,1.47.66,1.47,1.47Z"/>
                  <path class="cls-4" d="M53.51,87.55c0,.81-.66,1.47-1.47,1.47s-1.47-.66-1.47-1.47.66-1.47,1.47-1.47,1.47.66,1.47,1.47Z"/>
                  <path class="cls-4" d="M68.99,134.58c0,.51-.41.92-.92.92s-.92-.41-.92-.92.41-.92.92-.92.92.41.92.92Z"/>
                  <path class="cls-4" d="M83.6,151.14c0,.51-.41.92-.91.92s-.92-.41-.92-.92.41-.92.92-.92.91.41.91.92Z"/>
                  <path class="cls-4" d="M98.85,138.16c0,.51-.41.92-.92.92s-.92-.41-.92-.92.41-.92.92-.92.92.41.92.92Z"/>
                  <path class="cls-4" d="M81.26,124.15c0,.51-.41.92-.91.92s-.92-.41-.92-.92.41-.92.92-.92.91.41.91.92Z"/>
                  <path class="cls-4" d="M98.85,112.18c0,.51-.41.92-.92.92s-.92-.41-.92-.92.41-.92.92-.92.92.41.92.92Z"/>
                  <path class="cls-4" d="M75.45,90.75c0,.51-.41.92-.92.92s-.92-.41-.92-.92.41-.92.92-.92.92.41.92.92Z"/>
                  <path class="cls-4" d="M104.58,84.3c0,.51-.41.92-.92.92s-.91-.41-.91-.92.41-.92.91-.92.92.41.92.92Z"/>
                </g>
                <path class="cls-2" d="M79.38,163.15c3.57-.05,6.95-.2,10.01-.43-2.79-.21-5.33-.49-7.5-.82-5.14-.78-8.32-1.86-8.32-3.06l-4.06-61.83-2.72-4.19c-1.11-1.71-1.77-3.67-1.91-5.71l-2.9-42.29c-8.29-.44-15.23-1.25-19.79-2.27l3.05,44.55c.14,2.04.79,4,1.91,5.71l2.72,4.19,4.06,61.83c0,1.2,3.18,2.28,8.32,3.06,4.48.69,10.46,1.14,17.12,1.25Z"/>
                <path class="cls-1" d="M52.55,137.71h0c4.05,0,7.26-3.42,6.99-7.46l-2.18-33.23-2.72-4.19c-1.11-1.71-1.77-3.67-1.91-5.71l-2.97-43.31c-2.95-.36-5.5-.78-7.56-1.24l3.05,44.55c.14,2.04.79,4,1.91,5.71l2.72,4.19,2.67,40.69Z"/>
                <path class="cls-2" d="M102.76,43.91l-2.96,43.2c-.14,2.04-.79,4-1.91,5.71l-2.72,4.19-4.06,61.83c0,2.02-9.06,3.71-21.32,4.19,1.6.06,3.27.1,4.96.12,14.42-.21,25.71-2.05,25.71-4.31l4.06-61.83,2.72-4.19c1.11-1.71,1.77-3.67,1.91-5.71l3.07-44.78c-2.41.6-5.62,1.14-9.46,1.58Z"/>
                <path class="cls-18" d="M81.83,47.03l-3.9,18.31c-.39,0-.79,0-1.2,0-1.53,0-3.04-.02-4.52-.05-.05-.04-.07-.08-.11-.12l3.86-18.1h.77c1.73,0,3.43-.02,5.1-.05Z"/>
                <path class="cls-21" d="M91.56,1.37l-9.33,43.8-.4,1.87c-1.66.03-3.37.05-5.1.05h-.77l.39-1.87L85.96.19c0,.27,1.19.75,2.7,1.07,1.54.33,2.84.38,2.9.11Z"/>
                <path class="cls-23" d="M91.56,1.37c-.06.27-1.36.22-2.9-.11-1.51-.32-2.7-.79-2.7-1.07v-.02l5.6,1.2Z"/>
                <path class="cls-18" d="M91.56,1.37c-.06.27-1.36.22-2.9-.11-1.51-.32-2.7-.79-2.7-1.07v-.02c.06-.26,1.36-.22,2.91.11,1.54.34,2.75.81,2.69,1.08Z"/>
                <path class="cls-3" d="M116.98,40.08l-.14,2.09c-1.95,2.53-16.53,4.54-35.02,4.85-1.66.03-3.37.05-5.1.05h-.77c-20.5-.06-37.23-2.18-39.34-4.9l-.15-2.09c1.34,2.84,18.63,5.1,39.88,5.12h.37c1.86,0,3.7-.02,5.5-.05,18.83-.36,33.53-2.47,34.75-5.08Z"/>
              </g>
              <g>
                <path class="cls-20" d="M91.37,121.87c-.65,18.77,8.68,20.35,9.24,20.74.56.4-3.55.3-3.55.3,7.07,6.06,12.1,6.05,12.1,6.05l-3.61,1.22c4.66,3.83,12.81,3.57,12.81,3.57,0,0,5.14-9.1-.37-16.46l-.71,4.05s-1.72-9.58-7.35-14.61l-.2,4.41c-1.95-6.77-7.22-9.94-18.36-9.28Z"/>
                <g>
                  <path class="cls-12" d="M118.36,153.75c-6.53-10.33-14.02-20.13-23.04-28.4-1.24-1.25-2.65-2.28-3.95-3.48,11.83,7.65,21,19.23,26.99,31.88h0Z"/>
                  <path class="cls-12" d="M117.28,141.34c-2.1,1.85-2.12,4.82-2.02,7.39,0,0-1.01-.87-1.01-.87-1.62-.8-3.58.44-5.09,1.1,1.16-1.44,2.95-2.77,4.92-2.42.32.08.58.15.95.42l-.99.5c-.15-2.38.75-5.35,3.24-6.12h0Z"/>
                  <path class="cls-12" d="M109.76,130.51c-1.3,3.3-.34,6.94.51,10.22,0,0-.99-.21-.99-.21-3-.56-6.35-.03-8.68,2.09,1.78-3,5.68-3.87,8.94-3.27,0,0-.71.75-.71.75-.7-3.11-1.24-6.95.92-9.59h0Z"/>
                  <path class="cls-12" d="M101.12,123.04c-.43,1.36.09,2.76.37,4.1.44,1.65.97,3.32,1.52,4.93,0,0-.97-.14-.97-.14-3.24-.34-6.68-1.07-9.87-.1.66-.57,1.52-.85,2.36-1.06,2.54-.57,5.16-.42,7.71-.01,0,0-.66.78-.66.78-.64-2.08-1.13-4.22-1.07-6.41.05-.72.14-1.52.62-2.09h0Z"/>
                </g>
              </g>
              <g>
                <path class="cls-20" d="M147.15,108.92c-17.87,5.81-16.15,15.11-16.33,15.77-.18.66-1.5-3.23-1.5-3.23-3.27,8.72-1.55,13.44-1.55,13.44l-2.38-2.97c-2,5.68,1.03,13.26,1.03,13.26,0,0,10.31,1.72,15.34-5.97l-4.05.71s8.41-4.89,11.21-11.9l-4.22,1.32c5.7-4.15,6.87-10.18,2.44-20.43Z"/>
                <g>
                  <path class="cls-12" d="M126.41,145.19c7.47-9.67,14.13-20.06,18.82-31.37.75-1.59,1.24-3.27,1.92-4.9-3.15,13.73-10.89,26.31-20.73,36.26h0Z"/>
                  <path class="cls-12" d="M137.71,139.93c-2.45-1.34-5.26-.35-7.64.63,0,0,.47-1.25.47-1.25.19-1.28-.86-2.43-1.69-3.33,0,0-1.08-1.07-1.08-1.07,1.75.6,3.61,1.83,3.96,3.79.04.33.06.6-.07,1.03l-.81-.76c2.18-.95,5.28-1.13,6.85.95h0Z"/>
                  <path class="cls-12" d="M145.32,129.16c-3.55-.1-6.64,2.05-9.43,3.98,0,0-.14-1-.14-1-.5-3.01-2.14-5.98-4.93-7.44,3.43.65,5.58,4.01,6.13,7.28,0,0-.95-.41-.95-.41,2.68-1.72,6.11-3.54,9.33-2.41h0Z"/>
                  <path class="cls-12" d="M149.39,118.48c-1.43.06-2.57,1.03-3.73,1.75-1.4.98-2.79,2.04-4.12,3.11,0,0-.2-.96-.2-.96-.78-3.16-1.28-6.64-3.28-9.31.76.42,1.32,1.14,1.8,1.85,1.4,2.19,2.15,4.71,2.65,7.25,0,0-.96-.36-.96-.36,1.74-1.32,3.58-2.51,5.66-3.2.69-.2,1.48-.39,2.17-.13h0Z"/>
                </g>
              </g>
              <g>
                <path class="cls-14" d="M92.81,154.18c9.49,11.85,26.65,14.6,39.42,5.92,12.77-8.68,16.54-25.64,9.01-38.83l-48.43,32.91Z"/>
                <path class="cls-4" d="M94.28,153.18c8.91,11.13,25.03,13.71,37.02,5.56,11.99-8.15,15.53-24.08,8.47-36.47l-45.49,30.91Z"/>
                <path class="cls-21" d="M96.95,151.37c7.87,9.83,22.09,12.1,32.68,4.91,10.59-7.19,13.71-21.26,7.47-32.19l-40.16,27.28Z"/>
                <g>
                  <g>
                    <path class="cls-14" d="M121.01,135.02s13.64,5.46,15.98,4.18c2.34-1.28,1.2-10.06-1.77-13.83l-14.21,9.66Z"/>
                    <path class="cls-13" d="M124.24,134.36c.9-.17,1.75,0,2.52.51-.9.17-1.75,0-2.52-.51h0Z"/>
                    <path class="cls-13" d="M130.85,136.36c.9-.17,1.75,0,2.52.51-.9.17-1.75,0-2.52-.51h0Z"/>
                    <path class="cls-13" d="M133.5,133.14c.86-.32,1.73-.29,2.57.08-.86.32-1.73.29-2.57-.08h0Z"/>
                    <path class="cls-13" d="M128.54,132.17c.86-.32,1.73-.29,2.57.08-.86.32-1.73.29-2.57-.08h0Z"/>
                    <path class="cls-13" d="M131.82,129.41c.86-.32,1.73-.29,2.57.08-.86.32-1.73.29-2.57-.08h0Z"/>
                  </g>
                  <g>
                    <path class="cls-14" d="M113.05,140.44s.05,14.69-2,16.4c-2.05,1.7-9.79-2.59-12.21-6.74l14.21-9.66Z"/>
                    <path class="cls-13" d="M111.24,143.19c.19.9.04,1.75-.45,2.53-.19-.9-.03-1.75.45-2.53h0Z"/>
                    <path class="cls-13" d="M110.66,150.07c.19.9.04,1.75-.45,2.53-.19-.9-.03-1.75.45-2.53h0Z"/>
                    <path class="cls-13" d="M106.7,151.36c.03.92-.26,1.74-.87,2.42-.04-.92.26-1.73.87-2.42h0Z"/>
                    <path class="cls-13" d="M107.62,146.38c.03.92-.26,1.74-.87,2.42-.04-.92.26-1.73.87-2.42h0Z"/>
                    <path class="cls-13" d="M103.85,148.41c.03.92-.26,1.74-.87,2.42-.04-.92.26-1.73.87-2.42h0Z"/>
                  </g>
                </g>
                <path class="cls-14" d="M131.62,142.85c-5.46-2.84-14.59-5.12-14.59-5.12,0,0-1.26,9.44-.6,15.56.28,2.64,2.74,4.49,5.36,4.04,4.93-.84,8.78-3.5,11.57-7.93,1.43-2.28.65-5.31-1.73-6.55Z"/>
                <path class="cls-13" d="M117.73,138.88c.79.47,1.31,1.16,1.55,2.05-.79-.47-1.31-1.17-1.55-2.05h0Z"/>
                <path class="cls-13" d="M122.04,145.11c.79.47,1.31,1.16,1.55,2.05-.79-.47-1.31-1.16-1.55-2.05h0Z"/>
                <path class="cls-13" d="M117.97,143.13c.57.72.82,1.55.74,2.46-.58-.72-.82-1.55-.74-2.46h0Z"/>
                <path class="cls-13" d="M121.75,140.57c.83.39,1.42,1.03,1.74,1.89-.83-.39-1.42-1.03-1.74-1.89h0Z"/>
                <path class="cls-13" d="M128.14,143.69c.83.39,1.42,1.03,1.74,1.89-.83-.39-1.42-1.03-1.74-1.89h0Z"/>
                <path class="cls-13" d="M126.93,149.55c.83.39,1.42,1.03,1.74,1.89-.83-.39-1.42-1.03-1.74-1.89h0Z"/>
                <path class="cls-13" d="M121.74,151.54c.68.62,1.06,1.4,1.12,2.32-.68-.62-1.06-1.4-1.12-2.32h0Z"/>
                <path class="cls-13" d="M118.27,148.96c.57.72.82,1.55.74,2.46-.58-.72-.82-1.55-.74-2.46h0Z"/>
              </g>
            </g>
          </g>
          <g>
            <path class="cls-19" d="M70.99,143.34c0,6.58-7.27,26.63-35.48,26.63C5.7,169.96,0,149.92,0,143.34s15.89-11.95,35.5-11.95,35.48,5.35,35.48,11.95Z"/>
            <path class="cls-16" d="M35.5,131.38c-19.61,0-35.5,5.35-35.5,11.95s15.89,11.94,35.5,11.94,35.49-5.35,35.49-11.94-15.88-11.95-35.49-11.95ZM66.76,144.21c-3.09,2.68-13.36,6.86-31.26,6.86s-28.07-4.14-31.21-6.82c-.52-.44-.52-1.39,0-1.84,3.14-2.67,13.41-6.83,31.21-6.83s28.17,4.2,31.26,6.88c.49.4.49,1.32,0,1.75Z"/>
            <path class="cls-22" d="M66.76,144.21c-3.09,2.68-13.36,6.86-31.26,6.86s-28.07-4.14-31.21-6.82c-.52-.44-.52-1.39,0-1.84,3.14-2.67,13.41-6.83,31.21-6.83s28.17,4.2,31.26,6.88c.49.4.49,1.32,0,1.75Z"/>
            <g>
              <path class="cls-10" d="M66.94,142.87c-.46,1.32-1.82,2.51-3.31,3.14-6.25,2.68-12.79,3.87-19.52,4.56-7.85.81-15.77.59-23.57-.56-4.61-.68-9.64-1.35-13.65-3.87-3.26-2.04-4.18-5.99-1.16-8.85.02-.02.05-.04.07-.06,1.43-1.32,3.23-1.8,4.96-2.24-.52-.81-.75-1.69-.75-2.56,0-.63.12-1.26.32-1.86.44-1.35,1.3-2.57,2.23-3.41,2.22-2.01,5.49-2.41,8.16-2.62.03,0,.06,0,.09,0-.45-1.01-.48-2.29-.09-3.33.17-.45.42-.86.71-1.22,1.17-1.45,3.15-2.2,4.61-2.4,1.77-.25,3.77-.23,4.46-2.8.24-.89.15-1.92-.25-2.72-.22-.44-.54-.91-.43-1.41.08-.36.38-.58.67-.63s.59.05.88.15c3.85,1.36,7.73,2.95,11.09,5.66.38.3.75.61,1.11.95.27.25.53.5.78.78.6.65,1.13,1.38,1.47,2.26.49,1.26.52,2.88-.19,3.97,3.75-.97,8.98.83,10.03,3.28.11.27.21.55.29.84.26,1.02.27,2.12.04,3.15,0,0,0,.01,0,.02,2.29.62,4.83,1.69,6.43,3.5.3.34.57.71.8,1.11.56.96.56,1.87.22,2.63.65.29,1.3.55,1.88.91.05.03.1.07.15.1,1.59,1.07,1.89,2.35,1.47,3.53Z"/>
              <path class="cls-22" d="M66.94,142.87c-.46,1.32-1.82,2.51-3.31,3.14-6.25,2.68-12.79,3.87-19.52,4.56-7.85.81-15.77.59-23.57-.56-4.61-.68-9.64-1.35-13.65-3.87-3.26-2.04-4.18-5.99-1.16-8.85.02-.02.05-.04.07-.06,0,1.9-.38,3.8,1.69,5.69,3.67,3.36,8.59,4.26,13.12,5.19,7.73,1.58,15.65,1.88,23.48.77,6.67-.95,13.06-2.56,18.93-6.13,1.26-.77,1.97-1.98,2.44-3.42,1.59,1.07,1.89,2.35,1.47,3.53Z"/>
              <path class="cls-22" d="M63.43,138.32c-1.43.93-2.99,1.66-4.15,2.18-4.31,1.92-9,2.57-13.67,2.86-10.61.68-21.39-.3-31.59-3.36-.03-.01-.02-.06.01-.05,9.38,1.87,18.91,2.81,28.46,1.94,5.02-.46,10.44-1.11,14.98-3.46,1.9-.98,3.5-2.24,4.91-3.84h.01c.3.33.57.7.8,1.1.56.96.56,1.87.22,2.63Z"/>
              <path class="cls-22" d="M51.63,135.35c-8.12,1.8-17.16,2.61-25.46,2.29-5.1-.19-10.48-.95-15.43-2.68-.89-1.4-.89-2.97-.41-4.39,5.69,2.15,11.41,3.58,17.64,4.3,7.93.91,15.73.11,23.66.44.03,0,.03.04,0,.05Z"/>
              <path class="cls-22" d="M55.99,131.07c-3.52.99-7.59.09-10.93-1.35-.05-.02-.02-.09.03-.1,3.99-.23,7.44-.14,10.87-1.7.26,1.02.27,2.12.04,3.15Z"/>
              <path class="cls-22" d="M37.85,123.99c-3.41,1.92-8.72,1.6-12.49,1.26-1.22-.11-2.97-.29-4.64-.7.03,0,.06,0,.09,0-.45-1.01-.48-2.29-.09-3.33.17-.45.42-.86.71-1.22,1.57.61,3.11,1.41,4.4,1.82,2.26.71,4.52,1.33,6.88,1.55,1.75.15,3.43.03,5.13.5.07.02.08.11.02.14Z"/>
              <path class="cls-22" d="M45.68,126.27c-4.75,1.28-9.16,2.72-14.15,2.89-4.55.15-8.79-1.02-13.27-1.43-.05,0-.07.07-.03.1,7.52,4.01,20.3,2.83,27.54-1.32.13-.07.04-.28-.1-.24Z"/>
              <path class="cls-22" d="M44.35,117.57c-.57.95-1.39,1.77-2.25,2.33-2.23,1.46-5.45,1.88-7.98,1.08-.03,0-.03-.04,0-.05,1.95-.68,3.99-.77,5.83-1.83,1.5-.87,2.2-1.93,2.51-3.27.38.3.75.61,1.11.95.27.25.53.5.78.78Z"/>
            </g>
          </g>
        </g>
      </g>
    </g>
  </g>
</svg>