<?xml version="1.0" encoding="UTF-8"?>
<svg xmlns="http://www.w3.org/2000/svg" viewBox="0 0 163.82 171.63">
  <defs>
    <style>
      .cls-1 {
        opacity: .46;
      }

      .cls-1, .cls-2 {
        mix-blend-mode: screen;
      }

      .cls-1, .cls-2, .cls-3 {
        fill: #eefcfa;
      }

      .cls-2 {
        opacity: .24;
      }

      .cls-4 {
        opacity: .45;
      }

      .cls-4, .cls-5 {
        mix-blend-mode: multiply;
      }

      .cls-5 {
        opacity: .39;
      }

      .cls-6 {
        fill: #ffebed;
      }

      .cls-7 {
        fill: #c43649;
      }

      .cls-8 {
        fill: #c9dfdd;
      }

      .cls-9 {
        fill: #eef2f2;
      }

      .cls-10 {
        fill: #f2d0d4;
      }

      .cls-11 {
        fill: #fffaf0;
      }

      .cls-12 {
        isolation: isolate;
      }

      .cls-13 {
        fill: #54821f;
      }

      .cls-14 {
        fill: #f794a5;
      }

      .cls-15 {
        fill: #ad3041;
      }

      .cls-16 {
        fill: #fff;
      }

      .cls-17 {
        fill: #dd7c8c;
      }

      .cls-18 {
        fill: #d35e71;
      }

      .cls-19 {
        fill: #ffdbdf;
      }

      .cls-20 {
        fill: #cdf;
      }

      .cls-21 {
        fill: #b2d1ce;
      }

      .cls-22 {
        fill: #fefbea;
      }

      .cls-23 {
        fill: #eb5769;
      }

      .cls-24 {
        fill: #a1b8e6;
      }

      .cls-25 {
        fill: #669d25;
      }

      .cls-26 {
        fill: #ece7e3;
      }

      .cls-27 {
        fill: #ffc9d0;
      }
    </style>
  </defs>
  <g class="cls-12">
    <g id="Layer_2">
      <g id="OBJECTS">
        <g>
          <g>
            <path class="cls-9" d="M110.54,142.34c-8.7-1.55-19.16-2.46-30.41-2.46-30.28,0-54.82,6.56-54.82,14.65s23.72,14.42,53.28,14.64c8.7,1.55,19.16,2.46,30.41,2.46,30.28,0,54.82-6.56,54.82-14.65s-23.72-14.42-53.28-14.64Z"/>
            <g>
              <g>
                <path class="cls-25" d="M135.84,108.7c-17.25,7.43-14.69,16.54-14.81,17.21-.12.67-1.79-3.08-1.79-3.08-2.46,8.98-.3,13.52-.3,13.52l-2.65-2.74c-1.47,5.85,2.24,13.11,2.24,13.11,0,0,10.43.77,14.73-7.36l-3.96,1.08s7.93-5.64,10.07-12.88l-4.08,1.7c5.29-4.65,5.9-10.77.55-20.56Z"/>
                <g>
                  <path class="cls-13" d="M118.53,146.72c6.55-10.31,12.22-21.28,15.85-32.97.6-1.65.93-3.37,1.46-5.05-1.87,13.96-8.42,27.2-17.31,38.02h0Z"/>
                  <path class="cls-13" d="M129.3,140.44c-2.56-1.11-5.27.14-7.55,1.33,0,0,.35-1.28.35-1.28.07-1.29-1.08-2.34-1.99-3.16,0,0-1.18-.97-1.18-.97,1.8.43,3.76,1.49,4.29,3.41.07.32.12.59.03,1.04l-.87-.68c2.09-1.15,5.15-1.61,6.91.32h0Z"/>
                  <path class="cls-13" d="M135.88,129.02c-3.54.23-6.42,2.65-9.02,4.83,0,0-.24-.98-.24-.98-.77-2.96-2.68-5.76-5.59-6.95,3.47.33,5.93,3.48,6.77,6.69,0,0-.99-.32-.99-.32,2.51-1.96,5.75-4.09,9.06-3.26h0Z"/>
                  <path class="cls-13" d="M138.95,118.02c-1.42.19-2.46,1.26-3.55,2.09-1.31,1.11-2.59,2.29-3.81,3.48,0,0-.29-.94-.29-.94-1.07-3.08-1.89-6.49-4.13-8.97.8.35,1.42,1.01,1.97,1.68,1.6,2.05,2.58,4.49,3.31,6.97,0,0-.99-.27-.99-.27,1.61-1.47,3.34-2.83,5.34-3.71.67-.26,1.43-.52,2.15-.33h0Z"/>
                </g>
              </g>
              <g>
                <path class="cls-8" d="M117.45,39.87l-3.24,47.25c-.14,2.04-.79,4-1.91,5.71l-2.72,4.19-4.06,61.83c0,2.39-12.73,4.33-28.41,4.33-7.84,0-14.95-.49-20.08-1.27-5.14-.78-8.32-1.86-8.32-3.06l-4.06-61.83-2.72-4.19c-1.11-1.71-1.77-3.67-1.91-5.71l-3.24-47.25c.55,2.96,18.39,5.34,40.33,5.34s39.78-2.37,40.34-5.34Z"/>
                <path class="cls-14" d="M112.33,59.7l-.03.48c-1.03,2.89-16.4,5.17-35.19,5.17s-34.26-2.3-35.19-5.2l-.03-.41h0c.02-.09.04-.18.08-.26,1.29-2.85,16.52-5.1,35.14-5.1s33.86,2.24,35.15,5.1c.04.07.07.15.07.22Z"/>
                <path class="cls-17" d="M112.31,60.18l-1.82,26.69c-.09,1.39-.55,2.76-1.31,3.93l-3.25,5.01-4.02,61.28c-2.86.97-11.45,2.36-24.79,2.36-7.41,0-14.33-.44-19.52-1.22-2.81-.43-4.4-.86-5.25-1.15l-4.02-61.26-3.25-5.01c-.76-1.17-1.22-2.53-1.31-3.94l-1.83-26.7c.86,2.66,13.93,4.82,30.68,5.15,1.48.03,2.98.05,4.52.05.4,0,.8,0,1.2,0,18.25-.08,32.99-2.34,34-5.16Z"/>
                <path class="cls-18" d="M101.89,156.98c0,1.47-11.09,2.66-24.78,2.66s-24.78-1.19-24.78-2.66,11.09-2.66,24.78-2.66,24.78,1.19,24.78,2.66Z"/>
                <path class="cls-8" d="M117.46,39.73s0,.09,0,.14c-.55,2.96-18.4,5.34-40.34,5.34s-39.77-2.37-40.33-5.34c0-.05,0-.09,0-.14,0-3.03,18.05-5.49,40.34-5.49s40.35,2.46,40.35,5.49Z"/>
                <path class="cls-21" d="M37.36,40.67c3.25-2.59,19.8-4.56,39.75-4.56s36.5,1.97,39.76,4.56c.33-.26.53-.53.58-.8,0-.05,0-.09,0-.14,0-3.03-18.06-5.49-40.35-5.49s-40.34,2.46-40.34,5.49c0,.05,0,.09,0,.14.05.27.25.54.58.8Z"/>
                <g>
                  <path class="cls-3" d="M57.96,161.9c-5.14-.78-8.32-1.86-8.32-3.06l-4.06-61.83-2.72-4.19c-1.11-1.71-1.77-3.67-1.91-5.71l-3.16-46.16c-.59-.35-.94-.72-1.01-1.09l3.24,47.25c.14,2.04.79,4,1.91,5.71l2.72,4.19,4.06,61.83c0,1.2,3.18,2.28,8.32,3.06,5.13.79,12.24,1.27,20.08,1.27.21,0,.42,0,.62,0-7.72-.01-14.71-.49-19.77-1.27Z"/>
                  <path class="cls-3" d="M78.05,45.21c19.17,0,35.21-1.81,39.33-4.25l.07-1.09c-.55,2.94-18.15,5.3-39.87,5.34.16,0,.31,0,.47,0Z"/>
                </g>
                <path class="cls-21" d="M115.3,41.5l-3,43.74c-.14,2.04-.79,4-1.91,5.71l-2.72,4.19-4.06,61.83c0,2.39-12.73,4.33-28.41,4.33-7.84,0-14.95-.49-20.08-1.27-2.79-.42-4.99-.93-6.43-1.5l.02.32c0,1.2,3.18,2.28,8.32,3.06,5.13.79,12.24,1.27,20.08,1.27,15.69,0,28.41-1.94,28.41-4.33l4.06-61.83,2.72-4.19c1.11-1.71,1.77-3.67,1.91-5.71l3.24-47.25c-.11.57-.86,1.12-2.15,1.63Z"/>
                <g class="cls-4">
                  <g>
                    <path class="cls-21" d="M104.49,91.66c1.93.25,4.03.56,5.57,1.86.24.23.51.55.55,1.02-.01.09,0,.51-.04.59-.76,1.6-2.64,1.96-4.14,2.44-1.49.38-3.01.58-4.53.66,1.44-.48,2.89-.89,4.31-1.4,1.15-.45,2.93-.97,3.52-2,0,0-.02.12-.02.12l.03-.47c-.85-1.33-3.56-2.12-5.25-2.83h0Z"/>
                    <path class="cls-21" d="M51.76,98.12c-2.51-.2-5.16-.54-7.3-1.99-.32-.24-.72-.63-.82-1.15-.23-1.6,1.73-2.3,2.96-2.72,1.03-.31,2.09-.5,3.15-.6-1.73.8-4.06,1.25-5.21,2.81-.03.05-.02.11-.05.16,0,0,0-.09,0-.09l.03.38c1.36,1.58,4.96,2.33,7.22,3.2h0Z"/>
                  </g>
                </g>
                <g class="cls-5">
                  <path class="cls-21" d="M55.56,98.12c9.15.14,19.38.88,28.53,1.05.63-.01,1.27-.01,1.91,0-10.1,1.26-20.39.35-30.44-1.05h0Z"/>
                </g>
                <g>
                  <path class="cls-15" d="M63.32,143.81c0,.81-.66,1.47-1.47,1.47s-1.47-.66-1.47-1.47.66-1.47,1.47-1.47,1.47.66,1.47,1.47Z"/>
                  <path class="cls-15" d="M92.05,147.47c0,.81-.66,1.47-1.47,1.47s-1.47-.66-1.47-1.47.66-1.47,1.47-1.47,1.47.66,1.47,1.47Z"/>
                  <path class="cls-15" d="M54.7,111.26c0,.81-.66,1.47-1.47,1.47s-1.47-.66-1.47-1.47.66-1.47,1.47-1.47,1.47.66,1.47,1.47Z"/>
                  <path class="cls-15" d="M87.47,102.83c0,.81-.66,1.47-1.47,1.47s-1.47-.66-1.47-1.47.66-1.47,1.47-1.47,1.47.66,1.47,1.47Z"/>
                  <path class="cls-15" d="M88.35,78.96c0,.81-.66,1.47-1.47,1.47s-1.47-.66-1.47-1.47.66-1.47,1.47-1.47,1.47.66,1.47,1.47Z"/>
                  <path class="cls-15" d="M53.89,87.55c0,.81-.66,1.47-1.47,1.47s-1.47-.66-1.47-1.47.66-1.47,1.47-1.47,1.47.66,1.47,1.47Z"/>
                  <path class="cls-15" d="M69.37,134.58c0,.51-.41.92-.92.92s-.92-.41-.92-.92.41-.91.92-.91.92.41.92.91Z"/>
                  <path class="cls-15" d="M83.98,151.14c0,.51-.41.92-.92.92s-.92-.41-.92-.92.41-.92.92-.92.92.41.92.92Z"/>
                  <path class="cls-15" d="M99.23,138.16c0,.51-.41.92-.92.92s-.92-.41-.92-.92.41-.92.92-.92.92.41.92.92Z"/>
                  <path class="cls-15" d="M81.64,124.15c0,.51-.41.92-.92.92s-.92-.41-.92-.92.41-.92.92-.92.92.41.92.92Z"/>
                  <path class="cls-15" d="M99.23,112.18c0,.51-.41.92-.92.92s-.92-.41-.92-.92.41-.92.92-.92.92.41.92.92Z"/>
                  <path class="cls-15" d="M75.83,90.75c0,.51-.41.92-.91.92s-.92-.41-.92-.92.41-.92.92-.92.91.41.91.92Z"/>
                  <path class="cls-15" d="M104.96,84.3c0,.51-.41.92-.92.92s-.92-.41-.92-.92.41-.92.92-.92.92.41.92.92Z"/>
                </g>
                <path class="cls-2" d="M79.76,163.15c3.57-.05,6.95-.2,10.01-.43-2.79-.21-5.33-.49-7.5-.82-5.14-.78-8.32-1.86-8.32-3.06l-4.06-61.83-2.72-4.19c-1.11-1.71-1.77-3.67-1.91-5.71l-2.9-42.29c-8.29-.44-15.23-1.24-19.79-2.27l3.05,44.55c.14,2.04.79,4,1.91,5.71l2.72,4.19,4.06,61.83c0,1.2,3.18,2.28,8.32,3.06,4.48.69,10.46,1.14,17.12,1.25Z"/>
                <path class="cls-1" d="M52.93,137.71h0c4.05,0,7.26-3.42,6.99-7.46l-2.18-33.23-2.72-4.19c-1.11-1.71-1.77-3.67-1.91-5.71l-2.97-43.31c-2.95-.36-5.5-.78-7.56-1.24l3.05,44.55c.14,2.04.79,4,1.91,5.71l2.72,4.19,2.67,40.69Z"/>
                <path class="cls-2" d="M103.14,43.91l-2.96,43.2c-.14,2.04-.79,4-1.91,5.71l-2.72,4.19-4.06,61.83c0,2.02-9.06,3.71-21.32,4.19,1.6.06,3.27.1,4.96.12,14.42-.21,25.71-2.05,25.71-4.31l4.06-61.83,2.72-4.19c1.11-1.71,1.77-3.67,1.91-5.71l3.07-44.78c-2.41.6-5.62,1.14-9.46,1.58Z"/>
                <path class="cls-10" d="M82.21,47.03l-3.9,18.31c-.39,0-.79,0-1.2,0-1.53,0-3.04-.02-4.52-.05-.05-.04-.07-.08-.11-.12l3.86-18.1h.77c1.73,0,3.43-.02,5.1-.05Z"/>
                <path class="cls-6" d="M91.94,1.37l-9.33,43.8-.4,1.87c-1.66.03-3.37.05-5.1.05h-.77l.39-1.87L86.34.19c0,.27,1.19.75,2.7,1.07,1.54.33,2.84.38,2.9.11Z"/>
                <path class="cls-27" d="M91.94,1.37c-.06.27-1.36.22-2.9-.11-1.51-.32-2.7-.79-2.7-1.07v-.02l5.6,1.2Z"/>
                <path class="cls-19" d="M91.94,1.37c-.06.27-1.36.22-2.9-.11-1.51-.32-2.7-.79-2.7-1.07v-.02c.06-.26,1.36-.22,2.91.11,1.54.34,2.75.81,2.69,1.08Z"/>
                <path class="cls-3" d="M117.36,40.08l-.14,2.09c-1.95,2.53-16.53,4.54-35.02,4.85-1.66.03-3.37.05-5.1.05h-.77c-20.5-.06-37.23-2.18-39.34-4.9l-.15-2.09c1.34,2.84,18.63,5.1,39.88,5.12h.37c1.86,0,3.7-.02,5.5-.05,18.83-.36,33.53-2.47,34.75-5.08Z"/>
              </g>
              <g>
                <g>
                  <g>
                    <path class="cls-25" d="M100.46,124.32c4.3,2.93,6.05.98,6.22.91.18-.07-.46.88-.46.88,2.47-.76,3.21-1.94,3.21-1.94l-.25,1.03c1.59-.52,2.73-2.47,2.73-2.47,0,0-1.37-2.55-3.91-2.35l.84.77s-2.5-1.02-4.51-.44l1,.7c-1.87-.55-3.4.22-4.89,2.92Z"/>
                    <g>
                      <path class="cls-13" d="M111.93,122.73c-3.88,0-7.76.4-11.46,1.59,3.54-1.63,7.61-2.06,11.46-1.59h0Z"/>
                      <path class="cls-13" d="M108.86,121.14c.14.8.81,1.21,1.43,1.57,0,0-.36.1-.36.1-.43.26-.43.89-.49,1.36-.19-.55-.23-1.36.4-1.67,0,0-.03.3-.03.3-.57-.32-1.14-.97-.95-1.66h0Z"/>
                      <path class="cls-13" d="M105.21,121.3c.51.86,1.58,1.15,2.49,1.39,0,0-.22.21-.22.21-.6.57-1.04,1.46-.8,2.34-.35-.87-.03-1.87.56-2.58,0,0,.07.28.07.28-.82-.35-1.74-.79-2.11-1.64h0Z"/>
                      <path class="cls-13" d="M102.18,122.21c.63.57,1.59.67,2.39.89,0,0-.18.21-.18.21-.57.71-1.24,1.4-1.48,2.3-.05-.49.18-.95.4-1.36.25-.41.52-.8.84-1.15l.08.27c-.72-.24-1.67-.44-2.06-1.15h0Z"/>
                    </g>
                  </g>
                  <g>
                    <path class="cls-25" d="M101.84,116.48c1.31,5.04,3.91,4.72,4.09,4.78.18.06-.92.36-.92.36,2.36,1.05,3.69.65,3.69.65l-.86.61c1.54.65,3.68-.06,3.68-.06,0,0,.65-2.82-1.4-4.34l.13,1.13s-1.21-2.41-3.1-3.3l.3,1.19c-1.05-1.64-2.7-2.07-5.61-1.01Z"/>
                    <g>
                      <path class="cls-13" d="M111.53,122.82c-2.92-2.56-6.11-4.8-9.68-6.33,3.74,1.1,7.09,3.45,9.68,6.33h0Z"/>
                      <path class="cls-13" d="M110.26,119.61c-.42.69-.18,1.45.05,2.13,0,0-.34-.16-.34-.16-.49-.09-.91.39-1.26.7.22-.54.72-1.17,1.4-1,0,0-.22.21-.22.21-.23-.62-.22-1.49.37-1.88h0Z"/>
                      <path class="cls-13" d="M107.41,117.32c-.18.99.44,1.91.96,2.68,0,0-.3.01-.3.01-.82.03-1.74.42-2.14,1.24.31-.89,1.21-1.42,2.12-1.57,0,0-.13.26-.13.26-.39-.8-.8-1.74-.51-2.62h0Z"/>
                      <path class="cls-13" d="M104.52,116.02c.1.84.76,1.55,1.22,2.25,0,0-.27.04-.27.04-.89.16-1.85.24-2.63.76.28-.4.76-.59,1.2-.76.46-.15.91-.26,1.39-.32l-.11.25c-.38-.66-.97-1.43-.79-2.22h0Z"/>
                    </g>
                  </g>
                  <g>
                    <path class="cls-25" d="M108.03,111.48c-2.32,4.66-.15,6.13-.06,6.29.09.16-.93-.33-.93-.33,1.09,2.34,2.35,2.92,2.35,2.92l-1.05-.11c.73,1.5,2.82,2.37,2.82,2.37,0,0,2.34-1.7,1.8-4.19l-.65.94s.67-2.61-.17-4.53l-.56,1.09c.29-1.93-.68-3.33-3.56-4.45Z"/>
                    <g>
                      <path class="cls-13" d="M111.17,122.62c-.52-3.85-1.45-7.63-3.13-11.14,2.09,3.29,3.08,7.26,3.13,11.14h0Z"/>
                      <path class="cls-13" d="M112.32,119.37c-.77.24-1.09.97-1.36,1.63,0,0-.15-.34-.15-.34-.31-.39-.94-.3-1.41-.31.52-.26,1.32-.41,1.71.17,0,0-.3.01-.3.01.23-.61.81-1.26,1.52-1.17h0Z"/>
                      <path class="cls-13" d="M111.67,115.78c-.78.63-.93,1.73-1.04,2.66,0,0-.23-.19-.23-.19-.64-.51-1.58-.83-2.43-.47.39-.22.86-.31,1.32-.26.46.05.9.21,1.31.46l-.27.11c.23-.86.54-1.83,1.34-2.31h0Z"/>
                      <path class="cls-13" d="M110.36,112.9c-.48.71-.45,1.66-.56,2.49,0,0-.23-.15-.23-.15-.78-.46-1.56-1.03-2.48-1.16.47-.11.96.05,1.4.21.44.19.86.4,1.26.68l-.25.12c.14-.75.21-1.71.86-2.2h0Z"/>
                    </g>
                  </g>
                  <g>
                    <path class="cls-25" d="M115.99,111.78c-4.81,1.98-4.14,4.52-4.18,4.7-.04.19-.48-.86-.48-.86-.72,2.48-.14,3.74-.14,3.74l-.72-.77c-.43,1.61.56,3.64.56,3.64,0,0,2.88.26,4.11-1.97l-1.1.28s2.22-1.53,2.85-3.52l-1.14.45c1.49-1.27,1.68-2.96.24-5.69Z"/>
                    <g>
                      <path class="cls-13" d="M111.02,122.24c2.14-3.24,3.93-6.7,4.96-10.45-.58,3.85-2.46,7.5-4.96,10.45h0Z"/>
                      <path class="cls-13" d="M114.03,120.55c-.74-.32-1.46.02-2.1.34,0,0,.11-.36.11-.36.02-.5-.51-.85-.86-1.16.57.15,1.26.56,1.18,1.25,0,0-.24-.19-.24-.19.58-.31,1.44-.42,1.91.12h0Z"/>
                      <path class="cls-13" d="M115.91,117.41c-1-.04-1.83.69-2.53,1.32,0,0-.05-.3-.05-.3-.15-.81-.65-1.67-1.52-1.95.92.18,1.57,1,1.85,1.88,0,0-.27-.09-.27-.09.74-.49,1.61-1.02,2.53-.86h0Z"/>
                      <path class="cls-13" d="M116.8,114.38c-.82.22-1.43.96-2.06,1.51,0,0-.08-.26-.08-.26-.28-.86-.49-1.8-1.11-2.5.43.23.69.67.92,1.08.21.43.38.87.5,1.34l-.27-.08c.6-.47,1.28-1.15,2.09-1.09h0Z"/>
                    </g>
                  </g>
                </g>
                <g>
                  <path class="cls-15" d="M104.62,139.32c-2.93-3.14-3.45-7.83-1.41-11.61,2.83-5.23,8.33-11.9,17.49-10.28,14.65,2.6,15.59,29.22,9.57,33.59-4.74,3.45-18.64-4.2-25.65-11.71Z"/>
                  <path class="cls-7" d="M105.22,138.87c-2.32-2.49-2.74-6.21-1.12-9.2,2.25-4.15,6.6-9.44,13.87-8.15,11.62,2.06,12.36,23.17,7.59,26.64-3.76,2.73-14.78-3.33-20.34-9.29Z"/>
                  <path class="cls-23" d="M104.72,137.81c-1.34-1.43-1.58-3.57-.64-5.29,1.29-2.39,3.8-5.43,7.98-4.69,6.68,1.19,7.11,13.32,4.36,15.32-2.16,1.57-8.5-1.91-11.7-5.34Z"/>
                  <g>
                    <path class="cls-22" d="M123.04,121.75c.02.46.17,1.3,1.01,1.68.13.06.29-.01.32-.15.11-.43.17-1.31-1.02-1.76-.15-.06-.32.06-.31.22Z"/>
                    <path class="cls-16" d="M123.39,121.85c.04.13.15.35.41.4.04,0,.08-.02.08-.07,0-.13-.05-.38-.42-.42-.05,0-.09.04-.07.09Z"/>
                  </g>
                  <g>
                    <path class="cls-22" d="M107.54,132.48c.02.46.17,1.3,1.01,1.68.13.06.29-.01.32-.15.11-.43.17-1.31-1.02-1.76-.15-.06-.32.06-.31.22Z"/>
                    <path class="cls-16" d="M107.89,132.58c.04.13.15.35.41.4.04,0,.08-.02.08-.07,0-.13-.05-.38-.42-.42-.05,0-.09.04-.07.09Z"/>
                  </g>
                  <g>
                    <path class="cls-22" d="M113.9,142.91c.02.46.17,1.3,1.01,1.68.13.06.29-.01.32-.15.11-.43.17-1.31-1.02-1.76-.15-.06-.32.06-.31.22Z"/>
                    <path class="cls-16" d="M114.25,143.01c.04.13.15.35.41.4.04,0,.08-.02.08-.07,0-.13-.05-.38-.42-.42-.05,0-.09.04-.07.09Z"/>
                  </g>
                  <g>
                    <path class="cls-22" d="M121.79,147.34c.02.46.17,1.3,1.01,1.68.13.06.29-.01.32-.15.11-.43.17-1.31-1.02-1.76-.15-.06-.32.06-.31.22Z"/>
                    <path class="cls-16" d="M122.14,147.44c.04.13.15.35.41.4.04,0,.08-.02.08-.07,0-.13-.05-.38-.42-.42-.05,0-.09.04-.07.09Z"/>
                  </g>
                  <g>
                    <path class="cls-22" d="M127.55,147.57c.02.46.17,1.3,1.01,1.68.13.06.29-.01.32-.15.11-.43.17-1.31-1.02-1.76-.15-.06-.32.06-.31.22Z"/>
                    <path class="cls-16" d="M127.9,147.67c.04.13.15.35.41.4.04,0,.08-.02.08-.07,0-.13-.05-.38-.42-.42-.05,0-.09.04-.07.09Z"/>
                  </g>
                  <g>
                    <path class="cls-22" d="M130.03,139.48c.02.46.17,1.3,1.01,1.68.13.06.29-.01.32-.15.11-.43.17-1.31-1.02-1.76-.15-.06-.32.06-.31.22Z"/>
                    <path class="cls-16" d="M130.38,139.58c.04.13.15.35.41.4.04,0,.08-.02.08-.07,0-.13-.05-.38-.42-.42-.05,0-.09.04-.07.09Z"/>
                  </g>
                  <g>
                    <path class="cls-22" d="M123.41,139.68c.02.46.17,1.3,1.01,1.68.13.06.29-.01.32-.15.11-.43.17-1.31-1.02-1.76-.15-.06-.32.06-.31.22Z"/>
                    <path class="cls-16" d="M123.76,139.78c.04.13.15.35.41.4.04,0,.08-.02.08-.07,0-.13-.05-.38-.42-.42-.05,0-.09.04-.07.09Z"/>
                  </g>
                  <g>
                    <path class="cls-22" d="M127.17,131.75c.02.46.17,1.3,1.01,1.68.13.06.29-.01.32-.15.11-.43.17-1.31-1.02-1.76-.15-.06-.32.06-.31.22Z"/>
                    <path class="cls-16" d="M127.51,131.85c.04.13.15.35.41.4.04,0,.08-.02.08-.07,0-.13-.05-.38-.42-.42-.05,0-.09.04-.07.09Z"/>
                  </g>
                  <g>
                    <path class="cls-22" d="M115.26,136.52c.02.46.17,1.3,1.01,1.68.13.06.29-.01.32-.15.11-.43.17-1.31-1.02-1.76-.15-.06-.32.06-.31.22Z"/>
                    <path class="cls-16" d="M115.61,136.62c.04.13.15.35.41.4.04,0,.08-.02.08-.07,0-.13-.05-.38-.42-.42-.05,0-.09.04-.07.09Z"/>
                  </g>
                  <g>
                    <path class="cls-22" d="M120.41,129.13c.02.46.17,1.3,1.01,1.68.13.06.29-.01.32-.15.11-.43.17-1.31-1.02-1.76-.15-.06-.32.06-.31.22Z"/>
                    <path class="cls-16" d="M120.76,129.23c.04.13.15.35.41.4.04,0,.08-.02.08-.07,0-.13-.05-.38-.42-.42-.05,0-.09.04-.07.09Z"/>
                  </g>
                  <g>
                    <path class="cls-22" d="M113.04,124.46c.02.46.17,1.3,1.01,1.68.13.06.29-.01.32-.15.11-.43.17-1.31-1.02-1.76-.15-.06-.32.06-.31.22Z"/>
                    <path class="cls-16" d="M113.39,124.56c.04.13.15.35.41.4.04,0,.08-.02.08-.07,0-.13-.05-.38-.42-.42-.05,0-.09.04-.07.09Z"/>
                  </g>
                </g>
              </g>
              <g>
                <path class="cls-25" d="M83.84,136.47c5.4,17.99,14.74,16.49,15.4,16.69s-3.27,1.42-3.27,1.42c8.64,3.47,13.4,1.85,13.4,1.85l-3.03,2.31c5.64,2.13,13.28-.73,13.28-.73,0,0,1.96-10.27-5.62-15.48l.62,4.06s-4.7-8.52-11.64-11.48l1.23,4.25c-4.02-5.79-10.02-7.1-20.37-2.9Z"/>
                <g>
                  <path class="cls-13" d="M119.62,158.02c-9.49-7.69-19.73-14.58-30.93-19.52-1.57-.79-3.24-1.31-4.85-2.03,13.65,3.46,26.05,11.49,35.78,21.55h0Z"/>
                  <path class="cls-13" d="M114.62,146.61c-1.39,2.42-.47,5.25.45,7.65,0,0-1.23-.5-1.23-.5-1.27-.22-2.45.8-3.37,1.62,0,0-1.09,1.06-1.09,1.06.63-1.74,1.91-3.57,3.88-3.87.33-.03.6-.05,1.03.09l-.77.79c-.9-2.21-1.01-5.3,1.11-6.83h0Z"/>
                  <path class="cls-13" d="M104.03,138.76c-.18,3.54,1.9,6.69,3.76,9.52,0,0-1,.12-1,.12-3.02.43-6.03,2.01-7.55,4.76.73-3.41,4.13-5.49,7.42-5.96,0,0-.44.94-.44.94-1.65-2.72-3.4-6.19-2.2-9.38h0Z"/>
                  <path class="cls-13" d="M93.45,134.45c.03,1.43.97,2.59,1.67,3.77.95,1.43,1.98,2.83,3.02,4.19,0,0-.96.18-.96.18-3.18.71-6.67,1.13-9.38,3.07.44-.75,1.17-1.29,1.89-1.76,2.22-1.35,4.75-2.05,7.3-2.48,0,0-.38.95-.38.95-1.28-1.77-2.43-3.64-3.07-5.73-.18-.7-.35-1.48-.08-2.18h0Z"/>
                </g>
              </g>
              <g>
                <g>
                  <g>
                    <path class="cls-25" d="M138.8,132.08c-3.68,4.5-1.68,6.64-1.62,6.84.06.2-.93-.59-.93-.59.61,2.82,1.84,3.76,1.84,3.76l-1.12-.38c.43,1.82,2.48,3.28,2.48,3.28,0,0,2.97-1.28,3-4.12l-.93.86s1.37-2.68.93-4.97l-.88,1.05c.79-2.03.09-3.8-2.78-5.73Z"/>
                    <g>
                      <path class="cls-13" d="M139.46,144.99c.39-4.32.31-8.67-.66-12.91,1.47,4.1,1.56,8.67.66,12.91h0Z"/>
                      <path class="cls-13" d="M141.52,141.73c-.9.07-1.43.79-1.89,1.45,0,0-.08-.41-.08-.41-.24-.5-.95-.56-1.46-.68.63-.16,1.53-.12,1.82.61,0,0-.33-.06-.33-.06.41-.61,1.19-1.18,1.94-.9h0Z"/>
                      <path class="cls-13" d="M141.7,137.65c-1.01.49-1.43,1.65-1.79,2.64,0,0-.21-.26-.21-.26-.57-.72-1.52-1.29-2.53-1.11.48-.14,1.01-.13,1.5.05.49.17.93.45,1.31.83l-.32.05c.46-.87,1.04-1.86,2.03-2.19h0Z"/>
                      <path class="cls-13" d="M140.98,134.19c-.7.65-.9,1.71-1.22,2.58,0,0-.22-.22-.22-.22-.73-.7-1.44-1.51-2.41-1.87.27-.02.53.08.78.18.73.34,1.35.87,1.9,1.45,0,0-.3.07-.3.07.34-.78.65-1.81,1.48-2.18h0Z"/>
                    </g>
                  </g>
                  <g>
                    <path class="cls-25" d="M147.39,134.37c-5.73.97-5.63,3.9-5.71,4.09-.09.19-.31-1.06-.31-1.06-1.4,2.52-1.08,4.04-1.08,4.04l-.6-1.02c-.87,1.65-.28,4.11-.28,4.11,0,0,3.08.99,4.97-1.14l-1.27.04s2.8-1.12,3.97-3.14l-1.35.21c1.93-1.01,2.56-2.81,1.67-6.14Z"/>
                    <g>
                      <path class="cls-13" d="M139.4,144.53c3.13-3,5.93-6.33,7.99-10.17-1.59,4.06-4.53,7.56-7.99,10.17h0Z"/>
                      <path class="cls-13" d="M143.1,143.43c-.73-.53-1.59-.34-2.37-.15,0,0,.21-.36.21-.36.15-.54-.34-1.05-.65-1.47.58.3,1.24.92.97,1.65,0,0-.21-.26-.21-.26.71-.19,1.67-.1,2.05.6h0Z"/>
                      <path class="cls-13" d="M145.91,140.48c-1.08-.3-2.17.3-3.08.81,0,0,.01-.33.01-.33.04-.92-.3-1.98-1.17-2.5.45.21.85.57,1.1,1.02.25.45.4.95.45,1.49l-.27-.17c.93-.35,2.01-.72,2.96-.32h0Z"/>
                      <path class="cls-13" d="M147.64,137.4c-.95.03-1.8.7-2.62,1.14,0,0-.02-.31-.02-.31-.09-1.01-.09-2.09-.59-3,.21.16.35.41.47.65.32.74.45,1.54.48,2.34,0,0-.27-.15-.27-.15.77-.36,1.68-.94,2.55-.67h0Z"/>
                    </g>
                  </g>
                  <g>
                    <path class="cls-25" d="M152.35,141.74c-4.96-3.04-6.8-.76-7-.67s.46-1,.46-1c-2.71.98-3.47,2.34-3.47,2.34l.22-1.16c-1.74.67-2.91,2.91-2.91,2.91,0,0,1.67,2.77,4.49,2.41l-.98-.81s2.84,1,5.05.25l-1.16-.73c2.12.51,3.78-.43,5.3-3.53Z"/>
                    <g>
                      <path class="cls-13" d="M139.65,144.15c4.33-.21,8.64-.87,12.7-2.41-3.86,2.01-8.38,2.72-12.7,2.41h0Z"/>
                      <path class="cls-13" d="M143.16,145.75c-.2-.88-.98-1.31-1.69-1.67,0,0,.39-.14.39-.14.46-.31.43-1.02.48-1.54.24.61.33,1.5-.35,1.88,0,0,.02-.34.02-.34.66.32,1.33,1.02,1.16,1.8h0Z"/>
                      <path class="cls-13" d="M147.22,145.38c-.62-.93-1.83-1.2-2.86-1.41,0,0,.23-.24.23-.24.63-.66,1.08-1.68.76-2.66.21.45.26.99.16,1.49-.11.51-.32.98-.64,1.41l-.09-.31c.93.34,1.99.78,2.44,1.71h0Z"/>
                      <path class="cls-13" d="M150.55,144.19c-.74-.6-1.81-.66-2.72-.86,0,0,.19-.25.19-.25.59-.82,1.3-1.63,1.53-2.65.05.26,0,.54-.07.8-.24.77-.68,1.45-1.17,2.08,0,0-.11-.29-.11-.29.82.23,1.88.4,2.36,1.17h0Z"/>
                    </g>
                  </g>
                  <g>
                    <path class="cls-25" d="M151.25,150.56c-1.74-5.55-4.63-5.05-4.83-5.11-.2-.06,1-.45,1-.45-2.69-1.04-4.15-.52-4.15-.52l.93-.73c-1.75-.64-4.11.28-4.11.28,0,0-.57,3.19,1.8,4.77l-.21-1.26s1.49,2.62,3.65,3.51l-.4-1.31c1.27,1.78,3.13,2.16,6.31.82Z"/>
                    <g>
                      <path class="cls-13" d="M140.09,144.03c3.4,2.69,7.08,5.02,11.16,6.53-4.23-1.02-8.11-3.46-11.16-6.53h0Z"/>
                      <path class="cls-13" d="M141.68,147.54c.43-.79.12-1.63-.17-2.37,0,0,.39.16.39.16.55.07.99-.48,1.37-.85-.22.62-.74,1.35-1.51,1.19,0,0,.23-.24.23-.24.29.67.33,1.64-.31,2.12h0Z"/>
                      <path class="cls-13" d="M144.99,149.93c.15-1.11-.59-2.11-1.22-2.94,0,0,.33-.03.33-.03.91-.08,1.92-.56,2.32-1.5-.14.48-.45.92-.86,1.23-.41.31-.88.53-1.41.65l.13-.29c.48.87.98,1.89.72,2.89h0Z"/>
                      <path class="cls-13" d="M148.28,151.22c-.16-.94-.94-1.69-1.48-2.44,0,0,.3-.06.3-.06.99-.23,2.05-.38,2.89-.99-.13.23-.36.4-.58.55-.69.42-1.46.65-2.25.79,0,0,.11-.29.11-.29.47.71,1.16,1.54,1.01,2.43h0Z"/>
                    </g>
                  </g>
                </g>
                <g>
                  <path class="cls-15" d="M121.71,135.25c3.78-2.96,9.05-3.09,13.05-.45,5.55,3.66,12.44,10.42,9.75,20.45-4.31,16.06-34.02,14.53-38.31,7.4-3.38-5.61,6.47-20.34,15.51-27.41Z"/>
                  <path class="cls-7" d="M122.14,135.96c3-2.34,7.18-2.45,10.35-.35,4.4,2.9,9.86,8.26,7.73,16.22-3.42,12.73-26.98,11.52-30.38,5.87-2.68-4.45,5.13-16.13,12.3-21.74Z"/>
                  <path class="cls-23" d="M123.37,135.51c1.72-1.35,4.13-1.41,5.95-.2,2.53,1.67,5.67,4.75,4.44,9.33-1.97,7.32-15.52,6.63-17.47,3.38-1.54-2.56,2.95-9.28,7.08-12.5Z"/>
                  <g>
                    <path class="cls-22" d="M139.48,157.45c-.51-.02-1.46.07-1.97.96-.08.14-.02.32.13.37.46.16,1.44.32,2.05-.96.08-.17-.04-.36-.22-.37Z"/>
                    <path class="cls-16" d="M139.33,157.83c-.15.03-.41.13-.48.42-.01.05.02.09.07.1.14.01.43-.02.51-.43.01-.05-.04-.1-.09-.09Z"/>
                  </g>
                  <g>
                    <path class="cls-22" d="M129.03,139.16c-.51-.02-1.46.07-1.97.96-.08.14-.02.32.13.37.46.16,1.44.32,2.05-.96.08-.17-.04-.36-.22-.37Z"/>
                    <path class="cls-16" d="M128.88,139.54c-.15.03-.41.13-.48.42-.01.05.02.09.07.1.14.01.43-.02.51-.43,0-.05-.04-.1-.09-.09Z"/>
                  </g>
                  <g>
                    <path class="cls-22" d="M116.81,145.23c-.51-.02-1.46.07-1.97.96-.08.14-.02.32.13.37.46.16,1.44.32,2.05-.96.08-.17-.04-.36-.22-.37Z"/>
                    <path class="cls-16" d="M116.67,145.61c-.15.03-.41.13-.48.42-.01.05.02.09.07.1.14.01.43-.02.51-.43.01-.05-.04-.1-.09-.09Z"/>
                  </g>
                  <g>
                    <path class="cls-22" d="M111.12,153.59c-.51-.02-1.46.07-1.97.96-.08.14-.02.32.13.37.46.16,1.44.32,2.05-.96.08-.17-.04-.36-.22-.37Z"/>
                    <path class="cls-16" d="M110.97,153.97c-.15.03-.41.13-.48.42-.01.04.02.09.07.09.14.01.43-.02.51-.43,0-.05-.04-.1-.09-.09Z"/>
                  </g>
                  <g>
                    <path class="cls-22" d="M110.3,159.97c-.51-.02-1.46.07-1.97.96-.08.14-.02.32.13.37.46.16,1.44.32,2.05-.96.08-.17-.04-.36-.22-.37Z"/>
                    <path class="cls-16" d="M110.15,160.35c-.15.03-.41.13-.48.42-.01.05.02.09.07.1.14.01.43-.02.51-.43.01-.05-.04-.1-.09-.09Z"/>
                  </g>
                  <g>
                    <path class="cls-22" d="M119.07,163.52c-.51-.02-1.46.07-1.97.96-.08.14-.02.32.13.37.46.16,1.44.32,2.05-.96.08-.17-.04-.36-.22-.37Z"/>
                    <path class="cls-16" d="M118.93,163.9c-.15.03-.41.13-.48.42-.01.05.02.09.07.1.14.01.43-.02.51-.43.01-.05-.04-.1-.09-.09Z"/>
                  </g>
                  <g>
                    <path class="cls-22" d="M119.48,156.13c-.51-.02-1.46.07-1.97.96-.08.14-.02.32.13.37.46.16,1.44.32,2.05-.96.08-.17-.04-.36-.22-.37Z"/>
                    <path class="cls-16" d="M119.34,156.5c-.15.03-.41.13-.48.42-.01.05.02.09.07.1.14.01.43-.02.51-.43.01-.05-.04-.1-.09-.09Z"/>
                  </g>
                  <g>
                    <path class="cls-22" d="M127.95,161.07c-.51-.02-1.46.07-1.97.96-.08.14-.02.32.13.37.46.16,1.44.32,2.05-.96.08-.17-.04-.36-.22-.37Z"/>
                    <path class="cls-16" d="M127.8,161.45c-.15.03-.41.13-.48.42-.01.05.02.09.07.1.14.01.43-.02.51-.43,0-.05-.04-.1-.09-.09Z"/>
                  </g>
                  <g>
                    <path class="cls-22" d="M123.79,147.37c-.51-.02-1.46.07-1.97.96-.08.14-.02.32.13.37.46.16,1.44.32,2.05-.96.08-.17-.04-.36-.22-.37Z"/>
                    <path class="cls-16" d="M123.64,147.75c-.15.03-.41.13-.48.42-.01.05.02.09.07.1.14.01.43-.02.51-.43.01-.05-.04-.1-.09-.09Z"/>
                  </g>
                  <g>
                    <path class="cls-22" d="M131.52,153.81c-.51-.02-1.46.07-1.97.96-.08.14-.02.32.13.37.46.16,1.44.32,2.05-.96.08-.17-.04-.36-.22-.37Z"/>
                    <path class="cls-16" d="M131.37,154.19c-.15.03-.41.13-.48.42-.01.05.02.09.07.1.14.01.43-.02.51-.43.01-.05-.04-.1-.09-.09Z"/>
                  </g>
                  <g>
                    <path class="cls-22" d="M137.42,146.06c-.51-.02-1.46.07-1.97.96-.08.14-.02.32.13.37.46.16,1.44.32,2.05-.96.08-.17-.04-.36-.22-.37Z"/>
                    <path class="cls-16" d="M137.28,146.43c-.15.03-.41.13-.48.42-.01.05.02.09.07.09.14.01.43-.02.51-.43,0-.05-.04-.1-.09-.09Z"/>
                  </g>
                </g>
              </g>
            </g>
          </g>
          <g>
            <path class="cls-24" d="M70.99,142.42c0,6.58-7.27,26.63-35.48,26.63C5.7,169.04,0,149,0,142.42s15.89-11.95,35.5-11.95,35.48,5.35,35.48,11.95Z"/>
            <path class="cls-20" d="M35.5,130.46c-19.61,0-35.5,5.35-35.5,11.95s15.89,11.94,35.5,11.94,35.49-5.35,35.49-11.94-15.88-11.95-35.49-11.95ZM66.76,143.29c-3.09,2.68-13.36,6.86-31.26,6.86s-28.07-4.14-31.21-6.82c-.52-.44-.52-1.39,0-1.84,3.14-2.67,13.41-6.83,31.21-6.83s28.17,4.2,31.26,6.88c.49.4.49,1.32,0,1.75Z"/>
            <path class="cls-26" d="M66.76,143.29c-3.09,2.68-13.36,6.86-31.26,6.86s-28.07-4.14-31.21-6.82c-.52-.44-.52-1.39,0-1.84,3.14-2.67,13.41-6.83,31.21-6.83s28.17,4.2,31.26,6.88c.49.4.49,1.32,0,1.75Z"/>
            <g>
              <path class="cls-11" d="M66.94,141.95c-.46,1.32-1.82,2.51-3.31,3.14-6.25,2.68-12.79,3.87-19.52,4.56-7.85.81-15.77.59-23.57-.56-4.61-.68-9.64-1.35-13.65-3.87-3.26-2.04-4.18-5.99-1.16-8.85.02-.02.05-.04.07-.06,1.43-1.32,3.23-1.8,4.96-2.24-.52-.81-.75-1.69-.75-2.56,0-.63.12-1.26.32-1.86.44-1.35,1.3-2.57,2.23-3.41,2.22-2.01,5.49-2.41,8.16-2.62.03,0,.06,0,.09,0-.45-1.01-.48-2.29-.09-3.33.17-.45.42-.86.71-1.22,1.17-1.45,3.15-2.2,4.61-2.4,1.77-.25,3.77-.23,4.46-2.8.24-.89.15-1.92-.25-2.72-.22-.44-.54-.91-.43-1.41.08-.36.38-.58.67-.63s.59.05.88.15c3.85,1.36,7.73,2.95,11.09,5.66.38.3.75.61,1.11.95.27.25.53.5.78.78.6.65,1.13,1.38,1.47,2.26.49,1.26.52,2.88-.19,3.97,3.75-.97,8.98.83,10.03,3.28.11.27.21.55.29.84.26,1.02.27,2.12.04,3.15,0,0,0,.01,0,.02,2.29.62,4.83,1.69,6.43,3.5.3.34.57.71.8,1.11.56.96.56,1.87.22,2.63.65.29,1.3.55,1.88.91.05.03.1.07.15.1,1.59,1.07,1.89,2.35,1.47,3.53Z"/>
              <path class="cls-26" d="M66.94,141.95c-.46,1.32-1.82,2.51-3.31,3.14-6.25,2.68-12.79,3.87-19.52,4.56-7.85.81-15.77.59-23.57-.56-4.61-.68-9.64-1.35-13.65-3.87-3.26-2.04-4.18-5.99-1.16-8.85.02-.02.05-.04.07-.06,0,1.9-.38,3.8,1.69,5.69,3.67,3.36,8.59,4.26,13.12,5.19,7.73,1.58,15.65,1.88,23.48.77,6.67-.95,13.06-2.56,18.93-6.13,1.26-.77,1.97-1.98,2.44-3.42,1.59,1.07,1.89,2.35,1.47,3.53Z"/>
              <path class="cls-26" d="M63.43,137.4c-1.43.93-2.99,1.66-4.15,2.18-4.31,1.92-9,2.57-13.67,2.86-10.61.68-21.39-.3-31.59-3.36-.03-.01-.02-.06.01-.05,9.38,1.87,18.91,2.81,28.46,1.94,5.02-.46,10.44-1.11,14.98-3.46,1.9-.98,3.5-2.24,4.91-3.84h.01c.3.33.57.7.8,1.1.56.96.56,1.87.22,2.63Z"/>
              <path class="cls-26" d="M51.63,134.43c-8.12,1.8-17.16,2.61-25.46,2.29-5.1-.19-10.48-.95-15.43-2.68-.89-1.4-.89-2.97-.41-4.39,5.69,2.15,11.41,3.58,17.64,4.3,7.93.91,15.73.11,23.66.44.03,0,.03.04,0,.05Z"/>
              <path class="cls-26" d="M55.99,130.15c-3.52.99-7.59.09-10.93-1.35-.05-.02-.02-.09.03-.1,3.99-.23,7.44-.14,10.87-1.7.26,1.02.27,2.12.04,3.15Z"/>
              <path class="cls-26" d="M37.85,123.07c-3.41,1.92-8.72,1.6-12.49,1.26-1.22-.11-2.97-.29-4.64-.7.03,0,.06,0,.09,0-.45-1.01-.48-2.29-.09-3.33.17-.45.42-.86.71-1.22,1.57.61,3.11,1.41,4.4,1.82,2.26.71,4.52,1.33,6.88,1.55,1.75.15,3.43.03,5.13.5.07.02.08.11.02.14Z"/>
              <path class="cls-26" d="M45.68,125.35c-4.75,1.28-9.16,2.72-14.15,2.89-4.55.15-8.79-1.02-13.27-1.43-.05,0-.07.07-.03.1,7.52,4.01,20.3,2.83,27.54-1.32.13-.07.04-.28-.1-.24Z"/>
              <path class="cls-26" d="M44.35,116.65c-.57.95-1.39,1.77-2.25,2.33-2.23,1.46-5.45,1.88-7.98,1.08-.03,0-.03-.04,0-.05,1.95-.68,3.99-.77,5.83-1.83,1.5-.87,2.2-1.93,2.51-3.27.38.3.75.61,1.11.95.27.25.53.5.78.78Z"/>
            </g>
          </g>
        </g>
      </g>
    </g>
  </g>
</svg>