<?xml version="1.0" encoding="UTF-8"?>
<svg xmlns="http://www.w3.org/2000/svg" viewBox="0 0 138.51 171.63">
  <defs>
    <style>
      .cls-1 {
        opacity: .46;
      }

      .cls-1, .cls-2 {
        mix-blend-mode: screen;
      }

      .cls-1, .cls-2, .cls-3 {
        fill: #eefcfa;
      }

      .cls-2 {
        opacity: .24;
      }

      .cls-4 {
        opacity: .45;
      }

      .cls-4, .cls-5 {
        mix-blend-mode: multiply;
      }

      .cls-5 {
        opacity: .39;
      }

      .cls-6 {
        fill: #ffebed;
      }

      .cls-7 {
        fill: #c43649;
      }

      .cls-8 {
        fill: #c9dfdd;
      }

      .cls-9 {
        fill: #eef2f2;
      }

      .cls-10 {
        fill: #f2d0d4;
      }

      .cls-11 {
        isolation: isolate;
      }

      .cls-12 {
        fill: #54821f;
      }

      .cls-13 {
        fill: #ad3041;
      }

      .cls-14 {
        fill: #fff;
      }

      .cls-15 {
        fill: #ffdbdf;
      }

      .cls-16 {
        fill: #b2d1ce;
      }

      .cls-17 {
        fill: #fefbea;
      }

      .cls-18 {
        fill: #eb5769;
      }

      .cls-19 {
        fill: #669d25;
      }

      .cls-20 {
        fill: #ffc9d0;
      }
    </style>
  </defs>
  <g class="cls-11">
    <g id="Layer_2">
      <g id="OBJECTS">
        <g>
          <path class="cls-9" d="M85.23,142.34c-8.7-1.55-19.16-2.46-30.41-2.46-30.28,0-54.82,6.56-54.82,14.65s23.72,14.42,53.28,14.64c8.7,1.55,19.16,2.46,30.41,2.46,30.28,0,54.82-6.56,54.82-14.65s-23.72-14.42-53.28-14.64Z"/>
          <g>
            <g>
              <path class="cls-19" d="M110.53,108.7c-17.25,7.43-14.69,16.54-14.81,17.21-.12.67-1.79-3.08-1.79-3.08-2.46,8.98-.3,13.52-.3,13.52l-2.65-2.74c-1.47,5.85,2.24,13.11,2.24,13.11,0,0,10.43.77,14.73-7.36l-3.96,1.08s7.93-5.64,10.07-12.88l-4.08,1.7c5.29-4.65,5.9-10.77.55-20.56Z"/>
              <g>
                <path class="cls-12" d="M93.23,146.72c1.91-2.95,3.67-5.98,5.39-9.02,1.69-3.06,3.29-6.16,4.76-9.33,1.51-3.15,2.82-6.38,4.03-9.65l.88-2.47.79-2.5c.6-1.65.93-3.37,1.46-5.05-.47,3.48-1.14,6.96-2.23,10.32-1.05,3.37-2.32,6.67-3.83,9.86-3.01,6.37-6.69,12.47-11.24,17.84Z"/>
                <path class="cls-12" d="M103.99,140.44c-.56-.21-1.1-.37-1.65-.41-.55-.04-1.09,0-1.62.08-.53.1-1.06.24-1.57.42-.51.17-1.03.41-1.48.63l-1.23.61.35-1.28s.03-.3-.02-.47c-.04-.19-.1-.38-.19-.58-.18-.38-.43-.76-.75-1.11-.31-.35-.66-.69-1.04-1.01l-1.18-.97c.5.12,1,.28,1.48.49.47.22.94.48,1.36.82.43.33.81.75,1.11,1.26.15.25.27.53.34.84.07.32.12.59.03,1.04l-.87-.68c.57-.33,1.13-.52,1.73-.71.59-.16,1.21-.27,1.83-.29.63,0,1.26.09,1.85.29.59.22,1.11.58,1.51,1.02Z"/>
                <path class="cls-12" d="M110.57,129.02c-1.64.03-3.07.7-4.44,1.47-.68.4-1.34.81-1.98,1.28-.64.45-1.28.93-1.86,1.43l-.75.66-.24-.98c-.17-.69-.46-1.44-.78-2.12-.32-.7-.73-1.35-1.17-1.97-.45-.62-.99-1.17-1.6-1.65-.59-.52-1.31-.85-2.04-1.21.8.1,1.63.3,2.36.71.73.4,1.43.91,2,1.54.59.61,1.06,1.32,1.47,2.06.4.76.71,1.51.94,2.38l-.99-.32c.66-.54,1.31-1.02,2.02-1.47.7-.43,1.42-.85,2.19-1.17.76-.33,1.56-.6,2.39-.74.82-.13,1.69-.15,2.47.11Z"/>
                <path class="cls-12" d="M113.64,118.02c-.72.06-1.31.45-1.89.82-.58.39-1.12.83-1.66,1.27-1.06.9-2.12,1.85-3.12,2.81l-.7.67-.29-.94c-.49-1.57-1.02-3.16-1.65-4.69-.3-.77-.65-1.52-1.03-2.25-.39-.73-.82-1.44-1.44-2.03.8.35,1.42,1.01,1.97,1.68.54.68,1.01,1.42,1.41,2.18.8,1.53,1.43,3.12,1.9,4.79l-.99-.27c1.07-.99,2.19-1.89,3.42-2.67.61-.39,1.25-.75,1.93-1.03.67-.26,1.43-.52,2.15-.33Z"/>
              </g>
            </g>
            <g>
              <path class="cls-8" d="M92.14,39.87l-3.24,47.25c-.14,2.04-.79,4-1.91,5.71l-2.72,4.19-4.06,61.83c0,2.39-12.73,4.33-28.41,4.33-7.84,0-14.95-.49-20.08-1.27-5.14-.78-8.32-1.86-8.32-3.06l-4.06-61.83-2.72-4.19c-1.11-1.71-1.77-3.67-1.91-5.71l-3.24-47.25c.55,2.96,18.39,5.34,40.33,5.34s39.78-2.37,40.34-5.34Z"/>
              <path class="cls-18" d="M87.02,59.7l-.03.48c-1.03,2.89-16.4,5.17-35.19,5.17s-34.26-2.3-35.19-5.2l-.03-.41h0c.02-.09.04-.18.08-.26,1.29-2.85,16.52-5.1,35.14-5.1s33.86,2.24,35.15,5.1c.04.07.07.15.07.22Z"/>
              <path class="cls-7" d="M87,60.18l-1.82,26.69c-.09,1.39-.55,2.76-1.31,3.93l-3.25,5.01-4.02,61.28c-2.86.97-11.45,2.36-24.79,2.36-7.41,0-14.33-.44-19.52-1.22-2.81-.43-4.4-.86-5.25-1.15l-4.02-61.26-3.25-5.01c-.76-1.17-1.22-2.53-1.31-3.94l-1.83-26.7c.86,2.66,13.93,4.82,30.68,5.15,1.48.03,2.98.05,4.52.05.4,0,.8,0,1.2,0,18.25-.08,32.99-2.34,34-5.16Z"/>
              <path class="cls-13" d="M76.59,156.98c0,1.47-11.09,2.66-24.78,2.66s-24.78-1.19-24.78-2.66,11.09-2.66,24.78-2.66,24.78,1.19,24.78,2.66Z"/>
              <path class="cls-8" d="M92.15,39.73s0,.09,0,.14c-.55,2.96-18.4,5.34-40.34,5.34s-39.77-2.37-40.33-5.34c0-.05,0-.09,0-.14,0-3.03,18.05-5.49,40.34-5.49s40.35,2.46,40.35,5.49Z"/>
              <path class="cls-16" d="M12.06,40.67c3.25-2.59,19.8-4.56,39.75-4.56s36.5,1.97,39.76,4.56c.33-.26.53-.53.58-.8,0-.05,0-.09,0-.14,0-3.03-18.06-5.49-40.35-5.49s-40.34,2.46-40.34,5.49c0,.05,0,.09,0,.14.05.27.25.54.58.8Z"/>
              <g>
                <path class="cls-3" d="M32.65,161.9c-5.14-.78-8.32-1.86-8.32-3.06l-4.06-61.83-2.72-4.19c-1.11-1.71-1.77-3.67-1.91-5.71l-3.16-46.16c-.59-.35-.94-.72-1.01-1.09l3.24,47.25c.14,2.04.79,4,1.91,5.71l2.72,4.19,4.06,61.83c0,1.2,3.18,2.28,8.32,3.06,5.13.79,12.24,1.27,20.08,1.27.21,0,.42,0,.62,0-7.72-.01-14.71-.49-19.77-1.27Z"/>
                <path class="cls-3" d="M52.74,45.21c19.17,0,35.21-1.81,39.33-4.25l.07-1.09c-.55,2.94-18.15,5.3-39.87,5.34.16,0,.31,0,.47,0Z"/>
              </g>
              <path class="cls-16" d="M89.99,41.5l-3,43.74c-.14,2.04-.79,4-1.91,5.71l-2.72,4.19-4.06,61.83c0,2.39-12.73,4.33-28.41,4.33-7.84,0-14.95-.49-20.08-1.27-2.79-.42-4.99-.93-6.43-1.5l.02.32c0,1.2,3.18,2.28,8.32,3.06,5.13.79,12.24,1.27,20.08,1.27,15.69,0,28.41-1.94,28.41-4.33l4.06-61.83,2.72-4.19c1.11-1.71,1.77-3.67,1.91-5.71l3.24-47.25c-.11.57-.86,1.12-2.15,1.63Z"/>
              <g class="cls-4">
                <g>
                  <path class="cls-16" d="M79.18,91.66c1.1.12,2.19.31,3.26.65.53.18,1.06.37,1.57.67.26.14.5.32.74.54.24.23.45.47.55.94v.02s0,.05,0,.05l-.02.47v.06s-.02.05-.02.05c-.19.51-.54.83-.87,1.08-.34.25-.7.44-1.06.6-.72.34-1.46.56-2.21.76-1.49.38-3.01.58-4.53.66.72-.25,1.45-.45,2.17-.69.72-.23,1.44-.45,2.14-.71.71-.24,1.39-.52,2.05-.83.62-.31,1.3-.73,1.47-1.17l-.02.12.03-.47v.08c-.04-.23-.41-.66-.83-.91-.42-.28-.89-.53-1.38-.75-.98-.45-2-.84-3.03-1.24Z"/>
                  <path class="cls-16" d="M26.45,98.12c-.72-.03-1.43-.12-2.14-.22-.71-.11-1.41-.25-2.11-.44-.7-.2-1.39-.42-2.06-.74-.34-.16-.67-.35-.99-.59-.31-.24-.64-.55-.8-1.05l-.02-.05v-.05s-.03-.44-.03-.44v-.05s0-.04,0-.04c.04-.12.08-.24.12-.36l-.02.03c.33-.66.87-.95,1.34-1.24.49-.27,1.01-.45,1.52-.62,1.03-.31,2.09-.5,3.15-.6-.99.39-1.98.77-2.92,1.2-.47.21-.93.45-1.35.71-.41.26-.8.59-.93.9l-.02.03s-.02.09-.03.13v-.09s.04.38.04.38l-.02-.1c.14.4.75.82,1.33,1.11.6.31,1.24.57,1.9.81.65.25,1.32.47,1.99.69.67.24,1.35.43,2.03.68Z"/>
                </g>
              </g>
              <g class="cls-5">
                <path class="cls-16" d="M30.25,98.12c2.55.03,5.08.13,7.62.23l7.61.33,7.6.34c1.27.06,2.53.09,3.8.12l1.9.04c.63-.01,1.27-.01,1.91,0-2.52.41-5.07.51-7.62.56-2.55.06-5.09-.01-7.63-.12-2.54-.13-5.08-.29-7.61-.55-2.53-.25-5.06-.53-7.57-.94Z"/>
              </g>
              <g>
                <path class="cls-13" d="M38.01,143.81c0,.81-.66,1.47-1.47,1.47s-1.47-.66-1.47-1.47.66-1.47,1.47-1.47,1.47.66,1.47,1.47Z"/>
                <path class="cls-13" d="M66.74,147.47c0,.81-.66,1.47-1.47,1.47s-1.47-.66-1.47-1.47.66-1.47,1.47-1.47,1.47.66,1.47,1.47Z"/>
                <path class="cls-13" d="M29.39,111.26c0,.81-.66,1.47-1.47,1.47s-1.47-.66-1.47-1.47.66-1.47,1.47-1.47,1.47.66,1.47,1.47Z"/>
                <path class="cls-13" d="M62.16,102.83c0,.81-.66,1.47-1.47,1.47s-1.47-.66-1.47-1.47.66-1.47,1.47-1.47,1.47.66,1.47,1.47Z"/>
                <path class="cls-13" d="M63.04,78.96c0,.81-.66,1.47-1.47,1.47s-1.47-.66-1.47-1.47.66-1.47,1.47-1.47,1.47.66,1.47,1.47Z"/>
                <path class="cls-13" d="M28.58,87.55c0,.81-.66,1.47-1.47,1.47s-1.47-.66-1.47-1.47.66-1.47,1.47-1.47,1.47.66,1.47,1.47Z"/>
                <path class="cls-13" d="M44.06,134.58c0,.51-.41.92-.92.92s-.92-.41-.92-.92.41-.91.92-.91.92.41.92.91Z"/>
                <path class="cls-13" d="M58.67,151.14c0,.51-.41.92-.92.92s-.92-.41-.92-.92.41-.92.92-.92.92.41.92.92Z"/>
                <path class="cls-13" d="M73.92,138.16c0,.51-.41.92-.92.92s-.92-.41-.92-.92.41-.92.92-.92.92.41.92.92Z"/>
                <path class="cls-13" d="M56.33,124.15c0,.51-.41.92-.92.92s-.92-.41-.92-.92.41-.92.92-.92.92.41.92.92Z"/>
                <path class="cls-13" d="M73.92,112.18c0,.51-.41.92-.92.92s-.92-.41-.92-.92.41-.92.92-.92.92.41.92.92Z"/>
                <path class="cls-13" d="M50.52,90.75c0,.51-.41.92-.91.92s-.92-.41-.92-.92.41-.92.92-.92.91.41.91.92Z"/>
                <path class="cls-13" d="M79.65,84.3c0,.51-.41.92-.92.92s-.92-.41-.92-.92.41-.92.92-.92.92.41.92.92Z"/>
              </g>
              <path class="cls-2" d="M54.45,163.15c3.57-.05,6.95-.2,10.01-.43-2.79-.21-5.33-.49-7.5-.82-5.14-.78-8.32-1.86-8.32-3.06l-4.06-61.83-2.72-4.19c-1.11-1.71-1.77-3.67-1.91-5.71l-2.9-42.29c-8.29-.44-15.23-1.24-19.79-2.27l3.05,44.55c.14,2.04.79,4,1.91,5.71l2.72,4.19,4.06,61.83c0,1.2,3.18,2.28,8.32,3.06,4.48.69,10.46,1.14,17.12,1.25Z"/>
              <path class="cls-1" d="M27.62,137.71h0c4.05,0,7.26-3.42,6.99-7.46l-2.18-33.23-2.72-4.19c-1.11-1.71-1.77-3.67-1.91-5.71l-2.97-43.31c-2.95-.36-5.5-.78-7.56-1.24l3.05,44.55c.14,2.04.79,4,1.91,5.71l2.72,4.19,2.67,40.69Z"/>
              <path class="cls-2" d="M77.84,43.91l-2.96,43.2c-.14,2.04-.79,4-1.91,5.71l-2.72,4.19-4.06,61.83c0,2.02-9.06,3.71-21.32,4.19,1.6.06,3.27.1,4.96.12,14.42-.21,25.71-2.05,25.71-4.31l4.06-61.83,2.72-4.19c1.11-1.71,1.77-3.67,1.91-5.71l3.07-44.78c-2.41.6-5.62,1.14-9.46,1.58Z"/>
              <path class="cls-10" d="M56.9,47.03l-3.9,18.31c-.39,0-.79,0-1.2,0-1.53,0-3.04-.02-4.52-.05-.05-.04-.07-.08-.11-.12l3.86-18.1h.77c1.73,0,3.43-.02,5.1-.05Z"/>
              <path class="cls-6" d="M66.63,1.37l-9.33,43.8-.4,1.87c-1.66.03-3.37.05-5.1.05h-.77l.39-1.87L61.03.19c0,.27,1.19.75,2.7,1.07,1.54.33,2.84.38,2.9.11Z"/>
              <path class="cls-20" d="M66.63,1.37c-.06.27-1.36.22-2.9-.11-1.51-.32-2.7-.79-2.7-1.07v-.02l5.6,1.2Z"/>
              <path class="cls-15" d="M66.63,1.37c-.06.27-1.36.22-2.9-.11-1.51-.32-2.7-.79-2.7-1.07v-.02c.06-.26,1.36-.22,2.91.11,1.54.34,2.75.81,2.69,1.08Z"/>
              <path class="cls-3" d="M92.06,40.08l-.14,2.09c-1.95,2.53-16.53,4.54-35.02,4.85-1.66.03-3.37.05-5.1.05h-.77c-20.5-.06-37.23-2.18-39.34-4.9l-.15-2.09c1.34,2.84,18.63,5.1,39.88,5.12h.37c1.86,0,3.7-.02,5.5-.05,18.83-.36,33.53-2.47,34.75-5.08Z"/>
            </g>
            <g>
              <g>
                <g>
                  <path class="cls-19" d="M75.16,124.32c4.3,2.93,6.05.98,6.22.91.18-.07-.46.88-.46.88,2.47-.76,3.21-1.94,3.21-1.94l-.25,1.03c1.59-.52,2.73-2.47,2.73-2.47,0,0-1.37-2.55-3.91-2.35l.84.77s-2.5-1.02-4.51-.44l1,.7c-1.87-.55-3.4.22-4.89,2.92Z"/>
                  <g>
                    <path class="cls-12" d="M86.62,122.73c-1.95,0-3.88.09-5.8.35-.96.1-1.91.29-2.86.49-.95.19-1.87.48-2.81.76,1.76-.84,3.69-1.31,5.62-1.58,1.94-.23,3.91-.29,5.84-.02Z"/>
                    <path class="cls-12" d="M83.55,121.14c.11.65.6,1.07,1.11,1.37l.33.2-.36.1c-.05.02-.16.11-.22.2-.06.1-.11.22-.15.34-.08.25-.1.53-.13.81-.09-.27-.14-.56-.11-.86,0-.15.05-.3.13-.45.08-.14.17-.28.38-.37l-.03.3c-.16-.08-.29-.19-.42-.3-.13-.12-.25-.24-.34-.38-.19-.29-.29-.66-.19-.98Z"/>
                    <path class="cls-12" d="M79.9,121.3c.21.4.59.66.98.86.39.2.81.35,1.22.46h0s.29.07.29.07l-.22.21c-.6.57-1.04,1.46-.8,2.34-.16-.42-.19-.89-.08-1.34.12-.45.33-.86.63-1.24l.07.28h0c-.43-.17-.84-.37-1.21-.63-.37-.26-.73-.58-.89-1Z"/>
                    <path class="cls-12" d="M76.87,122.21c.26.3.66.39,1.01.52.37.1.74.23,1.12.31l.26.06-.18.21c-.29.35-.59.7-.85,1.08-.26.37-.53.75-.63,1.21-.05-.49.18-.95.4-1.36.25-.41.52-.8.84-1.15l.08.27c-.39-.11-.77-.22-1.13-.4-.18-.09-.36-.18-.53-.3-.16-.12-.34-.26-.4-.45Z"/>
                  </g>
                </g>
                <g>
                  <path class="cls-19" d="M76.53,116.48c1.31,5.04,3.91,4.72,4.09,4.78.18.06-.92.36-.92.36,2.36,1.05,3.69.65,3.69.65l-.86.61c1.54.65,3.68-.06,3.68-.06,0,0,.65-2.82-1.4-4.34l.13,1.13s-1.21-2.41-3.1-3.3l.3,1.19c-1.05-1.64-2.7-2.07-5.61-1.01Z"/>
                  <g>
                    <path class="cls-12" d="M86.22,122.82c-1.47-1.28-2.98-2.49-4.6-3.55-.79-.55-1.63-1.04-2.47-1.51-.84-.48-1.72-.87-2.61-1.28,1.88.52,3.64,1.43,5.27,2.51,1.61,1.1,3.14,2.35,4.41,3.83Z"/>
                    <path class="cls-12" d="M84.95,119.61c-.34.56-.25,1.2-.07,1.76l.12.37-.34-.16c-.05-.02-.19-.03-.3.01-.11.04-.22.09-.34.16-.22.14-.42.33-.63.53.11-.27.26-.52.48-.72.11-.11.24-.19.39-.25.16-.05.31-.09.53-.03l-.22.21c-.07-.17-.09-.33-.12-.5-.02-.17-.03-.34,0-.51.05-.34.21-.68.5-.86Z"/>
                    <path class="cls-12" d="M82.1,117.32c-.1.44.01.88.17,1.29.16.41.38.8.62,1.15h0s.17.25.17.25h-.3c-.82.05-1.74.43-2.14,1.25.15-.42.44-.8.82-1.06.38-.26.81-.43,1.29-.51l-.13.26h0c-.21-.42-.39-.83-.5-1.28-.11-.44-.17-.92-.01-1.34Z"/>
                    <path class="cls-12" d="M79.22,116.02c0,.4.24.73.42,1.06.21.32.41.66.64.97l.16.21-.27.04c-.45.07-.91.14-1.35.26-.44.11-.9.22-1.27.5.28-.4.76-.59,1.2-.76.46-.15.91-.26,1.39-.32l-.11.25c-.22-.34-.43-.67-.59-1.05-.08-.19-.16-.37-.2-.57-.04-.2-.08-.41,0-.6Z"/>
                  </g>
                </g>
                <g>
                  <path class="cls-19" d="M82.72,111.48c-2.32,4.66-.15,6.13-.06,6.29.09.16-.93-.33-.93-.33,1.09,2.34,2.35,2.92,2.35,2.92l-1.05-.11c.73,1.5,2.82,2.37,2.82,2.37,0,0,2.34-1.7,1.8-4.19l-.65.94s.67-2.61-.17-4.53l-.56,1.09c.29-1.93-.68-3.33-3.56-4.45Z"/>
                  <g>
                    <path class="cls-12" d="M85.86,122.62c-.27-1.93-.61-3.83-1.13-5.7-.23-.94-.54-1.85-.87-2.76-.32-.91-.73-1.79-1.13-2.68,1.08,1.63,1.8,3.48,2.32,5.36.49,1.89.82,3.83.81,5.78Z"/>
                    <path class="cls-12" d="M87.01,119.37c-.63.2-.98.74-1.21,1.28l-.15.35-.15-.34c-.02-.05-.13-.15-.23-.19-.11-.05-.23-.08-.36-.1-.26-.04-.54-.03-.82-.02.26-.13.53-.22.84-.23.15-.01.31.01.46.07.15.06.3.13.41.33h-.3c.06-.16.15-.3.24-.44.1-.14.2-.28.33-.39.26-.23.61-.38.94-.32Z"/>
                    <path class="cls-12" d="M86.37,115.78c-.37.26-.57.67-.72,1.08-.15.41-.24.85-.29,1.28h0s-.03.3-.03.3l-.23-.19c-.64-.51-1.58-.83-2.43-.47.39-.22.86-.31,1.32-.26.46.05.9.21,1.31.46l-.27.11h0c.11-.46.26-.88.46-1.29.2-.4.47-.8.87-1.02Z"/>
                    <path class="cls-12" d="M85.05,112.9c-.26.3-.3.7-.38,1.08-.05.38-.13.77-.16,1.15l-.02.26-.23-.15c-.39-.24-.78-.49-1.19-.7-.41-.21-.82-.42-1.29-.46.47-.11.96.05,1.4.21.44.19.86.4,1.26.68l-.25.12c.06-.4.12-.79.25-1.18.06-.19.13-.38.22-.56.1-.17.21-.37.4-.46Z"/>
                  </g>
                </g>
                <g>
                  <path class="cls-19" d="M90.68,111.78c-4.81,1.98-4.14,4.52-4.18,4.7-.04.19-.48-.86-.48-.86-.72,2.48-.14,3.74-.14,3.74l-.72-.77c-.43,1.61.56,3.64.56,3.64,0,0,2.88.26,4.11-1.97l-1.1.28s2.22-1.53,2.85-3.52l-1.14.45c1.49-1.27,1.68-2.96.24-5.69Z"/>
                  <g>
                    <path class="cls-12" d="M85.72,122.24c1.07-1.63,2.06-3.29,2.89-5.04.44-.86.81-1.75,1.16-2.66.36-.9.63-1.83.91-2.76-.26,1.94-.93,3.8-1.77,5.56-.88,1.75-1.9,3.43-3.19,4.89Z"/>
                    <path class="cls-12" d="M88.72,120.55c-.6-.26-1.22-.09-1.75.17l-.35.17.11-.36c.02-.05,0-.19-.05-.29-.05-.11-.12-.21-.2-.31-.17-.2-.39-.37-.61-.56.28.07.55.19.78.38.12.09.22.21.3.35.07.15.14.3.1.52l-.24-.19c.16-.09.32-.14.48-.18.17-.04.33-.08.51-.08.34,0,.71.12.92.38Z"/>
                    <path class="cls-12" d="M90.6,117.41c-.45-.04-.87.13-1.25.34-.38.21-.74.48-1.05.77h0s-.22.2-.22.2l-.05-.3c-.15-.81-.65-1.67-1.52-1.95.44.09.85.33,1.16.67.31.34.54.75.69,1.21l-.27-.09h0c.38-.27.77-.5,1.2-.67.42-.17.88-.29,1.33-.19Z"/>
                    <path class="cls-12" d="M91.5,114.38c-.39.05-.69.33-1,.56-.29.25-.6.49-.88.77l-.19.19-.08-.26c-.13-.44-.26-.88-.44-1.31-.17-.43-.34-.86-.67-1.2.43.23.69.67.92,1.08.21.43.38.87.5,1.34l-.27-.08c.31-.26.61-.52.96-.73.17-.1.35-.2.54-.28.19-.07.4-.14.6-.08Z"/>
                  </g>
                </g>
              </g>
              <g>
                <path class="cls-13" d="M79.31,139.32c-2.93-3.14-3.45-7.83-1.41-11.61,2.83-5.23,8.33-11.9,17.49-10.28,14.65,2.6,15.59,29.22,9.57,33.59-4.74,3.45-18.64-4.2-25.65-11.71Z"/>
                <path class="cls-7" d="M79.91,138.87c-2.32-2.49-2.74-6.21-1.12-9.2,2.25-4.15,6.6-9.44,13.87-8.15,11.62,2.06,12.36,23.17,7.59,26.64-3.76,2.73-14.78-3.33-20.34-9.29Z"/>
                <path class="cls-18" d="M79.41,137.81c-1.34-1.43-1.58-3.57-.64-5.29,1.29-2.39,3.8-5.43,7.98-4.69,6.68,1.19,7.11,13.32,4.36,15.32-2.16,1.57-8.5-1.91-11.7-5.34Z"/>
                <g>
                  <path class="cls-17" d="M97.73,121.75c.02.46.17,1.3,1.01,1.68.13.06.29-.01.32-.15.11-.43.17-1.31-1.02-1.76-.15-.06-.32.06-.31.22Z"/>
                  <path class="cls-14" d="M98.08,121.85c.04.13.15.35.41.4.04,0,.08-.02.08-.07,0-.13-.05-.38-.42-.42-.05,0-.09.04-.07.09Z"/>
                </g>
                <g>
                  <path class="cls-17" d="M82.23,132.48c.02.46.17,1.3,1.01,1.68.13.06.29-.01.32-.15.11-.43.17-1.31-1.02-1.76-.15-.06-.32.06-.31.22Z"/>
                  <path class="cls-14" d="M82.58,132.58c.04.13.15.35.41.4.04,0,.08-.02.08-.07,0-.13-.05-.38-.42-.42-.05,0-.09.04-.07.09Z"/>
                </g>
                <g>
                  <path class="cls-17" d="M88.59,142.91c.02.46.17,1.3,1.01,1.68.13.06.29-.01.32-.15.11-.43.17-1.31-1.02-1.76-.15-.06-.32.06-.31.22Z"/>
                  <path class="cls-14" d="M88.94,143.01c.04.13.15.35.41.4.04,0,.08-.02.08-.07,0-.13-.05-.38-.42-.42-.05,0-.09.04-.07.09Z"/>
                </g>
                <g>
                  <path class="cls-17" d="M96.48,147.34c.02.46.17,1.3,1.01,1.68.13.06.29-.01.32-.15.11-.43.17-1.31-1.02-1.76-.15-.06-.32.06-.31.22Z"/>
                  <path class="cls-14" d="M96.83,147.44c.04.13.15.35.41.4.04,0,.08-.02.08-.07,0-.13-.05-.38-.42-.42-.05,0-.09.04-.07.09Z"/>
                </g>
                <g>
                  <path class="cls-17" d="M102.24,147.57c.02.46.17,1.3,1.01,1.68.13.06.29-.01.32-.15.11-.43.17-1.31-1.02-1.76-.15-.06-.32.06-.31.22Z"/>
                  <path class="cls-14" d="M102.59,147.67c.04.13.15.35.41.4.04,0,.08-.02.08-.07,0-.13-.05-.38-.42-.42-.05,0-.09.04-.07.09Z"/>
                </g>
                <g>
                  <path class="cls-17" d="M104.73,139.48c.02.46.17,1.3,1.01,1.68.13.06.29-.01.32-.15.11-.43.17-1.31-1.02-1.76-.15-.06-.32.06-.31.22Z"/>
                  <path class="cls-14" d="M105.07,139.58c.04.13.15.35.41.4.04,0,.08-.02.08-.07,0-.13-.05-.38-.42-.42-.05,0-.09.04-.07.09Z"/>
                </g>
                <g>
                  <path class="cls-17" d="M98.1,139.68c.02.46.17,1.3,1.01,1.68.13.06.29-.01.32-.15.11-.43.17-1.31-1.02-1.76-.15-.06-.32.06-.31.22Z"/>
                  <path class="cls-14" d="M98.45,139.78c.04.13.15.35.41.4.04,0,.08-.02.08-.07,0-.13-.05-.38-.42-.42-.05,0-.09.04-.07.09Z"/>
                </g>
                <g>
                  <path class="cls-17" d="M101.86,131.75c.02.46.17,1.3,1.01,1.68.13.06.29-.01.32-.15.11-.43.17-1.31-1.02-1.76-.15-.06-.32.06-.31.22Z"/>
                  <path class="cls-14" d="M102.21,131.85c.04.13.15.35.41.4.04,0,.08-.02.08-.07,0-.13-.05-.38-.42-.42-.05,0-.09.04-.07.09Z"/>
                </g>
                <g>
                  <path class="cls-17" d="M89.96,136.52c.02.46.17,1.3,1.01,1.68.13.06.29-.01.32-.15.11-.43.17-1.31-1.02-1.76-.15-.06-.32.06-.31.22Z"/>
                  <path class="cls-14" d="M90.3,136.62c.04.13.15.35.41.4.04,0,.08-.02.08-.07,0-.13-.05-.38-.42-.42-.05,0-.09.04-.07.09Z"/>
                </g>
                <g>
                  <path class="cls-17" d="M95.1,129.13c.02.46.17,1.3,1.01,1.68.13.06.29-.01.32-.15.11-.43.17-1.31-1.02-1.76-.15-.06-.32.06-.31.22Z"/>
                  <path class="cls-14" d="M95.45,129.23c.04.13.15.35.41.4.04,0,.08-.02.08-.07,0-.13-.05-.38-.42-.42-.05,0-.09.04-.07.09Z"/>
                </g>
                <g>
                  <path class="cls-17" d="M87.73,124.46c.02.46.17,1.3,1.01,1.68.13.06.29-.01.32-.15.11-.43.17-1.31-1.02-1.76-.15-.06-.32.06-.31.22Z"/>
                  <path class="cls-14" d="M88.08,124.56c.04.13.15.35.41.4.04,0,.08-.02.08-.07,0-.13-.05-.38-.42-.42-.05,0-.09.04-.07.09Z"/>
                </g>
              </g>
            </g>
            <g>
              <path class="cls-19" d="M58.53,136.47c5.4,17.99,14.74,16.49,15.4,16.69s-3.27,1.42-3.27,1.42c8.64,3.47,13.4,1.85,13.4,1.85l-3.03,2.31c5.64,2.13,13.28-.73,13.28-.73,0,0,1.96-10.27-5.62-15.48l.62,4.06s-4.7-8.52-11.64-11.48l1.23,4.25c-4.02-5.79-10.02-7.1-20.37-2.9Z"/>
              <g>
                <path class="cls-12" d="M94.31,158.02c-2.71-2.23-5.52-4.33-8.35-6.38-2.85-2.03-5.74-3.98-8.72-5.8-2.95-1.86-6.02-3.53-9.13-5.11l-2.35-1.16-2.39-1.07c-1.57-.79-3.24-1.31-4.85-2.03,3.4.87,6.79,1.93,10,3.4,3.23,1.43,6.36,3.07,9.36,4.94,5.99,3.72,11.62,8.07,16.43,13.21Z"/>
                <path class="cls-12" d="M89.31,146.61c-.27.54-.5,1.05-.6,1.59-.1.54-.13,1.08-.11,1.62.03.54.12,1.08.24,1.61.11.53.29,1.07.46,1.55l.46,1.29-1.23-.5s-.29-.06-.47-.03c-.19.02-.39.05-.59.12-.4.14-.81.34-1.19.62-.38.27-.76.58-1.12.92l-1.09,1.06c.17-.49.39-.96.66-1.41.28-.44.58-.88.98-1.26.37-.39.84-.72,1.38-.96.27-.12.56-.21.87-.24.33-.03.6-.05,1.03.09l-.77.79c-.27-.6-.39-1.19-.51-1.8-.1-.61-.13-1.23-.07-1.86.07-.62.23-1.24.5-1.8.29-.56.7-1.04,1.18-1.38Z"/>
                <path class="cls-12" d="M78.72,138.76c-.16,1.63.34,3.13.95,4.57.32.72.65,1.43,1.04,2.11.38.69.78,1.38,1.21,2.01l.57.82-1,.12c-.71.09-1.49.29-2.2.53-.73.24-1.42.57-2.09.94-.67.38-1.27.85-1.82,1.4-.58.53-.99,1.2-1.44,1.89.19-.78.49-1.58.98-2.27.48-.68,1.07-1.32,1.76-1.81.68-.51,1.44-.9,2.21-1.23.8-.31,1.58-.53,2.47-.66l-.43.94c-.46-.72-.86-1.42-1.23-2.17-.35-.75-.68-1.51-.91-2.31-.24-.79-.42-1.62-.46-2.46-.03-.83.05-1.69.4-2.44Z"/>
                <path class="cls-12" d="M68.14,134.45c-.02.72.29,1.36.59,1.97.32.62.7,1.2,1.07,1.79.78,1.16,1.59,2.31,2.43,3.42l.58.77-.96.18c-1.61.3-3.26.65-4.85,1.1-.8.21-1.59.47-2.36.77-.77.3-1.52.65-2.18,1.2.44-.75,1.17-1.29,1.89-1.76.74-.46,1.52-.84,2.33-1.15,1.61-.62,3.27-1.06,4.98-1.33l-.38.95c-.86-1.18-1.63-2.39-2.27-3.7-.32-.65-.6-1.33-.81-2.03-.18-.7-.35-1.48-.08-2.18Z"/>
              </g>
            </g>
            <g>
              <g>
                <g>
                  <path class="cls-19" d="M113.49,132.08c-3.68,4.5-1.68,6.64-1.62,6.84.06.2-.93-.59-.93-.59.61,2.82,1.84,3.76,1.84,3.76l-1.12-.38c.43,1.82,2.48,3.28,2.48,3.28,0,0,2.97-1.28,3-4.12l-.93.86s1.37-2.68.93-4.97l-.88,1.05c.79-2.03.09-3.8-2.78-5.73Z"/>
                  <g>
                    <path class="cls-12" d="M114.15,144.99c.19-2.17.28-4.33.17-6.49-.02-1.08-.13-2.15-.27-3.23-.12-1.07-.35-2.13-.57-3.2.77,2.04,1.11,4.23,1.21,6.41.06,2.18-.05,4.38-.55,6.5Z"/>
                    <path class="cls-12" d="M116.22,141.73c-.73.06-1.25.56-1.63,1.1l-.25.35-.08-.41c-.01-.06-.1-.19-.2-.26-.11-.08-.23-.14-.37-.2-.27-.11-.58-.16-.89-.22.31-.08.64-.11.97-.04.17.02.33.09.48.19.15.11.29.22.37.46l-.33-.06c.1-.18.24-.3.38-.44.14-.13.29-.25.46-.34.34-.18.76-.26,1.11-.12Z"/>
                    <path class="cls-12" d="M116.4,137.65c-.46.2-.79.59-1.05,1-.26.41-.47.87-.63,1.32h0s-.11.32-.11.32l-.21-.26c-.57-.72-1.52-1.29-2.53-1.11.48-.14,1.01-.13,1.5.05.49.17.93.45,1.31.83l-.32.05h0c.23-.47.5-.9.82-1.29.32-.39.71-.76,1.2-.89Z"/>
                    <path class="cls-12" d="M115.67,134.19c-.19.12-.3.31-.4.49-.1.19-.19.38-.28.58-.15.4-.33.81-.45,1.22l-.09.28-.22-.22c-.36-.36-.73-.73-1.12-1.05-.39-.33-.79-.66-1.29-.82.27-.02.53.08.78.18.24.11.48.25.7.4.43.31.84.65,1.2,1.05l-.3.07c.16-.42.32-.84.56-1.22.12-.19.23-.39.38-.56.15-.16.32-.35.54-.4Z"/>
                  </g>
                </g>
                <g>
                  <path class="cls-19" d="M122.08,134.37c-5.73.97-5.63,3.9-5.71,4.09-.09.19-.31-1.06-.31-1.06-1.4,2.52-1.08,4.04-1.08,4.04l-.6-1.02c-.87,1.65-.28,4.11-.28,4.11,0,0,3.08.99,4.97-1.14l-1.27.04s2.8-1.12,3.97-3.14l-1.35.21c1.93-1.01,2.56-2.81,1.67-6.14Z"/>
                  <g>
                    <path class="cls-12" d="M114.09,144.53c1.56-1.51,3.06-3.08,4.39-4.78.69-.83,1.32-1.71,1.92-2.61.61-.89,1.14-1.84,1.67-2.78-.76,2.04-1.95,3.92-3.3,5.63-1.38,1.69-2.92,3.26-4.69,4.54Z"/>
                    <path class="cls-12" d="M117.79,143.43c-.59-.44-1.31-.4-1.95-.25l-.42.1.21-.36c.03-.06.05-.21.02-.33-.03-.13-.08-.26-.15-.39-.13-.26-.33-.5-.52-.75.28.15.55.34.75.61.11.13.19.28.24.46.04.18.08.36-.02.59l-.21-.26c.19-.06.38-.07.57-.08.19,0,.38,0,.57.04.38.09.74.3.91.64Z"/>
                    <path class="cls-12" d="M120.6,140.48c-.48-.16-.99-.07-1.45.07-.47.14-.92.35-1.34.58h0s-.29.17-.29.17v-.33c.06-.92-.28-1.98-1.16-2.5.45.21.85.57,1.1,1.02.25.45.4.95.45,1.49l-.27-.17h0c.48-.2.96-.35,1.47-.43.5-.08,1.04-.1,1.49.12Z"/>
                    <path class="cls-12" d="M122.33,137.4c-.22-.03-.43.03-.63.11-.2.08-.4.16-.59.26-.38.2-.78.39-1.14.62l-.25.16-.02-.31c-.03-.51-.07-1.03-.15-1.53-.08-.5-.16-1.02-.43-1.47.21.16.35.41.47.65.11.25.19.5.26.76.12.52.2,1.04.22,1.58l-.27-.15c.4-.21.79-.42,1.22-.55.21-.07.43-.14.65-.17.22-.02.47-.05.67.06Z"/>
                  </g>
                </g>
                <g>
                  <path class="cls-19" d="M127.04,141.74c-4.96-3.04-6.8-.76-7-.67s.46-1,.46-1c-2.71.98-3.47,2.34-3.47,2.34l.22-1.16c-1.74.67-2.91,2.91-2.91,2.91,0,0,1.67,2.77,4.49,2.41l-.98-.81s2.84,1,5.05.25l-1.16-.73c2.12.51,3.78-.43,5.3-3.53Z"/>
                  <g>
                    <path class="cls-12" d="M114.34,144.15c2.17-.11,4.33-.31,6.45-.71,1.07-.17,2.12-.43,3.16-.7,1.05-.27,2.06-.63,3.09-1-1.92,1.04-4.04,1.67-6.18,2.07-2.15.36-4.34.54-6.52.34Z"/>
                    <path class="cls-12" d="M117.85,145.75c-.16-.72-.73-1.16-1.31-1.47l-.38-.2.39-.14c.06-.02.17-.13.23-.24.06-.12.11-.25.15-.39.07-.28.08-.59.1-.91.12.3.19.62.17.95,0,.17-.04.34-.12.5-.09.16-.18.32-.4.43l.02-.34c.19.08.33.2.48.31.15.12.29.25.4.41.23.31.36.72.27,1.08Z"/>
                    <path class="cls-12" d="M121.91,145.38c-.26-.43-.7-.7-1.14-.9-.44-.2-.92-.35-1.39-.44h0s-.33-.07-.33-.07l.23-.24c.63-.66,1.08-1.68.76-2.66.21.45.26.99.16,1.49-.11.51-.32.98-.64,1.41l-.09-.31h0c.49.17.96.37,1.39.64.43.26.85.61,1.05,1.07Z"/>
                    <path class="cls-12" d="M125.24,144.19c-.14-.17-.34-.26-.54-.33-.2-.07-.41-.14-.62-.2-.42-.1-.84-.22-1.27-.29l-.29-.05.19-.25c.31-.41.62-.82.89-1.26.27-.43.55-.87.64-1.39.05.26,0,.54-.07.8-.08.26-.18.51-.3.75-.25.47-.53.92-.87,1.33l-.11-.29c.44.11.87.21,1.29.39.21.09.41.18.61.3.18.13.39.27.47.48Z"/>
                  </g>
                </g>
                <g>
                  <path class="cls-19" d="M125.94,150.56c-1.74-5.55-4.63-5.05-4.83-5.11-.2-.06,1-.45,1-.45-2.69-1.04-4.15-.52-4.15-.52l.93-.73c-1.75-.64-4.11.28-4.11.28,0,0-.57,3.19,1.8,4.77l-.21-1.26s1.49,2.62,3.65,3.51l-.4-1.31c1.27,1.78,3.13,2.16,6.31.82Z"/>
                  <g>
                    <path class="cls-12" d="M114.78,144.03c1.71,1.34,3.46,2.61,5.33,3.7.92.57,1.87,1.07,2.84,1.55.97.49,1.97.88,2.99,1.28-2.13-.48-4.14-1.4-6.02-2.51-1.86-1.14-3.63-2.45-5.14-4.03Z"/>
                    <path class="cls-12" d="M116.38,147.54c.35-.64.21-1.35-.02-1.97l-.15-.4.39.16c.06.02.22.02.33-.03.12-.05.25-.11.37-.2.24-.17.45-.4.68-.62-.11.3-.26.59-.5.83-.11.13-.26.23-.42.3-.17.07-.34.12-.59.06l.23-.24c.09.18.12.37.16.55.03.19.05.38.04.57-.03.38-.2.77-.51.99Z"/>
                    <path class="cls-12" d="M119.68,149.93c.09-.5-.06-.99-.26-1.43-.2-.44-.47-.87-.76-1.25h0s-.2-.27-.2-.27l.33-.03c.91-.08,1.92-.56,2.32-1.5-.14.48-.45.92-.86,1.23-.41.31-.88.53-1.41.65l.13-.29h0c.26.45.48.91.63,1.4.15.48.24,1.01.09,1.5Z"/>
                    <path class="cls-12" d="M122.97,151.22c0-.22-.09-.42-.19-.61-.1-.19-.21-.37-.34-.55-.25-.35-.49-.72-.77-1.05l-.19-.23.3-.06c.5-.1,1.01-.21,1.5-.36.49-.15.99-.3,1.39-.63-.13.23-.36.4-.58.55-.23.14-.47.26-.72.36-.5.19-1.01.34-1.54.43l.11-.29c.26.37.52.73.71,1.14.1.2.19.41.26.62.05.22.12.46.03.67Z"/>
                  </g>
                </g>
              </g>
              <g>
                <path class="cls-13" d="M96.4,135.25c3.78-2.96,9.05-3.09,13.05-.45,5.55,3.66,12.44,10.42,9.75,20.45-4.31,16.06-34.02,14.53-38.31,7.4-3.38-5.61,6.47-20.34,15.51-27.41Z"/>
                <path class="cls-7" d="M96.83,135.96c3-2.34,7.18-2.45,10.35-.35,4.4,2.9,9.86,8.26,7.73,16.22-3.42,12.73-26.98,11.52-30.38,5.87-2.68-4.45,5.13-16.13,12.3-21.74Z"/>
                <path class="cls-18" d="M98.06,135.51c1.72-1.35,4.13-1.41,5.95-.2,2.53,1.67,5.67,4.75,4.44,9.33-1.97,7.32-15.52,6.63-17.47,3.38-1.54-2.56,2.95-9.28,7.08-12.5Z"/>
                <g>
                  <path class="cls-17" d="M114.17,157.45c-.51-.02-1.46.07-1.97.96-.08.14-.02.32.13.37.46.16,1.44.32,2.05-.96.08-.17-.04-.36-.22-.37Z"/>
                  <path class="cls-14" d="M114.02,157.83c-.15.03-.41.13-.48.42-.01.05.02.09.07.1.14.01.43-.02.51-.43.01-.05-.04-.1-.09-.09Z"/>
                </g>
                <g>
                  <path class="cls-17" d="M103.72,139.16c-.51-.02-1.46.07-1.97.96-.08.14-.02.32.13.37.46.16,1.44.32,2.05-.96.08-.17-.04-.36-.22-.37Z"/>
                  <path class="cls-14" d="M103.58,139.54c-.15.03-.41.13-.48.42-.01.05.02.09.07.1.14.01.43-.02.51-.43,0-.05-.04-.1-.09-.09Z"/>
                </g>
                <g>
                  <path class="cls-17" d="M91.51,145.23c-.51-.02-1.46.07-1.97.96-.08.14-.02.32.13.37.46.16,1.44.32,2.05-.96.08-.17-.04-.36-.22-.37Z"/>
                  <path class="cls-14" d="M91.36,145.61c-.15.03-.41.13-.48.42-.01.05.02.09.07.1.14.01.43-.02.51-.43.01-.05-.04-.1-.09-.09Z"/>
                </g>
                <g>
                  <path class="cls-17" d="M85.81,153.59c-.51-.02-1.46.07-1.97.96-.08.14-.02.32.13.37.46.16,1.44.32,2.05-.96.08-.17-.04-.36-.22-.37Z"/>
                  <path class="cls-14" d="M85.66,153.97c-.15.03-.41.13-.48.42-.01.04.02.09.07.09.14.01.43-.02.51-.43,0-.05-.04-.1-.09-.09Z"/>
                </g>
                <g>
                  <path class="cls-17" d="M84.99,159.97c-.51-.02-1.46.07-1.97.96-.08.14-.02.32.13.37.46.16,1.44.32,2.05-.96.08-.17-.04-.36-.22-.37Z"/>
                  <path class="cls-14" d="M84.85,160.35c-.15.03-.41.13-.48.42-.01.05.02.09.07.1.14.01.43-.02.51-.43.01-.05-.04-.1-.09-.09Z"/>
                </g>
                <g>
                  <path class="cls-17" d="M93.76,163.52c-.51-.02-1.46.07-1.97.96-.08.14-.02.32.13.37.46.16,1.44.32,2.05-.96.08-.17-.04-.36-.22-.37Z"/>
                  <path class="cls-14" d="M93.62,163.9c-.15.03-.41.13-.48.42-.01.05.02.09.07.1.14.01.43-.02.51-.43.01-.05-.04-.1-.09-.09Z"/>
                </g>
                <g>
                  <path class="cls-17" d="M94.18,156.13c-.51-.02-1.46.07-1.97.96-.08.14-.02.32.13.37.46.16,1.44.32,2.05-.96.08-.17-.04-.36-.22-.37Z"/>
                  <path class="cls-14" d="M94.03,156.5c-.15.03-.41.13-.48.42-.01.05.02.09.07.1.14.01.43-.02.51-.43.01-.05-.04-.1-.09-.09Z"/>
                </g>
                <g>
                  <path class="cls-17" d="M102.64,161.07c-.51-.02-1.46.07-1.97.96-.08.14-.02.32.13.37.46.16,1.44.32,2.05-.96.08-.17-.04-.36-.22-.37Z"/>
                  <path class="cls-14" d="M102.49,161.45c-.15.03-.41.13-.48.42-.01.05.02.09.07.1.14.01.43-.02.51-.43,0-.05-.04-.1-.09-.09Z"/>
                </g>
                <g>
                  <path class="cls-17" d="M98.48,147.37c-.51-.02-1.46.07-1.97.96-.08.14-.02.32.13.37.46.16,1.44.32,2.05-.96.08-.17-.04-.36-.22-.37Z"/>
                  <path class="cls-14" d="M98.33,147.75c-.15.03-.41.13-.48.42-.01.05.02.09.07.1.14.01.43-.02.51-.43.01-.05-.04-.1-.09-.09Z"/>
                </g>
                <g>
                  <path class="cls-17" d="M106.21,153.81c-.51-.02-1.46.07-1.97.96-.08.14-.02.32.13.37.46.16,1.44.32,2.05-.96.08-.17-.04-.36-.22-.37Z"/>
                  <path class="cls-14" d="M106.07,154.19c-.15.03-.41.13-.48.42-.01.05.02.09.07.1.14.01.43-.02.51-.43.01-.05-.04-.1-.09-.09Z"/>
                </g>
                <g>
                  <path class="cls-17" d="M112.12,146.06c-.51-.02-1.46.07-1.97.96-.08.14-.02.32.13.37.46.16,1.44.32,2.05-.96.08-.17-.04-.36-.22-.37Z"/>
                  <path class="cls-14" d="M111.97,146.43c-.15.03-.41.13-.48.42-.01.05.02.09.07.09.14.01.43-.02.51-.43,0-.05-.04-.1-.09-.09Z"/>
                </g>
              </g>
            </g>
          </g>
        </g>
      </g>
    </g>
  </g>
</svg>