<?xml version="1.0" encoding="UTF-8"?>
<svg xmlns="http://www.w3.org/2000/svg" viewBox="0 0 162.92 171.63">
  <defs>
    <style>
      .cls-1 {
        opacity: .46;
      }

      .cls-1, .cls-2 {
        mix-blend-mode: screen;
      }

      .cls-1, .cls-2, .cls-3 {
        fill: #eefcfa;
      }

      .cls-2 {
        opacity: .24;
      }

      .cls-4 {
        opacity: .58;
      }

      .cls-4, .cls-5 {
        fill: #ee8a96;
      }

      .cls-6 {
        opacity: .45;
      }

      .cls-6, .cls-7 {
        mix-blend-mode: multiply;
      }

      .cls-7 {
        opacity: .39;
      }

      .cls-8 {
        fill: #ffebed;
      }

      .cls-9 {
        fill: #c9dfdd;
      }

      .cls-10 {
        fill: #eef2f2;
      }

      .cls-11 {
        fill: #f2d0d4;
      }

      .cls-12 {
        fill: #3f3267;
      }

      .cls-13 {
        fill: #fffaf0;
      }

      .cls-14 {
        isolation: isolate;
      }

      .cls-15 {
        fill: #54821f;
      }

      .cls-16 {
        fill: #fff;
      }

      .cls-17 {
        fill: #d44e5f;
      }

      .cls-18 {
        fill: #cdf;
      }

      .cls-19 {
        fill: #e26d81;
      }

      .cls-20 {
        fill: #b2d1ce;
      }

      .cls-21 {
        fill: #eb5769;
      }

      .cls-22 {
        fill: #a1b8e6;
      }

      .cls-23 {
        fill: #669d25;
      }

      .cls-24 {
        fill: #ece7e3;
      }

      .cls-25 {
        fill: #ffc9d0;
      }

      .cls-26 {
        fill: #ea8395;
      }
    </style>
  </defs>
  <g class="cls-14">
    <g id="Layer_2">
      <g id="OBJECTS">
        <g>
          <g>
            <path class="cls-10" d="M109.64,142.34c-8.7-1.55-19.16-2.46-30.41-2.46-30.28,0-54.82,6.56-54.82,14.65s23.72,14.42,53.28,14.64c8.7,1.55,19.16,2.46,30.41,2.46,30.28,0,54.82-6.56,54.82-14.65s-23.72-14.42-53.28-14.64Z"/>
            <g>
              <g>
                <path class="cls-23" d="M27.71,119.74c-.65,18.77,8.68,20.35,9.24,20.74.56.4-3.55.3-3.55.3,7.07,6.06,12.1,6.05,12.1,6.05l-3.61,1.22c4.66,3.83,12.81,3.57,12.81,3.57,0,0,5.14-9.1-.37-16.46l-.71,4.05s-1.72-9.58-7.35-14.61l-.2,4.41c-1.95-6.77-7.22-9.94-18.36-9.28Z"/>
                <g>
                  <path class="cls-15" d="M54.7,151.63c-1.85-2.99-3.84-5.87-5.86-8.72-2.04-2.83-4.17-5.61-6.4-8.29-2.2-2.71-4.57-5.27-7.01-7.77l-1.85-1.85-1.92-1.78c-1.24-1.25-2.65-2.28-3.95-3.48,2.94,1.91,5.81,4,8.38,6.43,2.6,2.39,5.04,4.95,7.28,7.67,4.48,5.45,8.42,11.37,11.33,17.78Z"/>
                  <path class="cls-15" d="M53.62,139.21c-.43.42-.81.83-1.08,1.31-.27.48-.47.98-.62,1.5-.14.52-.24,1.06-.29,1.6-.07.53-.07,1.11-.06,1.61l.02,1.37-1.01-.87s-.26-.15-.43-.18c-.19-.04-.39-.08-.6-.08-.42,0-.87.07-1.32.2-.45.13-.91.3-1.36.51l-1.38.65c.32-.41.68-.78,1.08-1.12.4-.33.84-.65,1.33-.88.48-.25,1.03-.42,1.61-.47.29-.03.6-.02.9.05.32.08.58.15.95.41l-.99.5c-.06-.66.01-1.25.1-1.86.1-.61.27-1.21.52-1.78.26-.57.61-1.1,1.05-1.54.45-.44.99-.76,1.56-.93Z"/>
                  <path class="cls-15" d="M46.1,128.38c-.67,1.49-.68,3.08-.57,4.64.07.78.16,1.56.31,2.33.14.77.29,1.56.5,2.29l.27.96-.99-.21c-.7-.15-1.5-.2-2.25-.2-.77-.01-1.53.08-2.28.22-.75.14-1.48.4-2.18.74-.72.32-1.33.82-1.97,1.33.43-.68.97-1.34,1.65-1.83.68-.49,1.43-.91,2.25-1.15.8-.27,1.65-.39,2.49-.45.85-.04,1.67,0,2.55.16l-.71.75c-.21-.83-.36-1.62-.47-2.45-.09-.82-.16-1.65-.12-2.48.03-.83.12-1.67.35-2.47.24-.8.59-1.59,1.16-2.18Z"/>
                  <path class="cls-15" d="M37.46,120.91c-.26.68-.16,1.38-.07,2.06.1.69.28,1.36.44,2.04.36,1.35.77,2.7,1.21,4.02l.31.92-.97-.14c-1.63-.23-3.3-.42-4.94-.51-.83-.05-1.65-.06-2.48-.03-.82.04-1.65.13-2.45.44.66-.57,1.52-.85,2.36-1.06.85-.2,1.71-.3,2.57-.34,1.73-.07,3.43.04,5.14.33l-.66.78c-.44-1.39-.77-2.79-.96-4.23-.09-.72-.14-1.45-.11-2.18.05-.72.14-1.52.62-2.09Z"/>
                </g>
              </g>
              <g>
                <path class="cls-9" d="M117.39,39.87l-3.24,47.25c-.14,2.04-.79,4-1.91,5.71l-2.72,4.19-4.06,61.83c0,2.39-12.73,4.33-28.41,4.33-7.84,0-14.95-.49-20.08-1.27-5.14-.78-8.32-1.86-8.32-3.06l-4.06-61.83-2.72-4.19c-1.11-1.71-1.77-3.67-1.91-5.71l-3.24-47.25c.55,2.96,18.39,5.34,40.33,5.34s39.78-2.37,40.34-5.34Z"/>
                <path class="cls-5" d="M112.27,59.7l-.03.48c-1.03,2.89-16.4,5.17-35.19,5.17s-34.26-2.3-35.19-5.2l-.03-.41h0c.02-.09.04-.18.08-.26,1.29-2.85,16.52-5.1,35.14-5.1s33.86,2.24,35.15,5.1c.04.07.07.15.07.22Z"/>
                <path class="cls-26" d="M112.25,60.18l-1.82,26.69c-.09,1.39-.55,2.76-1.31,3.93l-3.25,5.01-4.02,61.28c-2.86.97-11.45,2.36-24.79,2.36-7.41,0-14.33-.44-19.52-1.22-2.81-.43-4.4-.86-5.25-1.15l-4.02-61.26-3.25-5.01c-.76-1.17-1.22-2.53-1.31-3.94l-1.83-26.7c.86,2.66,13.93,4.82,30.68,5.15,1.48.03,2.98.05,4.52.05.4,0,.8,0,1.2,0,18.25-.08,32.99-2.34,34-5.16Z"/>
                <path class="cls-19" d="M101.84,156.98c0,1.47-11.09,2.66-24.78,2.66s-24.78-1.19-24.78-2.66,11.09-2.66,24.78-2.66,24.78,1.19,24.78,2.66Z"/>
                <path class="cls-9" d="M117.4,39.73s0,.09,0,.14c-.55,2.96-18.4,5.34-40.34,5.34s-39.77-2.37-40.33-5.34c0-.05,0-.09,0-.14,0-3.03,18.05-5.49,40.34-5.49s40.35,2.46,40.35,5.49Z"/>
                <path class="cls-20" d="M37.31,40.67c3.25-2.59,19.8-4.56,39.75-4.56s36.5,1.97,39.76,4.56c.33-.26.53-.53.58-.8,0-.05,0-.09,0-.14,0-3.03-18.06-5.49-40.35-5.49s-40.34,2.46-40.34,5.49c0,.05,0,.09,0,.14.05.27.25.54.58.8Z"/>
                <g>
                  <path class="cls-3" d="M57.9,161.9c-5.14-.78-8.32-1.86-8.32-3.06l-4.06-61.83-2.72-4.19c-1.11-1.71-1.77-3.67-1.91-5.71l-3.16-46.16c-.59-.35-.94-.72-1.01-1.09l3.24,47.25c.14,2.04.79,4,1.91,5.71l2.72,4.19,4.06,61.83c0,1.2,3.18,2.28,8.32,3.06,5.13.79,12.24,1.27,20.08,1.27.21,0,.42,0,.62,0-7.72-.01-14.71-.49-19.77-1.27Z"/>
                  <path class="cls-3" d="M77.99,45.21c19.17,0,35.21-1.81,39.33-4.25l.07-1.09c-.55,2.94-18.15,5.3-39.87,5.34.16,0,.31,0,.47,0Z"/>
                </g>
                <path class="cls-20" d="M115.24,41.5l-3,43.74c-.14,2.04-.79,4-1.91,5.71l-2.72,4.19-4.06,61.83c0,2.39-12.73,4.33-28.41,4.33-7.84,0-14.95-.49-20.08-1.27-2.79-.42-4.99-.93-6.43-1.5l.02.32c0,1.2,3.18,2.28,8.32,3.06,5.13.79,12.24,1.27,20.08,1.27,15.69,0,28.41-1.94,28.41-4.33l4.06-61.83,2.72-4.19c1.11-1.71,1.77-3.67,1.91-5.71l3.24-47.25c-.11.57-.86,1.12-2.15,1.63Z"/>
                <g class="cls-6">
                  <g>
                    <path class="cls-20" d="M104.43,91.66c1.1.12,2.19.31,3.26.65.53.18,1.06.37,1.57.67.26.14.5.32.74.54.24.23.45.48.55.94v.02s0,.05,0,.05l-.02.47v.06s-.02.05-.02.05c-.19.51-.54.83-.87,1.08-.34.25-.7.44-1.06.6-.72.34-1.46.56-2.21.76-1.49.38-3.01.58-4.53.66.72-.25,1.45-.45,2.17-.69.72-.23,1.44-.45,2.14-.71.71-.24,1.39-.52,2.05-.83.62-.31,1.3-.73,1.47-1.17l-.02.12.03-.47v.08c-.04-.23-.41-.66-.83-.91-.42-.28-.89-.53-1.38-.75-.98-.45-2-.84-3.03-1.24Z"/>
                    <path class="cls-20" d="M51.7,98.12c-.72-.03-1.43-.12-2.14-.22-.71-.11-1.41-.25-2.11-.44-.7-.19-1.39-.42-2.06-.74-.34-.16-.67-.35-.99-.59-.32-.24-.64-.55-.8-1.05l-.02-.05v-.05s-.03-.44-.03-.44v-.05s0-.04,0-.04c.04-.12.08-.24.12-.36l-.02.03c.33-.66.87-.95,1.34-1.24.49-.27,1.01-.45,1.52-.62,1.03-.31,2.09-.5,3.15-.6-.99.39-1.98.77-2.92,1.2-.47.21-.93.45-1.35.71-.41.26-.8.59-.93.9l-.02.03s-.02.09-.03.13v-.09s.04.38.04.38l-.02-.1c.14.39.75.82,1.33,1.11.6.31,1.24.57,1.9.81.65.25,1.32.47,1.99.69.67.24,1.35.43,2.03.68Z"/>
                  </g>
                </g>
                <g class="cls-7">
                  <path class="cls-20" d="M55.5,98.12c2.55.03,5.08.13,7.62.23l7.61.33,7.6.34c1.27.06,2.53.09,3.8.12l1.9.04c.63-.01,1.27-.01,1.91,0-2.52.41-5.07.5-7.62.56-2.55.06-5.09-.01-7.63-.12-2.54-.13-5.08-.29-7.61-.55-2.53-.25-5.06-.53-7.57-.94Z"/>
                </g>
                <g>
                  <path class="cls-17" d="M63.26,143.81c0,.81-.66,1.47-1.47,1.47s-1.47-.66-1.47-1.47.66-1.47,1.47-1.47,1.47.66,1.47,1.47Z"/>
                  <path class="cls-17" d="M91.99,147.47c0,.81-.66,1.47-1.47,1.47s-1.47-.66-1.47-1.47.66-1.47,1.47-1.47,1.47.66,1.47,1.47Z"/>
                  <path class="cls-17" d="M54.64,111.26c0,.81-.66,1.47-1.47,1.47s-1.47-.66-1.47-1.47.66-1.47,1.47-1.47,1.47.66,1.47,1.47Z"/>
                  <path class="cls-17" d="M87.41,102.83c0,.81-.66,1.47-1.47,1.47s-1.47-.66-1.47-1.47.66-1.47,1.47-1.47,1.47.66,1.47,1.47Z"/>
                  <path class="cls-17" d="M88.29,78.96c0,.81-.66,1.47-1.47,1.47s-1.47-.66-1.47-1.47.66-1.47,1.47-1.47,1.47.66,1.47,1.47Z"/>
                  <path class="cls-17" d="M53.83,87.55c0,.81-.66,1.47-1.47,1.47s-1.47-.66-1.47-1.47.66-1.47,1.47-1.47,1.47.66,1.47,1.47Z"/>
                  <path class="cls-17" d="M69.31,134.58c0,.51-.41.92-.92.92s-.92-.41-.92-.92.41-.92.92-.92.92.41.92.92Z"/>
                  <path class="cls-17" d="M83.92,151.14c0,.51-.41.92-.91.92s-.92-.41-.92-.92.41-.92.92-.92.91.41.91.92Z"/>
                  <path class="cls-17" d="M99.17,138.16c0,.51-.41.92-.92.92s-.92-.41-.92-.92.41-.92.92-.92.92.41.92.92Z"/>
                  <path class="cls-17" d="M81.58,124.15c0,.51-.41.92-.91.92s-.92-.41-.92-.92.41-.92.92-.92.91.41.91.92Z"/>
                  <path class="cls-17" d="M99.17,112.18c0,.51-.41.92-.92.92s-.92-.41-.92-.92.41-.92.92-.92.92.41.92.92Z"/>
                  <path class="cls-17" d="M75.77,90.75c0,.51-.41.92-.92.92s-.92-.41-.92-.92.41-.92.92-.92.92.41.92.92Z"/>
                  <path class="cls-17" d="M104.9,84.3c0,.51-.41.92-.92.92s-.91-.41-.91-.92.41-.92.91-.92.92.41.92.92Z"/>
                </g>
                <path class="cls-2" d="M79.7,163.15c3.57-.05,6.95-.2,10.01-.43-2.79-.21-5.33-.49-7.5-.82-5.14-.78-8.32-1.86-8.32-3.06l-4.06-61.83-2.72-4.19c-1.11-1.71-1.77-3.67-1.91-5.71l-2.9-42.29c-8.29-.44-15.23-1.25-19.79-2.27l3.05,44.55c.14,2.04.79,4,1.91,5.71l2.72,4.19,4.06,61.83c0,1.2,3.18,2.28,8.32,3.06,4.48.69,10.46,1.14,17.12,1.25Z"/>
                <path class="cls-1" d="M52.87,137.71h0c4.05,0,7.26-3.42,6.99-7.46l-2.18-33.23-2.72-4.19c-1.11-1.71-1.77-3.67-1.91-5.71l-2.97-43.31c-2.95-.36-5.5-.78-7.56-1.24l3.05,44.55c.14,2.04.79,4,1.91,5.71l2.72,4.19,2.67,40.69Z"/>
                <path class="cls-2" d="M103.09,43.91l-2.96,43.2c-.14,2.04-.79,4-1.91,5.71l-2.72,4.19-4.06,61.83c0,2.02-9.06,3.71-21.32,4.19,1.6.06,3.27.1,4.96.12,14.42-.21,25.71-2.05,25.71-4.31l4.06-61.83,2.72-4.19c1.11-1.71,1.77-3.67,1.91-5.71l3.07-44.78c-2.41.6-5.62,1.14-9.46,1.58Z"/>
                <path class="cls-11" d="M82.15,47.03l-3.9,18.31c-.39,0-.79,0-1.2,0-1.53,0-3.04-.02-4.52-.05-.05-.04-.07-.08-.11-.12l3.86-18.1h.77c1.73,0,3.43-.02,5.1-.05Z"/>
                <path class="cls-8" d="M91.88,1.37l-9.33,43.8-.4,1.87c-1.66.03-3.37.05-5.1.05h-.77l.39-1.87L86.28.19c0,.27,1.19.75,2.7,1.07,1.54.33,2.84.38,2.9.11Z"/>
                <path class="cls-25" d="M91.88,1.37c-.06.27-1.36.22-2.9-.11-1.51-.32-2.7-.79-2.7-1.07v-.02l5.6,1.2Z"/>
                <path class="cls-11" d="M91.88,1.37c-.06.27-1.36.22-2.9-.11-1.51-.32-2.7-.79-2.7-1.07v-.02c.06-.26,1.36-.22,2.91.11,1.54.34,2.75.81,2.69,1.08Z"/>
                <path class="cls-3" d="M117.31,40.08l-.14,2.09c-1.95,2.53-16.53,4.54-35.02,4.85-1.66.03-3.37.05-5.1.05h-.77c-20.5-.06-37.23-2.18-39.34-4.9l-.15-2.09c1.34,2.84,18.63,5.1,39.88,5.12h.37c1.86,0,3.7-.02,5.5-.05,18.83-.36,33.53-2.47,34.75-5.08Z"/>
              </g>
              <g>
                <path class="cls-23" d="M99.19,96.2c-8.66,16.67-.91,22.1-.58,22.7s-3.33-1.25-3.33-1.25c3.78,8.51,8.32,10.66,8.32,10.66l-3.78-.45c2.56,5.46,10.03,8.73,10.03,8.73,0,0,8.56-6.01,6.75-15.02l-2.38,3.35s2.57-9.39-.35-16.35l-2.08,3.9c1.15-6.95-2.25-12.07-12.59-16.27Z"/>
                <g>
                  <path class="cls-15" d="M109.85,136.59c-.39-3.49-.94-6.95-1.54-10.39-.63-3.44-1.35-6.85-2.22-10.23-.82-3.39-1.86-6.72-2.99-10.02l-.88-2.47-.97-2.43c-.58-1.66-1.41-3.2-2.07-4.84,1.84,2.99,3.52,6.11,4.8,9.4,1.32,3.27,2.42,6.64,3.28,10.06,1.7,6.84,2.71,13.88,2.58,20.93Z"/>
                  <path class="cls-15" d="M114.21,124.91c-.57.19-1.08.4-1.54.72-.45.32-.85.68-1.2,1.09-.35.41-.67.85-.95,1.32-.29.45-.54.97-.75,1.43l-.57,1.25-.54-1.22s-.17-.25-.31-.35c-.15-.12-.32-.23-.51-.33-.38-.18-.82-.31-1.28-.39-.46-.07-.95-.11-1.44-.12h-1.52c.46-.23.95-.42,1.45-.56.51-.13,1.03-.22,1.58-.22.54-.02,1.11.07,1.66.27.28.1.55.24.8.43.26.21.46.38.68.78l-1.11.03c.23-.62.55-1.12.89-1.64.36-.5.77-.97,1.24-1.38.48-.4,1.03-.73,1.61-.94.59-.2,1.22-.26,1.81-.16Z"/>
                  <path class="cls-15" d="M112.08,111.9c-1.25,1.06-1.94,2.49-2.51,3.94-.27.73-.53,1.48-.72,2.24-.21.75-.41,1.53-.53,2.28l-.17.98-.8-.61c-.57-.43-1.27-.83-1.95-1.15-.69-.34-1.41-.58-2.15-.78-.74-.2-1.51-.27-2.28-.27-.79-.02-1.55.17-2.35.35.68-.43,1.45-.8,2.28-.94.82-.15,1.68-.2,2.52-.07.84.1,1.66.35,2.44.66.78.33,1.51.72,2.23,1.25l-.97.37c.17-.84.37-1.62.63-2.41.27-.78.56-1.56.96-2.29.38-.74.82-1.45,1.38-2.08.56-.62,1.21-1.18,1.98-1.47Z"/>
                  <path class="cls-15" d="M107.49,101.44c-.52.5-.73,1.18-.95,1.83-.2.67-.34,1.35-.48,2.03-.25,1.37-.47,2.77-.63,4.15l-.12.96-.82-.54c-1.37-.91-2.79-1.8-4.24-2.59-.72-.4-1.47-.77-2.23-1.09-.76-.32-1.54-.6-2.4-.66.84-.23,1.74-.12,2.58.05.85.18,1.68.46,2.47.8,1.59.68,3.08,1.52,4.5,2.51l-.93.42c.2-1.44.5-2.85.95-4.23.22-.69.5-1.37.84-2.02.35-.63.78-1.31,1.46-1.62Z"/>
                </g>
              </g>
              <g>
                <path class="cls-23" d="M156.65,117.58c-17.69,6.32-15.71,15.57-15.87,16.24-.16.66-1.59-3.19-1.59-3.19-3.02,8.81-1.16,13.48-1.16,13.48l-2.47-2.91c-1.84,5.74,1.41,13.22,1.41,13.22,0,0,10.36,1.43,15.17-6.41l-4.03.83s8.27-5.13,10.87-12.22l-4.18,1.44c5.58-4.31,6.57-10.37,1.85-20.49Z"/>
                <g>
                  <path class="cls-15" d="M136.97,154.43c2.09-2.83,4.04-5.73,5.95-8.66,1.88-2.95,3.68-5.94,5.34-9.01,1.71-3.04,3.21-6.19,4.64-9.38l1.04-2.41.95-2.44c.7-1.61,1.14-3.3,1.78-4.95-.69,3.44-1.58,6.88-2.88,10.16-1.26,3.3-2.74,6.51-4.45,9.6-3.41,6.17-7.47,12.02-12.35,17.09Z"/>
                  <path class="cls-15" d="M148.11,148.85c-.55-.24-1.07-.44-1.62-.52-.54-.07-1.08-.08-1.62-.02-.54.06-1.07.17-1.59.32-.52.13-1.06.34-1.52.54l-1.26.53.43-1.26s.04-.3,0-.47c-.03-.19-.07-.39-.15-.59-.16-.39-.39-.79-.68-1.16-.29-.37-.62-.73-.97-1.07l-1.11-1.04c.5.15.98.34,1.44.59.46.25.91.54,1.31.91.41.35.77.8,1.03,1.33.13.26.24.55.29.86.05.33.08.59-.04,1.04l-.83-.73c.59-.3,1.16-.45,1.77-.6.6-.13,1.23-.19,1.85-.17.63.03,1.25.17,1.82.41.57.26,1.07.65,1.44,1.11Z"/>
                  <path class="cls-15" d="M155.4,137.86c-1.64-.07-3.11.5-4.52,1.18-.7.35-1.39.72-2.06,1.15-.66.41-1.34.85-1.94,1.31l-.79.61-.17-.99c-.12-.7-.36-1.47-.64-2.17-.27-.72-.64-1.39-1.04-2.04-.41-.65-.92-1.23-1.49-1.75-.56-.55-1.25-.93-1.96-1.34.79.15,1.61.4,2.31.86.71.45,1.37,1,1.9,1.66.55.65.97,1.39,1.34,2.15.35.78.61,1.55.79,2.43l-.96-.39c.69-.5,1.38-.93,2.1-1.34.73-.39,1.47-.76,2.26-1.03.78-.28,1.59-.5,2.43-.58.83-.07,1.69-.04,2.46.27Z"/>
                  <path class="cls-15" d="M159.16,127.08c-.72.01-1.34.36-1.94.69-.6.35-1.17.76-1.74,1.16-1.12.84-2.23,1.71-3.29,2.61l-.74.62-.23-.95c-.39-1.6-.82-3.22-1.35-4.79-.26-.79-.55-1.56-.89-2.31-.34-.75-.73-1.49-1.31-2.11.77.4,1.35,1.1,1.86,1.8.5.71.91,1.48,1.27,2.26.7,1.58,1.23,3.21,1.59,4.9l-.97-.33c1.13-.92,2.31-1.75,3.58-2.45.63-.35,1.3-.66,1.99-.91.69-.22,1.46-.43,2.17-.2Z"/>
                </g>
              </g>
              <g>
                <path class="cls-23" d="M86.35,146.49c16.6,18.14,36.79,24.07,60.57,17.79,1.46-.39,2.35-1.87,1.98-3.34l-14.39-57.95c-.51-2.05-3.03-2.79-4.57-1.34l-43.45,40.96c-1.1,1.04-1.16,2.77-.14,3.88Z"/>
                <path class="cls-8" d="M88.6,144.08c15.82,17.29,35.07,22.94,57.73,16.96,1.39-.37,2.24-1.79,1.89-3.18l-13.72-55.23c-.48-1.95-2.89-2.66-4.35-1.28l-41.41,39.04c-1.05.99-1.1,2.64-.13,3.7Z"/>
                <path class="cls-21" d="M92.01,140.74c14.6,15.96,32.36,21.17,53.27,15.65,1.28-.34,2.06-1.65,1.74-2.94l-12.66-50.97c-.45-1.8-2.67-2.45-4.02-1.18l-38.22,36.03c-.97.91-1.02,2.43-.12,3.41Z"/>
                <path class="cls-4" d="M125.68,135.06c3.87,7.97,9.86,1.24,15.32-5.85l-6.64-26.74c-.45-1.8-2.67-2.45-4.02-1.18l-21.73,20.49c.21.28.41.46.56.5,9.73,2.86,11.11,4.15,16.51,12.78Z"/>
                <g>
                  <path class="cls-12" d="M130.56,106.26c-.6.61-1.55,1.88-1.01,3.51.08.25.38.38.61.25.72-.39,2-1.43,1.1-3.61-.12-.28-.49-.36-.7-.14Z"/>
                  <path class="cls-16" d="M130.87,106.86c-.13.22-.3.65-.02,1.07.04.06.13.08.19.02.17-.16.46-.55.04-1.1-.05-.07-.16-.07-.21.01Z"/>
                </g>
                <g>
                  <path class="cls-12" d="M121.7,116.52c-.6.61-1.55,1.88-1.01,3.51.08.25.38.38.61.25.72-.39,2-1.43,1.1-3.61-.12-.28-.49-.36-.7-.14Z"/>
                  <path class="cls-16" d="M122.01,117.12c-.13.22-.3.65-.02,1.07.04.07.13.08.19.03.17-.16.46-.55.04-1.1-.05-.07-.16-.07-.21.01Z"/>
                </g>
                <g>
                  <path class="cls-12" d="M134.66,136.18c-.6.61-1.55,1.88-1.01,3.51.08.25.38.38.61.25.72-.39,2-1.43,1.1-3.61-.12-.28-.49-.36-.7-.14Z"/>
                  <path class="cls-16" d="M134.96,136.78c-.13.22-.3.65-.02,1.07.04.07.13.08.19.03.17-.16.46-.55.04-1.1-.05-.07-.16-.07-.21.01Z"/>
                </g>
                <g>
                  <path class="cls-12" d="M131.83,120.09c-.6.61-1.55,1.88-1.01,3.51.08.25.38.38.61.25.72-.39,2-1.43,1.1-3.61-.12-.28-.49-.36-.7-.14Z"/>
                  <path class="cls-16" d="M132.13,120.7c-.13.22-.3.65-.02,1.07.04.07.13.08.19.03.17-.16.46-.55.04-1.1-.05-.07-.16-.07-.21.01Z"/>
                </g>
                <g>
                  <path class="cls-12" d="M110.59,127.02c-.6.61-1.55,1.88-1.01,3.51.08.25.38.38.61.25.72-.39,2-1.43,1.1-3.61-.12-.28-.49-.36-.7-.14Z"/>
                  <path class="cls-16" d="M110.89,127.62c-.13.22-.3.65-.02,1.07.04.07.13.08.19.03.17-.16.46-.55.04-1.1-.05-.07-.16-.07-.21.01Z"/>
                </g>
                <g>
                  <path class="cls-12" d="M122.69,133.92c-.6.61-1.55,1.88-1.01,3.51.08.25.38.38.61.25.72-.39,2-1.43,1.1-3.61-.12-.28-.49-.36-.7-.14Z"/>
                  <path class="cls-16" d="M123,134.53c-.13.22-.3.65-.02,1.07.04.06.13.08.19.03.17-.16.46-.55.04-1.1-.05-.07-.16-.07-.21.01Z"/>
                </g>
              </g>
            </g>
          </g>
          <g>
            <path class="cls-22" d="M70.99,143.34c0,6.58-7.27,26.63-35.48,26.63C5.7,169.96,0,149.92,0,143.34s15.89-11.95,35.5-11.95,35.48,5.35,35.48,11.95Z"/>
            <path class="cls-18" d="M35.5,131.38c-19.61,0-35.5,5.35-35.5,11.95s15.89,11.94,35.5,11.94,35.49-5.35,35.49-11.94-15.88-11.95-35.49-11.95ZM66.76,144.21c-3.09,2.68-13.36,6.86-31.26,6.86s-28.07-4.14-31.21-6.82c-.52-.44-.52-1.39,0-1.84,3.14-2.67,13.41-6.83,31.21-6.83s28.17,4.2,31.26,6.88c.49.4.49,1.32,0,1.75Z"/>
            <path class="cls-24" d="M66.76,144.21c-3.09,2.68-13.36,6.86-31.26,6.86s-28.07-4.14-31.21-6.82c-.52-.44-.52-1.39,0-1.84,3.14-2.67,13.41-6.83,31.21-6.83s28.17,4.2,31.26,6.88c.49.4.49,1.32,0,1.75Z"/>
            <g>
              <path class="cls-13" d="M66.94,142.87c-.46,1.32-1.82,2.51-3.31,3.14-6.25,2.68-12.79,3.87-19.52,4.56-7.85.81-15.77.59-23.57-.56-4.61-.68-9.64-1.35-13.65-3.87-3.26-2.04-4.18-5.99-1.16-8.85.02-.02.05-.04.07-.06,1.43-1.32,3.23-1.8,4.96-2.24-.52-.81-.75-1.69-.75-2.56,0-.63.12-1.26.32-1.86.44-1.35,1.3-2.57,2.23-3.41,2.22-2.01,5.49-2.41,8.16-2.62.03,0,.06,0,.09,0-.45-1.01-.48-2.29-.09-3.33.17-.45.42-.86.71-1.22,1.17-1.45,3.15-2.2,4.61-2.4,1.77-.25,3.77-.23,4.46-2.8.24-.89.15-1.92-.25-2.72-.22-.44-.54-.91-.43-1.41.08-.36.38-.58.67-.63s.59.05.88.15c3.85,1.36,7.73,2.95,11.09,5.66.38.3.75.61,1.11.95.27.25.53.5.78.78.6.65,1.13,1.38,1.47,2.26.49,1.26.52,2.88-.19,3.97,3.75-.97,8.98.83,10.03,3.28.11.27.21.55.29.84.26,1.02.27,2.12.04,3.15,0,0,0,.01,0,.02,2.29.62,4.83,1.69,6.43,3.5.3.34.57.71.8,1.11.56.96.56,1.87.22,2.63.65.29,1.3.55,1.88.91.05.03.1.07.15.1,1.59,1.07,1.89,2.35,1.47,3.53Z"/>
              <path class="cls-24" d="M66.94,142.87c-.46,1.32-1.82,2.51-3.31,3.14-6.25,2.68-12.79,3.87-19.52,4.56-7.85.81-15.77.59-23.57-.56-4.61-.68-9.64-1.35-13.65-3.87-3.26-2.04-4.18-5.99-1.16-8.85.02-.02.05-.04.07-.06,0,1.9-.38,3.8,1.69,5.69,3.67,3.36,8.59,4.26,13.12,5.19,7.73,1.58,15.65,1.88,23.48.77,6.67-.95,13.06-2.56,18.93-6.13,1.26-.77,1.97-1.98,2.44-3.42,1.59,1.07,1.89,2.35,1.47,3.53Z"/>
              <path class="cls-24" d="M63.43,138.32c-1.43.93-2.99,1.66-4.15,2.18-4.31,1.92-9,2.57-13.67,2.86-10.61.68-21.39-.3-31.59-3.36-.03-.01-.02-.06.01-.05,9.38,1.87,18.91,2.81,28.46,1.94,5.02-.46,10.44-1.11,14.98-3.46,1.9-.98,3.5-2.24,4.91-3.84h.01c.3.33.57.7.8,1.1.56.96.56,1.87.22,2.63Z"/>
              <path class="cls-24" d="M51.63,135.35c-8.12,1.8-17.16,2.61-25.46,2.29-5.1-.19-10.48-.95-15.43-2.68-.89-1.4-.89-2.97-.41-4.39,5.69,2.15,11.41,3.58,17.64,4.3,7.93.91,15.73.11,23.66.44.03,0,.03.04,0,.05Z"/>
              <path class="cls-24" d="M55.99,131.07c-3.52.99-7.59.09-10.93-1.35-.05-.02-.02-.09.03-.1,3.99-.23,7.44-.14,10.87-1.7.26,1.02.27,2.12.04,3.15Z"/>
              <path class="cls-24" d="M37.85,123.99c-3.41,1.92-8.72,1.6-12.49,1.26-1.22-.11-2.97-.29-4.64-.7.03,0,.06,0,.09,0-.45-1.01-.48-2.29-.09-3.33.17-.45.42-.86.71-1.22,1.57.61,3.11,1.41,4.4,1.82,2.26.71,4.52,1.33,6.88,1.55,1.75.15,3.43.03,5.13.5.07.02.08.11.02.14Z"/>
              <path class="cls-24" d="M45.68,126.27c-4.75,1.28-9.16,2.72-14.15,2.89-4.55.15-8.79-1.02-13.27-1.43-.05,0-.07.07-.03.1,7.52,4.01,20.3,2.83,27.54-1.32.13-.07.04-.28-.1-.24Z"/>
              <path class="cls-24" d="M44.35,117.57c-.57.95-1.39,1.77-2.25,2.33-2.23,1.46-5.45,1.88-7.98,1.08-.03,0-.03-.04,0-.05,1.95-.68,3.99-.77,5.83-1.83,1.5-.87,2.2-1.93,2.51-3.27.38.3.75.61,1.11.95.27.25.53.5.78.78Z"/>
            </g>
          </g>
        </g>
      </g>
    </g>
  </g>
</svg>